<?xml version="1.0" encoding="UTF-8" standalone="no"?>
<svg width="257px" height="200px" viewBox="0 0 257 200" version="1.1" xmlns="http://www.w3.org/2000/svg" xmlns:xlink="http://www.w3.org/1999/xlink">
    <!-- Generator: sketchtool 3.8.3 (29802) - http://www.bohemiancoding.com/sketch -->
    <title>28128D89-717D-448E-9779-C0FD080FBF09</title>
    <desc>Created with sketchtool.</desc>
    <defs></defs>
    <g id="Page-1" stroke="none" stroke-width="1" fill="none" fill-rule="evenodd">
        <g id="FULL-LOGO" transform="translate(-4131.000000, -387.000000)">
            <g id="icon_club_PortAdelaide" transform="translate(4131.000000, 387.000000)">
                <polygon id="Fill-1" fill="#121313" points="68.9006112 0.655 68.9006112 105.318158 57.330101 108.699737 64.7304888 117.040526 0.000131632653 139.412895 68.9006112 132.049737 68.9006112 199.273421 117.379601 199.289211 185.508713 199.289211 215.563081 199.289211 215.563081 104.312895 229.148887 102.768158 215.563081 87.3063158 215.563081 86.6339474 246.517815 83.1168421 256.987877 39.7431579 215.563081 51.6457895 215.563081 0.673421053"></polygon>
                <polygon id="Fill-2" fill="#0099B0" points="77.8291224 102.718289 77.8383367 53.4077632 206.654051 53.4077632 206.654051 54.2051316 168.269969 65.2222368 176.374592 74.1932895 166.462653 77.0182895 163.296888 73.6261842 150.997133 68.6498684 145.076296 72.7406579 137.807541 70.2932895 129.190867 77.3327632 122.340704 76.6617105 115.839367 83.3025 109.814541 82.0577632 100.663439 91.9617105 101.325551 95.8630263"></polygon>
                <path d="M86.6577245,18.0894737 L89.9340612,18.0894737 L89.9340612,25.8105263 L86.6577245,25.8105263 L86.6577245,18.0894737 Z M86.6577245,43.0776316 L86.6577245,32.9434211 L94.2489796,32.9434211 L98.8403265,28.7039474 L98.8403265,15.0947368 L94.4227347,10.9421053 L77.8383367,10.9421053 L77.8383367,43.0776316 L86.6577245,43.0776316 Z" id="Fill-3" fill="#FEFEFE"></path>
                <path d="M111.858796,18.0460526 L115.091694,18.0460526 L115.091694,35.9421053 L111.858796,35.9421053 L111.858796,18.0460526 Z M107.50702,43.0776316 L119.509286,43.0776316 L123.920296,38.8802632 L123.920296,15.1802632 L119.509286,10.9421053 L107.50702,10.9421053 L103.099959,15.1802632 L103.099959,38.8802632 L107.50702,43.0776316 Z" id="Fill-4" fill="#FEFEFE"></path>
                <polygon id="Fill-5" fill="#FEFEFE" points="131.41796 43.0773684 141.327266 43.0773684 143.457083 26.0142105 145.576368 43.0773684 155.483042 43.0773684 159.707134 10.9418421 151.672277 10.9418421 150.007123 27.3721053 148.03395 10.9418421 139.014481 10.9418421 136.803052 26.7063158 135.18397 10.9418421 127.143848 10.9418421"></polygon>
                <polygon id="Fill-6" fill="#FEFEFE" points="181.330956 43.0773684 181.330956 35.0484211 171.994252 35.0484211 171.994252 30.5852632 180.633303 30.5852632 180.633303 22.8576316 171.994252 22.8576316 171.994252 18.6668421 181.425732 18.6668421 181.425732 10.9418421 163.186711 10.9418421 163.186711 43.0773684"></polygon>
                <path d="M194.503041,17.6789474 L197.970245,17.6789474 L197.970245,23.2684211 L194.503041,23.2684211 L194.503041,17.6789474 Z M194.503041,43.0776316 L194.503041,30.1394737 L197.970245,30.1394737 L197.970245,43.0776316 L206.739612,43.0776316 L206.739612,30.0052632 L203.185531,26.6578947 L206.789633,23.1276316 L206.789633,15.1802632 L202.3365,10.9421053 L185.684969,10.9421053 L185.684969,43.0776316 L194.503041,43.0776316 Z" id="Fill-7" fill="#FEFEFE"></path>
                <polygon id="Fill-8" fill="#FEFEFE" points="86.7451286 130.1475 86.7451286 190.388289 77.8388633 190.388289 77.8138531 131.100132"></polygon>
                <polygon id="Fill-9" fill="#FEFEFE" points="103.874749 128.328684 103.874749 190.387895 94.9698 190.387895 94.9698 129.272105"></polygon>
                <polygon id="Fill-10" fill="#FEFEFE" points="117.858744 190.388553 112.099815 190.388553 112.086652 174.975395"></polygon>
                <polygon id="Fill-11" fill="#FEFEFE" points="112.086915 166.04 112.061905 137.118947 112.061905 116.943947 118.257854 135.671579 123.063762 137.053158"></polygon>
                <polygon id="Fill-12" fill="#FEFEFE" points="172.387307 128.599211 172.387307 165.722895 164.852654 156.829474 161.826419 137.732105"></polygon>
                <polygon id="Fill-13" fill="#FEFEFE" points="189.516928 107.281184 189.516928 190.389079 181.813785 190.389079 180.609346 184.703553 180.609346 108.287763"></polygon>
                <polygon id="Fill-14" fill="#FEFEFE" points="206.653656 105.327368 206.653656 190.387895 197.739493 190.387895 197.739493 106.343158"></polygon>
                <polygon id="Fill-15" fill="#FEFEFE" points="248.348036 48.1651316 241.130617 78.1993421 202.812352 82.4467105 216.853607 98.5177632 180.609872 102.499342 178.881536 99.9848684 163.502893 92.0625 163.476566 83.6861842 187.098046 76.6177632 179.285648 68.0519737"></polygon>
                <polygon id="Fill-16" fill="#AEAFAF" points="158.246406 101.272763 162.490243 98.4780263 174.43459 104.634605 169.511529 119.700395 157.453978 106.493816"></polygon>
                <polygon id="Fill-17" fill="#AEAFAF" points="163.477093 125.571842 152.513409 131.26 139.161909 126.966579 125.281246 129.506053 118.727256 115.557368 133.962419 112.892895 127.218879 117.690263 129.223644 121.271842 137.588899 116.462632 153.124185 110.481053"></polygon>
                <polygon id="Fill-18" fill="#AEAFAF" points="138.130699 107.324211 132.570536 101.391316 135.022852 80.5373684 139.074505 77.2228947 142.751005 78.4623684 139.357515 99.2465789 135.994301 100.092632 141.114811 106.946579"></polygon>
                <polygon id="Fill-19" fill="#AEAFAF" points="127.072371 108.559737 120.137963 103.843947 121.102831 86.7360526 124.685871 83.0807895 128.507167 83.4518421 127.305361 102.215 124.335729 102.887368 130.317116 108.143947"></polygon>
                <polygon id="Fill-20" fill="#AEAFAF" points="113.294645 110.118289 109.42991 107.6025 107.254022 93.9156579 111.974369 88.7998684 115.163829 89.4551316 115.635073 104.999868 112.519329 105.743289 116.746053 109.720921"></polygon>
                <polygon id="Fill-21" fill="#AEAFAF" points="150.606184 76.4140789 151.759286 75.6153947 157.153592 77.7969737 154.836857 95.3785526 149.737408 96.7811842 150.808898 105.849605 148.356582 106.156184 144.982837 98.6022368"></polygon>
                <polygon id="Fill-22" fill="#FEFEFE" points="102.227366 101.338289 67.9870806 111.243553 75.5375296 119.446184 43.9680704 129.025132 99.573652 121.915921 91.0227949 112.661974 103.989928 111.102763"></polygon>
                <polygon id="Fill-23" fill="#AEAFAF" points="168.964727 190.388553 167.595747 175.999079 154.206073 158.803026 153.204349 140.481974 139.585635 134.272763 129.617094 137.083289 121.725716 171.526711 132.068094 190.388553"></polygon>
            </g>
        </g>
    </g>
</svg>