<?xml version="1.0" encoding="UTF-8" standalone="no"?>
<svg width="233px" height="200px" viewBox="0 0 233 200" version="1.1" xmlns="http://www.w3.org/2000/svg" xmlns:xlink="http://www.w3.org/1999/xlink">
    <!-- Generator: sketchtool 3.8.3 (29802) - http://www.bohemiancoding.com/sketch -->
    <title>CD70DF76-9DF3-4097-BBCC-8C4AD636B4B8</title>
    <desc>Created with sketchtool.</desc>
    <defs>
        <polygon id="path-1" points="0 0.613934426 232.527437 0.613934426 232.527437 200 0 200"></polygon>
    </defs>
    <g id="Page-1" stroke="none" stroke-width="1" fill="none" fill-rule="evenodd">
        <g id="FULL-LOGO" transform="translate(-2922.000000, -387.000000)">
            <g id="icon_club_GWS" transform="translate(2922.000000, 387.000000)">
                <path d="M113.116906,67.1986885 L110.149437,71.3134426 C108.4848,73.6904918 105.743768,75.117541 102.829627,75.117541 L76.0272437,75.117541 L89.887462,55.7708197 C91.5742507,53.4691803 94.2726204,52.1003279 97.1145641,52.1003279 L160.565223,52.1003279 L197.448138,0.614262295 L102.231539,0.614262295 C65.4897366,0.614262295 35.7067577,30.3691803 35.7067577,67.0732787 C35.7067577,103.781475 65.4897366,133.537213 102.231539,133.537213 L149.761078,67.1847541 L113.116906,67.1986885 Z" id="Fill-1" fill="#EF7200"></path>
                <g id="Group-5">
                    <mask id="mask-2" fill="white">
                        <use xlink:href="#path-1"></use>
                    </mask>
                    <g id="Clip-4"></g>
                    <path d="M17.8245,180.727295 L25.4749401,180.727295 L25.4749401,188.451885 C25.4749401,188.94041 25.1492324,189.265 24.661081,189.265 L12.6156373,189.265 C12.1266655,189.265 11.8009577,188.94041 11.8009577,188.451885 L11.8009577,157.38959 C11.8009577,156.901885 12.1266655,156.576475 12.6156373,156.576475 L24.5782183,156.576475 C25.0680106,156.576475 25.3928979,156.901885 25.3928979,157.38959 L25.3928979,162.919098 L36.9501901,162.919098 L36.9501901,154.787951 C36.9501901,149.828934 32.9629366,145.842869 27.9985599,145.842869 L8.95163028,145.842869 C3.98725352,145.842869 0,149.828934 0,154.787951 L0,191.055164 C0,196.013361 3.98725352,200.000246 8.95163028,200.000246 L28.0797817,200.000246 C33.043338,200.000246 37.0330528,196.013361 37.0330528,191.055164 L37.0330528,170.480574 L17.8245,170.480574 L17.8245,180.727295 Z M55.1176268,145.842869 L43.316669,145.842869 L43.316669,199.999426 L55.1176268,199.999426 L55.1176268,145.842869 Z M87.7245,145.842869 L75.8423204,145.842869 L58.0990423,200.000246 L70.1436655,200.000246 L73.400743,189.265 L90.0848556,189.265 L93.5035563,200.000246 L105.549,200.000246 L87.7245,145.842869 Z M81.783,160.805164 L86.6677958,178.857623 L76.8990246,178.857623 L81.783,160.805164 Z M149.369408,145.842869 L137.97538,145.842869 L137.97538,177.555984 L119.904754,145.842869 L108.509905,145.842869 L108.509905,200.000246 L119.904754,200.000246 L119.904754,168.448607 L137.97538,200.000246 L149.369408,200.000246 L149.369408,145.842869 Z M153.505158,156.576475 L167.504028,156.576475 L167.504028,200.000246 L179.305806,200.000246 L179.305806,156.576475 L193.305496,156.576475 L193.305496,145.842869 L153.505158,145.842869 L153.505158,156.576475 Z M232.527437,178.451066 C232.527437,173.49123 229.839732,171.295328 225.204345,169.992869 C214.460092,166.983852 209.819782,165.683033 209.005923,165.44041 C208.516951,165.277295 208.111662,165.032213 208.111662,164.383033 L208.111662,157.38959 C208.111662,156.901885 208.435729,156.576475 208.925521,156.576475 L219.831398,156.576475 C220.318729,156.576475 220.645257,156.901885 220.645257,157.38959 L220.645257,161.943689 L232.200088,161.943689 L232.200088,154.787951 C232.200088,149.828934 228.215296,145.842869 223.249278,145.842869 L205.342736,145.842869 C200.378359,145.842869 196.391926,149.828934 196.391926,154.787951 L196.391926,166.903525 C196.391926,171.86418 199.15593,173.978115 203.960324,175.360082 C214.053162,178.207623 218.365303,179.425656 219.750176,179.833852 C220.400771,179.995328 220.807701,180.320738 220.807701,180.88959 L220.807701,188.451885 C220.807701,188.94041 220.483634,189.265 219.993021,189.265 L208.598993,189.265 C208.111662,189.265 207.785134,188.94041 207.785134,188.451885 L207.785134,183.817459 L196.228662,183.817459 L196.228662,191.055164 C196.228662,196.013361 200.216736,200.000246 205.181113,200.000246 L223.574986,200.000246 C228.540183,200.000246 232.527437,196.013361 232.527437,191.055164 L232.527437,178.451066 Z" id="Fill-3" fill="#EF7200" mask="url(#mask-2)"></path>
                </g>
            </g>
        </g>
    </g>
</svg>