<?xml version="1.0" encoding="UTF-8" standalone="no"?>
<svg width="307px" height="200px" viewBox="0 0 307 200" version="1.1" xmlns="http://www.w3.org/2000/svg" xmlns:xlink="http://www.w3.org/1999/xlink">
    <!-- Generator: sketchtool 3.8.3 (29802) - http://www.bohemiancoding.com/sketch -->
    <title>7DF417E1-8FE8-4A06-97B4-CCD8A5E3F313</title>
    <desc>Created with sketchtool.</desc>
    <defs>
        <polygon id="path-1" points="0 0.0357723577 306.597444 0.0357723577 306.597444 200 0 200"></polygon>
    </defs>
    <g id="Page-1" stroke="none" stroke-width="1" fill="none" fill-rule="evenodd">
        <g id="FULL-LOGO" transform="translate(-2507.000000, -387.000000)">
            <g id="icon_club_GoldCoast" transform="translate(2507.000000, 387.000000)">
                <path d="M110.861238,84.2775203 C107.748136,82.8880894 104.806628,81.3494715 102.126986,79.7234553 C98.7601515,77.6677642 95.6909648,75.4063821 93.0113224,73.0067886 C90.1092575,70.4141057 87.6357727,67.6303659 85.6608072,64.7319919 C83.2950774,61.2628862 81.6360575,57.6149187 80.7195303,53.9059756 C80.1579846,51.6299593 79.8737555,49.295813 79.8737555,46.9710163 C79.8737555,45.594187 79.9774442,44.2059756 80.1762826,42.840122 C80.7248164,39.0803659 82.0199091,35.3819919 84.0343171,31.8384959 C84.0574946,31.8006911 84.0757926,31.7588211 84.096937,31.7218293 C84.1359727,31.6636992 84.1644363,31.6177642 84.1855807,31.5840244 C85.9824456,28.4767073 88.3254045,25.4921545 91.151431,22.697439 C93.776586,20.097439 96.8270681,17.6555691 100.212201,15.440935 C102.905668,13.6702033 105.86466,12.0120732 108.991181,10.5112602 C111.809481,9.16613821 114.855084,7.91613821 118.062522,6.79865854 C120.682391,5.88890244 123.366913,5.07752033 126.047369,4.38117886 C128.601365,3.72182927 131.296865,3.12914634 134.073284,2.63565041 C136.334918,2.2153252 138.729925,1.86329268 141.190398,1.58321138 C143.702512,1.29174797 146.186569,1.07630081 148.565717,0.945813008 C150.890785,0.820609756 153.176003,0.755162602 155.372171,0.755162602 L155.406328,0.755162602 C157.767585,0.755162602 160.230091,0.832398374 162.72228,0.978333333 C164.989607,1.10882114 167.333786,1.31247967 169.698296,1.59337398 L169.800765,1.59621951 C170.855544,1.72264228 171.910322,1.86613821 172.954936,2.02426829 C170.497716,1.56126016 167.985195,1.17670732 165.427946,0.873861789 C163.113451,0.601504065 160.755854,0.396219512 158.369793,0.257601626 C155.976006,0.116544715 153.552129,0.0360569106 151.094909,0.0360569106 L151.057906,0.0360569106 C148.777567,0.0360569106 146.518373,0.102723577 144.294961,0.225487805 C141.809684,0.366544715 139.356937,0.573455285 136.951358,0.855162602 C134.548626,1.13402439 132.190215,1.48117886 129.867994,1.88971545 C127.138744,2.38321138 124.47252,2.96166667 121.875828,3.63565041 C119.143732,4.33280488 116.487267,5.1352439 113.937744,6.0153252 C110.78032,7.11898374 107.766027,8.34296748 104.91113,9.69987805 C101.787456,11.1880894 98.8622138,12.8222358 96.1638668,14.5848374 C92.7893065,16.7811789 89.7672879,19.1937805 87.1527052,21.7714228 C84.3628681,24.5197967 82.0280416,27.4661382 80.2307701,30.5628862 C80.1872615,30.6437805 80.1213886,30.7303659 80.0717807,30.8210163 C78.0996615,34.2893089 76.7887105,37.9393089 76.2320442,41.7226423 C76.0311727,43.0730488 75.9343966,44.4380894 75.9343966,45.8149187 C75.9343966,48.1576016 76.2190323,50.4596341 76.7732588,52.6954065 C77.7027979,56.4437805 79.3740164,60.0323984 81.6909515,63.4161382 C83.6764893,66.3124797 86.1341158,69.0665447 89.0044641,71.6210163 C91.6845131,74.0076016 94.7195436,76.2295528 98.0737727,78.2689837 C100.779439,79.9051626 103.686383,81.4132927 106.765736,82.7884959 C109.330304,83.9328049 112.026211,84.9775203 114.823774,85.9202033 C113.374165,85.3624797 112.068093,84.8177642 110.861238,84.2775203" id="Fill-1" fill="#007CBC"></path>
                <path d="M222.493594,46.7302846 C222.493594,67.4510163 192.458015,84.2436992 155.406572,84.2436992 C118.362854,84.2436992 88.3252419,67.4510163 88.3252419,46.7302846 C88.3252419,26.0160569 118.362854,9.21890244 155.406572,9.21890244 C192.458015,9.21890244 222.493594,26.0160569 222.493594,46.7302846" id="Fill-3" fill="#E1310F"></path>
                <path d="M224.843222,46.7445935 C224.843222,43.4092276 224.117401,40.0718293 222.699508,36.8242683 C221.137264,33.2779268 218.739818,29.8763008 215.569382,26.7242683 C213.085325,24.2559756 210.144631,21.940935 206.811546,19.845813 C203.913548,18.0214228 200.689844,16.3397154 197.234366,14.845813 C194.58888,13.7132927 191.775865,12.6726423 188.866075,11.7616667 C186.236447,10.9344309 183.507603,10.2059756 180.753955,9.59784553 C178.528917,9.09662602 176.222554,8.66044715 173.8983,8.29215447 C171.701725,7.94987805 169.426672,7.66329268 167.146333,7.44052846 C165.17706,7.25069106 163.195589,7.11410569 161.25112,7.01979675 C159.146848,6.91776423 157.240195,6.86654472 155.401042,6.86654472 C155.348587,6.86654472 155.294506,6.86654472 155.236359,6.87060976 L155.157881,6.87060976 C153.413064,6.87873984 151.582856,6.92670732 149.54893,7.01979675 C147.529236,7.1149187 145.468473,7.2649187 143.426822,7.46613821 C141.372971,7.66857724 139.372795,7.9153252 137.473461,8.20597561 C135.206948,8.55028455 132.91319,8.96979675 130.651555,9.46207317 C128.279726,9.9754878 125.948153,10.5636992 123.722708,11.2104472 C120.901561,12.0393089 118.161738,12.9889024 115.586191,14.0230488 C112.637771,15.1986585 109.855254,16.496626 107.340293,17.8775203 C103.970612,19.7254878 100.933549,21.7571951 98.3185595,23.9193902 C95.3571277,26.3657317 92.870631,29.0299593 90.9168098,31.845 C88.5238363,35.2856504 86.9798906,38.9161382 86.3276681,42.6287398 C86.1520072,43.6031301 86.0454721,44.6128862 86.0035899,45.6978455 L86.0035899,45.7002846 C85.9824456,45.9141057 85.9381237,46.3860569 85.9462562,47.141748 L101.580892,47.141748 L101.262506,51.1315854 L86.4032999,51.1315854 C86.5549701,51.9096341 86.7582813,52.7726423 87.0168932,53.7254878 L87.1734429,54.2100407 C88.2396072,57.4803659 90.0023158,60.6559756 92.4184668,63.649065 C94.5105396,66.241748 97.0702283,68.6856504 100.013769,70.899878 C102.64421,72.891748 105.621906,74.7486585 108.863095,76.4177642 C111.399199,77.7303659 114.104865,78.9315854 116.899989,79.9889024 C119.444226,80.9608537 122.142166,81.8429675 124.934036,82.6141057 C127.261544,83.2641057 129.59881,83.8323984 131.871423,84.293374 C134.091582,84.7437805 136.434134,85.141748 138.831987,85.4779268 C141.062312,85.7884959 143.091765,86.0157317 145.014276,86.1779268 C147.087644,86.3531301 149.260635,86.4840244 151.481201,86.546626 C152.854771,86.592561 154.142138,86.6108537 155.401042,86.6108537 C155.944289,86.6108537 156.470052,86.6055691 157.0133,86.5962195 L157.498401,86.5819919 C159.709614,86.546626 161.935059,86.4576016 164.122281,86.3002846 C166.302998,86.1413415 168.486154,85.9250813 170.617669,85.6559756 C173.163533,85.3344309 175.691912,84.9271138 178.110096,84.4515041 C180.719799,83.9352439 183.29006,83.3258943 185.755819,82.6535366 C188.842491,81.794187 191.864103,80.7893089 194.729165,79.6632927 C197.947175,78.4015041 200.995624,76.9836179 203.769197,75.4413415 C207.378378,73.4405285 210.628105,71.1876829 213.417129,68.7620732 C213.451285,68.7307724 213.487881,68.6986585 213.53017,68.6616667 L217.242227,64.9860569 L171.265419,64.9860569 C169.805238,64.9860569 168.436953,64.9210163 167.20692,64.7868699 C165.367359,64.5840244 163.92141,64.2238618 162.7849,63.693374 C160.235377,62.5084146 159.076096,59.7218293 159.337148,55.4080081 L159.355446,55.1551626 C159.373744,54.8702033 159.386349,54.5978455 159.409526,54.3376829 L160.561895,43.7673577 L160.565148,43.7360569 C160.577753,43.6811789 160.585072,43.6258943 160.598491,43.5539431 L160.604183,43.5031301 C160.650945,43.0836179 160.711125,42.6767073 160.757887,42.4088211 C160.88028,41.6856504 161.042522,40.9921545 161.233635,40.3389024 C162.024922,37.7279268 163.340753,35.9864634 165.367359,34.8661382 C167.110144,33.9071951 168.705324,33.3567886 170.402973,33.1344309 C171.77695,32.949878 173.349359,32.8600407 175.195426,32.8600407 L191.514407,32.8600407 C195.282985,32.8600407 197.96344,33.2913415 199.694432,34.1767073 C201.251797,34.9653252 202.000795,36.3376829 202.108144,38.6726423 C201.640528,38.4905285 201.133469,38.3234553 200.601607,38.1657317 C197.633669,37.3096341 193.559312,36.8819919 188.489949,36.8819919 L176.715787,36.8819919 C176.436844,36.8819919 176.161967,36.8787398 175.885871,36.8758943 L175.057581,36.8758943 C172.23928,36.8758943 169.330709,37.1161382 167.405352,40.0120732 C166.70962,41.0645122 166.232246,42.3002846 165.908574,43.9076016 C165.756497,44.6502846 165.647116,45.4437805 165.551153,46.3393089 L165.067272,50.746626 C165.044501,50.9397154 165.028236,51.1315854 165.012378,51.3141057 L164.992047,51.544187 C164.913162,52.490935 164.939593,53.2718293 164.957891,53.9588211 C164.976189,54.3169512 164.986354,54.6315854 164.976189,54.9149187 C164.9339,56.7136992 165.403955,58.1149187 166.357892,59.094187 C167.807095,60.5836179 170.02766,60.7872764 172.007505,60.7823984 C172.506024,60.7823984 172.981773,60.7681707 173.454268,60.7555691 C173.871869,60.748252 174.274019,60.7291463 174.639573,60.7291463 L219.079754,60.7291463 L220.526517,60.7263008 L221.218182,59.5567886 C223.339125,55.9112602 224.541508,52.0791463 224.775722,48.190122 L224.786701,48.0108537 C224.815571,47.6088211 224.843222,47.1986585 224.843222,46.7445935 M225.590594,59.3189837 C224.023471,62.4836179 221.832182,65.5632927 219.079754,68.4685772 C216.452566,71.241748 213.38094,73.8136992 209.927495,76.1271138 C207.148636,77.997439 204.048546,79.747439 200.703263,81.3315854 C197.647088,82.7889024 194.400614,84.099065 191.06265,85.2279268 C188.372435,86.1356504 185.494361,86.9584146 182.513818,87.6775203 C179.628831,88.3669512 176.747504,88.949065 173.947501,89.392561 C171.452872,89.7840244 168.907415,90.0970325 166.354639,90.3250813 C163.779905,90.5567886 161.157597,90.7116667 158.54464,90.7758943 C157.279231,90.8112602 156.315942,90.8254878 155.406328,90.8254878 C154.095377,90.8254878 152.757995,90.8019106 151.418174,90.7584146 C148.908093,90.6775203 146.345965,90.5128862 143.794408,90.2669512 C141.347761,90.0303659 138.910465,89.7165447 136.53335,89.3328049 C133.845982,88.9063821 131.140316,88.3612602 128.494016,87.7254878 C125.801769,87.0811789 123.15303,86.343374 120.632377,85.5222358 C119.328745,85.094187 118.046664,84.6218293 116.952443,84.2092276 C115.011634,83.491748 113.332283,82.8100407 111.819647,82.1336179 C108.800881,80.7803659 105.953304,79.292561 103.346854,77.7157317 C100.105259,75.7356504 97.1539926,73.5657317 94.5788522,71.2555691 C91.820325,68.7844309 89.47208,66.1454065 87.6069025,63.4055691 C85.3977224,60.1661382 83.8541833,56.7807724 83.0023091,53.342561 C82.4879317,51.2510976 82.2211873,49.1015041 82.2211873,46.9710163 C82.2211873,45.7080081 82.3179634,44.4352439 82.5009436,43.1791463 C83.0128813,39.7124797 84.2116045,36.2868699 86.0763754,33.0019106 L86.1080919,32.944187 C86.1601396,32.8677642 86.2048681,32.791748 86.2304853,32.740935 C87.915529,29.8336179 90.1198297,27.0141057 92.8023184,24.3661382 C95.3205317,21.8799593 98.2453674,19.5376829 101.499974,17.4067886 C104.112117,15.697439 106.9723,14.0905285 110.004891,12.6344309 C112.744306,11.3291463 115.714277,10.1096341 118.838358,9.01695122 C121.392354,8.1348374 124.017509,7.33849593 126.640224,6.65719512 C129.129161,6.00922764 131.769361,5.43321138 134.493732,4.94215447 C136.708605,4.54256098 139.05685,4.20028455 141.462022,3.91735772 C143.93022,3.63565041 146.364263,3.42223577 148.699089,3.29703252 C150.974142,3.16776423 153.217885,3.10882114 155.372171,3.10882114 L155.406328,3.10882114 C157.725296,3.10882114 160.138601,3.17995935 162.586468,3.32995935 C164.813946,3.46085366 167.121122,3.6547561 169.460015,3.92873984 L169.529141,3.93686992 C172.14779,4.24743902 174.783517,4.65394309 177.363537,5.14337398 C180.014716,5.65150407 182.642717,6.24947154 185.16337,6.92873984 C188.265087,7.76247967 191.276126,8.72833333 194.120857,9.7954065 C197.245345,10.9758943 200.23524,12.299878 203.006779,13.7307724 C206.487468,15.5323984 209.721337,17.5478455 212.602257,19.7124797 C215.724305,22.0677642 218.461281,24.6246748 220.740807,27.3323984 C222.289632,29.1681707 223.615222,31.047439 224.684232,32.9177642 C225.509676,34.3697967 226.224925,35.9124797 226.818187,37.4954065 C227.988854,40.6202033 228.580489,43.8067886 228.580489,46.9710163 C228.580489,47.1852439 228.571137,47.4336179 228.555279,47.7096341 C228.547146,47.8462195 228.53942,47.990122 228.536981,48.1323984 C228.364573,51.9563821 227.369567,55.7214228 225.590594,59.3189837 M152.123664,38.5527236 L152.123664,38.6421545 L152.117971,38.6368699 C151.692238,38.4791463 151.17542,38.3076016 150.478063,38.1092276 C149.568855,37.8677642 148.748291,37.6836179 147.900076,37.5389024 C146.944106,37.3771138 145.807597,37.2348374 144.523483,37.1291463 C142.621303,36.9604472 140.657316,36.8819919 138.508316,36.8819919 L126.728868,36.8819919 C126.480828,36.8819919 126.240514,36.8897154 126.013212,36.9031301 C125.772899,36.9080081 125.526892,36.9254878 125.273973,36.9254878 C119.514571,36.9254878 116.960169,38.6315854 115.839517,43.2185772 C115.63092,44.1063821 115.460545,45.1307724 115.330426,46.3531301 L114.852238,50.7502846 C114.672104,52.3848374 114.729438,53.6612602 114.774166,54.6815854 C114.781892,54.8539431 114.789618,55.0165447 114.794904,55.1758943 C114.996182,60.7193902 119.328745,60.7193902 123.910567,60.7193902 C124.023202,60.7193902 124.13543,60.7234553 124.247657,60.7263008 C124.378183,60.7291463 124.513995,60.7291463 124.654687,60.7291463 L136.235703,60.7291463 C137.244126,60.7291463 138.111046,60.6722358 138.873869,60.5494715 C142.493623,59.9649187 144.930918,59.2775203 145.742537,55.1368699 C145.77222,55.0112602 145.794991,54.8889024 145.807597,54.7673577 L146.178436,51.1462195 L124.017509,51.1462195 L124.352159,47.1454065 L151.462903,47.1454065 L150.648031,55.9767073 C150.490668,57.347439 150.248321,58.5181707 149.898219,59.5547561 C149.260635,61.4340244 148.445763,62.7299593 147.529236,63.3043496 C146.792436,63.7718293 145.841753,64.1230488 144.630018,64.3815854 C143.521971,64.6226423 142.185403,64.7763008 140.537362,64.8661382 C139.317495,64.9336179 137.878457,64.9730488 135.857137,64.9828049 C135.358211,64.9860569 134.859285,64.9860569 134.32905,64.9860569 L121.287852,64.9860569 C121.235805,64.9860569 121.18091,64.9860569 121.126423,64.9828049 L121.099993,64.9828049 C120.990611,64.9799593 120.88123,64.9730488 120.781607,64.9730488 L120.739318,64.9730488 C116.487267,64.9287398 113.671406,64.3673577 111.892839,63.1872764 C110.556271,62.3043496 109.667394,60.4937805 109.396177,58.0897154 C109.268091,56.9543496 109.281509,55.6876829 109.421794,54.3376829 L110.571722,43.8271138 L110.5949,43.693374 L110.5949,43.6389024 C110.87181,41.1685772 111.464665,39.2323984 112.405183,37.7023171 C113.637656,35.7071951 115.317414,34.4067886 117.553024,33.7336179 C119.509285,33.149878 122.016926,32.8600407 125.206067,32.8600407 L141.527895,32.8600407 C142.372856,32.8600407 143.196673,32.890935 144.199405,32.9588211 C145.316803,33.0303659 146.325227,33.1636992 147.205158,33.3429675 C148.030602,33.5165447 148.757236,33.7336179 149.378149,34.0116667 C150.104783,34.3307724 150.679748,34.7189837 151.065632,35.1632927 C151.661334,35.8291463 152.034614,37.0356504 152.123664,38.5527236" id="Fill-5" fill="#FCD800"></path>
                <path d="M228.555238,47.7096341 C228.547106,47.8462195 228.53938,47.990122 228.53694,48.1323984 C228.364532,51.9563821 227.369527,55.7214228 225.590553,59.3189837 C224.02343,62.4836179 221.832141,65.5632927 219.079714,68.4685772 C216.452525,71.241748 213.380899,73.8136992 209.927454,76.1271138 C207.148596,77.997439 204.048506,79.747439 200.703222,81.3315854 C197.647047,82.7889024 194.400573,84.099065 191.062609,85.2279268 C188.372394,86.1356504 185.494727,86.9584146 182.513777,87.6775203 C179.62879,88.3669512 176.747463,88.949065 173.947461,89.392561 C171.452831,89.7840244 168.907374,90.0970325 166.354598,90.3250813 C163.785557,90.5567886 161.157556,90.7116667 158.5446,90.7758943 C157.27919,90.8112602 156.315902,90.8254878 155.406287,90.8254878 C154.095336,90.8254878 152.757955,90.8019106 151.418133,90.7547561 C148.908053,90.6775203 146.345924,90.5128862 143.794368,90.2669512 C141.34772,90.0303659 138.910425,89.7165447 136.53331,89.3328049 C133.845941,88.9039431 131.140275,88.3612602 128.493976,87.7254878 C125.801728,87.0807724 123.152989,86.343374 120.632336,85.5222358 C119.328704,85.094187 118.04703,84.6218293 116.952402,84.2092276 C115.011593,83.491748 113.332242,82.8100407 111.824892,82.1328049 C108.800841,80.7803659 105.953263,79.292561 103.346813,77.7157317 C100.105218,75.7356504 97.1539519,73.5653252 94.5788115,71.2555691 C91.8202844,68.7844309 89.4720393,66.1454065 87.6068619,63.4055691 C85.3976817,60.1661382 83.8541426,56.7807724 83.0022685,53.342561 C82.487891,51.2510976 82.2215532,49.1015041 82.2215532,46.9710163 C82.2215532,45.7080081 82.3207691,44.4352439 82.5009029,43.1791463 C83.0128407,39.7124797 84.2115638,36.2868699 86.0763347,33.0019106 L86.1080513,32.944187 C86.1600989,32.8677642 86.2048274,32.791748 86.2304446,32.740935 C87.9154883,29.8336179 90.119789,27.0141057 92.8026844,24.3661382 C95.320491,21.8799593 98.2453268,19.5376829 101.499933,17.4067886 C104.112076,15.697439 106.972259,14.0905285 110.00485,12.6344309 C112.744266,11.3291463 115.714237,10.1096341 118.838317,9.01695122 C121.39272,8.13443089 124.017468,7.33605691 126.640184,6.65719512 C129.12912,6.00922764 131.76932,5.43280488 134.493691,4.94215447 C136.708564,4.54256098 139.056809,4.20028455 141.461981,3.91735772 C143.93018,3.63565041 146.364222,3.42223577 148.699049,3.29703252 C150.974508,3.16776423 153.217845,3.10882114 155.372131,3.10882114 L155.406287,3.10882114 C157.725662,3.10882114 160.13856,3.17995935 162.586427,3.32995935 C164.813906,3.45353659 167.121082,3.6547561 169.459974,3.92873984 L169.53398,3.93686992 C172.147749,4.2445935 174.783476,4.64865854 177.363496,5.14337398 C180.014675,5.65150407 182.642676,6.24418699 185.163329,6.92670732 C188.265046,7.76247967 191.276086,8.72792683 194.120817,9.7954065 C197.245304,10.9714228 200.2352,12.299878 203.006739,13.7307724 C206.487427,15.5323984 209.721296,17.5478455 212.602623,19.7124797 C215.724265,22.0677642 218.461241,24.6246748 220.740766,27.3323984 C222.289592,29.1681707 223.615588,31.0454065 224.684192,32.9177642 C225.509635,34.3697967 226.224884,35.9120732 226.818553,37.4954065 C227.988813,40.6202033 228.580449,43.8067886 228.580449,46.9710163 C228.580449,47.1852439 228.571096,47.4336179 228.555238,47.7096341 L228.555238,47.7096341 Z M229.025294,36.6730488 C228.38771,34.9730488 227.61472,33.3230488 226.729503,31.7555691 C225.584861,29.7588211 224.17998,27.7576016 222.533972,25.8124797 C220.148317,22.9828049 217.283255,20.2921545 214.018483,17.8360569 C211.027368,15.5823984 207.686557,13.5006911 204.081849,11.644187 C201.230612,10.1661382 198.165084,8.80434959 194.951547,7.59662602 C192.036876,6.495 188.944106,5.51044715 185.774076,4.65760163 C183.190397,3.96044715 180.511161,3.34825203 177.802242,2.83158537 C175.175054,2.33239837 172.484433,1.91207317 169.800724,1.59621951 L169.698255,1.59337398 C167.333745,1.31247967 164.989566,1.10882114 162.722239,0.978333333 C160.23005,0.832398374 157.767544,0.755162602 155.406287,0.755162602 L155.372131,0.755162602 C153.175963,0.755162602 150.890744,0.820609756 148.565676,0.945813008 C146.186528,1.07630081 143.702471,1.29174797 141.190357,1.58321138 C138.729884,1.86329268 136.334878,2.2149187 134.073243,2.63565041 C131.296825,3.12914634 128.601324,3.72182927 126.047328,4.38117886 C123.367279,5.07711382 120.682351,5.88890244 118.062482,6.79865854 C114.855043,7.91613821 111.809441,9.16613821 108.99114,10.5112602 C105.864619,12.0120732 102.905627,13.6702033 100.21216,15.440935 C96.8270274,17.6555691 93.7769519,20.097439 91.1513903,22.697439 C88.3253638,25.4921545 85.9828115,28.4763008 84.18554,31.5836179 C84.1643956,31.6177642 84.1359321,31.6636992 84.0968963,31.7218293 C84.0761585,31.7588211 84.0574539,31.8006911 84.0342764,31.8384959 C82.0198685,35.3819919 80.7247758,39.0803659 80.176242,42.8397154 C79.9774036,44.2059756 79.8737148,45.594187 79.8737148,46.9710163 C79.8737148,49.295813 80.157944,51.6299593 80.7194897,53.9059756 C81.6364234,57.6149187 83.2950367,61.2628862 85.6611731,64.7315854 C87.6357321,67.6303659 90.1092168,70.4136992 93.0112817,73.0067886 C95.6913307,75.4063821 98.7601109,77.6677642 102.126945,79.7234553 C104.806588,81.3531301 107.748095,82.8880894 110.861197,84.2775203 C112.420594,84.9775203 114.139388,85.6771138 116.129805,86.4149187 C117.244764,86.8303659 118.553682,87.3145122 119.898789,87.7576016 C122.482062,88.598252 125.193014,89.3584146 127.945849,90.0108537 C130.649075,90.6612602 133.409635,91.2128862 136.16247,91.6559756 C138.578621,92.0486585 141.075283,92.3632927 143.565033,92.6071951 C146.16823,92.8624797 148.785659,93.0267073 151.339655,93.1100407 C152.703874,93.1571951 154.071345,93.1783333 155.406287,93.1783333 C156.333386,93.1783333 157.323512,93.1588211 158.602747,93.1267073 C161.27263,93.0616667 163.944953,92.9039431 166.564415,92.6669512 C169.165986,92.4368699 171.77447,92.1165447 174.313421,91.7157317 C177.17523,91.2616667 180.122023,90.6742683 183.06841,89.9608537 C186.116453,89.2275203 189.064872,88.3795528 191.814861,87.4515041 C195.239029,86.2978455 198.571707,84.947439 201.716525,83.4604472 C205.161431,81.8218293 208.370903,80.0084146 211.246944,78.0758943 C214.830102,75.6673577 218.042419,72.9864634 220.787528,70.0860569 C223.699759,67.0116667 226.029706,63.740122 227.698484,60.3608537 C229.620996,56.4730488 230.696512,52.394187 230.879899,48.2356504 C230.892504,48.1023171 230.892504,47.9681707 230.903483,47.8226423 C230.921781,47.545813 230.9291,47.2539431 230.9291,46.9710163 C230.9291,43.5271138 230.292736,40.0624797 229.025294,36.6730488 L229.025294,36.6730488 Z M222.441262,47.8506911 L222.43069,48.041748 C222.215586,51.5746748 221.118925,55.048252 219.186655,58.3718293 L219.178523,58.3758943 L174.639532,58.3758943 C174.239822,58.3758943 173.825067,58.395 173.382662,58.4031301 C172.939443,58.4157317 172.466948,58.4267073 172.007465,58.4267073 C170.601364,58.4267073 168.886637,58.3136992 168.042488,57.4527236 C167.538683,56.9332114 167.301215,56.1230488 167.331712,54.9714228 C167.333745,54.6145122 167.329272,54.2563821 167.308535,53.8771138 C167.292676,53.2563821 167.263806,52.5506911 167.333745,51.7478455 L167.352857,51.5116667 C167.368715,51.3454065 167.379287,51.1799593 167.400025,51.0059756 L167.888378,46.5880894 C167.974989,45.7673577 168.081931,45.0437805 168.21449,44.3649187 C168.478388,43.0730488 168.841908,42.1010976 169.371737,41.3076016 C170.536304,39.545 172.203457,39.2222358 175.05754,39.2222358 C175.326724,39.2222358 175.595908,39.2258943 175.872412,39.2258943 C176.148508,39.2287398 176.434364,39.2319919 176.715747,39.2319919 L188.489908,39.2319919 C193.340102,39.2319919 197.197729,39.6384959 199.95585,40.4271138 C200.911819,40.6986585 201.742549,41.0287398 202.413883,41.396626 L204.34656,42.4559756 L204.455941,40.2559756 C204.458381,40.1136992 204.463261,39.9783333 204.469766,39.8405285 C204.539299,37.3539431 204.236772,33.841748 200.762589,32.0799593 C198.691661,31.0226423 195.662323,30.5055691 191.514366,30.5055691 L175.195385,30.5055691 C173.239937,30.5055691 171.571159,30.6010976 170.093086,30.7970325 C168.102668,31.0649187 166.234645,31.7039431 164.229589,32.8104472 C161.630051,34.2462195 159.961679,36.4218293 158.984565,39.6673577 C158.764582,40.4067886 158.579569,41.195813 158.433592,42.0226423 C158.391303,42.3177642 158.320551,42.7588211 158.268503,43.2059756 L158.266063,43.2246748 C158.258744,43.2636992 158.253051,43.3002846 158.247765,43.3515041 C158.237193,43.4047561 158.223774,43.4641057 158.221335,43.5185772 L157.080759,54.0807724 C157.03847,54.4031301 157.020985,54.7035366 157.007566,55.0258943 L156.989268,55.2718293 C156.581833,61.9620732 159.376143,64.7043496 161.791887,65.8267073 C163.168304,66.4657317 164.848062,66.890122 166.947861,67.1238618 C168.270197,67.2657317 169.724279,67.3384959 171.265378,67.3384959 L211.463674,67.3384959 C208.8865,69.5323984 205.91165,71.5636992 202.630613,73.3860569 C199.945684,74.8763008 196.994418,76.248252 193.867491,77.4767073 C191.080907,78.5665447 188.134927,79.5462195 185.12592,80.3889024 C182.721155,81.0478455 180.206194,81.640122 177.658298,82.141748 C175.284435,82.6104472 172.814204,83.0084146 170.322827,83.3210163 C168.233601,83.5872764 166.091107,83.793374 163.959998,83.9527236 C161.812625,84.1015041 159.629468,84.198252 157.461764,84.2376829 L156.967717,84.2437805 C155.228593,84.2722358 153.489468,84.2612602 151.553945,84.198252 C149.381361,84.1287398 147.249033,84.0088211 145.209821,83.8323984 C143.323499,83.6734553 141.342027,83.4527236 139.158465,83.1486585 C136.80778,82.8193902 134.514835,82.4356504 132.344284,81.9893089 C130.121686,81.5360569 127.846633,80.9799593 125.56914,80.347439 C122.844769,79.595 120.209449,78.7332114 117.735964,77.791748 C115.021759,76.7669512 112.39701,75.5954065 109.94467,74.3258943 C106.820589,72.7197967 103.955527,70.9344309 101.432434,69.0246748 C98.6430036,66.9177642 96.2240062,64.6120732 94.2470075,62.1661382 C92.0138367,59.4006911 90.3865334,56.4832114 89.4147056,53.4832114 L103.430577,53.4832114 L104.130374,44.7876829 L88.4144142,44.7876829 C88.4689016,44.1819919 88.5396539,43.6006911 88.6445625,43.0356504 C89.2394513,39.6628862 90.6524645,36.348252 92.8498526,33.1819919 C94.6833135,30.547439 97.0209864,28.0368699 99.8124499,25.7315854 C102.320498,23.6661382 105.230288,21.7206098 108.471476,19.9421545 C110.907959,18.6006911 113.590854,17.3454065 116.455916,16.2043496 C118.968843,15.1986585 121.633034,14.2815854 124.385462,13.4726423 C126.55398,12.8384959 128.833912,12.2600407 131.150441,11.7616667 C133.3706,11.2763008 135.616782,10.8665447 137.826369,10.5291463 C139.6887,10.2502846 141.647808,10.0023171 143.660996,9.80394309 C145.659139,9.61126016 147.67558,9.46207317 149.657865,9.37060976 C151.653161,9.27589431 153.450433,9.22711382 155.184271,9.22426829 L155.286333,9.22060976 C155.327809,9.22060976 155.361965,9.21857724 155.401001,9.21857724 C157.202745,9.21857724 159.078495,9.2653252 161.144137,9.37060976 C163.043065,9.45556911 164.989566,9.595 166.92021,9.78036585 C169.149315,9.99662602 171.372727,10.2791463 173.533112,10.6242683 C175.802472,10.9758943 178.061667,11.4043496 180.244823,11.8945935 C182.935038,12.4905285 185.598415,13.193374 188.16339,13.9994715 C190.989417,14.890935 193.734119,15.9010976 196.30194,17.0096341 C199.64519,18.4539431 202.761545,20.0738618 205.566427,21.8360569 C208.741743,23.8380894 211.554757,26.0429675 213.911135,28.3848374 C216.86972,31.3352439 219.103298,34.495 220.543148,37.7612602 C221.837427,40.7177642 222.493716,43.7328049 222.493716,46.7445935 C222.493716,47.1177642 222.467286,47.4730488 222.441262,47.8506911 L222.441262,47.8506911 Z M215.569341,26.7242683 C213.085284,24.2559756 210.14459,21.940935 206.811506,19.845813 C203.913507,18.0214228 200.689804,16.3397154 197.234325,14.845813 C194.588839,13.7132927 191.775825,12.6726423 188.866034,11.7616667 C186.236406,10.9344309 183.507563,10.2059756 180.753915,9.59784553 C178.528876,9.09662602 176.222514,8.66044715 173.898259,8.29215447 C171.701684,7.94987805 169.426631,7.66329268 167.146292,7.44052846 C165.177019,7.25069106 163.195548,7.11410569 161.251079,7.01979675 C159.15372,6.91776423 157.240155,6.86654472 155.401001,6.86654472 C155.348547,6.86654472 155.294466,6.86654472 155.236319,6.87060976 L155.157841,6.87060976 C153.413023,6.87060976 151.582815,6.92670732 149.54889,7.01979675 C147.529196,7.1149187 145.473312,7.2649187 143.426781,7.46613821 C141.372931,7.66857724 139.372755,7.9153252 137.473421,8.20597561 C135.206907,8.55028455 132.913149,8.96979675 130.651515,9.46207317 C128.280092,9.9754878 125.948112,10.5636992 123.723074,11.2104472 C120.90152,12.0389024 118.161698,12.9844309 115.586151,14.0230488 C112.637731,15.1986585 109.855213,16.496626 107.340253,17.8775203 C103.970572,19.7254878 100.933508,21.7571951 98.3185188,23.9193902 C95.357087,26.3657317 92.8705903,29.0299593 90.9167691,31.845 C88.5237956,35.2852439 86.9798499,38.9161382 86.3276274,42.6283333 C86.1519665,43.6031301 86.0454314,44.6128862 86.0035493,45.6978455 L86.0035493,45.7002846 C85.9828115,45.9136992 85.938083,46.3860569 85.9462155,47.1413415 L101.580851,47.1413415 L101.262466,51.1315854 L86.4032592,51.1315854 C86.5549294,51.9092276 86.7582407,52.7726423 87.0168526,53.7254878 L87.1734023,54.2100407 C88.2395665,57.4803659 90.0022751,60.6559756 92.4184261,63.649065 C94.5104989,66.241748 97.0701877,68.6856504 100.013728,70.899878 C102.644169,72.891748 105.621866,74.7486585 108.863054,76.4177642 C111.399159,77.7303659 114.104825,78.9315854 116.899948,79.9889024 C119.444185,80.9555691 122.142125,81.8429675 124.934402,82.6141057 C127.261503,83.2641057 129.598769,83.8323984 131.871382,84.293374 C134.091948,84.7437805 136.434094,85.1413415 138.831947,85.4779268 C141.062678,85.7884959 143.091724,86.0157317 145.014235,86.1779268 C147.087604,86.3531301 149.260594,86.4840244 151.48116,86.546626 C152.86449,86.592561 154.142098,86.6108537 155.401001,86.6108537 C155.944249,86.6108537 156.470012,86.6055691 157.013259,86.5962195 L157.49836,86.5819919 C159.709573,86.546626 161.935018,86.4576016 164.122241,86.3002846 C166.302957,86.1413415 168.486114,85.9250813 170.617629,85.6559756 C173.163492,85.3344309 175.691871,84.9271138 178.110055,84.4515041 C180.719759,83.9352439 183.290019,83.3258943 185.755778,82.6535366 C188.84245,81.794187 191.864062,80.7889024 194.729124,79.6632927 C197.947541,78.4015041 200.995584,76.9783333 203.769156,75.4413415 C207.378337,73.4405285 210.628065,71.1876829 213.417088,68.7620732 C213.451245,68.7307724 213.487841,68.6986585 213.530129,68.6616667 L217.242186,64.9860569 L171.265378,64.9860569 C169.805197,64.9860569 168.436912,64.9210163 167.206879,64.7868699 C165.367319,64.5840244 163.921369,64.2234553 162.784859,63.693374 C160.235336,62.5084146 159.076055,59.7218293 159.337107,55.4080081 L159.355405,55.1551626 C159.373703,54.8702033 159.386715,54.5978455 159.409486,54.3376829 L160.561854,43.7673577 L160.565107,43.7360569 C160.577712,43.6811789 160.585031,43.6258943 160.59845,43.5539431 L160.604143,43.5031301 C160.650904,43.0836179 160.711084,42.6767073 160.757846,42.4088211 C160.880239,41.6856504 161.042482,40.9921545 161.234001,40.3389024 C162.030168,37.7279268 163.340712,35.9864634 165.367319,34.8661382 C167.110103,33.9071951 168.70569,33.3567886 170.402932,33.1344309 C171.77691,32.949878 173.349319,32.8600407 175.195385,32.8600407 L191.514366,32.8600407 C195.282944,32.8600407 197.9634,33.2913415 199.694392,34.1763008 C201.251756,34.9653252 202.000755,36.3376829 202.108103,38.6726423 C201.640487,38.4872764 201.133429,38.3234553 200.601566,38.1653252 C197.633629,37.3092276 193.559271,36.8819919 188.489908,36.8819919 L176.715747,36.8819919 C176.436804,36.8819919 176.161927,36.8758943 175.88583,36.8758943 L175.05754,36.8758943 C172.239239,36.8758943 169.330668,37.1161382 167.405311,40.0120732 C166.70958,41.0645122 166.232205,42.3002846 165.908533,43.9076016 C165.756457,44.6502846 165.647075,45.4437805 165.551112,46.3393089 L165.067231,50.746626 C165.044461,50.9397154 165.028602,51.1315854 165.012337,51.3141057 L164.992006,51.544187 C164.913121,52.490935 164.939552,53.2718293 164.95785,53.9584146 C164.976148,54.3169512 164.986314,54.6315854 164.976148,54.9149187 C164.933859,56.7136992 165.403915,58.1149187 166.357851,59.094187 C167.807054,60.5836179 170.027619,60.7823984 172.007465,60.7823984 C172.505984,60.7823984 172.981732,60.7681707 173.454227,60.7555691 C173.871829,60.748252 174.273978,60.7291463 174.639532,60.7291463 L219.079714,60.7291463 L220.526476,60.7258943 L221.218141,59.5567886 C223.339084,55.9112602 224.541467,52.0791463 224.775682,48.190122 L224.786661,48.0108537 C224.815531,47.6088211 224.843181,47.1921545 224.843181,46.7445935 C224.843181,43.4092276 224.11736,40.0718293 222.699467,36.8242683 C221.137223,33.2779268 218.739777,29.8763008 215.569341,26.7242683 L215.569341,26.7242683 Z M152.117931,38.6368699 C151.692197,38.4791463 151.17538,38.3076016 150.478022,38.1092276 C149.568814,37.8677642 148.74825,37.6836179 147.900035,37.5389024 C146.944066,37.3767073 145.807556,37.2348374 144.523442,37.1291463 C142.621262,36.9604472 140.657275,36.8819919 138.508275,36.8819919 L126.728827,36.8819919 C126.480788,36.8819919 126.240474,36.8897154 126.013172,36.9027236 C125.772858,36.9080081 125.527258,36.9254878 125.273932,36.9254878 C119.514531,36.9254878 116.960128,38.6311789 115.839476,43.2185772 C115.630879,44.1063821 115.460504,45.1307724 115.330385,46.3531301 L114.852197,50.749878 C114.672063,52.3848374 114.729397,53.6612602 114.774125,54.6815854 C114.781851,54.8539431 114.789577,55.0165447 114.794863,55.1758943 C114.996141,60.7193902 119.328704,60.7193902 123.910527,60.7193902 C124.023161,60.7193902 124.135389,60.7234553 124.247617,60.7258943 C124.378143,60.7291463 124.513955,60.7291463 124.654646,60.7291463 L136.235662,60.7291463 C137.244086,60.7291463 138.111005,60.6722358 138.873829,60.5494715 C142.493582,59.9649187 144.930878,59.2771138 145.742496,55.1364634 C145.77218,55.0112602 145.794951,54.8889024 145.807556,54.7673577 L146.178396,51.1462195 L124.017468,51.1462195 L124.352119,47.1454065 L151.462862,47.1454065 L150.64799,55.9767073 C150.490627,57.3470325 150.24828,58.5181707 149.898178,59.5547561 C149.260594,61.4340244 148.445723,62.7299593 147.529196,63.3043496 C146.792396,63.7718293 145.841712,64.1230488 144.629977,64.3815854 C143.521931,64.6222358 142.185363,64.7763008 140.537321,64.8661382 C139.317454,64.9336179 137.878417,64.9730488 135.857096,64.9828049 C135.35817,64.9860569 134.859245,64.9860569 134.329009,64.9860569 L121.287812,64.9860569 C121.235764,64.9860569 121.18087,64.9860569 121.126382,64.9828049 L121.099952,64.9828049 C120.99057,64.9799593 120.881189,64.9730488 120.781566,64.9730488 L120.739278,64.9730488 C116.487226,64.9287398 113.671365,64.3673577 111.892798,63.1872764 C110.55623,62.3043496 109.667353,60.4937805 109.396136,58.0897154 C109.26805,56.9543496 109.281468,55.6876829 109.421753,54.3376829 L110.571682,43.8271138 L110.594859,43.693374 L110.594859,43.6389024 C110.871769,41.1685772 111.464625,39.2319919 112.405143,37.7023171 C113.637615,35.7071951 115.317373,34.4067886 117.552984,33.7336179 C119.509245,33.149878 122.016886,32.8600407 125.206026,32.8600407 L141.527854,32.8600407 C142.372815,32.8600407 143.196633,32.890935 144.199364,32.9588211 C145.316763,33.0303659 146.325186,33.1636992 147.205524,33.3429675 C148.030561,33.5165447 148.757196,33.7336179 149.378108,34.0116667 C150.104743,34.3307724 150.679707,34.7189837 151.065592,35.1632927 C151.661294,35.8291463 152.034573,37.0356504 152.123623,38.5527236 L152.123623,38.6421545 L152.117931,38.6368699 Z M154.468615,38.4173577 C154.351102,36.3145122 153.797688,34.6929675 152.836839,33.5994715 C152.204541,32.899878 151.371372,32.3177642 150.326352,31.8571951 C149.553769,31.5177642 148.665706,31.2437805 147.678019,31.042561 C146.69318,30.8389024 145.575781,30.695813 144.353474,30.6100407 C143.298288,30.543374 142.42527,30.5055691 141.527854,30.5055691 L125.206026,30.5055691 C121.781858,30.5055691 119.054641,30.8287398 116.873924,31.4836179 C114.104825,32.3177642 111.926955,33.9994715 110.399274,36.4738618 C109.272929,38.3076016 108.565813,40.5889024 108.249461,43.4222358 L107.08408,54.0832114 C106.925091,55.6039431 106.914519,57.0421545 107.058463,58.3502846 C107.416291,61.5096341 108.641038,63.8571951 110.594859,65.1478455 C112.773136,66.5893089 116.009038,67.2860569 120.763268,67.3279268 L120.883222,67.3279268 C120.927544,67.3279268 120.971866,67.3328049 121.0292,67.3360569 L121.05563,67.3360569 C121.134108,67.3360569 121.20974,67.3384959 121.287812,67.3384959 L134.329009,67.3384959 C134.86697,67.3384959 135.366303,67.3384959 135.870108,67.3360569 C137.933311,67.3206098 139.414637,67.2860569 140.668254,67.2149187 C142.438688,67.1193902 143.893177,66.9445935 145.121584,66.6811789 C146.609822,66.3661382 147.805699,65.9096341 148.785659,65.294187 C150.182408,64.4185772 151.299806,62.7376829 152.123623,60.3096341 C152.533092,59.1084146 152.812849,57.7710163 152.985257,56.2124797 L154.047761,44.7954065 L122.181568,44.7954065 L121.463472,53.5010976 L143.575198,53.5010976 L143.46785,54.5177642 C143.46785,54.5413415 143.465004,54.5608537 143.456871,54.5665447 L143.436133,54.6616667 C142.942494,57.243374 142.000349,57.6645122 138.497703,58.2275203 C137.857679,58.3332114 137.116,58.3758943 136.235662,58.3758943 L124.654646,58.3758943 L124.304951,58.3758943 C124.171985,58.3718293 124.045932,58.3685772 123.910527,58.3685772 C118.26376,58.3685772 117.244764,57.8775203 117.147581,55.0844309 C117.135382,54.9242683 117.130096,54.7543496 117.12237,54.5803659 C117.078049,53.5852439 117.030474,52.4596341 117.184584,51.0059756 L117.670904,46.6076016 C117.785572,45.4864634 117.936835,44.5559756 118.130388,43.7754878 C118.885079,40.6596341 120.097221,39.2783333 125.273932,39.2783333 C125.579712,39.2783333 125.861502,39.2632927 126.111981,39.2502846 C126.323831,39.2393089 126.52511,39.2319919 126.728827,39.2319919 L138.508275,39.2319919 C140.592622,39.2319919 142.491143,39.3104472 144.32501,39.4722358 C145.536745,39.5783333 146.609822,39.7043496 147.506425,39.8584146 C148.279008,39.9893089 149.025566,40.1555691 149.846131,40.3775203 C150.462164,40.5580081 150.913921,40.6986585 151.261177,40.8303659 C151.705615,41.0071951 152.087027,41.1852439 152.415578,41.3730488 L154.358827,42.4535366 L154.463736,40.2364634 C154.497079,39.5653252 154.497079,38.9779268 154.468615,38.4173577 L154.468615,38.4173577 Z" id="Fill-7" fill="#FEFEFE"></path>
                <path d="M45.3477629,102.65935 C44.4653921,91.7589431 38.666955,88.6020325 33.741943,88.6020325 C26.7146927,88.6020325 22.847306,93.1682927 22.847306,101.076016 C22.847306,122.689024 67.1406967,133.054065 67.1406967,167.495122 C67.1406967,188.404472 53.0768437,200 32.6879775,200 C12.4763987,200 0.876678146,183.830081 0,164.856098 L20.7389682,161.866667 C21.6152397,174.691057 26.7146927,181.020325 33.741943,181.020325 C41.3026821,181.020325 46.3988821,176.982114 46.3988821,169.427236 C46.3988821,144.295122 2.10549139,137.620325 2.10549139,101.252033 C2.10549139,81.0439024 14.4102954,69.6219512 35.8567868,69.6219512 C44.287698,69.6219512 50.968506,72.6121951 56.0679589,77.5304878 C61.6915483,82.9780488 65.029106,90.8841463 66.0802252,100.371138 L45.3477629,102.65935 Z" id="Fill-9" fill="#E1310F"></path>
                <g id="Group-13">
                    <mask id="mask-2" fill="white">
                        <use xlink:href="#path-1"></use>
                    </mask>
                    <g id="Clip-12"></g>
                    <path d="M142.463045,155.59813 L142.291044,166.260732 C142.291044,188.047317 129.637358,200.000163 108.896763,200.000163 C88.1545417,200.000163 75.5008556,188.047317 75.5008556,166.260732 L75.9591192,85.3257724 L97.3747073,94.1334959 L97.290943,167.13878 C97.290943,176.450976 100.986328,181.020488 108.896763,181.020488 C116.803131,181.020488 120.496077,176.450976 120.496077,167.13878 L120.687596,100.231463 L142.645212,104.024959 C142.819653,104.371707 158.985338,105.721301 158.985338,105.721301 L158.985338,109.701382 C147.382771,110.226585 142.265426,109.426992 142.265426,124.891626 L142.463045,155.59813 Z" id="Fill-11" fill="#E1310F" mask="url(#mask-2)"></path>
                </g>
                <path d="M229.123046,167.138659 L228.942912,181.906138 C228.942912,193.500447 235.970162,193.846382 248.276999,194.370366 L248.276999,198.769959 C248.276999,198.769959 229.644742,198.769959 228.942912,198.240285 L209.95852,198.240285 L182.197181,124.219959 L181.844639,125.958577 L181.844639,198.240285 L162.155164,198.240285 L162.155164,105.479715 L194.14863,99.689065 L208.903741,143.947195 L209.259536,143.947195 L209.259536,94.5142683 L228.942912,87.3272764 L229.123046,167.138659 Z" id="Fill-14" fill="#E1310F"></path>
                <path d="M284.80573,102.65935 C283.925799,91.7589431 278.128175,88.6020325 273.205196,88.6020325 C266.176319,88.6020325 262.312185,93.1682927 262.312185,101.076016 C262.312185,122.689024 306.597444,133.054065 306.597444,167.495122 C306.597444,188.404472 292.538064,200 272.148791,200 C251.941278,200 240.339525,183.830081 239.46244,164.856098 L260.200188,161.866667 C261.080119,174.691057 266.176319,181.020325 273.205196,181.020325 C280.766342,181.020325 285.854003,176.982114 285.854003,169.427236 C285.854003,144.295122 241.567931,137.620325 241.567931,101.252033 C241.567931,81.0439024 253.871922,69.6219512 275.311907,69.6219512 C283.747698,69.6219512 290.429319,72.6121951 295.527959,77.5304878 C301.151548,82.9780488 304.491952,90.8841463 305.543478,100.371138 L284.80573,102.65935 Z" id="Fill-16" fill="#E1310F"></path>
            </g>
        </g>
    </g>
</svg>