<svg width="50" height="50" viewBox="0 0 50 50" xmlns="http://www.w3.org/2000/svg" xmlns:xlink="http://www.w3.org/1999/xlink"><title>WestCoastEagles</title><defs><path id="a" d="M6.3921173.04133128V7.3795614H.00422505V.0413313H6.3921173z"/><path id="c" d="M.0885451 7.56060074h6.61385333V.13509756H.0885451v7.42550318z"/><path id="e" d="M.08644287.00074124H29.5086659V20.9806374H.08644287z"/></defs><g fill="none" fill-rule="evenodd"><path d="M19.2759921 38.5316981c-.4342157.076199-.887407.1306057-1.3004234.1306057-.2391225 0-.4647545-.0219406-.666667-.0544067l-.2622491-1.1200066h-2.44622497l-.5640801 1.1200066c-.29782838.0324661-.60381034.0435847-.89733955.0435847-.38055024 0-.73486074-.0327627-1.0058564-.1197837l3.55066566-6.9034214c.33355592-.054555.68297427-.065377 1.00896956-.065377.3371139 0 .6293088.010822.9480401.065377l1.6351652 6.9034214zm-2.5981782-2.6635551l-.2622491-1.1198584-.12348982-.6958718-.30034857.6958718-.5640801 1.1198584h1.2501676zm14.8420967 1.8809143c-.0382478.2824107-.0996221.5760882-.2026538.8587953h-4.68609l.9409242-6.9796204c.3335559-.0544067.6642952-.087021.9902905-.087021.3262918 0 .6478397.0326143.9667191.087021l-.7035806 5.2184452h2.7289321c.0241643.3044995.0063747.5978805-.0345415.9023799" fill="#003087"/><g transform="translate(37.928 31.402)"><mask id="b" fill="#fff"><use xlink:href="#a"/></mask><path d="M.00422504 6.54255844c.1341636-.6739312.54406676-1.2937522 1.06026307-1.57660763.422356.3372621 1.177823.6199693 2.0146778.6199693.6416134 0 .8752507-.1197836.9060861-.3479359.0366171-.2720334-.0793122-.380402-1.2233348-.6849015C1.5854284 4.2485833.6141135 3.7919823.7966057 2.3570989.9807285.91109688 2.25031643.04133128 3.9680553.04133128c1.2609896 0 2.07516252.4131646 2.42413613.72848612-.12556527.60870248-.4963312 1.26084136-1.09450814 1.58728142-.3439333-.27188514-.9518945-.52197795-1.7236688-.52197795-.543622 0-.8327038.13045743-.8620568.34793588-.0339486.24994457.0428434.32614356 1.3159892.6414651 1.2199251.30420298 2.024462.86976557 1.8928186 2.08731878C5.7471683 6.52091436 4.5445881 7.3795614 2.7939384 7.3795614c-1.4894383 0-2.36439254-.44548244-2.7897134-.83700296" fill="#003087" mask="url(#b)"/></g><path d="M37.3096555 36.8792769h-2.8921521l.128975-.9567866h2.4788393c.1033282-.2825589.16322-.5654143.2011712-.8481215.0397303-.2932327.0560374-.5760881.0289082-.8587953h-2.478691l.1157809-.8589435h2.7941609c.1046624-.2932327.164406-.5760881.2039879-.8694691.0380995-.2827072.0560374-.5763846.02876-.8589435h-5.6154509l.7480547.8642804-.8242537 6.11534h4.8488653c.1046624-.2933809.1645542-.5763846.2041362-.8696173.0380995-.2827072.0560374-.5763846.0289081-.8589436m-25.72774583 0h-2.8920039l.12897495-.9567866h2.47898756c.10317996-.2825589.16307178-.5654143.20117128-.8481215.03958197-.2932327.05588914-.5760881.02875993-.8587953H9.0489601l.1159292-.8589435h2.7940126c.10481068-.293381.1647025-.5760881.20428447-.8694691.0380995-.2827072.05588914-.5763846.0286117-.8589435H6.5764955l.74790647.8642804L6.5 38.6078378h4.84886527c.10481068-.2933809.1647025-.5763846.20428447-.8696173.0380995-.2827072.05588915-.5765329.02875993-.8589436" fill="#003087"/><g transform="translate(19.546 31.254)"><mask id="d" fill="#fff"><use xlink:href="#c"/></mask><path d="M3.6522149 3.18542934c-.2490551.430806-.32673655.95545238-.32169615 1.43028776H4.4266576l-.17552453 1.07493953c-.177007.02179232-.3741756.03261436-.60232786.03261436-1.000223 0-1.5340607-.7176641-1.3801802-1.8590183.1566972-1.1634431.8593883-1.8590183 1.9138697-1.8590183.4783933 0 .9080133.1194871 1.2344534.3587579C6.0357314 2.0486707 6.520944 1.352799 6.7023985.7331262 6.2151103.3960124 5.4675003.13509752 4.4672773.13509752c-2.33755985 0-4.03943625 1.57660766-4.33400318 3.7617695-.2960494 2.1959839.88696224 3.6637782 3.26781024 3.6637782 1.31539628 0 2.04936754-.2828554 2.62960658-.5545923l.51263838-3.82062354H3.6522149z" fill="#003087" mask="url(#d)"/></g><path d="M34.2805824 18.1465692s.758432-.01615892.9772447.06967614c0 0 .1973169-.23600934.6218965-.44607544 0 0-.8103185-.1372768-1.5991412.3763993" fill="#003087"/><g transform="translate(10.65 10.648)"><mask id="f" fill="#fff"><use xlink:href="#e"/></mask><path d="M26.2837762 13.3373148c.6757101-1.9156487-1.8049081-2.103033-1.8049081-2.103033-1.2652888-1.61515185-9.6142675-1.0208293-9.6142675-1.0208293 3.0154937-1.59039464 8.5560798-3.3929308 8.5560798-3.3929308-.3801054-.41701902-1.3798837-.88058762-1.3798837-.88058762.2868581-.1005115.5548888-.19064573.798607-.26980967 0 0-1.3953015-.8751024-3.6081855-1.4854356 0 0 .595212.3076127 1.8209188 1.344601 0 0-2.6324233-1.2230383-7.5893607-.9775412 0 0 1.1090363.4242831 2.9324753 1.5035218 0 0 .2803353-.2572086.8012755-.3815879-.0475873.659996.8307766 1.2611379 1.9617535 1.3426738.431399.0311319.8371512-.0179379 1.1769335-.1270477 0 0-.5633389.6447265-1.8584253.63479396-1.5629689-.0050404-2.0194216-.83374152-2.0194216-.83374152s-2.1783425.659996-3.5180513 1.379439c0 0 1.4041963-.1091098 3.1011805-.02979762 0 0-4.8850376 1.8335198-11.86347204 8.37877635 0 0-1.10681265-3.4381462 1.16255355-6.0850977 0 0 .7858578-.62412016 4.0684927-1.72604065 0 0-4.7837848.9867325-7.6046301 1.92824962 0 0 .6859392-2.7390129 4.1685595-4.39359848 0 0 1.0936187-.32896025 4.1907965-.6798611 0 0-3.0897654-.2220741-7.0085286.1202284 0 0 2.0468474-2.4376266 5.2623264-3.0925822 0 0 .3534211-.04832854 2.3691365-.03721 0 0-1.8388566-.61581835-4.5391771-1.2209629 0 0 11.0691642-.8927439 18.0046071 4.0137895 0 0-.3451192.1156327-.7396047.26061836 0 0 3.1702637 1.14209547 4.4128706 2.811654 1.7267819 2.2328974-1.6406503 5.0193494-1.6406503 5.0193494m-7.7841573-1.1791572c1.0369882-.5781636 2.1199331-1.2184427 2.1199331-1.2184427 2.2216306-.0818324 3.1348326.4087172 3.1348326.4087172-2.761843.1436514-5.2547657.8097255-5.2547657.8097255m-4.5781662 5.9644245c-1.7267819-.8733235-2.1435044-2.1039225-2.1435044-2.1039225 2.3421555-3.3741034 5.8948966-3.5924713 5.8948966-3.5924713-2.6794176 2.5405101-3.7513922 5.6963938-3.7513922 5.6963938m-5.2793747.9527839s-1.7267819-1.6474697-2.0840573-3.6421341c0 0 3.4535638-4.3268873 9.2888651-3.8603538 0 0-4.4657948 2.1830864-7.20480773 7.5024879M25.2475292 5.2230113s.3814398-.12956795.7084728-.21807145c0 0-7.8777012-6.57490597-23.52340085-4.65184493 0 0 1.9957021.8257362 3.72441124 1.74635053 0 0-2.7353068.80349912-5.5170149 4.558894 0 0 .3749168-.01393525 2.5075992-.07575427 0 0-2.2497976 1.62019226-3.0611538 5.65369865 0 0 1.2651405-.4528948 3.2174062-.9370698 0 0-1.4993709 2.623825.4754284 7.3592812 0 0 .8324073-1.012231 1.9605675-2.0477368 0 0 .698985 2.58365 3.3388206 4.369879 0 0 .9727973-2.268032 2.0391385-3.7516887 0 0 .8696173 1.5668233 3.430882 2.3477889 2.4520066-7.4654261 8.902385-7.1529213 8.902385-7.1529213 3.2648453-.0791639 1.2479439 2.5627472 1.2479439 2.5627472s4.0515925-1.1770818 4.7860085-4.9283257c0 0 .5993629-2.6396874-4.2374944-4.83522656" fill="#003087" mask="url(#f)"/></g><path d="M38.5754039 18.96548605c1.7266336 2.23289745-1.6406504 5.01934945-1.6406504 5.01934945.6755619-1.9156487-1.8049081-2.103033-1.8049081-2.103033-1.2652888-1.6151519-9.6142674-1.0208294-9.6142674-1.0208294 3.0154937-1.59039458 8.5559316-3.39293074 8.5559316-3.39293074-.3799573-.41701902-1.3797356-.8805876-1.3797356-.8805876.2868581-.10051153.5548888-.19064575.7984588-.2698097 0 0-1.3951532-.87510246-3.6081855-1.48543566 0 0 .5953602.30761267 1.821067 1.34460095 0 0-2.6324233-1.22303835-7.5893607-.9775412 0 0 1.1090364.42428312 2.9323272 1.50352182 0 0 .2804834-.25720867.8014236-.38158797-.0477355.65999597.8306284 1.26113785 1.9616053 1.34267374.431399.0311319.8372995-.0179379 1.1770818-.12704774 0 0-.5633389.64472652-1.8584253.63479397-1.5629689-.0050404-2.0195699-.83374154-2.0195699-.83374154s-2.1781943.65999597-3.5179031 1.37943902c0 0 1.4041963-.10910985 3.1011806-.02979766 0 0-4.8850376 1.8335198-11.8634721 8.3787763 0 0-1.10681264-3.4381461 1.16255356-6.0850976 0 0 .78585774-.6241202 4.06849264-1.7260407 0 0-4.78378477.9867325-7.60463008 1.9282496 0 0 .6859392-2.7390129 4.16855948-4.3935985 0 0 1.0936186-.3289603 4.1907965-.6798611 0 0-3.0897655-.2220741-7.00852865.1202284 0 0 2.04684734-2.4376267 5.26217815-3.0925822 0 0 .3535692-.0483286 2.3692847-.03721 0 0-1.8388567-.6158184-4.5391771-1.2209629 0 0 11.0690159-.8927439 18.004607 4.0137895 0 0-.3451192.1156327-.7399011.2606183 0 0 3.1704119 1.1420954 4.4131671 2.811654m-3.3176213-.7492407s.1973169-.2360094.6220448-.4460755c0 0-.8103185-.1372768-1.5992895.3763993 0 0 .7585803-.016159.9772447.0696761m-6.1071864 4.5894329s2.4927745-.6660741 5.254914-.8097255c0 0-.9133502-.4905495-3.1349808-.4087172 0 0-1.0829449.6401309-2.1199332 1.2184427m-4.5781661 5.9644245s1.0718263-3.1558837 3.7513922-5.6963938c0 0-3.5528894.218368-5.8948966 3.5924714 0 0 .4167225 1.2305989 2.1435044 2.1039224m-7.3634321-2.6893501s3.4534155-4.3268874 9.2887168-3.8603538c0 0-4.4657948 2.1830864-7.2046595 7.5024879 0 0-1.7269301-1.6474698-2.0840573-3.6421341" fill="#F2A900"/><path d="M29.065873 16.6550554c-.3983399-.11889414-.4379219-.45052284-.4379219-.45052284s.5606705-.0465496 1.3644661.0834631c0 0-.5775706.15862437-.9265442.36705975" fill="#FFF"/></g></svg>