<?xml version="1.0" encoding="UTF-8" standalone="no"?>
<svg width="186px" height="200px" viewBox="0 0 186 200" version="1.1" xmlns="http://www.w3.org/2000/svg" xmlns:xlink="http://www.w3.org/1999/xlink">
    <!-- Generator: sketchtool 3.8.3 (29802) - http://www.bohemiancoding.com/sketch -->
    <title>B9DA5CEA-DDA0-4D11-94D1-BD3C23FBE2EB</title>
    <desc>Created with sketchtool.</desc>
    <defs>
        <polyline id="path-1" points="0 0.143695015 185.758171 0.143695015 185.758171 200 0 200"></polyline>
    </defs>
    <g id="Page-1" stroke="none" stroke-width="1" fill="none" fill-rule="evenodd">
        <g id="FULL-LOGO" transform="translate(-3587.000000, -387.000000)">
            <g id="icon_club_Melbourne" transform="translate(3587.000000, 387.000000)">
                <g id="Group-3">
                    <mask id="mask-2" fill="white">
                        <use xlink:href="#path-1"></use>
                    </mask>
                    <g id="Clip-2"></g>
                    <path d="M185.758171,24.8370381 C182.330834,23.64261 178.889981,22.5194428 175.437962,21.4604985 L175.437962,13.3106452 C175.437962,13.3106452 147.011697,0.143782991 92.8789384,0.143782991 C38.7464739,0.143782991 10.3202085,13.3106452 10.3202085,13.3106452 L10.3202085,21.4602053 C6.86818957,22.5194428 3.42733649,23.64261 0,24.8370381 C0.000293838863,43.2493548 0.000293838863,61.6619648 0,80.0742815 L12.3750237,93.7088856 C23.6901706,170.858152 78.4056114,196.729707 90.9763318,199.616804 C91.7990806,199.805953 92.8789384,200.000088 92.8789384,200.000088 C92.8789384,200.000088 93.9626161,199.805367 94.788891,199.615337 C107.345507,196.726188 161.829403,170.957566 173.307924,94.2182698 L185.758171,80.0742815 C185.758464,61.657566 185.758464,43.2540469 185.758171,24.8370381" id="Fill-1" fill="#05122B" mask="url(#mask-2)"></path>
                </g>
                <path d="M165.712983,75.5640176 C165.673609,75.5534604 165.63394,75.5431965 165.594566,75.5326393 C162.503087,160.232933 106.623457,187.614164 94.5648976,190.460792 C93.8355896,190.632933 92.8794379,190.809179 92.8794379,190.809179 C92.8794379,190.809179 91.9265185,190.633519 91.2004427,190.462258 C79.1530493,187.623255 23.2375706,160.238504 20.1628408,75.489824 C20.1237602,75.500088 20.0843858,75.5097654 20.0453052,75.5203226 C21.1204616,164.068416 78.9267934,192.436158 91.2004427,195.328534 C91.9265185,195.499501 92.8794379,195.675161 92.8794379,195.675161 C92.8794379,195.675161 93.8355896,195.498915 94.5648976,195.327067 C106.850007,192.427067 164.619609,164.062551 165.712983,75.5640176" id="Fill-4" fill="#C82525"></path>
                <polygon id="Fill-6" fill="#C82525" points="75.5601934 106.335865 88.2922313 142.499208 88.2992834 124.363431 80.4855204 101.434106 80.4811128 101.435572 76.6233024 90.103607 76.6241839 90.1033138 75.5601934 86.9813196 66.3171981 86.9813196 69.1974066 91.0470088 69.1947621 158.312111 66.4926199 162.331466 78.2373592 162.331466 75.5613687 158.309765"></polygon>
                <path d="M64.4015156,137.590499 C62.8177242,135.95912 61.4334493,134.126862 60.3629943,132.119531 C59.2563972,130.045044 58.4833071,127.776129 58.1777147,125.442111 C57.7907289,122.488739 58.1057242,119.478182 59.090672,116.667038 C59.8240938,114.57437 60.9083592,112.613959 62.2353355,110.838886 C63.6451744,108.952375 65.3244635,107.273783 67.165364,105.806041 C67.3742834,105.639765 67.5861412,105.477302 67.7991744,105.316305 L67.7991744,96.7585337 C67.7130796,96.8042815 67.6258095,96.8479765 67.5397147,96.8943109 L67.5397147,96.8916716 C66.8012976,97.3333138 66.0387858,97.7380059 65.298018,98.1781818 C64.6260085,98.5773021 63.9930796,99.0239296 63.3716104,99.4972434 C62.2168237,100.377302 61.1128711,101.323636 60.0729754,102.33654 C58.1154209,104.242991 56.3949943,106.384927 54.9543024,108.705161 C53.5770796,110.92305 52.4208237,113.308094 51.5478284,115.768504 C51.1032502,117.021877 50.6798284,118.282874 50.2461223,119.539472 C49.8802929,120.599003 49.5088806,121.654135 49.1218948,122.706334 C49.0975062,122.77261 49.0328616,122.877302 49.0331555,122.948856 C49.0337431,123.032434 49.1095536,123.155894 49.1377621,123.233021 C49.2761602,123.60956 49.4145583,123.9861 49.5529564,124.362346 C49.6728427,124.688152 49.7836199,125.017185 49.8967479,125.345337 C50.4018569,126.80868 50.9072597,128.272023 51.4123687,129.735073 C52.0996578,131.726276 52.9641318,133.664399 53.9755251,135.512493 C55.2739991,137.8861 56.8454493,140.108387 58.6693071,142.109267 C59.6187005,143.150909 60.6339137,144.132434 61.703781,145.050616 C62.8497526,146.0339 64.047146,146.978475 65.3488521,147.748563 C66.0731649,148.176716 66.8180464,148.573196 67.5397147,149.004575 L67.5397147,149.001935 C67.6261033,149.048563 67.7127858,149.093724 67.7991744,149.139765 L67.7991744,140.582287 C66.5941412,139.670557 65.4537526,138.67437 64.4015156,137.590499" id="Fill-8" fill="#C82525"></path>
                <path d="M103.303959,147.412639 C100.155182,148.104135 96.9352957,148.464252 93.7121773,148.513226 C90.696509,148.558974 87.6752578,148.334633 84.7021962,147.82437 C82.0694,147.372757 79.4742152,146.694164 76.9645374,145.779501 L76.9645374,153.035513 C80.0304521,153.917625 83.1739403,154.528768 86.3450493,154.880674 C89.994528,155.28566 93.6836749,155.351642 97.3457886,155.0839 C100.881552,154.825249 104.395864,154.251349 107.823201,153.344018 C108.161116,153.254575 108.497855,153.16132 108.833713,153.065425 L108.833713,145.818504 C107.028661,146.47129 105.178651,147.000909 103.303959,147.412639" id="Fill-10" fill="#C82525"></path>
                <path d="M88.2993422,97.5963636 L88.2993422,90.8318475 C88.0625081,90.8503226 87.8259678,90.8699707 87.5894275,90.891085 C84.6504512,91.1541349 81.7305744,91.6380059 78.8674085,92.3506158 L81.0788398,98.8470968 C83.4477687,98.2409384 85.8648872,97.8259824 88.2993422,97.5963636" id="Fill-12" fill="#C82525"></path>
                <polygon id="Fill-14" fill="#C82525" points="116.600873 91.0470381 119.481082 86.981349 110.237792 86.981349 109.174096 90.1033431 109.174683 90.1036364 105.317167 101.435601 105.312759 101.434135 97.4987024 124.36346 97.5060483 142.499238 110.237792 106.335894 110.236911 158.309795 107.560627 162.331496 119.30566 162.331496 116.603224 158.312141"></polygon>
                <path d="M123.158181,109.529032 C124.161935,110.700293 125.076067,111.955132 125.823006,113.305865 C126.626949,112.567742 127.430598,111.829912 128.234541,111.091789 C129.32674,110.088856 130.418645,109.086217 131.510845,108.083284 C131.83201,107.788563 132.152882,107.493842 132.473755,107.19912 C130.812683,105.819941 129.19275,104.391202 127.543432,102.997361 C126.59639,102.197361 125.667565,101.378299 124.683499,100.623167 C123.702371,99.8703812 122.688627,99.1636364 121.644617,98.5002933 C121.03784,98.1146628 120.420191,97.7457478 119.799897,97.3821114 C119.285385,97.0806452 118.765584,96.7791789 118.22257,96.5316716 L118.22257,96.5334311 C118.149698,96.4956012 118.076532,96.4589443 118.00366,96.4217009 L118.00366,104.844282 C119.8951,106.202639 121.643148,107.76129 123.158181,109.529032" id="Fill-16" fill="#C82525"></path>
                <path d="M126.715864,133.410205 C126.418206,133.136891 126.120841,132.863871 125.823182,132.590557 C124.209419,135.509032 121.868405,138.021935 119.270869,140.09437 C118.856556,140.424868 118.434016,140.744516 118.003836,141.0539 L118.003836,149.472962 C118.076414,149.436012 118.150168,149.400528 118.222452,149.362991 L118.222452,149.364751 C119.266462,148.888798 120.254642,148.260645 121.22813,147.657419 C122.279485,147.0061 123.301457,146.311378 124.2914,145.570323 C125.290746,144.822522 126.226917,144.006979 127.181305,143.20434 C128.10249,142.42956 129.016329,141.646276 129.929874,140.862405 C130.774955,140.137478 131.617097,139.408446 132.473931,138.697302 C131.763722,138.045103 131.05322,137.392903 130.343011,136.740704 C129.133864,135.63044 127.925011,134.520469 126.715864,133.410205" id="Fill-18" fill="#C82525"></path>
                <polygon id="Fill-20" fill="#C82525" points="92.8778512 162.331408 98.2286569 156.641085 87.5270455 156.641085"></polygon>
                <path d="M96.0824578,147.098827 L96.0815763,97.5947214 C96.0815763,97.5947214 100.244391,97.768915 104.697226,98.9120235 L106.938922,92.3266862 C104.200932,91.6504399 101.410932,91.1832845 98.6030076,90.9178886 C97.7593962,90.8381232 96.913728,90.7771261 96.0671782,90.7334311 L96.0827517,82.5865103 C96.0827517,82.5865103 101.176448,82.6234604 103.111671,82.8363636 C105.047188,83.0492669 108.241216,84.1199413 108.241216,84.1199413 L108.392837,76.3519062 L86.9752161,76.3519062 L89.4102588,80.3882698 L89.69969,82.7756598 L89.69969,82.7756598 L89.69969,147.073607 C91.9687137,147.230499 93.3920692,147.207625 96.0824578,147.098827" id="Fill-22" fill="#C82525"></path>
                <path d="M7.68993934,30.914956 C10.5463469,29.9832845 13.4259678,29.101173 16.3144038,28.2733138 C16.9679014,34.2639296 17.6219867,40.2545455 18.2757782,46.2451613 C18.4068303,48.0671554 18.4723564,48.9780059 18.6031147,50.8 C18.7559109,48.898827 18.832309,47.9483871 18.9851052,46.0472141 C19.6759204,39.6815249 20.3676171,33.3155425 21.0599014,26.9498534 C23.9680246,26.1612903 26.8967166,25.4240469 29.8315791,24.741349 L29.8315791,65.728739 C27.2140626,66.3422287 25.9079488,66.6653959 23.3024796,67.3434018 L23.3024796,42.0651026 C23.1490957,44.6495601 23.0724038,45.9416422 22.9193137,48.5260997 C22.207636,55.0211144 21.4968398,61.516129 20.7866313,68.0108504 C18.928982,68.5131965 18.0019204,68.7727273 16.1510294,69.3079179 C15.4437592,63.2281525 14.7367829,57.1483871 14.0301005,51.0686217 C13.8778919,48.5472141 13.8017877,47.2868035 13.6495791,44.7656891 L13.6495791,70.0439883 C11.2594938,70.759824 10.0673896,71.1316716 7.68993934,71.902346 L7.68993934,30.914956" id="Fill-24" fill="#C82525"></path>
                <path d="M32.5486777,24.1187977 C37.0975972,23.107654 41.669436,22.1906452 46.2644882,21.412346 L46.2644882,28.1053079 C43.511218,28.5765689 42.1369336,28.8296481 39.393654,29.3709971 L39.393654,39.6038416 C42.0705261,39.0756891 43.4116066,38.8281818 46.0978815,38.3668915 L46.0978815,44.9492962 C43.4116066,45.4105865 42.0705261,45.6580938 39.393654,46.1862463 L39.393654,57.3041349 C42.1369336,56.7630792 43.511218,56.51 46.2644882,56.038739 L46.2644882,62.4000293 C41.669436,63.1783284 37.0975972,64.0953372 32.5486777,65.1061877 L32.5486777,24.1187977" id="Fill-26" fill="#C82525"></path>
                <path d="M49.0062692,20.9572727 C51.7627716,20.5141642 53.1435204,20.3100587 55.9079564,19.9370381 L55.9079564,54.5634311 C58.3823735,54.2294135 59.6211981,54.0766276 62.1011981,53.798915 L62.1011981,60.159912 C57.7224114,60.6789736 53.3641934,61.2731085 49.0062692,61.944956 L49.0062692,20.9572727" id="Fill-28" fill="#C82525"></path>
                <path d="M73.0063517,52.9621408 C74.9107213,52.8251906 75.0229678,51.5521701 75.0229678,47.1823754 C75.0229678,42.8125806 74.9107213,41.7070088 73.0063517,41.8439589 C72.3343422,41.892346 71.9981905,41.917566 71.3264749,41.9700587 L71.3264749,53.0882405 C71.9981905,53.0357478 72.3343422,53.0105279 73.0063517,52.9621408 L73.0063517,52.9621408 Z M72.8943991,35.2143402 C74.6865223,35.0847214 74.7990626,34.2536364 74.7990626,29.8284164 C74.7990626,25.4031965 74.7426455,24.4603812 72.8943991,24.5941056 C72.2670531,24.6395601 71.953527,24.6633138 71.3264749,24.7122874 L71.3264749,35.332522 C71.953527,35.2835484 72.2670531,35.2597947 72.8943991,35.2143402 L72.8943991,35.2143402 Z M64.5014796,18.9143402 C67.5344844,18.5961584 70.5798303,18.3328152 73.6225318,18.1260704 C80.3464464,17.4073021 81.3560768,22.6433724 81.4136692,28.0372141 C81.4436408,30.8509971 81.837091,35.533695 78.7782284,37.1747507 C82.5458303,38.3870674 81.6913469,44.6712317 81.6939915,47.5512903 C81.6995744,53.2184457 80.3708351,58.8357478 73.678655,59.1096481 C70.6171479,59.3172727 67.5529962,59.5814956 64.5014796,59.9017302 L64.5014796,18.9143402 Z" id="Fill-30" fill="#C82525"></path>
                <path d="M104.471322,47.0745455 L104.471322,17.7029912 C107.252801,17.8202933 108.643246,17.8965396 111.422081,18.0842229 L111.422081,47.6217595 C111.422081,51.9915543 111.534327,52.9877419 113.494526,53.134956 C115.454431,53.2818768 115.565796,52.3026979 115.565796,47.93261 L115.565796,18.3950733 C118.274991,18.6191202 119.628706,18.747566 122.332905,19.0384751 L122.332905,48.4100293 C122.471597,55.122346 120.888687,60.0138416 113.32645,59.5387683 C105.876166,59.0707331 104.426071,53.6478592 104.471322,47.0745455" id="Fill-32" fill="#C82525"></path>
                <path d="M133.097604,41.0974487 C135.045755,41.3848387 135.017253,39.489824 135.100703,34.2094721 C135.13185,32.2329326 135.783879,27.5951026 133.097604,26.8819062 C132.45204,26.7865982 132.129111,26.7399707 131.482959,26.6487683 L131.482959,40.8643109 C132.129111,40.9555132 132.45204,41.0021408 133.097604,41.0974487 M124.791073,19.313871 C127.861689,19.6660704 130.932599,20.0766276 133.987936,20.5429032 C141.308931,21.7285337 141.943917,28.7059531 141.9304,34.8581525 C141.922466,38.5959824 142.311215,44.2625513 138.657035,46.6769208 C139.675774,52.0531672 140.693045,57.43 141.708845,62.8068328 C139.025215,62.3238416 137.681196,62.0992082 134.989338,61.6833724 C134.100476,56.903607 133.20985,52.1241349 132.318343,47.3446628 C131.984248,47.2962757 131.817054,47.272522 131.482959,47.2253079 L131.482959,61.1643109 C128.809319,60.786305 127.470883,60.6135777 124.791073,60.301261 C124.790779,46.6387977 124.790779,32.9763343 124.791073,19.313871" id="Fill-34" fill="#C82525"></path>
                <path d="M144.047891,22.2505279 C146.971882,22.8027273 148.431085,23.0986217 151.342735,23.7302933 C152.299474,28.3305865 153.254744,32.931173 154.207957,37.532346 C154.670166,39.9830792 154.901417,41.2088856 155.363332,43.6619648 L155.363332,24.6338123 C157.937654,25.2326393 159.222318,25.5475953 161.78518,26.2088856 L161.78518,67.1965689 C159.200573,66.5297067 157.904744,66.2121114 155.308384,65.6085924 C154.081019,60.0578592 152.851009,54.5077126 151.618355,48.9578592 C151.155265,46.688651 150.92372,45.5546334 150.460336,43.2871848 L150.460336,64.527654 C147.900118,63.9813196 146.617512,63.7232551 144.047891,63.2379179 L144.047891,22.2505279" id="Fill-36" fill="#C82525"></path>
                <path d="M164.485941,26.9204106 C169.009591,28.1435777 173.510027,29.4620528 177.965211,30.9148387 L177.965211,37.6080938 C175.285107,36.7388856 173.940794,36.3218768 171.244823,35.5230499 L171.244823,45.7558944 C173.875562,46.5356598 175.187553,46.9421114 177.803306,47.7884457 L177.803306,54.3708504 C175.187553,53.5245161 173.875562,53.1180645 171.244823,52.3382991 L171.244823,63.4564809 C173.940794,64.2553079 175.285107,64.6723167 177.965211,65.5412317 L177.965211,71.902522 C173.510027,70.4494428 169.009591,69.131261 164.485941,67.9078006 L164.485941,26.9204106 Z" id="Fill-38" fill="#C82525"></path>
                <path d="M95.2354673,38.0895015 C95.2354673,24.7035777 95.2354673,23.9290909 93.0184531,23.9290909 C90.8569744,23.9290909 90.8569744,24.7035777 90.8569744,38.0895015 C90.8569744,51.5859824 90.8569744,52.305044 93.0184531,52.305044 C95.2354673,52.305044 95.2354673,51.5859824 95.2354673,38.0895015 M86.3121687,56.6748387 C83.9843773,53.9091496 83.8736,48.6543109 83.8736,37.9235191 C83.8736,27.6352493 83.9843773,22.3804106 86.1458559,19.5041642 C87.4760645,17.8446334 89.6930787,17.1255718 93.0184531,17.1255718 C96.3438275,17.1255718 98.6163773,17.8446334 99.8355147,19.3933138 C102.108064,22.2144282 102.163306,27.4692669 102.163306,37.9235191 C102.163306,49.3733724 102.108064,54.3516716 99.780273,56.8962463 C98.5608417,58.2789443 96.3438275,58.7768915 93.0184531,58.7768915 C89.7486142,58.7768915 87.5316,58.1683871 86.3121687,56.6748387" id="Fill-40" fill="#C82525"></path>
            </g>
        </g>
    </g>
</svg>