<?xml version="1.0" encoding="UTF-8" standalone="no"?>
<svg width="148px" height="200px" viewBox="0 0 148 200" version="1.1" xmlns="http://www.w3.org/2000/svg" xmlns:xlink="http://www.w3.org/1999/xlink">
    <!-- Generator: sketchtool 3.8.3 (29802) - http://www.bohemiancoding.com/sketch -->
    <title>71219A1E-E353-4999-8069-FDE582A0BFF1</title>
    <desc>Created with sketchtool.</desc>
    <defs>
        <polyline id="path-1" points="0 0.0462462462 147.890348 0.0462462462 147.890348 200 0 200"></polyline>
        <polyline id="path-3" points="0 0.0462462462 147.890348 0.0462462462 147.890348 200 0 200"></polyline>
        <polyline id="path-5" points="0 0.0462462462 147.890348 0.0462462462 147.890348 200 0 200"></polyline>
    </defs>
    <g id="Page-1" stroke="none" stroke-width="1" fill="none" fill-rule="evenodd">
        <g id="FULL-LOGO" transform="translate(-4478.000000, -387.000000)">
            <g id="icon_club_Richmond" transform="translate(4478.000000, 387.000000)">
                <path d="M141.291286,28.6039039 C141.291286,28.6039039 133.248954,24.5456456 112.706913,21.9228228 C114.796889,19.5654655 116.869488,15.8099099 117.744905,9.11861862 C118.13378,6.19129129 116.361974,5.02912913 113.225213,5.02732733 C105.552581,5.01711712 100.941812,4.60690691 94.8420551,3.71801802 C84.6282575,-2.5996997 74.5672534,1.15225225 74.5672534,1.15225225 C62.2496988,-2.17207207 51.225796,3.52822823 51.225796,3.52822823 C45.4771644,3.57687688 38.9465895,3.25075075 34.5185733,2.59429429 C32.4975045,2.27177177 31.2368081,1.97507508 29.5446947,2.22012012 C26.7081279,2.63753754 26.5020065,11.7084084 29.9425571,17.0555556 C30.6843547,18.333033 32.3321279,20.3462462 34.0571968,22.1156156 C14.6188648,24.7444444 6.96720486,28.6039039 6.96720486,28.6039039 C-4.85961296,78.7474474 14.2090186,121.94985 48.3161279,146.447748 C58.0062332,153.773874 66.2289215,159.090991 74.128047,163.832733 C82.0301684,159.090991 90.2522575,153.773874 99.9435611,146.447748 C134.045877,121.94985 153.115707,78.7474474 141.291286,28.6039039" id="Fill-1" fill="#121313"></path>
                <path d="M101.295334,79.1927928 L101.295334,79.1927928 C101.300128,79.190991 101.307318,79.190991 101.295334,79.1927928" id="Fill-3" fill="#121313"></path>
                <path d="M63.927851,86.5448649 C65.4503935,84.6854054 67.1041587,83.086006 69.0317538,81.7172372 C68.1383611,81.0121321 67.4037538,80.2511712 66.8093571,79.4655856 C64.9590575,80.3412613 63.2489684,81.0013213 61.2758348,82.5742943 C62.7444502,80.4271471 63.8223935,79.7472673 66.062766,78.2427628 C66.0076405,78.1454655 65.8578429,77.9484685 65.7817457,77.8199399 C62.7049036,78.9328529 60.1978915,80.2854054 58.5165636,81.7790991 C58.4973895,81.7586787 58.4728227,81.7346547 58.4530494,81.7118318 C58.4404664,81.7238438 58.4272842,81.7346547 58.4147012,81.7460661 C57.5159158,80.843964 56.4415676,79.4013213 55.4804664,77.9184384 C54.8812761,79.2481682 54.2940696,80.7238438 53.8201101,82.286006 C53.4749765,83.5742943 53.2113328,84.655976 53.1286445,85.1454655 C53.1202559,85.1700901 53.1130656,85.1941141 53.1040777,85.2169369 C53.0651304,85.4307508 53.0291789,85.6445646 52.9962235,85.8571772 C52.4881101,85.7833033 51.7648874,85.5995195 50.988936,85.3514715 C51.099187,88.0403604 51.6875919,90.8013213 52.6085474,93.8133333 C52.5102802,92.1124324 52.3910413,91.1502703 52.5971628,89.8691892 C53.2101344,92.7034234 53.5798348,93.7508709 55.3821992,96.3556757 C61.3309603,90.7766967 67.4690656,87.6007207 74.6713328,85.7604805 C74.6737296,85.7604805 74.6737296,85.7622823 74.6749279,85.7622823 C74.423268,85.3917117 74.1853895,85.0199399 73.9738753,84.661982 C72.3692437,83.9298498 71.0210656,83.1989189 70.0228146,82.4361562 C68.1922883,83.4127327 66.2413247,84.7178378 63.927851,86.5448649" id="Fill-5" fill="#FCCE00"></path>
                <path d="M60.1103498,154.909189 C55.8668842,142.359039 57.6434834,134.673153 64.721119,117.50979 C59.4991757,122.741622 55.4516453,124.944625 52.9799854,133.377658 C53.1094105,131.303784 53.488698,129.356637 53.9111271,128.343423 C51.0463984,124.915796 49.0756615,120.812492 48.0408599,114.895375 C47.3961312,115.962643 46.7993377,117.094775 46.2858316,118.601081 C46.3607304,116.132012 46.7340259,114.937417 47.7089085,112.660541 C47.6771514,112.425105 47.6465927,112.193874 47.6208275,111.948829 C47.0030623,112.978859 46.4188518,113.959039 46.1941555,114.806486 C43.7662364,107.655135 42.6481474,96.4311111 44.9712081,88.1884685 C45.5703984,100.428709 49.086447,107.967447 55.0196291,114.327808 C55.5277425,113.532613 56.0963741,112.828709 56.8255887,112.116396 C56.2671433,113.040721 55.8668842,113.888769 55.5415239,114.707387 C55.0675644,115.728408 54.8159045,116.575255 54.3077911,118.372252 C55.450447,116.497778 56.0598235,115.48997 56.7518883,114.475556 C62.6149652,106.277958 70.9191433,103.575255 76.4748356,98.0070871 C76.4748356,98.0070871 73.3033215,99.2581381 70.6920502,101.243123 C74.6592891,97.4389189 78.9896372,96.2725526 82.5422364,90.9055856 C82.8442283,90.4473273 83.2145279,89.9037838 83.6004065,89.2773574 C83.3415563,89.3296096 83.1180583,89.338018 82.9191271,89.3097898 C82.210285,90.4311111 80.8081798,92.2227027 79.4647951,93.2893694 C80.6020583,91.6983784 81.189864,90.3488288 81.5349976,89.2773574 C79.9878883,89.0112913 76.9248275,88.6725526 75.8510785,87.3518318 C74.6934429,87.9145946 73.1073862,88.5236036 71.5782526,89.3422222 C68.707532,90.871952 66.7164227,92.2160961 63.7708032,94.3878679 C66.2029166,93.292973 67.5091514,92.8257057 69.7021879,92.2160961 C64.3376372,94.7890691 58.0784955,99.8881682 54.9764874,104.526607 C52.8847142,102.327207 51.7893943,99.7061862 50.8133134,95.4881682 C50.6545279,96.9824625 50.6743012,98.0365165 50.8966008,99.9980781 C48.84737,94.4221021 48.2763417,88.8521321 48.7898478,84.5356156 C47.4194996,83.9115916 46.1941555,83.0130931 45.2851838,82.2605405 C41.7206008,89.2311111 38.1320502,100.782462 38.2890381,108.523604 C38.8954186,106.089369 39.7025279,104.306186 39.7025279,104.306186 C38.6988842,115.407087 40.4449247,129.46955 47.5201636,141.034114 C50.7563903,146.318799 54.8111109,150.464745 60.1103498,154.909189" id="Fill-7" fill="#FEFEFE"></path>
                <path d="M86.3565619,130.207147 C99.7718332,116.032973 102.732432,103.993333 97.579396,90.3867267 C97.6968372,101.501441 73.3792988,117.945285 69.6319628,124.033574 C70.9298089,123.058799 75.3614202,120.288829 76.2859709,119.673213 C72.9179223,122.377117 71.0891935,124.103844 68.754149,127.573514 C71.046651,125.295435 73.1695822,124.135676 74.9893231,122.886426 C65.7396227,130.997538 63.1463271,144.481021 66.1213069,158.872012 C68.8326429,160.608949 71.4690802,162.235976 74.0683676,163.796336 C72.4241895,149.903844 78.8606915,138.124264 86.3565619,130.207147" id="Fill-9" fill="#FEFEFE"></path>
                <path d="M51.188047,193.697237 C51.515804,193.697237 52.1299741,193.726667 52.605132,193.726667 L54.4811968,193.726667 C54.8520955,193.726667 55.376387,193.726667 55.6957555,193.677417 C55.7077393,193.677417 55.7251158,193.697237 55.7251158,193.705646 C55.6586057,193.989129 55.599885,194.632372 55.5693263,195.148288 C55.5201927,195.187928 55.3380389,195.197538 55.2889053,195.178919 C55.2397717,194.798739 55.171464,194.565105 55.0863789,194.40955 C54.998298,194.233574 54.8520955,194.184324 54.7178769,194.165105 C54.4907838,194.135676 53.540468,194.135676 53.3834802,194.157297 C53.3367433,194.165105 53.2864113,194.282823 53.2864113,194.321261 C53.2780227,194.956096 53.2864113,195.656396 53.2864113,196.318859 C53.2864113,196.356697 53.3271563,196.395135 53.345132,196.395135 C53.5985895,196.395135 54.3373911,196.404745 54.6381846,196.387928 C54.8419093,196.376517 54.9401765,196.26961 55.0174721,195.997538 C55.0474316,195.90024 55.0666057,195.81015 55.0863789,195.685826 C55.1247271,195.665405 55.3380389,195.665405 55.376387,195.693634 C55.3685976,195.937477 55.3272534,196.288228 55.3272534,196.62036 C55.3272534,196.872613 55.3470267,197.283423 55.3590105,197.565706 C55.3182656,197.593934 55.1037555,197.603544 55.0666057,197.574114 C54.998298,197.283423 55.0054883,197.321862 54.9683385,197.193934 C54.9204032,197.04979 54.8323223,196.912853 54.6184113,196.892432 C54.4530348,196.872613 53.6375368,196.872613 53.345132,196.872613 C53.3181684,196.872613 53.2864113,196.931471 53.2864113,196.95009 L53.2864113,198.803544 C53.2864113,198.946486 53.3649053,199.094234 53.4889377,199.123664 C53.675885,199.154294 54.122881,199.181321 54.6076259,199.181321 C55.1343142,199.181321 55.2511563,199.134474 55.4339093,198.919459 C55.6400308,198.703844 55.8257798,198.336877 55.9689862,197.984925 C56.0181198,197.974114 56.2110591,198.034174 56.2416178,198.071411 C56.2110591,198.258198 55.9977474,199.163904 55.8317717,199.484024 C55.7838364,199.582523 55.7251158,199.64018 55.3098769,199.64018 C54.4626219,199.64018 53.540468,199.591532 52.6344923,199.591532 C52.1209862,199.591532 51.4792534,199.620961 50.964549,199.620961 C50.9447757,199.562703 50.9447757,199.395736 50.964549,199.358498 C51.2749296,199.319459 51.5086138,199.289429 51.64463,199.249189 C51.8291806,199.191532 51.9184599,199.075616 51.9184599,198.754294 C51.9478202,198.207748 51.9478202,197.37952 51.9478202,196.328468 C51.9478202,195.586727 51.9478202,194.808348 51.9184599,194.456396 C51.8962899,194.184324 51.8597393,194.105646 51.6536178,194.038378 C51.515804,194.001141 51.3450348,193.977718 51.1796583,193.960901 C51.1485004,193.91045 51.1694721,193.726667 51.188047,193.697237" id="Fill-11" fill="#121313"></path>
                <path d="M59.2185749,199.191772 C59.4726316,199.368949 59.8129717,199.445225 60.1149636,199.445225 C60.5901215,199.445225 60.9388502,199.144925 60.9388502,198.636817 C60.9388502,198.137117 60.7285344,197.826607 59.8818785,197.304084 C58.9657166,196.708288 58.3851012,196.251231 58.3851012,195.295075 C58.3851012,194.164144 59.3168421,193.551532 60.4169555,193.551532 C61.1287935,193.551532 61.5308502,193.678258 61.9628664,193.707688 C61.8939595,194.087868 61.8352389,194.505285 61.7956923,195.1203 C61.7579433,195.14973 61.5721943,195.157538 61.5308502,195.129309 C61.4457652,194.545526 61.3379109,194.251832 61.086251,194.069249 C60.862753,193.911892 60.6392551,193.853033 60.3372632,193.853033 C59.8129717,193.853033 59.4816194,194.224204 59.4816194,194.69988 C59.4816194,195.108288 59.6751579,195.401381 60.0646316,195.675856 C60.4756761,195.956336 60.7069636,196.093874 61.1287935,196.356336 C61.826251,196.813994 62.1558057,197.252432 62.1558057,197.926306 C62.1558057,198.978559 61.3283239,199.767748 59.8716923,199.767748 C59.2407449,199.767748 58.6265749,199.582162 58.4228502,199.463844 C58.3269798,199.317297 58.1604049,198.275856 58.1406316,197.953934 C58.1699919,197.904685 58.3653279,197.857838 58.4042753,197.884865 C58.6193846,198.578559 58.8602591,198.918498 59.2185749,199.191772" id="Fill-13" fill="#121313"></path>
                <path d="M68.1490866,199.630511 C67.7709976,199.630511 67.2934429,199.602282 66.682868,199.602282 C65.7768923,199.602282 65.3203093,199.630511 65.0183174,199.630511 C64.9811676,199.582462 64.9811676,199.395676 65.0183174,199.368048 C65.2340259,199.348829 65.4856858,199.317598 65.6199045,199.27976 C65.8565846,199.222102 65.9350785,199.115796 65.9596453,198.655736 C66.0003903,197.691171 65.9932,195.714595 65.9932,194.223904 C65.9932,194.205285 65.97103,194.157237 65.9416696,194.157237 C65.7685036,194.136216 65.1962769,194.136216 64.9715806,194.157237 C64.7468842,194.173453 64.6114672,194.273153 64.4850381,194.486967 C64.3598073,194.70979 64.2225927,195.021502 64.1267223,195.315796 C64.0961636,195.342823 63.8624794,195.304384 63.8445036,195.247928 C63.9206008,194.856336 63.9978964,194.038318 64.0200664,193.657538 C64.0200664,193.63952 64.0763903,193.59027 64.0961636,193.59988 C64.4077425,193.705586 64.7354996,193.726607 64.9715806,193.726607 L68.4217182,193.726607 C68.915451,193.726607 69.189281,193.687568 69.4607142,193.611892 C69.4912729,193.611892 69.5098478,193.649129 69.5194348,193.666547 C69.422366,194.029309 69.3348842,194.692973 69.2971352,195.315796 C69.2665765,195.342823 69.0328923,195.354835 69.0149166,195.325405 C68.9645846,194.993273 68.8980745,194.692973 68.8105927,194.477357 C68.7117263,194.252132 68.6158559,194.185465 68.4217182,194.163844 C68.1598721,194.146426 67.4690057,194.146426 67.3617506,194.157237 C67.3425765,194.163844 67.3144146,194.195676 67.3144146,194.233514 C67.3144146,195.596276 67.3144146,198.148829 67.3425765,198.803483 C67.3521636,199.044925 67.4000988,199.192072 67.6050219,199.272553 C67.7709976,199.317598 67.8387061,199.317598 68.1598721,199.368048 C68.1982202,199.395676 68.1874348,199.602282 68.1490866,199.630511" id="Fill-15" fill="#121313"></path>
                <path d="M77.6050883,199.630511 C77.2431773,199.630511 76.6230154,199.592072 76.0483919,199.592072 C75.3509344,199.592072 74.9602623,199.630511 74.6690559,199.630511 C74.6420923,199.592072 74.6313069,199.386667 74.6690559,199.358438 C74.9123271,199.326607 74.9896227,199.317598 75.1651854,199.289369 C75.4492016,199.222102 75.4749668,198.957237 75.4857522,198.655736 C75.5067239,198.258138 75.5067239,197.682162 75.5163109,196.757838 C75.5163109,195.966847 75.5163109,195.237718 75.4857522,194.974655 C75.4749668,194.809489 75.4168453,194.641321 75.242481,194.614294 C75.1172502,194.584264 74.9332988,194.554835 74.795485,194.536216 C74.7673231,194.486967 74.785898,194.291772 74.8164567,194.263544 C75.6025943,194.223904 76.3234202,193.968048 76.7404567,193.794474 C76.7686186,193.783063 76.8561004,193.825105 76.8561004,193.853333 C76.8267401,194.252132 76.8177522,194.593273 76.8177522,195.394474 C76.8177522,196.181862 76.8177522,197.819099 76.845315,198.617898 C76.8668858,198.967447 76.9040356,199.230511 77.1580923,199.289369 C77.3606186,199.326607 77.5068211,199.337417 77.6344486,199.358438 C77.6530235,199.386667 77.6530235,199.592072 77.6050883,199.630511" id="Fill-17" fill="#121313"></path>
                <path d="M80.9041101,194.856216 C80.9041101,195.364324 81.1767417,195.647808 82.1690008,196.243003 C82.1761911,196.243003 82.194766,196.243003 82.2151385,196.22979 C82.4488227,195.939099 82.538102,195.605766 82.538102,195.277237 C82.538102,194.652012 82.2055514,194.088048 81.6135514,194.088048 C81.1863287,194.088048 80.9041101,194.468228 80.9041101,194.856216 M82.5470899,198.636997 C82.5470899,198.121081 82.2151385,197.74991 81.1371951,197.096456 C81.1276081,197.079039 81.1006445,197.096456 81.0880615,197.108468 C80.8268146,197.39015 80.6608389,197.731291 80.6608389,198.099459 C80.6608389,198.724685 81.1276081,199.386547 81.7783287,199.386547 C82.2349117,199.386547 82.5470899,199.094655 82.5470899,198.636997 M83.3919482,195.209369 C83.3919482,195.568529 83.1768389,195.919279 82.4398348,196.368529 C82.4302478,196.387147 82.4302478,196.405766 82.4398348,196.415375 C83.1954138,196.901862 83.6346202,197.304264 83.6346202,198.003363 C83.6346202,198.861021 82.8281101,199.699459 81.5440453,199.699459 C80.1736972,199.699459 79.678766,198.899459 79.678766,198.227387 C79.678766,197.81958 79.9424097,197.456817 80.8549765,196.940901 C80.8669603,196.940901 80.8759482,196.913874 80.8549765,196.901862 C80.330685,196.532492 79.8812923,196.084444 79.8812923,195.42018 C79.8812923,194.943904 80.1047903,194.477237 80.4780858,194.214775 C80.8058429,193.951712 81.2624259,193.794354 81.7687417,193.794354 C82.711268,193.794354 83.3919482,194.350511 83.3919482,195.209369" id="Fill-19" fill="#121313"></path>
                <path d="M86.8936761,194.856216 C86.8936761,195.364324 87.1651093,195.647808 88.1573684,196.243003 C88.1645587,196.243003 88.1855304,196.243003 88.2059028,196.22979 C88.4383887,195.939099 88.527668,195.605766 88.527668,195.277237 C88.527668,194.652012 88.1951174,194.088048 87.6031174,194.088048 C87.1746964,194.088048 86.8936761,194.468228 86.8936761,194.856216 M88.5366559,198.636997 C88.5366559,198.121081 88.2059028,197.74991 87.1279595,197.096456 C87.1159757,197.079039 87.0878138,197.096456 87.0764291,197.108468 C86.8139838,197.39015 86.6504049,197.731291 86.6504049,198.099459 C86.6504049,198.724685 87.1159757,199.386547 87.7666964,199.386547 C88.2256761,199.386547 88.5366559,199.094655 88.5366559,198.636997 M89.3797166,195.209369 C89.3797166,195.568529 89.1664049,195.919279 88.4294008,196.368529 C88.4210121,196.387147 88.4210121,196.405766 88.4294008,196.415375 C89.1849798,196.901862 89.6229879,197.304264 89.6229879,198.003363 C89.6229879,198.861021 88.8152794,199.699459 87.532413,199.699459 C86.1644615,199.699459 85.6695304,198.899459 85.6695304,198.227387 C85.6695304,197.81958 85.9319757,197.456817 86.8469393,196.940901 C86.8541296,196.940901 86.8643158,196.913874 86.8469393,196.901862 C86.320251,196.532492 85.8732551,196.084444 85.8732551,195.42018 C85.8732551,194.943904 86.0955547,194.477237 86.4640567,194.214775 C86.7954089,193.951712 87.2519919,193.794354 87.7571093,193.794354 C88.700834,193.794354 89.3797166,194.350511 89.3797166,195.209369" id="Fill-21" fill="#121313"></path>
                <g id="Group-25">
                    <mask id="mask-2" fill="white">
                        <use xlink:href="#path-1"></use>
                    </mask>
                    <g id="Clip-24"></g>
                    <path d="M94.9160551,193.862643 C94.9160551,193.961141 94.711132,194.496276 94.4480874,194.807988 C94.3414316,194.934715 94.1305166,195.04042 93.9741279,195.04042 C93.3407838,195.04042 92.9135611,194.974955 92.7673587,194.974955 C92.7499822,194.974955 92.6912615,194.993574 92.6798769,195.021802 C92.6025814,195.195375 92.5558445,195.305285 92.4971239,195.478859 C92.4971239,195.490871 92.5264842,195.56955 92.5558445,195.578559 C92.8482494,195.713694 93.9154073,196.161742 94.3342413,196.405586 C94.9454154,196.737718 95.3432777,197.144925 95.3432777,197.916697 C95.3432777,199.202583 93.9741279,200.00018 92.8176907,200.00018 C92.2442656,200.00018 91.8086543,199.795976 91.5629862,199.542523 C91.4976745,199.475856 91.4095935,199.347928 91.4095935,199.211592 C91.4095935,199.055435 91.5851563,198.736517 91.6918121,198.587568 C91.7127838,198.566547 91.7786947,198.53952 91.8086543,198.528108 C92.1975287,199.104084 92.7781441,199.554535 93.4684113,199.554535 C93.9657393,199.554535 94.2653344,199.180961 94.2653344,198.714294 C94.2653344,198.295676 94.1083466,197.884865 93.5163466,197.505886 C93.0118283,197.165946 92.0687028,196.776757 91.8464032,196.64042 C91.8356178,196.581562 91.8170429,196.386967 91.8356178,196.319099 C92.0099822,195.734715 92.5366704,194.417598 92.796719,194.036216 C92.8949862,193.911892 92.982468,193.862643 93.0597636,193.862643 C93.2167514,193.862643 93.6919093,193.911892 94.2066138,193.911892 C94.5403628,193.911892 94.6236502,193.883664 94.7812372,193.755736 C94.821383,193.755736 94.9160551,193.815796 94.9160551,193.862643" id="Fill-23" fill="#121313" mask="url(#mask-2)"></path>
                </g>
                <path d="M42.8789555,183.456517 C42.140753,184.621081 41.205417,185.815676 40.4995709,186.382042 C39.6487206,187.063724 38.8260324,187.147808 38.1171903,187.147808 C33.4111498,187.147808 31.8808178,182.746607 31.8808178,179.563423 C31.8808178,174.676336 33.8090121,172.373634 36.7851903,172.373634 C37.9452227,172.373634 38.9962024,172.571832 39.9003806,173.084144 C41.0370445,173.737598 41.205417,174.645706 41.6032794,176.466126 C41.662,176.665526 42.8789555,176.54961 43.0203644,176.323183 C43.0203644,174.788649 43.2474575,172.373634 43.3894656,171.38024 C42.3127206,171.352012 40.1262753,170.870931 37.4089474,170.870931 C35.0846883,170.870931 33.2685425,171.294354 31.7118462,172.034294 C28.5361377,173.540601 26.9183239,176.54961 26.9183239,179.821081 C26.9183239,186.012673 30.8597976,189.111772 37.294502,189.111772 C39.3928664,189.111772 40.5828583,188.684745 41.4900324,188.373033 C42.3408826,187.88955 43.6159595,185.558619 44.0419838,184.308168 C43.8142915,183.938799 43.2216923,183.541201 42.8789555,183.456517" id="Fill-26" fill="#121313"></path>
                <g id="Group-30">
                    <mask id="mask-4" fill="white">
                        <use xlink:href="#path-3"></use>
                    </mask>
                    <g id="Clip-29"></g>
                    <path d="M9.99605182,179.505706 C9.54546073,179.762763 8.15533927,179.846847 6.99291012,179.846847 C6.85030283,179.846847 6.79637571,179.678078 6.79637571,179.564565 C6.79637571,177.489489 6.79637571,174.336336 6.85030283,173.454054 C6.85030283,173.338739 6.9635498,173.115916 7.04923401,173.027027 C7.16367935,172.942342 7.67179271,172.888288 7.95760648,172.888288 C9.99605182,172.888288 11.4143352,174.277477 11.4143352,176.637838 C11.4143352,178.371171 10.7929749,179.108108 9.99605182,179.505706 M25.1609587,186.951952 C24.4257522,186.723724 24.3670316,186.155556 24.3388696,185.644444 C24.2831449,184.536937 24.3137036,181.693694 24.3137036,179.07988 C24.3137036,176.637838 24.2831449,175.186787 24.3388696,174.251652 C24.3670316,173.737538 24.3670316,173.171171 25.0213474,172.972973 C25.4743352,172.827628 26.0699304,172.742943 26.6912907,172.66006 C26.8356955,172.485886 26.808732,171.466667 26.6912907,171.294294 C25.9566834,171.294294 25.0213474,171.38018 21.9870478,171.38018 C19.9168453,171.38018 18.4991611,171.294294 17.5374607,171.294294 C17.3666915,171.494895 17.3666915,172.460661 17.4787401,172.66006 C18.0755336,172.742943 18.5578818,172.801802 19.2098008,173.001201 C19.6945457,173.142943 19.9168453,173.540541 19.9456065,174.136937 C20.0043271,175.273273 20.0043271,176.239039 20.0043271,179.308709 C20.0043271,180.698498 20.0043271,184.933333 19.9456065,185.615015 C19.8617198,186.695495 19.6945457,186.924324 18.8682623,187.091892 C18.7262543,187.122523 18.4314526,187.129129 18.2421085,187.077477 C17.6039709,186.901502 17.3523109,186.651652 16.7159709,186.012613 C15.4708534,184.764565 12.984813,181.547748 12.3790316,180.389189 C12.3340923,180.302102 12.329898,180.203604 12.4077927,180.16036 C14.3072259,179.338138 15.7261085,178.086486 15.7261085,175.840841 C15.7261085,173.338739 13.6822704,171.294294 10.0547725,171.294294 C9.09007611,171.294294 7.39077247,171.38018 4.4721166,171.38018 C3.33485344,171.38018 0.927306883,171.294294 0.218464777,171.294294 C0.0207319838,171.408408 -0.0967093117,172.403003 0.104618623,172.66006 C0.729574089,172.772372 1.38029474,172.888288 1.71943644,173.001201 C2.23234332,173.115916 2.45823806,173.454054 2.51336356,174.078078 C2.57148502,175.102102 2.57148502,177.090691 2.57148502,179.875075 C2.57148502,181.63964 2.54272389,184.848649 2.48400324,185.756757 C2.45823806,186.525526 2.26050526,186.924324 1.6355498,187.064865 C1.26824615,187.14955 0.586966802,187.263063 0.162140891,187.31952 C-0.0661506073,187.462462 0.046497166,188.56997 0.189104453,188.684685 C1.01179271,188.684685 2.51336356,188.599399 4.78249717,188.599399 C7.1361166,188.599399 8.72037571,188.684685 9.20392227,188.684685 C9.40405182,188.684685 9.45977652,187.35015 9.28661053,187.31952 C8.5238413,187.204204 8.23802753,187.175976 7.58850526,186.978979 C7.04923401,186.81021 6.87966316,186.381982 6.85030283,185.756757 C6.82094251,184.848649 6.79637571,183.541141 6.79637571,181.808408 C6.79637571,181.751952 6.87966316,181.609009 6.93478866,181.609009 C7.02227045,181.609009 7.4752583,181.609009 7.7586753,181.63964 C8.15533927,181.665465 8.35427045,181.723724 8.58256194,182.064264 C9.5161004,183.541141 10.5365215,185.301502 11.7283109,186.77958 C11.8966834,187.064865 12.4257684,187.65045 13.230481,188.060661 C14.6373798,188.77958 17.4835336,188.75976 19.0725862,188.647447 C19.8251692,188.624024 20.7862704,188.599399 22.2153393,188.599399 C24.7067725,188.599399 25.9566834,188.654054 26.8356955,188.684685 C27.0352259,188.541742 27.177234,187.54955 27.0603919,187.31952 C26.4108696,187.204204 25.5036955,187.064865 25.1609587,186.951952" id="Fill-28" fill="#121313" mask="url(#mask-4)"></path>
                </g>
                <path d="M88.3706202,186.922883 C87.6354138,186.724685 87.434685,186.099459 87.4065231,185.416577 C87.2375514,183.455616 87.0104583,176.522883 87.0398186,174.420781 C87.0398186,173.796757 87.1231061,173.285045 87.7738267,173.055015 C88.1728874,172.914474 88.8529684,172.827387 89.6768551,172.661021 C89.8733895,172.518078 89.8170656,171.350511 89.6768551,171.295255 C88.2585717,171.295255 87.0104583,171.37994 82.8724502,171.37994 C82.8161263,171.91988 82.5896324,172.518078 82.3319806,173.172132 C81.5116891,175.187748 79.2143935,179.99015 78.4210656,181.465826 C78.3647417,181.524685 78.2814543,181.552913 78.1939725,181.465826 C77.3443206,179.847207 75.4742478,175.868228 74.3387822,173.341502 C74.0577619,172.743303 73.8019077,172.08985 73.7162235,171.37994 C71.5908955,171.37994 68.5296324,171.295255 66.343187,171.295255 C66.2593004,171.37994 66.1466526,172.487447 66.2335352,172.661021 C67.1658753,172.827387 67.9897619,172.99976 68.4990737,173.172132 C69.0677053,173.397357 69.2384745,173.993754 69.208515,174.476637 C69.1240291,176.522883 68.5296324,183.113874 68.2731789,185.301862 C68.159932,186.355315 67.848353,186.809369 67.0256648,187.035195 C66.7368551,187.123483 66.2347336,187.192553 65.7697619,187.262823 C65.5288874,187.298258 65.1639806,187.300661 64.9458753,187.262823 C64.1267822,187.122282 63.6660049,187.042402 63.3148794,186.894655 C62.8043692,186.667027 62.718685,186.099459 62.6923206,185.587748 C62.6359968,184.307267 62.6359968,182.005165 62.6359968,180.074835 C62.6359968,177.715676 62.6078348,176.323483 62.6629603,174.476637 C62.6923206,173.567928 62.7774057,173.20036 63.3148794,172.99976 C63.6258591,172.827387 64.2789765,172.715075 64.87577,172.661021 C65.0723045,172.459219 65.0723045,171.494054 64.87577,171.295255 C63.827187,171.295255 63.0044988,171.37994 60.5082721,171.37994 C58.184013,171.37994 57.4470089,171.295255 56.0017619,171.295255 C55.8022316,171.438799 55.7758672,172.518078 55.9442397,172.661021 C56.8508146,172.773333 57.3918834,172.827387 57.7885474,173.026787 C58.184013,173.172132 58.2684988,173.68024 58.2984583,174.04961 C58.3266202,175.67003 58.3266202,177.148108 58.3266202,178.5403 C58.3266202,178.596757 58.2121749,178.680841 58.1276891,178.711471 C57.8448713,178.767928 57.107268,178.767928 55.0664259,178.767928 C52.2867822,178.767928 51.8619563,178.767928 51.6073004,178.711471 C51.5533733,178.652613 51.5228146,178.626787 51.4640939,178.483844 C51.4640939,176.892252 51.4640939,175.471832 51.4946526,174.276036 C51.4946526,173.596156 51.5791385,173.172132 52.1465717,172.942703 C52.4299887,172.827387 53.0813085,172.715075 53.6211789,172.661021 C53.7931466,172.518078 53.7931466,171.465826 53.6481425,171.295255 C53.0255838,171.295255 51.5791385,171.37994 49.1703935,171.37994 C46.4776324,171.37994 45.5704583,171.295255 44.8334543,171.295255 C44.690847,171.409369 44.6345231,172.546306 44.7747336,172.661021 C45.2864421,172.715075 45.8526769,172.80036 46.4201101,172.971532 C47.0145069,173.142102 47.1001911,173.483243 47.1271547,174.392553 C47.1577134,175.244204 47.1577134,176.892252 47.1577134,179.704865 C47.1577134,182.263423 47.1577134,184.905465 47.1271547,185.331291 C47.0732275,186.327087 46.8742964,186.809369 46.1091304,187.007568 C45.6855028,187.11988 45.3433652,187.206967 44.690847,187.32048 C44.4937134,187.518679 44.5781992,188.541502 44.690847,188.683844 C45.172596,188.683844 46.6190413,188.597958 48.9714623,188.597958 C52.0039644,188.597958 53.3647255,188.683844 53.8752356,188.683844 C54.0448065,188.541502 54.1886121,187.546907 54.0154462,187.32048 C53.3940858,187.206967 52.5995595,187.063423 52.2316567,186.922883 C51.5791385,186.696456 51.4946526,186.182943 51.4946526,185.502462 C51.4640939,184.478438 51.4640939,183.002763 51.4640939,181.182943 C51.4640939,181.154715 51.4946526,181.042402 51.5228146,181.012973 C51.6372599,180.954114 51.9182802,180.926486 54.9531789,180.926486 C56.2264583,180.926486 57.6435433,180.926486 58.184013,180.954114 C58.2684988,180.954114 58.3266202,181.070631 58.3266202,181.128288 C58.3266202,182.974535 58.3523854,184.478438 58.2984583,185.842402 C58.2684988,186.467628 58.0719644,186.866426 57.6435433,187.007568 C57.1929522,187.150511 56.6812437,187.235796 56.0281263,187.32048 C55.8315919,187.546907 55.8609522,188.513273 56.0598834,188.683844 C56.6261182,188.683844 58.1276891,188.597958 60.5376324,188.597958 C63.0608227,188.597958 64.4779077,188.683844 65.1310251,188.683844 L65.3814866,188.683844 C66.4582316,188.683844 67.7638672,188.597958 68.8981344,188.597958 C71.2517538,188.597958 72.7239644,188.683844 73.4046445,188.683844 C73.576013,188.513273 73.6587012,187.463423 73.4891304,187.32048 C72.6958024,187.206967 72.0990089,187.091652 71.5321749,186.922883 C70.6267984,186.64 70.5399158,186.211772 70.5399158,185.38955 C70.5399158,183.399159 70.710685,179.422583 70.9096162,176.466426 C70.9365798,176.40997 71.0797862,176.380541 71.1085474,176.40997 C72.8971304,180.472432 75.2471547,185.955315 76.0123206,188.344505 C76.1255676,188.400961 77.4000453,188.429189 77.5138915,188.344505 C78.3365798,186.155916 81.5410494,179.137297 82.7861668,176.237598 C82.8161263,176.210571 82.9006121,176.210571 82.9287741,176.237598 C82.8724502,179.592553 82.9287741,183.200961 82.8724502,185.502462 C82.8442883,186.581742 82.7028794,186.809369 82.2474947,186.979339 C81.8520291,187.11988 81.3397215,187.176336 80.6326769,187.32048 C80.5182316,187.518679 80.4924664,188.513273 80.6326769,188.683844 C82.1911709,188.683844 83.3524016,188.597958 84.9414543,188.597958 C87.6893409,188.597958 89.1076243,188.683844 90.1310413,188.683844 C90.3287741,188.513273 90.3833004,187.546907 90.2430899,187.32048 C89.4779239,187.176336 88.7684826,187.035195 88.3706202,186.922883" id="Fill-31" fill="#121313"></path>
                <path d="M102.173028,186.638979 C101.577433,187.177117 100.813466,187.404745 100.129789,187.404745 C98.9685587,187.404745 98.1752308,187.00955 97.3819028,186.383123 C95.4531093,184.736276 94.7442672,181.552492 94.7442672,179.138679 C94.7442672,176.522462 95.2260162,174.136877 96.815668,173.055195 C97.3537409,172.66 98.1171093,172.487628 98.8259514,172.487628 C99.9038947,172.487628 100.612138,172.801742 101.409061,173.455195 C103.108364,174.903844 103.872332,177.742282 103.872332,180.729069 C103.872332,183.171712 103.476866,185.447387 102.173028,186.638979 M99.7061619,170.868408 C97.0661296,170.868408 94.8868745,171.666006 93.2720567,172.801742 C90.6080567,174.705646 89.8428907,177.631171 89.8428907,179.99033 C89.8428907,182.178919 90.4372874,184.677417 92.2522348,186.523063 C93.8089312,188.088829 95.880332,189.11045 99.3376599,189.11045 C102.173028,189.11045 105.033563,188.002342 107.018081,185.503243 C108.212866,183.938679 108.776105,181.836577 108.776105,179.705045 C108.776105,174.988529 105.657919,170.868408 99.7061619,170.868408" id="Fill-33" fill="#121313"></path>
                <g id="Group-37">
                    <mask id="mask-6" fill="white">
                        <use xlink:href="#path-5"></use>
                    </mask>
                    <g id="Clip-36"></g>
                    <path d="M141.712577,185.502282 C140.773046,186.668048 139.841305,187.176156 138.508107,187.176156 C138.000593,187.176156 136.808803,186.979159 136.296496,186.467447 C136.070601,186.242222 135.843508,185.843423 135.814147,185.530511 C135.730261,184.707087 135.756026,182.773754 135.756026,180.073453 C135.756026,177.5197 135.756026,174.192973 135.784787,173.228408 C135.784787,173.17015 135.902228,172.944925 136.01188,172.915495 C136.125726,172.856637 136.58171,172.801982 136.86273,172.801982 C138.02516,172.801982 139.472803,173.054835 140.490828,173.823604 C142.337532,175.129309 143.297435,177.5197 143.297435,179.960541 C143.297435,182.744324 142.647913,184.28006 141.712577,185.502282 M144.917046,173.084264 C143.355556,171.832613 141.368641,171.293273 138.763362,171.293273 C136.494228,171.293273 135.902228,171.351532 133.489888,171.37976 C132.668398,171.37976 129.708998,171.293273 129.084042,171.293273 C128.403961,171.293273 127.453645,171.37976 125.387038,171.37976 C123.229953,171.37976 121.955475,171.293273 121.332917,171.293273 C121.246633,171.351532 121.191508,172.543724 121.332917,172.658438 C121.983637,172.743123 122.522309,172.827207 123.175427,172.971952 C124.139524,173.17015 124.421743,173.68006 124.479864,174.62 C124.619475,176.808589 124.619475,179.023604 124.647637,182.659039 C124.59371,182.659039 124.534989,182.689069 124.479864,182.689069 C122.722439,180.729309 118.980496,175.982763 116.598115,173.027808 C116.003718,172.291471 115.692139,171.832613 115.465046,171.321502 C114.898811,171.351532 113.822066,171.37976 112.886131,171.37976 C110.671524,171.37976 109.568415,171.293273 108.603718,171.293273 C108.519832,171.407988 108.490471,172.571952 108.603718,172.714895 C109.454568,172.801982 110.050164,173.00018 110.558277,173.198378 C111.296479,173.453634 111.523572,174.306486 111.523572,174.934114 C111.523572,177.941922 111.439686,183.685465 111.267119,185.247628 C111.212593,186.012793 110.957338,186.639219 110.306617,186.895676 C109.652301,187.1197 109.199313,187.206787 108.519832,187.321502 C108.431751,187.433213 108.376625,188.513694 108.519832,188.683664 C109.735589,188.683664 111.38456,188.597778 112.572155,188.597778 C113.875994,188.597778 115.21039,188.683664 116.513629,188.683664 C116.682601,188.429009 116.711362,187.461441 116.569953,187.321502 C115.776625,187.176156 115.263718,187.091471 114.781969,186.979159 C114.018601,186.780961 113.536852,186.326907 113.481726,185.045826 C113.423006,183.826006 113.364285,179.25003 113.393645,176.126306 C113.393645,176.095676 113.452366,175.982763 113.565613,176.095676 C116.086406,179.221802 121.246633,186.071051 123.401921,188.854835 C123.825548,188.795976 126.095281,188.742523 126.54767,188.825405 C126.518909,187.7203 126.494342,186.098078 126.494342,184.792372 C126.463783,181.043423 126.54767,176.947327 126.720236,174.704084 C126.859249,173.282462 127.282876,173.143123 128.050439,172.915495 C128.195443,172.872252 128.411151,172.836817 128.527994,172.806186 C128.780852,172.747928 129.405807,172.758138 129.683232,172.813393 C129.975637,172.877057 130.330358,172.928108 130.487346,172.971952 C131.250115,173.198378 131.308836,173.540721 131.392722,174.334715 C131.447848,175.66985 131.418487,177.004985 131.418487,180.131111 C131.418487,182.376156 131.392722,185.189369 131.36456,185.698078 C131.308836,186.467447 130.969095,186.895676 130.286018,187.035616 C129.665856,187.147928 129.380042,187.236216 128.617273,187.321502 C128.443508,187.348529 128.443508,188.400781 128.617273,188.683664 L129.946277,188.683664 C132.496431,188.713093 135.105305,188.795976 136.666196,188.795976 C139.615411,188.795976 142.391459,188.344324 144.715718,186.495676 C146.473143,185.104685 147.890828,182.887267 147.890828,179.504685 C147.890828,176.862643 146.758957,174.563544 144.917046,173.084264" id="Fill-35" fill="#121313" mask="url(#mask-6)"></path>
                </g>
                <path d="M31.8711709,63.2527928 C32.3343449,66.3284685 33.2121587,69.2143544 34.5381668,71.6587988 C35.5927417,69.3903303 37.4885798,67.6065465 38.8661182,66.6672072 C38.9326283,66.905045 38.9793652,67.0636036 39.0518672,67.2936336 C37.8433004,68.5314715 36.8612275,69.9729129 35.9612437,71.6011411 C37.1374543,70.2041441 38.2753166,69.3206607 39.447932,68.414955 C41.233519,73.0185586 44.5218753,75.9404805 48.1146202,77.9146547 C48.9654704,73.5284685 50.507187,69.7374775 52.4072194,67.8804204 C52.4976972,68.0305706 52.6133409,68.2533934 52.7026202,68.3951351 C51.3214866,70.5945345 50.9092437,71.7416817 50.3430089,74.0101502 C51.4982478,72.0437838 52.4072194,70.8035435 53.4959482,69.6005405 C54.5043854,71.0161562 55.4804664,71.9951351 56.3792518,72.8972372 C59.6118834,69.6581982 66.3947174,69.5176577 70.0743449,69.1572973 C65.7745555,65.702042 49.7839644,68.7416817 43.3444664,59.5434835 C43.7309441,58.7987387 44.2378591,58.1260661 45.0227984,57.2852252 C43.4043854,58.26 40.6085636,60.7717117 38.9140534,62.7999399 C39.2957377,61.7356757 39.7073814,60.8876276 40.1741506,60.1548949 C37.5353166,55.0912312 37.9637377,48.6587988 38.4976162,43.841982 C39.2430089,43.2888288 40.039932,42.7843243 40.9201425,42.3621021 C38.5557377,42.9158559 36.8120939,43.7350751 34.6028794,45.2858258 C33.7730008,38.9681081 36.4046445,32.1056456 38.5491466,27.420961 C37.5706688,27.6005405 36.856434,27.9458859 35.990604,28.5008408 C37.076936,23.2822222 38.9985393,18.8521922 42.7806283,14.6972372 C38.1602721,18.7230631 34.6424259,23.9218619 32.7537781,30.4077477 C33.7951709,29.8864264 34.2259887,29.7218619 35.033098,29.5008408 C34.9558024,29.6395796 34.8179887,29.8527928 34.7406931,29.9903303 C33.2355271,30.8167568 32.3403368,31.481021 30.9885636,32.9981381 C32.3301506,32.1308709 33.1073004,31.7206607 33.984515,31.3699099 C30.615268,37.4143544 27.5540049,43.8365766 29.01543,53.2714114 C29.9333895,52.1290691 31.3798348,51.0131532 32.1240291,50.6587988 C32.0934704,50.8323724 32.0653085,51.0113514 32.0371466,51.1873273 C30.4528874,52.6762162 29.3479806,54.4491892 28.6319482,56.0762162 C29.544515,54.8624024 30.4876405,53.8786186 31.7633166,53.0834234 C31.3576648,56.4864264 31.3750413,59.9765165 31.8711709,63.2527928" id="Fill-38" fill="#FEFEFE"></path>
                <path d="M100.494876,55.0813814 C100.319313,56.0525526 100.294747,57.127027 100.334293,57.9054054 C102.227135,58.4081081 104.423767,55.4897898 105.377079,51.1342342 C106.231524,51.866967 107.039232,52.6267267 107.949402,53.6861862 C107.251945,51.9594595 106.655151,51.0327327 105.606568,49.8477477 C105.639524,49.6393393 105.758763,49.3486486 105.782131,49.1354354 C105.782131,49.1354354 106.579054,49.6993994 107.168058,50.5396396 C107.630034,49.1966967 107.989548,46.1684685 108.213046,41.9942943 C107.493419,43.3954955 106.22673,44.454955 104.953451,45.0861862 C103.879103,50.7924925 101.975475,54.0651652 100.494876,55.0813814" id="Fill-40" fill="#FCCE00"></path>
                <path d="M108.548832,29.5711111 C108.548832,28.266006 108.461351,27.3128529 108.132395,26.1921321 C108.443375,26.2852252 108.907148,26.5086486 109.151618,26.6323724 C108.9431,23.9092492 109.144428,22.4828228 108.073674,20.0107508 C108.037124,21.4191592 107.982598,23.2365766 107.102387,24.0221622 C106.381561,24.6714114 105.637367,25.1735135 104.883585,25.5146547 C106.173043,26.4053453 107.624282,27.8101502 108.548832,29.5711111" id="Fill-42" fill="#FCCE00"></path>
                <path d="M43.3564502,53.2736937 C44.1791385,52.5583784 45.0299887,52.1307508 45.9940858,51.813033 C46.0444178,51.9109309 46.0971466,52.0058258 46.1486769,52.1037237 C44.5476405,53.1667868 43.5691628,54.0616817 42.2209846,55.8706907 C43.9448551,54.5998198 45.3667336,53.8628829 46.8203692,53.2046246 C49.7977457,57.5061261 56.1827174,60.937958 63.285519,61.8448649 C62.3220211,59.8166366 58.675349,57.2676877 57.3661182,55.2586787 C54.8848713,51.4544745 56.3444988,46.9613814 58.4884016,44.2484685 C53.3389603,46.5355556 51.9907822,48.1331532 51.322685,51.6514715 C45.1186688,45.5631832 44.3535028,30.2382583 45.4398348,21.7763964 C41.9944907,28.0538739 39.2346202,32.586006 39.2346202,41.4412613 C40.2364664,41.01003 41.3365798,40.5896096 42.5385555,40.4322523 C41.8890332,43.7926126 42.0454219,49.1974174 43.3564502,53.2736937" id="Fill-44" fill="#FCCE00"></path>
                <path d="M60.7493263,17.4751952 C62.7877717,19.1863063 63.7782332,20.434955 67.9479984,21.3082282 C68.6604356,21.4583784 69.647302,21.4565766 70.4544113,21.3923123 C68.7964518,22.6169369 66.5261198,23.119039 64.1701036,23.4013213 C61.0872696,23.7718919 56.2997393,21.3869069 52.8310267,20.7124324 C51.5379741,19.3544745 51.3000955,17.9550751 51.9052777,17.0367568 C52.1569377,16.6541742 52.4954802,15.7484685 53.3271563,14.9923123 C53.4961279,14.9899099 53.6710915,14.9899099 53.8448567,15.0061261 C54.9467676,15.1028228 56.0504761,15.2385586 57.1344113,15.489009 C58.3855206,15.7845045 59.7732453,16.6787988 60.7493263,17.4751952" id="Fill-46" fill="#FEFEFE"></path>
                <path d="M64.0694397,30.6291892 C67.3026704,30.8207808 70.0637393,31.6586186 72.4640955,32.2436036 C72.8409862,32.3342943 73.2094883,32.436997 73.5899741,32.5403003 C77.8544113,33.7306907 81.8845652,35.04 85.4191887,36.3607207 C86.7254235,37.2297898 80.4369215,35.6345946 73.6223304,33.7751351 C73.753553,34.3799399 74.0681279,34.9577177 74.6499417,35.4718318 C75.2832858,36.0351952 75.7386704,36.5685285 76.0730186,37.0742342 C74.2251158,36.5553153 72.3292777,36.1102703 70.4628,35.8147748 C68.1127757,35.443003 65.8094883,35.3048649 63.714719,35.5409009 C66.3948972,35.7204805 69.7557555,36.1457057 73.2280632,37.0207808 C73.29697,37.0351952 73.3688729,37.0496096 73.4401765,37.0658258 C73.5174721,37.0796396 73.5935692,37.0976577 73.671464,37.1120721 C78.0401603,38.000961 82.2009377,39.0303904 85.8745733,40.1090691 C87.0951239,40.7877477 82.6185733,40.1162763 76.9334559,39.0472072 C77.3864437,40.8375976 77.1383789,42.1811411 80.2805328,43.1481081 C84.1483061,44.3390991 90.1893425,43.7072673 92.5950915,42.6586186 C94.1985247,41.9613213 95.8732615,40.4706306 96.1692615,39.8141742 C96.2795126,39.5757357 96.3705895,39.3703303 96.4502818,39.1733333 C94.265634,38.4652252 95.0176178,35.8652252 92.5417636,34.3252853 C90.7615692,33.2201802 90.748387,32.1541141 89.8172453,30.3841441 C89.4727109,29.7312913 88.9651968,28.9835435 88.2791239,28.1012613 C85.7115935,25.0562162 84.6606138,24.6063664 82.1583951,24.8496096 C80.4896502,25.0105706 77.8472211,25.612973 75.8333425,28.1481081 C75.2173749,27.8952553 74.5960146,27.6574174 73.9734559,27.4267868 C70.6946866,26.2207808 67.345213,25.3529129 64.0472696,25.2916517 C67.4656502,25.7553153 69.760549,26.4706306 73.9944275,27.9853453 C78.4116583,29.461021 82.5310915,31.0363964 86.1046623,32.5937538 C87.2808729,33.4874474 81.3836421,31.7547147 74.7997393,29.5937538 C74.3389619,30.3216817 73.9081441,31.1625225 73.693634,32.0165766 C72.7600955,31.7415015 71.8271563,31.4934535 70.8948162,31.288048 C68.5831401,30.7703303 66.2906381,30.4916517 64.0694397,30.6291892" id="Fill-48" fill="#FEFEFE"></path>
                <path d="M77.1170478,16.5631231 C76.9301004,16.4646246 76.7425538,16.3505105 76.5562057,16.227988 C76.5328372,16.4003604 76.484902,16.5877477 76.4064081,16.8015616 C74.46623,16.9330931 71.9022947,14.2027628 70.6943271,13.1036637 C68.8829749,11.455015 66.9661652,11.0393994 64.285987,10.7823423 C63.0336794,10.8712312 62.8251611,10.4484084 64.3560923,10.0538138 C66.137485,9.79735736 67.6588291,9.88984985 69.0070073,10.2285886 C68.0650802,9.41717718 67.0644324,8.69225225 65.8468777,8.26222222 C64.9259223,7.9354955 63.9114931,7.5415015 62.9354121,7.48744745 C62.3386186,7.45741742 61.5758494,7.6363964 60.9215336,7.8406006 C59.7812745,8.19435435 58.4181166,8.82078078 57.5636713,9.30606607 C57.59423,10.5475075 57.1352502,11.7895495 57.3042219,13.0442042 C57.392902,13.7036637 57.2490964,14.1246847 57.8093393,14.4856456 C58.1406915,14.7012613 58.4768372,15.0532132 58.8021976,15.2303904 C59.143736,15.4183784 59.9112988,15.3066667 60.475736,15.2766366 C61.8460842,15.0333934 62.9330154,14.5535135 64.0894526,14.4784384 C67.1591045,14.276036 70.1137117,14.7144745 72.1036227,16.1547147 C74.0581814,17.6676276 76.4783109,19.1649249 77.0828939,19.4904505 C77.3021976,19.6087688 77.6017927,19.8754354 77.9559142,19.8526126 C78.1818089,19.7174775 78.4053069,19.5859459 78.6270073,19.4586186 C78.6431854,19.3330931 78.6467806,19.2153754 78.6467806,19.1198799 C78.6467806,18.5174775 78.323817,17.1877477 77.1170478,16.5631231" id="Fill-50" fill="#FEFEFE"></path>
                <path d="M104.149697,14.0997598 C104.017276,13.4168769 103.765616,12.2955556 103.495381,11.8535135 C102.925551,10.9327928 102.439608,10.2703303 101.833827,9.65171171 C100.72892,8.9406006 99.3184259,8.4360961 97.3710575,7.89195195 C96.4620858,7.6415015 94.6081911,7.46072072 94.2690494,7.53219219 C93.7022154,7.6415015 93.4319806,8.02588589 93.2426364,8.40606607 C92.9532275,8.98024024 94.1635919,10.3916517 95.0366121,11.733994 C95.7340696,10.7712312 96.6586202,10.327988 98.3908794,10.179039 C99.6473814,10.2198799 99.6593652,10.6000601 98.7126445,10.7574174 C98.1458105,10.8409009 97.1559482,11.4817417 96.4692761,13.1544144 C96.0078996,14.2697297 96.0007093,16.0174775 94.2103287,16.503964 C94.0503449,16.3177778 93.9293085,16.133994 93.8454219,15.952012 C93.6075433,16.3412012 93.1665393,17.0751351 93.5248551,17.8048649 L93.9694543,18.1910511 C94.1342316,18.2757357 94.3014057,18.3658258 94.4739725,18.4649249 C94.3319644,17.1237838 96.1762721,15.9784384 96.8994947,15.2715315 C98.4681749,13.733994 100.649228,14.2781381 101.65347,14.6360961 C102.385082,14.900961 102.973487,15.5658258 103.633794,15.8691291 C104.237179,16.0012613 104.25156,15.297958 104.345033,15.0204805 C104.440904,14.7255856 104.208418,14.3958559 104.149697,14.0997598" id="Fill-52" fill="#FEFEFE"></path>
                <path d="M77.3464178,74.0864865 C77.2912923,74.9975976 77.6879563,76.0576577 78.2733652,77.0744745 C78.8551789,78.0768769 79.6952437,78.9213213 80.6455595,79.2378378 C80.8384988,79.9807808 80.902013,80.6582583 80.8384988,81.4348348 C82.1537215,81.751952 83.0974462,81.4348348 84.2592761,80.8522523 C84.548685,81.4348348 84.6139968,82.2114114 84.5157296,83.2474474 C85.6146445,83.1495495 86.3234866,82.9543544 87.1767336,82.3303303 C87.2258672,82.827027 87.1935109,83.5711712 87.0317296,84.184985 C87.5805879,83.3765766 87.8394381,82.7933934 87.9712599,82.0648649 C88.0815109,82.0204204 88.1929603,81.975976 88.3038105,81.9231231 C88.4206526,82.7933934 88.4524097,83.5375375 88.2277134,84.9603604 C89.0677781,83.4396396 89.3559887,82.5681682 89.5171709,81.1453453 C89.6190332,81.0738739 89.6543854,81.1057057 89.753851,81.0306306 C89.9623692,81.7855856 90.1355352,82.4984985 90.100183,83.5843844 C92.3914866,83.1333333 93.5491223,81.9525526 94.3855919,80.0288288 C94.7487012,80.381982 95.2412356,80.9825826 95.5516162,81.563964 C97.4881992,80.6402402 98.2443773,78.3291291 98.5847174,76.8114114 C98.7674704,75.9897898 98.94543,74.5063063 98.7674704,73.9363363 C98.9640049,74.0168168 99.1539482,74.1147147 99.3373004,74.2156156 C100.110855,72.5993994 99.7129927,70.3381381 100.681883,68.9741742 C101.451843,67.8828829 100.868232,66.8 100.518304,65.5423423 C100.192944,72.16997 97.7188874,69.2708709 97.1125069,68.9543544 C94.9266607,67.8078078 87.1965069,67.9039039 84.0801182,68.7441441 C82.788264,69.0948949 81.82177,69.2912913 81.0985474,69.9945946 C78.8653652,72.1531532 78.1163773,71.2996997 77.7149198,69.3627628 C77.6556,68.5825826 77.5591304,67.9171171 77.4027417,67.2600601 C77.3835676,67.1333333 77.372183,67.0018018 77.3572032,66.8702703 C77.3673895,66.9573574 77.3637943,67.036036 77.3637943,67.1147147 C77.3991466,68.8168168 75.5350656,68.8540541 75.4272113,70.4318318 C75.4164259,70.6510511 75.4320049,70.8978979 75.4949198,71.1837838 C75.6680858,71.8462462 77.422515,73.1189189 77.3464178,74.0864865" id="Fill-54" fill="#FEFEFE"></path>
                <path d="M69.8355077,17.5971772 C69.2315239,17.4932733 68.7845279,17.1449249 68.8396534,16.8302102 C68.8947789,16.5088889 69.4316534,16.3389189 70.0344389,16.4434234 C70.6384227,16.5491291 71.0830219,16.8920721 71.0302931,17.210991 C70.9751676,17.5257057 70.4394915,17.7022823 69.8355077,17.5971772" id="Fill-56" fill="#FEFEFE"></path>
                <path d="M100.323987,16.2206006 C100.403679,16.4962763 100.038173,16.853033 99.5048939,17.0103904 C98.9758089,17.1659459 98.478481,17.0668468 98.3951935,16.7863664 C98.3137036,16.5076877 98.6762138,16.1515315 99.2052988,15.9953754 C99.7433717,15.838018 100.239501,15.9395195 100.323987,16.2206006" id="Fill-58" fill="#FEFEFE"></path>
                <path d="M105.263772,22.3063664 C105.47229,21.5976577 105.99778,20.8138739 106.060695,20.146006 C106.123011,19.4685285 105.823415,18.324985 105.508241,17.1604204 C105.504646,17.1604204 105.498055,17.1586186 105.49446,17.1568168 C103.926379,16.7952553 103.542298,17.2445045 102.950298,17.9742342 C101.818428,19.3736336 101.613504,19.727988 100.327642,20.3808408 C99.3994964,20.8511111 98.5336664,20.8318919 97.6672372,20.6487087 C98.7625571,21.5658258 100.093359,22.1970571 101.384015,22.3273874 C102.750168,22.4673273 104.124112,22.9466066 105.263772,22.3063664" id="Fill-60" fill="#FEFEFE"></path>
                <path d="M106.126306,15.2012613 C106.129901,15.9832432 106.865707,16.8469069 106.582889,17.2150751 C106.334824,17.3033634 105.914193,17.2547147 105.508541,17.1604204 C105.823116,18.324985 106.122711,19.4685285 106.060994,20.146006 C105.99748,20.8138739 105.47199,21.5976577 105.264071,22.3063664 C105.281448,22.2967568 105.300023,22.2889489 105.318598,22.2793393 C105.489966,22.1772372 105.651148,22.0505105 105.797351,21.8931532 C107.207845,20.3706306 107.796249,19.5868468 107.620687,17.891952 C107.493059,17.4396997 108.677658,17.9988589 109.494355,19.4384985 C108.74297,17.8390991 107.963423,16.3958559 107.23361,15.2439039 C106.969966,14.8378979 106.746468,14.4901502 106.531359,14.1598198 C106.253934,13.8943544 106.122711,14.6174775 106.126306,15.2012613" id="Fill-62" fill="#FCCE00"></path>
                <path d="M82.5343271,66.1842643 C81.1430073,67.0094895 81.5222947,65.8196997 81.1969344,65.0070871 C80.6396874,63.6118919 79.5419709,62.3782583 79.3196713,59.2701502 C79.148902,57.9284084 79.0740032,55.7007808 80.4545377,55.2821622 C82.6020356,54.6329129 85.7933231,56.7386186 87.6136632,56.7386186 C89.4369992,56.7386186 91.2273798,54.8527327 93.0189587,55.1866667 C94.2431045,55.4124925 94.7230559,56.9656456 95.1137279,58.4635435 C95.5445457,60.1025826 95.3875579,61.3013814 95.5559304,62.4058859 C95.664983,63.15003 95.7494688,63.3626426 95.9867482,63.7037838 C95.9681733,63.7296096 95.5325619,64.2947748 95.5151854,64.32 C95.4930154,64.295976 95.4720437,64.2767568 95.513987,64.3254054 C95.3396227,64.1554354 95.1089344,64.0623423 94.8644648,64.0623423 C94.6128049,64.0623423 94.3671368,64.1626426 94.1706024,64.3464264 C94.0279951,64.4755556 93.9003676,64.6563363 93.7937117,64.8527327 C93.6768696,64.7908709 93.545647,64.7614414 93.4096308,64.7614414 C93.1909263,64.7614414 92.9722219,64.8491291 92.7966591,65.0070871 C92.793064,65.0088889 92.793064,65.0088889 92.793064,65.0106907 C92.6468615,64.9013814 92.4748939,64.8437237 92.2849506,64.8437237 C92.0806267,64.8437237 91.8840923,64.9175976 91.7175174,65.0497297 C91.5677198,64.9175976 91.369987,64.8437237 91.1626672,64.8437237 C90.9781166,64.8437237 90.7953636,64.9031832 90.6431692,65.0124925 C90.6383757,65.0088889 90.6317846,65.0070871 90.6293879,65.0010811 C90.4724,64.8455255 90.261485,64.7614414 90.0391854,64.7614414 C89.8893879,64.7614414 89.7455822,64.8010811 89.6089668,64.8731532 C89.4951206,64.6935736 89.3465215,64.5097898 89.1631692,64.3254054 C88.9906024,64.1554354 88.7617117,64.0623423 88.5154445,64.0623423 C88.2673798,64.0623423 88.019315,64.1626426 87.8215822,64.3464264 C87.7478818,64.4148949 87.6801733,64.4935736 87.6166591,64.5830631 C87.1462947,63.0995796 86.8844486,62.0118919 86.6303919,60.9524324 C86.5423109,60.5872673 86.4560275,60.2293093 86.3601571,59.8557357 C86.1414526,58.9758559 85.8310721,58.1608408 85.0587158,58.1608408 C84.1551368,58.1608408 83.8183919,59.2635435 83.6182623,59.9025826 C83.1173393,61.5962763 82.6547644,64.4521321 82.5343271,66.1842643" id="Fill-64" fill="#D82719"></path>
                <path d="M94.6562462,64.8036036 C94.7814769,64.6858859 94.9162947,64.6744745 95.0109668,64.7693694 C95.518481,65.2726727 95.6682785,65.7915916 95.6754688,66.1543544 C95.6682785,66.3489489 95.1793393,66.5141141 94.8683595,66.5141141 C94.5579789,66.5141141 94.0912097,66.3339339 94.0978008,66.1741742 C94.0936065,65.8630631 94.3320842,65.1021021 94.6562462,64.8036036 M89.327647,66.1543544 C89.3222543,66.3489489 88.830319,66.5141141 88.5205377,66.5141141 C88.2065619,66.5141141 87.7409911,66.3339339 87.746983,66.1741742 C87.7457846,65.8630631 87.9818656,65.1021021 88.3060275,64.8036036 C88.4312583,64.6858859 88.5672745,64.6744745 88.6619466,64.7693694 C89.1712583,65.2726727 89.3198575,65.7915916 89.327647,66.1543544 M90.5404081,66.2996997 C90.5380113,66.424024 90.2336227,66.5249249 90.039485,66.5249249 C89.8477441,66.5249249 89.560732,66.4144144 89.5643271,66.3135135 C89.560732,66.1219219 89.7105296,65.6516517 89.9106591,65.4654655 C89.9879547,65.3921922 90.0688453,65.3867868 90.1305619,65.445045 C90.445736,65.7561562 90.536813,66.0792793 90.5404081,66.2996997 M91.2528453,65.5279279 C91.5704162,65.8396396 91.6614931,66.1597598 91.6662866,66.3867868 C91.6614931,66.5069069 91.3595012,66.6078078 91.1629668,66.6078078 C90.9712259,66.6078078 90.6830154,66.4966967 90.6866105,66.3975976 C90.6866105,66.203003 90.832813,65.7339339 91.0341409,65.5477477 C91.1102381,65.4768769 91.1947239,65.4690691 91.2528453,65.5279279 M92.7897684,66.3867868 C92.7849749,66.5069069 92.482983,66.6078078 92.2888453,66.6078078 C92.0947077,66.6078078 91.8100923,66.4966967 91.8112907,66.3975976 C91.8100923,66.203003 91.9562947,65.7339339 92.1576227,65.5477477 C92.2337198,65.4768769 92.3182057,65.4690691 92.3763271,65.5279279 C92.693898,65.8396396 92.7849749,66.1597598 92.7897684,66.3867868 M93.9168453,66.2996997 C93.9108534,66.424024 93.604068,66.5249249 93.4099304,66.5249249 C93.2205862,66.5249249 92.9323757,66.4144144 92.9347725,66.3135135 C92.9323757,66.1219219 93.0821733,65.6516517 93.2787077,65.4654655 C93.3595984,65.3921922 93.4428858,65.3867868 93.5010073,65.445045 C93.8161814,65.7561562 93.9108534,66.0792793 93.9168453,66.2996997 M95.515485,44.6684685 C95.5118899,44.5495495 95.8474364,44.4192192 96.0733312,44.4192192 C96.3004243,44.4192192 96.6551449,44.5399399 96.6587401,44.6822823 C96.6551449,44.9417417 96.5460923,45.3183183 96.1787887,45.6840841 C96.1110802,45.7507508 96.012813,45.7441441 95.9211368,45.6594595 C95.6874526,45.4444444 95.5118899,44.8936937 95.515485,44.6684685 M97.7774283,44.4354354 C98.1423352,44.4336336 98.7157603,44.6282282 98.7229506,44.8546547 C98.7127644,45.2768769 98.5401976,45.8864865 97.9410073,46.4732733 C97.8313555,46.5843844 97.6743676,46.5687688 97.52457,46.4342342 C97.1476794,46.0870871 96.8714526,45.1981982 96.8738494,44.8306306 C96.8666591,44.6432432 97.4125215,44.4354354 97.7774283,44.4354354 M95.9061571,65.7807808 C97.4472745,63.1273273 97.9481976,61.5615616 98.5593717,60.0222222 C99.0087644,58.8702703 99.4521652,58.5603604 99.5821895,60.4432432 C99.6864486,61.9027027 99.7385781,63.5495495 99.1771368,65.7915916 C98.9967806,66.3171171 97.9529911,66.6246246 97.3675822,66.6246246 C96.7791773,66.6246246 95.6826591,66.2492492 95.9061571,65.7807808 M87.2868049,65.778979 C87.4228211,66.3621622 86.301736,66.6666667 85.7540761,66.6666667 C85.2064162,66.6666667 83.949315,66.4444444 83.883404,65.9363363 C83.8252826,63.0408408 84.1752097,61.4252252 84.4676146,60.0258258 C84.7989668,58.4444444 85.2789182,58.3621622 85.6917603,60.003003 C86.1213798,61.7021021 86.3976065,63.1627628 87.2868049,65.778979 M103.516473,45.7489489 C102.863355,48.4204204 102.004716,50.3795796 100.974708,52.1177177 C99.6403109,54.3585586 99.2634202,53.9867868 99.3856551,52.6186186 C99.549234,50.7825826 99.8626105,48.9147147 99.4977036,45.7573574 C99.4977036,45.1993994 100.72904,44.6600601 101.510384,44.6600601 C102.28993,44.6600601 103.605752,45.1225225 103.516473,45.7489489 M94.1996632,44.5693694 C94.196068,44.4534535 94.5322138,44.3261261 94.7581085,44.3243243 C94.9852016,44.3243243 95.3399223,44.4444444 95.3429182,44.5855856 C95.3399223,44.8456456 95.2308696,45.2246246 94.8647644,45.587988 C94.7922623,45.6540541 94.6969911,45.6486486 94.6059142,45.5627628 C94.3716308,45.3483483 94.1996632,44.7987988 94.1996632,44.5693694 M92.8844405,44.5693694 C92.8808453,44.4534535 93.2169911,44.3261261 93.4428858,44.3243243 C93.6699789,44.3243243 94.0241004,44.4444444 94.0324891,44.5855856 C94.0241004,44.8456456 93.9168453,45.2246246 93.5489425,45.587988 C93.4752421,45.6540541 93.3817684,45.6486486 93.2906915,45.5627628 C93.0564081,45.3483483 92.8844405,44.7987988 92.8844405,44.5693694 M91.5704162,44.6684685 C91.5680194,44.5495495 91.9047644,44.4192192 92.127064,44.4192192 C92.3541571,44.4192192 92.7124729,44.5399399 92.7172664,44.6822823 C92.7088777,44.9417417 92.5998251,45.3183183 92.2337198,45.6840841 C92.164813,45.7507508 92.0665457,45.7441441 91.9748696,45.6594595 C91.7423838,45.4444444 91.5692178,44.8936937 91.5704162,44.6684685 M89.447485,44.8306306 C89.4402947,44.6432432 89.9855579,44.4354354 90.3504648,44.4354354 C90.7183676,44.4336336 91.289396,44.6282282 91.2965862,44.8546547 C91.2869992,45.2768769 91.1138332,45.8864865 90.5194364,46.4732733 C90.4091854,46.5843844 90.253396,46.5687688 90.1024,46.4342342 C89.7255093,46.0870871 89.4450883,45.1981982 89.447485,44.8306306 M83.7737522,45.6114114 C83.7737522,44.993994 85.3957603,44.6096096 86.1261733,44.6096096 C86.8571854,44.6096096 88.3401814,45.0972973 88.2640842,45.8024024 C87.5546429,48.9747748 87.4473879,50.7453453 87.1861409,52.806006 C86.9320842,54.7957958 86.2430154,54.6924925 85.5197927,52.7777778 C84.8762623,51.0846847 84.2231449,49.1237237 83.7737522,45.6114114" id="Fill-66" fill="#FEFEFE"></path>
                <path d="M119.094342,90.552012 C121.169338,92.4415015 125.36367,96.0955556 126.69567,98.4300901 C126.976091,98.9231832 126.852058,98.697958 126.854455,98.703964 C127.345192,96.6463063 127.634002,94.1886486 128.024674,92.1111712 C125.51107,89.4084685 122.788949,85.9021622 121.553419,83.7207808 C119.177629,79.5466066 118.114666,76.0853453 114.680107,72.6360961 C114.070131,72.0252853 113.082666,71.118979 112.117969,69.9532132 C111.442682,70.9538138 110.776981,71.7646246 109.772738,72.8270871 C109.809289,73.2673273 109.922536,74.6541141 109.955491,75.4342943 C110.21554,82.0907508 114.273856,86.1622222 119.094342,90.552012" id="Fill-68" fill="#FCCE00"></path>
                <path d="M128.98913,86.485045 C129.197649,85.0916517 129.442118,83.6327928 129.602102,82.2357958 C126.730183,80.7643243 122.908547,77.6261862 119.87245,74.9096697 C121.406977,77.8856456 125.747511,83.4231832 128.98913,86.485045" id="Fill-70" fill="#FCCE00"></path>
                <path d="M113.609174,67.2505706 C116.467312,62.9238438 116.207263,55.122042 115.385773,49.0956156 C115.984964,49.4175375 116.569773,49.834955 117.197126,50.4013213 C116.57936,49.1869069 116.062259,48.5430631 115.170065,47.7184384 C115.137709,47.5208408 115.10715,47.2139339 115.064008,47.0055255 C115.597287,47.3827027 115.99515,47.6956156 116.361854,48.095015 C116.795668,42.8541742 116.635684,38.7352553 114.975927,34.0421622 C114.975927,34.0421622 115.509806,33.9592793 115.99515,34.1550751 C115.881903,33.8169369 115.70634,33.3226426 115.495425,32.7316517 C114.748834,33.1364565 113.96749,33.4854054 113.09447,33.8169369 C113.266437,34.7052252 113.41264,35.6235435 113.524688,36.5376577 C112.045887,36.5412613 110.43047,36.9166366 108.771312,37.4842042 C108.776105,37.4235435 108.786291,37.3610811 108.789887,37.2968168 C108.819247,36.513033 108.808462,35.8403604 108.771312,35.2367568 C105.606988,36.2307508 102.81536,36.9388589 103.528397,36.2866066 C104.814259,35.6595796 106.213968,35.0655856 107.668802,34.5262462 C107.767069,34.4908108 107.861741,34.4493694 107.963603,34.4157357 C108.190696,34.3322523 108.42498,34.255976 108.652073,34.1778979 C111.132721,33.319039 113.748186,32.6391592 116.279765,32.2775976 C115.959198,32.2115315 115.626648,32.1790991 115.289903,32.1628829 C114.939976,31.2007207 114.51515,30.058979 114.073547,28.9172372 C113.522291,29.2487688 112.878761,29.6013213 112.162729,29.9730931 C112.381433,30.7022222 112.593547,31.5136336 112.790081,32.3778979 C111.439506,32.6583784 110.021223,33.1646847 108.584964,33.7947147 C108.438761,33.0613814 108.223652,32.4403604 107.942632,31.8553754 C105.599798,32.7712913 103.898097,33.3034234 104.430777,32.7388589 C108.029514,30.6259459 111.018275,29.0583784 115.322259,27.9328529 C115.42532,27.9082282 115.519393,27.886006 115.600883,27.8613814 C115.060413,27.8043243 114.194583,27.864985 113.700251,27.9496697 C113.555247,27.5784985 113.407846,27.2085285 113.266437,26.8541742 C113.211312,26.7226426 112.904526,25.9556757 112.846405,25.8229429 L113.266437,25.876997 C111.362211,20.5947147 108.47651,15.2199399 104.449352,11.1262462 C105.838275,13.043964 106.261903,13.7448649 107.23319,15.2445646 C109.187749,18.3262462 111.504818,23.5064264 112.696607,28.1833033 C110.931393,28.6902102 109.239279,29.6824024 107.404559,30.8487688 C107.273336,30.6271471 107.134923,30.4007207 106.985126,30.1658859 C106.66336,29.6523724 105.512915,28.6505706 104.61413,28.1670871 C104.923312,28.8289489 105.044947,29.7869069 104.715992,30.8932132 C104.120397,32.873994 103.184462,33.9863063 102.074761,35.3376577 C101.126842,36.4932132 99.9763968,39.1448649 97.8498704,39.3394595 C97.8360891,39.5568769 97.8312955,39.7592793 97.8312955,39.8775976 C97.8312955,41.1718919 99.2825344,42.9118318 100.075862,43.2926126 C101.610389,44.0259459 101.887814,44.08 103.70396,43.6697898 C105.5237,43.2535736 106.529142,42.0433634 107.138518,41.2781982 C107.628057,40.6727928 108.05468,39.9658859 108.354275,39.2157357 C105.113854,40.0463664 102.168235,40.6223423 102.925611,39.9863063 C104.321725,39.3863063 105.838275,38.8355556 107.415943,38.3628829 C107.441709,38.3526727 107.467474,38.3454655 107.493239,38.3394595 C110.105109,37.5592793 112.873968,36.9995195 115.519393,36.8031231 C114.950162,37.1412613 114.321611,37.4091291 113.647522,37.6523724 C113.817692,39.4583784 113.824283,41.1923123 113.598389,42.6079279 C114.223344,43.1706907 114.742243,43.8685886 115.313271,44.892012 C114.872866,44.522042 114.435457,44.1875075 113.999846,43.8793994 C112.469514,42.7598799 111.375992,42.2175375 109.659312,41.9196396 C110.627004,42.3748949 111.472462,42.9664865 112.244818,43.6055255 C112.140559,48.2079279 111.519198,54.7796997 110.027814,58.0818018 C109.499328,57.3358559 109.004996,56.8289489 108.197887,56.2487688 C108.183506,56.3142342 108.063069,56.5316517 108.048089,56.5971171 C109.180559,57.9340541 109.776753,58.8884084 110.450842,60.7508709 C109.381887,59.5094294 108.503474,58.5790991 107.675992,57.8145345 C106.079749,62.3652853 103.965806,63.3082282 102.183814,63.4403604 C102.183814,63.4403604 103.886113,66.9652853 102.350988,70.3815015 C102.231749,70.6535736 102.168235,71.0163363 102.133482,71.4121321 C102.585271,72.3340541 102.461239,72.8872072 102.797984,73.9887087 C105.632753,72.8025225 108.953466,69.3544745 110.891846,66.6037237 C111.746291,67.3881081 112.567781,68.2289489 113.672089,69.4667868 C113.023166,67.7887087 112.455134,66.8565766 111.491036,65.7148348 C111.596494,65.5520721 111.673789,65.5022222 111.776251,65.3352553 C112.539619,65.8956156 112.991409,66.3124324 113.609174,67.2505706" id="Fill-72" fill="#FEFEFE"></path>
                <path d="M84.8714089,13.1314114 C82.9276356,11.1007808 80.4967206,9.75303303 75.7679109,8.96504505 C78.3402348,8.50978979 81.9132065,9.09057057 83.6238947,10.1428228 C85.4610121,8.69237237 87.368834,8.33861862 89.5996194,8.65513514 C87.441336,9.29657658 84.4316032,11.0617417 84.8714089,13.1314114 M67.2540162,4.24912913 C71.4016113,3.44012012 77.0537733,4.02930931 79.1113927,5.61249249 C80.7262105,4.46954955 83.5501943,3.73081081 88.3425182,4.52840841 C84.361498,4.80228228 83.2601862,5.03771772 82.3392308,5.74522523 C83.5172389,5.47915916 84.7941134,5.41129129 87.0296923,5.93981982 C84.3986478,6.12600601 81.1204777,6.87795796 81.1288664,8.37045045 C79.3666478,7.08216216 75.5863563,5.98006006 72.1739676,5.98006006 C73.8990364,5.46354354 75.1932874,5.48636637 76.2208988,5.74522523 C74.0943725,4.74882883 72.2452713,4.33681682 67.2540162,4.24912913 M99.0122996,29.8635435 C100.071069,29.9206006 101.66851,29.8797598 102.615231,29.4070871 C102.665563,30.1037838 100.101628,31.2593393 99.5527692,31.2947748 C98.9451903,31.3308108 98.2806883,30.8623423 97.7072632,30.7187988 C96.9546802,30.5398198 96.1727368,30.3608408 95.6975789,30.2827628 C95.3176923,30.2227027 94.7957976,30.0425225 94.7406721,29.507988 C96.176332,29.5830631 97.5724453,29.7866667 99.0122996,29.8635435 M64.7655789,28.4503303 C63.124996,29.6563363 60.6113927,30.6563363 58.1840729,30.1962763 C57.8671012,31.2076877 58.0013198,32.9866667 58.7598947,35.0491291 C54.6614332,33.2118919 52.1873765,30.123003 51.9231336,27.7992793 C54.5559757,26.5338138 60.1302429,28.3980781 64.7655789,28.4503303 M114.84051,9.36984985 C112.097417,9.69777778 109.06851,9.39927928 106.645984,8.07615616 C108.691619,8.13981982 110.200381,7.77405405 113.920753,6.64852853 C112.782891,6.74222222 101.515117,7.07435435 94.9384049,5.38546547 C92.0592955,4.09717718 82.7322996,0.372252252 77.1172874,3.45933934 C67.9257085,0.438318318 56.3349717,3.56924925 52.9507449,6.14042042 C46.7874737,6.14042042 40.2820648,5.69657658 36.6084291,4.49597598 C39.6007854,6.60048048 41.9651903,6.95123123 43.759166,7.34102102 C39.2430688,7.5242042 36.0020486,6.86174174 31.1456113,5.79567568 C32.7604291,7.38066066 33.9300486,8.03531532 36.336996,8.75903904 C34.9115223,8.88576577 33.4441053,8.81309309 31.8808178,8.52960961 C33.7365101,10.0641441 38.4389555,12.6106907 42.436753,10.8401201 C43.5949879,10.3278078 47.2746154,8.35543544 50.391004,8.00708709 C48.6719271,8.93261261 45.928834,11.4209009 44.3721377,13.2106907 C44.3194089,13.2983784 44.2666802,13.3890691 44.2121538,13.4803604 C45.6478138,12.4587387 47.3141619,11.6539339 48.9823077,11.344024 C46.486081,13.2046847 45.3949555,15.1302102 45.2966883,17.1722523 C46.1685101,16.2347147 46.839004,15.2683483 47.8330607,14.9584384 C48.0667449,14.8851652 48.2602834,15.138018 48.4580162,15.5704505 C48.8121377,16.0815616 49.0721862,17.2773574 49.5569312,18.3764565 C50.0830202,19.4785586 50.8146316,20.4485285 51.9698704,20.5770571 C52.2437004,20.6040841 52.5361053,20.6551351 52.8309069,20.710991 C51.5378543,19.353033 51.3005749,17.9542342 51.9063563,17.0377177 C52.1568178,16.6533333 52.4977571,15.7476276 53.3276356,14.9944745 C52.8051417,14.9992793 52.3162024,15.0106907 51.987247,14.5524324 C51.7170121,14.1782583 51.5474413,13.6923724 51.417417,13.2479279 C51.2897895,12.8058859 50.8463887,12.0046847 50.9656275,11.5878679 C52.0447692,11.5974775 53.0873603,11.9133934 54.1515223,11.6070871 C55.7897085,11.1368168 55.3636842,9.46534535 57.3332227,8.07855856 C57.4914089,8.48876877 57.5519271,8.89777778 57.5639109,9.30618619 C58.4183563,8.8209009 59.7815142,8.19447447 60.9211741,7.84012012 C61.5754899,7.63531532 62.3388583,7.45753754 62.9356518,7.48756757 C63.9117328,7.54162162 64.9261619,7.93561562 65.8471174,8.26174174 C67.0640729,8.69057057 68.0647206,9.4184985 69.0114413,10.2287087 C71.828834,10.9362162 73.8834575,12.7248048 75.9231012,14.7043844 C76.3892713,15.1932733 76.6469231,15.5920721 76.5564453,16.2275075 C76.7427935,16.3488288 76.9297409,16.4635435 77.1172874,16.5632432 C78.3210607,17.1896697 78.6464211,18.5193994 78.6464211,19.1193994 C78.6464211,19.2154955 78.6434251,19.3332132 78.6266478,19.4605405 C81.7142753,17.7013814 84.2931903,16.6479279 87.4365425,18.0539339 C84.5100972,17.8323123 81.6483644,19.3446246 79.2713765,21.3818619 C77.6823239,22.744024 74.3975628,25.7428228 71.9235061,25.8623423 C71.6790364,24.7836637 72.0697085,24.2293093 72.8594413,23.4773574 C73.8918462,22.6707508 74.9332389,21.8791592 75.9818219,21.1482282 C75.4095951,21.0263063 74.7858381,21.0371171 74.1045587,21.1013814 C73.2201538,22.3218018 71.9127206,23.0124925 71.0798462,23.4112913 C68.1875547,24.7314114 66.7129474,25.335015 61.2375466,24.913994 C57.7556518,24.6455255 55.2013036,25.1950751 53.3647854,25.1950751 C51.5204777,25.1950751 50.5995223,24.7770571 49.5473441,23.8581381 C48.4939676,22.9374174 48.0176113,21.5806607 47.4921215,20.0040841 C47.3824696,24.7145946 48.6815142,36.3914715 53.4786316,39.0533333 C54.2402024,38.5133934 55.7028259,38.1133934 56.9856923,38.1302102 C55.1036356,39.0359159 53.0933522,40.8449249 51.9806559,43.0599399 C56.3277814,39.2611411 59.6233279,38.3043844 65.0442024,38.2857658 C62.7972389,42.156036 62.3047045,45.4791592 62.394583,48.768048 C62.4485101,50.8221021 62.7223401,52.4004805 63.1579514,53.6851652 C64.0141943,56.4154955 65.4588421,59.1980781 67.2540162,61.2503303 C66.8231984,60.2521321 66.4403158,59.2503303 66.1209474,58.2659459 C67.4062105,59.6329129 68.9275547,61.0641441 70.5399757,63.274955 C72.594,66.0977778 73.9739352,66.5151952 75.4269717,70.4329129 C75.5372227,68.8551351 77.3989069,68.8178979 77.3641538,67.113994 C77.0867287,66.0239039 76.627749,64.944024 75.8505992,63.3890691 C74.3807854,60.4431231 69.3206235,50.2569369 69.1121053,44.0311111 C69.0384049,41.874955 70.4291255,40.6467267 70.903085,39.7013814 C71.2188583,39.0683483 71.2260486,38.4701502 71.1050121,37.8623423 C68.5105182,37.2359159 65.5684939,36.3464264 63.7128016,35.5404204 C65.8117652,35.304985 68.1126559,35.4425225 70.4626802,35.8148949 C70.2032308,34.9722523 70.027668,34.0455255 70.2709393,32.9446246 C70.2805263,32.8983784 70.2943077,32.8533333 70.3050931,32.8070871 C68.0425506,32.1091892 66.0424534,31.4281081 64.0693198,30.6293093 C66.2893198,30.4917718 68.5830202,30.7704505 70.8970931,31.2875676 C71.3207206,30.471952 71.9091255,29.6599399 72.6101781,28.8611411 C68.7094494,27.5055856 65.8177571,26.2076877 64.0471498,25.2917718 C67.3450931,25.353033 70.6945668,26.2209009 73.9739352,27.4269069 C74.7109393,26.713994 75.5935466,25.9614414 76.5204939,25.2491291 C77.367749,24.5782583 78.2887045,23.6425225 79.1557328,23.0251051 C81.8149393,21.1836637 85.4190688,18.8287087 88.527668,20.8022823 C88.0147611,20.8293093 87.4742915,20.8671471 86.9230364,20.944024 C85.088915,21.1386186 86.1776437,23.8281081 88.2514413,25.9698498 C89.3749231,27.1302102 90.4618543,28.7842643 91.7608988,30.6497297 C92.621336,31.8803604 92.7052227,32.2611411 93.6555385,32.5494294 C95.2709555,33.0431231 97.016996,33.8323123 96.6401053,34.8257057 C96.3662753,35.5464264 95.1900648,35.2419219 95.4309393,36.1175976 C95.9426478,37.9854655 97.2836356,38.35003 98.4131093,38.1338138 C98.5988583,38.0797598 98.7864049,38.0287087 98.9571741,37.9800601 C99.136332,37.9145946 99.3011093,37.8335135 99.4509069,37.747027 C99.9913765,37.3896697 100.22566,36.8209009 100.80987,35.898979 C101.043555,35.3266066 100.634308,35.3608408 100.634308,34.871952 C100.634308,34.5338138 101.259263,33.7518318 102.102923,33.0359159 C103.144316,32.1506306 103.798632,30.3824625 103.798632,29.6203003 C103.798632,28.6623423 103.824397,28.0227027 103.410955,27.3422222 C101.796138,25.0527327 97.5388907,22.4539339 97.0134008,22.0551351 C95.5657571,20.9512312 94.189417,20.7956757 92.6351174,20.6911712 C93.4404291,19.9554354 94.1085263,20.0118919 94.7334818,20.2196997 C94.261919,19.7548348 94.0174494,19.4983784 93.6489474,19.2407207 C92.3355223,18.3332132 90.8471336,18.0166967 88.987247,17.9001802 C91.043668,16.9494294 92.2114899,17.0094895 93.9695142,18.1914715 L93.5243158,17.8046847 C93.1665992,17.074955 93.6076032,16.3416216 93.8454818,15.9518318 C93.5830364,15.4022823 93.6261781,14.8815616 93.7759757,14.4203003 C94.2067935,13.2455255 94.5728988,12.3764565 95.0366721,11.7344144 C94.1636518,10.3938739 92.9532874,8.98006006 93.2426964,8.40588589 C93.4320405,8.02510511 93.7022753,7.64012012 94.2691093,7.53261261 C94.608251,7.46114114 96.4621457,7.64012012 97.3711174,7.89417417 C99.3184858,8.43831832 100.72898,8.94042042 101.833887,9.65333333 C101.705061,9.5236036 101.569045,9.39747748 101.431231,9.27015015 C100.349692,8.40228228 99.0416599,7.52900901 97.4040729,6.62870871 C99.3921862,7.5187988 101.777563,8.60468468 103.137126,9.29297297 C105.764575,10.6209009 107.820996,12.6755556 112.403603,12.4052853 C111.216008,12.1566366 109.32736,11.2707508 107.514211,9.96984985 C108.336899,9.99807808 110.675538,10.6905706 114.84051,9.36984985" id="Fill-74" fill="#FCCE00"></path>
                <path d="M42.863736,79.9646246 C41.704902,78.700961 40.7114445,77.367027 39.9073312,76.0967568 C37.6639628,80.0523123 34.5871206,85.6991592 32.9621166,91.697958 C34.0879951,89.6703303 35.4379709,87.5387988 35.4379709,87.5387988 C34.2515741,91.3982583 32.9621166,96.3856456 32.1681895,102.36042 C31.3868453,108.254715 31.1669425,115.936997 31.936902,123.707568 C32.0657279,124.739399 32.2197198,126.177838 32.4647887,127.935195 C29.8163676,123.854114 27.4040275,119.385646 25.3032664,114.338198 C21.4810316,105.152012 15.3021814,87.4354955 15.3021814,72.6553153 C14.1948777,54.1412012 16.1614202,38.8030631 18.6594445,24.9045646 C17.4131287,25.2000601 16.2662785,25.4937538 15.2320761,25.773033 C6.54741215,64.9363964 12.2409182,100.368829 30.4856632,126.740601 C33.4768211,131.108168 38.2014364,136.718979 41.3034445,139.450511 C33.3785538,121.767027 33.3599789,96.900961 42.863736,79.9646246" id="Fill-76" fill="#FCCE00"></path>
                <path d="M133.023179,25.7727327 C131.988377,25.4934535 130.845122,25.2003604 129.595211,24.9048649 C132.095033,38.803964 134.060977,54.1390991 132.954272,72.6556156 L132.954272,72.6538138 C132.954272,87.1667267 127.001916,104.50006 123.164701,113.823183 C123.095794,113.994354 123.022094,114.171532 122.952588,114.337898 C120.204701,120.943303 120.591179,118.585946 123.219827,110.870631 C123.163503,109.580541 122.656588,107.946306 122.356993,107.07003 C120.71641,102.220781 118.220183,98.464024 115.513041,95.5889489 C114.380572,94.3865465 113.232523,93.3270871 112.150985,92.3937538 C107.453333,88.3475075 104.942126,86.1306907 105.475406,79.082042 C105.489786,78.9282883 105.501171,78.7721321 105.515551,78.6087688 C105.599438,77.7048649 105.797171,76.9421021 106.06441,76.2964565 C104.562839,77.443003 102.943228,78.4514114 101.295454,79.191952 C101.127082,79.9198799 100.513511,82.1871471 99.1617377,83.7661261 C100.656118,88.8201802 104.401057,94.1475075 106.3676,96.5601201 C105.322612,94.473033 105.026013,93.2051652 104.208118,90.8940541 C107.24062,94.8448048 110.809997,100.425586 111.135357,106.215976 C109.217948,104.182943 107.214855,102.473033 105.804361,101.775736 C108.471357,107.805165 108.187341,111.671832 106.546159,117.458619 C103.268588,129.03039 97.5642964,130.836997 90.4375271,143.237598 C92.0942883,141.422583 93.5527174,140.032793 95.2310494,138.976937 C91.8582073,142.7397 88.7136567,148.816577 88.7028713,154.531291 C91.4345798,152.667628 94.2651547,150.662823 97.2299482,148.474835 C101.343389,145.070631 105.183001,141.533093 108.70564,137.780541 C111.65126,134.798559 115.301527,130.349309 117.77079,126.740901 C136.015535,100.368529 141.712636,64.9360961 133.023179,25.7727327" id="Fill-78" fill="#FCCE00"></path>
                <path d="M129.595391,24.9029429 L129.595391,24.9029429 C132.095213,38.8044444 134.062355,54.1395796 132.955051,72.6554955 C132.955051,87.4362763 126.777399,105.152192 122.955164,114.338378 C120.823845,119.456096 118.485804,123.812853 115.793043,127.932372 C125.623359,109.458498 130.282063,86.7624024 130.282063,65.8164565 C130.282063,54.2446847 129.321561,40.3197598 126.077545,24.120961 L129.595391,24.9029429 Z" id="Fill-80" fill="#FEFEFE"></path>
                <path d="M100.975846,16.2258859 C100.950081,16.1412012 100.920721,16.0607207 100.889563,15.9808408 C100.774518,15.9736336 100.660073,15.9676276 100.547425,15.9652252 C100.800283,17.0973574 100.102826,18.2553153 98.935004,18.6000601 C97.7186478,18.9592192 96.4513603,18.300961 96.1086235,17.127988 C96.1026316,17.1093694 96.0990364,17.0883483 96.0936437,17.0679279 L96.0936437,17.0691291 C95.8383887,17.3201802 95.6148907,17.5772372 95.4800729,17.8378979 C95.4824696,17.8409009 95.4824696,17.8433033 95.4824696,17.8457057 C95.9294656,19.3658258 97.5191174,20.2318919 99.035668,19.7862462 C100.552219,19.3381982 101.420445,17.7448048 100.975846,16.2258859" id="Fill-82" fill="#FEC7B0"></path>
                <path d="M71.9911547,16.9884084 C71.7065393,18.4887087 70.2229441,19.4778979 68.6572599,19.204024 C67.0807903,18.9295495 66.0076405,17.4730931 66.270685,15.9493694 C66.2838672,15.8809009 66.3000453,15.8142342 66.3162235,15.7487688 C65.9501182,15.7637838 65.6127741,15.7932132 65.3179725,15.8256456 C65.2514623,16.0148348 65.1951385,16.2106306 65.1603854,16.4148348 C64.8182478,18.3878078 66.1418591,20.2670871 68.1101992,20.6094294 C70.0821344,20.9535736 71.9558024,19.6268468 72.2967417,17.6544745 C72.3225069,17.5103303 72.3362883,17.3673874 72.3434785,17.2262462 C72.2242397,17.140961 72.1067984,17.0610811 71.9911547,16.9884084" id="Fill-84" fill="#FEC7B0"></path>
                <path d="M100.975846,16.2258859 C100.950081,16.1412012 100.920721,16.0607207 100.889563,15.9808408 C100.774518,15.9736336 100.660073,15.9676276 100.547425,15.9652252 C100.800283,17.0973574 100.102826,18.2553153 98.935004,18.6000601 C97.7186478,18.9592192 96.4513603,18.300961 96.1086235,17.127988 C96.1026316,17.1093694 96.0990364,17.0883483 96.0936437,17.0679279 L96.0936437,17.0691291 C95.8383887,17.3201802 95.6148907,17.5772372 95.4800729,17.8378979 C95.4824696,17.8409009 95.4824696,17.8433033 95.4824696,17.8457057 C95.9294656,19.3658258 97.5191174,20.2318919 99.035668,19.7862462 C100.552219,19.3381982 101.420445,17.7448048 100.975846,16.2258859" id="Fill-86" fill="#FFD73F"></path>
                <path d="M71.9911547,16.9884084 C71.7065393,18.4887087 70.2229441,19.4778979 68.6572599,19.204024 C67.0807903,18.9295495 66.0076405,17.4730931 66.270685,15.9493694 C66.2838672,15.8809009 66.3000453,15.8142342 66.3162235,15.7487688 C65.9501182,15.7637838 65.6127741,15.7932132 65.3179725,15.8256456 C65.2514623,16.0148348 65.1951385,16.2106306 65.1603854,16.4148348 C64.8182478,18.3878078 66.1418591,20.2670871 68.1101992,20.6094294 C70.0821344,20.9535736 71.9558024,19.6268468 72.2967417,17.6544745 C72.3225069,17.5103303 72.3362883,17.3673874 72.3434785,17.2262462 C72.2242397,17.140961 72.1067984,17.0610811 71.9911547,16.9884084" id="Fill-88" fill="#FFD73F"></path>
                <path d="M100.975846,16.2258859 C100.950081,16.1412012 100.920721,16.0607207 100.889563,15.9808408 C100.774518,15.9736336 100.660073,15.9676276 100.547425,15.9652252 C100.800283,17.0973574 100.102826,18.2553153 98.935004,18.6000601 C97.7186478,18.9592192 96.4513603,18.300961 96.1086235,17.127988 C96.1026316,17.1093694 96.0990364,17.0883483 96.0936437,17.0679279 L96.0936437,17.0691291 C95.8383887,17.3201802 95.6148907,17.5772372 95.4800729,17.8378979 C95.4824696,17.8409009 95.4824696,17.8433033 95.4824696,17.8457057 C95.9294656,19.3658258 97.5191174,20.2318919 99.035668,19.7862462 C100.552219,19.3381982 101.420445,17.7448048 100.975846,16.2258859" id="Fill-90" fill="#808180"></path>
                <path d="M71.9911547,16.9884084 C71.7065393,18.4887087 70.2229441,19.4778979 68.6572599,19.204024 C67.0807903,18.9295495 66.0076405,17.4730931 66.270685,15.9493694 C66.2838672,15.8809009 66.3000453,15.8142342 66.3162235,15.7487688 C65.9501182,15.7637838 65.6127741,15.7932132 65.3179725,15.8256456 C65.2514623,16.0148348 65.1951385,16.2106306 65.1603854,16.4148348 C64.8182478,18.3878078 66.1418591,20.2670871 68.1101992,20.6094294 C70.0821344,20.9535736 71.9558024,19.6268468 72.2967417,17.6544745 C72.3225069,17.5103303 72.3362883,17.3673874 72.3434785,17.2262462 C72.2242397,17.140961 72.1067984,17.0610811 71.9911547,16.9884084" id="Fill-92" fill="#808180"></path>
                <path d="M126.077485,24.1210811 C129.321501,40.3198799 130.282003,54.2442042 130.282003,65.8171772 C130.282003,86.7631231 125.623299,109.459219 115.792983,127.934895 C118.485744,123.812973 120.823785,119.456216 122.955104,114.339099 C126.778538,105.151712 132.95559,87.4363964 132.95559,72.6562162 C134.062295,54.1396997 132.095153,38.803964 129.595331,24.9030631 C129.595331,24.9030631 127.018214,24.3114715 126.077485,24.1210811" id="Fill-94" fill="#FEFEFE"></path>
                <path d="M15.3021814,72.655976 L15.3021814,72.6541742 C15.3021814,87.4361562 21.4816308,105.152072 25.3032664,114.339459 C27.4333879,119.455976 29.7714283,123.812733 32.4647887,127.934655 C22.6350721,109.45958 17.9727725,86.7628829 17.9727725,65.8169369 C17.9727725,54.2445646 18.9344729,40.3196396 22.1820842,24.1208408 C22.1820842,24.1208408 19.8284648,24.6175375 18.6600437,24.9028228 C16.1614202,38.8043243 14.1948777,54.1400601 15.3021814,72.655976" id="Fill-96" fill="#FEFEFE"></path>
            </g>
        </g>
    </g>
</svg>