<?xml version="1.0" encoding="UTF-8" standalone="no"?>
<svg width="165px" height="200px" viewBox="0 0 165 200" version="1.1" xmlns="http://www.w3.org/2000/svg" xmlns:xlink="http://www.w3.org/1999/xlink">
    <!-- Generator: sketchtool 3.8.3 (29802) - http://www.bohemiancoding.com/sketch -->
    <title>292EC35F-D952-4D54-A9E8-25C619B3A2E0</title>
    <desc>Created with sketchtool.</desc>
    <defs>
        <polygon id="path-1" points="0 0.520376176 164.460456 0.520376176 164.460456 200 0 200"></polygon>
        <polygon id="path-3" points="0 0.520376176 164.460456 0.520376176 164.460456 200 0 200"></polygon>
        <polygon id="path-5" points="0 0.520376176 164.460456 0.520376176 164.460456 200 0 200"></polygon>
    </defs>
    <g id="Page-1" stroke="none" stroke-width="1" fill="none" fill-rule="evenodd">
        <g id="FULL-LOGO" transform="translate(-5029.000000, -387.000000)">
            <g id="icon_club_Sydney" transform="translate(5029.000000, 387.000000)">
                <polygon id="Fill-1" fill="#FEFEFE" points="0.796140684 28.4874608 61.8392395 28.4874608 82.2678707 68.3094044 102.357719 28.5470219 163.696312 28.5470219 82.0244487 199.36395"></polygon>
                <g id="Group-33">
                    <path d="M61.8394278,28.5468339 L82.2674316,68.3092163 L102.357907,28.5468339 L163.695873,28.5468339 L116.804504,126.420815 C113.427337,108.937429 121.134656,99.5060815 121.134656,99.5060815 C121.134656,99.5060815 110.39899,97.9330408 101.30266,106.516113 C99.6520323,103.561881 93.1593137,87.4728527 67.5247129,84.6157994 C73.068211,91.1079624 74.1868232,99.4408777 73.7608346,105.215799 C69.1270323,101.037116 62.3287814,97.7725392 56.5255494,97.6001254 C59.4710817,101.66721 59.5576597,112.486019 59.4710817,112.399498 C53.0611768,106.343072 44.5746559,104.783824 44.5746559,104.783824 C45.4799601,110.319248 47.0709867,116.605141 45.5263859,122.35373 C40.4935722,112.186959 0.796328897,28.4872727 0.796328897,28.4872727 L61.8394278,28.5468339 Z" id="Fill-4" fill="#E2371E"></path>
                    <path d="M82.2898289,149.827335 C73.8014259,159.303197 69.9794487,166.175298 75.1923194,167.733292 C83.5972814,170.244263 84.7353422,136.683135 116.804943,126.334545 L82.0244487,199.364013 L68.1387262,169.853668 C68.8671103,163.408527 74.9677186,156.043009 81.2954373,149.164013 C92.0285932,137.498182 90.6715779,124.85931 82.8908555,118.239875 C75.8259696,112.229216 60.4339163,114.39348 57.2161027,123.043009 C57.9344487,124.240502 58.973384,121.507586 59.9897338,122.04489 C61.8762548,123.043009 57.0874905,126.072476 59.9897338,127.589718 C61.161673,128.148966 61.2658175,128.611034 62.2087643,128.809781 C66.4253612,129.696928 66.2390304,124.448652 71.3609316,124.30069 C74.1132319,124.221066 77.6648099,125.895047 78.7018631,130.719498 C79.6711597,135.23047 77.9038403,140.408527 71.2009506,145.67185 C69.4562167,147.042382 65.0940684,149.213542 61.3210266,155.867461 L60.7664259,154.426082 C64.7377186,145.751473 79.6993916,142.681881 77.4251521,130.878746 C76.5625095,126.399749 72.3691255,124.643009 69.533384,125.815423 C66.314943,127.145831 66.8695437,130.362132 62.2087643,129.696928 C59.0129087,132.677492 55.6752662,136.399122 52.0000951,138.90069 C51.4147529,138.98094 51.8626996,137.024828 51.8890494,136.572163 C52.9813118,133.05931 54.0773384,130.162759 55.3289544,126.702571 C56.2612357,127.927022 55.8797909,129.922006 55.7204373,132.035486 C56.6778137,131.238621 58.2901711,128.343323 58.1032129,127.811661 C56.216692,126.148339 54.9261787,125.853668 55.4406274,124.1521 C59.3240875,111.28815 78.0638213,111.701317 83.8093346,117.443009 C94.4157605,128.043009 90.7876426,140.341442 82.2898289,149.827335" id="Fill-6" fill="#E2371E"></path>
                    <polygon id="Fill-8" fill="#121313" points="65.5966597 0.737742947 65.5966597 4.28633229 61.9578764 4.28633229 61.9578764 8.01109718 65.0345304 8.01109718 65.0345304 11.383511 61.8700437 11.383511 61.8700437 15.3715987 65.508827 15.3715987 65.508827 18.8317868 58.1089221 18.8317868 58.1089221 0.737742947"></polygon>
                    <path d="M30.7683593,15.6258934 L30.7683593,4.26225705 C32.6253935,4.21899687 34.1285875,6.44721003 34.1285875,10.0409404 C34.1285875,14.6835737 31.8518384,15.7744828 30.7683593,15.6258934 M27.3893099,0.795172414 L27.1176559,0.737492163 L27.0724848,18.8315361 C31.2150513,18.8685266 37.679538,20.0503448 37.7705076,9.95065831 C37.8508118,1.12557994 32.2163441,0.488589342 27.3893099,0.795172414" id="Fill-10" fill="#121313"></path>
                    <polygon id="Fill-12" fill="#121313" points="17.5959011 6.57021944 19.7402738 0.737617555 23.6431825 0.737617555 19.4767757 10.0310345 19.3883156 18.8316614 15.8379924 18.8316614 15.8379924 10.0310345 11.5486198 0.737617555 15.4860342 0.737617555"></polygon>
                    <polygon id="Fill-14" fill="#121313" points="49.710673 10.5205643 49.710673 0.930595611 53.4724221 0.930595611 53.4724221 18.955047 50.0626312 18.955047 45.8780304 8.94188088 45.8780304 18.955047 42.2561863 18.955047 42.2561863 0.930595611 45.7368707 0.930595611"></polygon>
                    <g id="Group-18">
                        <mask id="mask-2" fill="white">
                            <use xlink:href="#path-1"></use>
                        </mask>
                        <g id="Clip-17"></g>
                        <path d="M7.94572243,1.40238245 C6.96764259,0.829968652 5.94188213,0.520250784 4.79629278,0.520250784 C1.74285171,0.520250784 0,2.95598746 0,5.79297806 C0,8.41492163 1.36140684,9.77040752 3.41292776,11.1528527 C4.41484791,11.8688401 5.47323194,12.5359248 5.47323194,13.9189969 C5.47323194,15.1114734 4.54095057,15.5860815 3.39598859,15.5860815 C2.34638783,15.5860815 1.60043726,15.3497179 0.764771863,14.7773041 L0.764771863,18.1622571 C1.57596958,18.7584953 2.81692015,19.0682132 3.81821293,19.0682132 C7.1589924,19.0682132 8.99532319,16.6606897 8.99532319,13.4663323 C8.99532319,8.60238245 3.58043726,8.43561129 3.58043726,5.47949843 C3.58043726,4.38231975 4.19903042,3.85504702 5.29631179,3.85504702 C6.27501901,3.85504702 7.22988593,4.23937304 7.94572243,4.85943574 L7.94572243,1.40238245 Z" id="Fill-16" fill="#121313" mask="url(#mask-2)"></path>
                    </g>
                    <g id="Group-21">
                        <mask id="mask-4" fill="white">
                            <use xlink:href="#path-3"></use>
                        </mask>
                        <g id="Clip-20"></g>
                        <path d="M163.41073,1.40238245 C162.432023,0.829968652 161.406262,0.520250784 160.260673,0.520250784 C157.207232,0.520250784 155.46438,2.95598746 155.46438,5.79297806 C155.46438,8.41492163 156.825787,9.77040752 158.877308,11.1528527 C159.879228,11.8688401 160.937612,12.5359248 160.937612,13.9189969 C160.937612,15.1114734 160.005331,15.5860815 158.860369,15.5860815 C157.810768,15.5860815 157.064817,15.3497179 156.229779,14.7773041 L156.229779,18.1622571 C157.040977,18.7584953 158.2813,19.0682132 159.283221,19.0682132 C162.622745,19.0682132 164.460331,16.6606897 164.460331,13.4663323 C164.460331,8.60238245 159.044817,8.43561129 159.044817,5.47949843 C159.044817,4.38231975 159.663411,3.85504702 160.760692,3.85504702 C161.739399,3.85504702 162.694266,4.23937304 163.41073,4.85943574 L163.41073,1.40238245 Z" id="Fill-19" fill="#121313" mask="url(#mask-4)"></path>
                    </g>
                    <g id="Group-24">
                        <mask id="mask-6" fill="white">
                            <use xlink:href="#path-5"></use>
                        </mask>
                        <g id="Clip-23"></g>
                        <path d="M99.8263802,1.40238245 C98.8483004,0.829968652 97.8225399,0.520250784 96.6769506,0.520250784 C93.6235095,0.520250784 91.8806578,2.95598746 91.8806578,5.79297806 C91.8806578,8.41492163 93.2420646,9.77040752 95.2935856,11.1528527 C96.2955057,11.8688401 97.3532624,12.5359248 97.3532624,13.9189969 C97.3532624,15.1114734 96.420981,15.5860815 95.2766464,15.5860815 C94.2270456,15.5860815 93.4804677,15.3497179 92.646057,14.7773041 L92.646057,18.1622571 C93.4566274,18.7584953 94.6969506,19.0682132 95.6994981,19.0682132 C99.0390228,19.0682132 100.876608,16.6606897 100.876608,13.4663323 C100.876608,8.60238245 95.4604677,8.43561129 95.4604677,5.47949843 C95.4604677,4.38231975 96.0790608,3.85504702 97.1769696,3.85504702 C98.1550494,3.85504702 99.1105437,4.23937304 99.8263802,4.85943574 L99.8263802,1.40238245 Z" id="Fill-22" fill="#121313" mask="url(#mask-6)"></path>
                    </g>
                    <path d="M129.094306,12.9132915 L130.039762,6.30827586 L131.096264,12.9132915 L129.094306,12.9132915 Z M132.152139,0.930846395 L128.24923,0.930846395 L124.064629,18.9546708 L127.827006,18.9546708 L128.531549,15.8988715 L131.800808,15.8988715 L132.57499,18.9546708 L136.43712,18.9546708 L132.152139,0.930846395 Z" id="Fill-25" fill="#121313"></path>
                    <polygon id="Fill-27" fill="#121313" points="147.582901 10.5205643 147.582901 0.930595611 151.345278 0.930595611 151.345278 18.955047 147.935487 18.955047 143.750886 8.94188088 143.750886 18.955047 140.129042 18.955047 140.129042 0.930595611 143.609726 0.930595611"></polygon>
                    <polygon id="Fill-29" fill="#121313" points="107.788665 0.930658307 109.71973 12.4209404 111.651422 0.930658307 114.8203 0.930658307 117.033057 12.4209404 118.582049 0.930658307 122.5157 0.930658307 118.753323 18.9551097 115.554331 18.9551097 113.340947 6.97203762 110.847125 18.9551097 107.57724 18.9551097 104.026289 0.930658307"></polygon>
                    <polygon id="Fill-31" fill="#121313" points="74.6329506 6.57021944 76.7766958 0.737617555 80.6796046 0.737617555 76.5131977 10.0310345 76.425365 18.8316614 72.8744144 18.8316614 72.8744144 10.0310345 68.5856692 0.737617555 72.5224563 0.737617555"></polygon>
                </g>
            </g>
        </g>
    </g>
</svg>