<?xml version="1.0" encoding="UTF-8" standalone="no"?>
<svg width="209px" height="199px" viewBox="0 0 209 199" version="1.1" xmlns="http://www.w3.org/2000/svg" xmlns:xlink="http://www.w3.org/1999/xlink">
    <!-- Generator: sketchtool 3.8.3 (29802) - http://www.bohemiancoding.com/sketch -->
    <title>19C6A4CF-8CC1-4595-8437-1456E7D41452</title>
    <desc>Created with sketchtool.</desc>
    <defs>
        <polyline id="path-1" points="0 1.09772727 208.998462 1.09772727 208.998462 200 0 200"></polyline>
        <polygon id="path-3" points="0 1.09772727 208.998462 1.09772727 208.998462 200 0 200"></polygon>
        <polygon id="path-5" points="0 1.09772727 208.998462 1.09772727 208.998462 200 0 200"></polygon>
        <polygon id="path-7" points="0 1.09772727 208.998462 1.09772727 208.998462 200 0 200"></polygon>
        <path d="M1.04769231,1.40454545 C2.74384615,32.4409091 16.4561538,81.9295455 76.8092308,127.736364 L76.8092308,127.736364 C137.166923,81.9295455 150.881538,32.4409091 152.635385,1.40454545 L152.635385,1.40454545 L1.04769231,1.40454545 Z" id="path-9"></path>
        <path d="M1.04769231,1.40454545 C2.74384615,32.4409091 16.4561538,81.9295455 76.8092308,127.736364 L76.8092308,127.736364 C137.166923,81.9295455 150.881538,32.4409091 152.635385,1.40454545 L152.635385,1.40454545 L1.04769231,1.40454545 Z" id="path-11"></path>
    </defs>
    <g id="Page-1" stroke="none" stroke-width="1" fill="none" fill-rule="evenodd">
        <g id="FULL-LOGO" transform="translate(-4711.000000, -388.000000)">
            <g id="icon_club_StKilda" transform="translate(4711.000000, 387.000000)">
                <g id="Group-70">
                    <path d="M186.031846,163.320227 C186.031846,167.424773 182.653385,170.752045 178.485692,170.752045 C174.320308,170.752045 170.941846,167.424773 170.941846,163.320227 C170.941846,159.215682 174.320308,155.888409 178.485692,155.888409 C182.653385,155.888409 186.031846,159.215682 186.031846,163.320227" id="Fill-1" fill="#FEFEFE"></path>
                    <path d="M188.646,89.2645455 C188.646,89.2645455 189.557538,99.9713636 190.023692,107.005455 C191.978308,105.375909 193.986,103.707727 193.986,103.707727 C204.816,94.7190909 204.816,94.7190909 206.936769,96.1486364 L208.997538,97.5418182 L208.178308,99.8690909 C198.672923,126.730455 186.109846,145.753182 177.246,156.980455 C176.586,157.814545 161.073692,177.366818 155.636769,176.462273 L153.301385,176.071364 L152.821385,173.173636 L152.929846,173.885 C152.036769,171.632727 142.665231,160.269091 141.308308,158.803182 L139.182923,156.51 L141.372923,154.275909 C170.502923,126.087273 182.288308,88.2509091 182.406,87.8713636 C182.406,87.8713636 183.241385,85.3895455 183.601385,83.485 C185.546769,84.5372727 188.369077,85.0622727 188.646,89.2645455" id="Fill-3" fill="#FEFEFE"></path>
                    <path d="M176.965615,165.632955 L177.766385,165.632955 L177.766385,163.871591 L178.396385,163.871591 C178.823308,163.871591 179.118692,163.919318 179.287154,164.0125 C179.571,164.180682 179.714077,164.523864 179.714077,165.039773 L179.714077,165.396591 L179.730231,165.539773 C179.737154,165.557955 179.739462,165.576136 179.741769,165.5875 C179.746385,165.605682 179.751,165.619318 179.755615,165.632955 L180.503308,165.632955 L180.475615,165.580682 C180.459462,165.542045 180.443308,165.464773 180.436385,165.346591 C180.429462,165.228409 180.424846,165.117045 180.424846,165.014773 L180.424846,164.6875 C180.424846,164.460227 180.341769,164.230682 180.177923,163.992045 C180.009462,163.755682 179.751,163.607955 179.395615,163.553409 C179.674846,163.510227 179.896385,163.435227 180.053308,163.3375 C180.351,163.148864 180.498692,162.853409 180.498692,162.455682 C180.498692,161.894318 180.265615,161.514773 179.794846,161.323864 C179.529462,161.217045 179.118692,161.1625 178.553308,161.1625 L176.965615,161.1625 L176.965615,165.632955 Z M179.247923,163.219318 C179.077154,163.2875 178.825615,163.319318 178.486385,163.319318 L177.766385,163.319318 L177.766385,161.701136 L178.449462,161.701136 C178.892538,161.701136 179.213308,161.757955 179.414077,161.867045 C179.614846,161.980682 179.714077,162.196591 179.714077,162.521591 C179.714077,162.867045 179.559462,163.098864 179.247923,163.219318 L179.247923,163.219318 Z M181.562538,160.5375 C180.757154,159.742045 179.778692,159.346591 178.634077,159.346591 C177.494077,159.346591 176.524846,159.742045 175.721769,160.5375 C174.911769,161.330682 174.510231,162.289773 174.510231,163.407955 C174.510231,164.542045 174.909462,165.503409 175.710231,166.298864 C176.515615,167.101136 177.489462,167.498864 178.634077,167.498864 C179.778692,167.498864 180.757154,167.101136 181.562538,166.298864 C182.370231,165.498864 182.776385,164.5375 182.776385,163.407955 C182.776385,162.285227 182.370231,161.326136 181.562538,160.5375 L181.562538,160.5375 Z M181.151769,160.928409 C181.841769,161.614773 182.190231,162.442045 182.190231,163.407955 C182.190231,164.385227 181.841769,165.217045 181.151769,165.907955 C180.461769,166.594318 179.619462,166.9375 178.634077,166.9375 C177.646385,166.9375 176.806385,166.594318 176.116385,165.907955 C175.428692,165.217045 175.084846,164.385227 175.084846,163.407955 C175.084846,162.442045 175.431,161.614773 176.121,160.928409 C176.817923,160.242045 177.653308,159.898864 178.634077,159.898864 C179.617154,159.898864 180.459462,160.242045 181.151769,160.928409 L181.151769,160.928409 Z" id="Fill-5" fill="#121313"></path>
                    <polygon id="Fill-7" fill="#FEFEFE" points="163.827 153.435909 139.180846 156.510909 152.457 178.283636 177.218538 174.174545 165.790846 153.422273"></polygon>
                    <g id="Group-11">
                        <mask id="mask-2" fill="white">
                            <use xlink:href="#path-1"></use>
                        </mask>
                        <g id="Clip-10"></g>
                        <path d="M20.3536154,89.2645455 C20.3536154,89.2645455 19.4420769,99.9713636 18.9759231,107.005455 C17.0213077,105.375909 15.0136154,103.707727 15.0136154,103.707727 C4.18592308,94.7190909 4.18592308,94.7190909 2.06284615,96.1486364 L-0.000230769231,97.5418182 L0.823615385,99.8690909 C10.3266923,126.730455 22.8897692,145.753182 31.7559231,156.980455 C32.4136154,157.814545 47.9259231,177.366818 53.3605385,176.462273 L55.6982308,176.071364 L56.1782308,173.173636 L56.0697692,173.885 C56.9628462,171.632727 66.3320769,160.269091 67.6913077,158.803182 L69.8166923,156.51 L67.6266923,154.275909 C38.4966923,126.087273 26.709,88.2509091 26.5936154,87.8713636 C26.5936154,87.8713636 25.7582308,85.3895455 25.3982308,83.485 C23.4528462,84.5372727 20.6328462,85.0622727 20.3536154,89.2645455" id="Fill-9" fill="#FEFEFE" mask="url(#mask-2)"></path>
                    </g>
                    <polygon id="Fill-12" fill="#FEFEFE" points="43.0733077 155.123636 29.751 172.691818 54.1848462 176.673636 69.8171538 156.51 44.031 153.573636"></polygon>
                    <g id="Group-16">
                        <mask id="mask-4" fill="white">
                            <use xlink:href="#path-3"></use>
                        </mask>
                        <g id="Clip-15"></g>
                        <path d="M161.753769,154.209318 C137.354538,171.713864 114.069923,173.204773 105.192231,173.034318 C105.192231,173.034318 104.749154,173.170682 104.502231,173.247955 C104.257615,173.170682 103.814538,173.034318 103.814538,173.034318 C94.9368462,173.204773 71.6568462,171.713864 47.2576154,154.209318 L44.5945385,152.297955 L29.7491538,172.693409 L31.6483846,174.625227 C32.6660769,175.661591 57.1391538,200.000227 104.502231,200.000227 C151.869923,200.000227 176.340692,175.661591 177.360692,174.625227 L179.257615,172.693409 L164.416846,152.297955 L161.753769,154.209318 Z" id="Fill-14" fill="#FEFEFE" mask="url(#mask-4)"></path>
                    </g>
                    <g id="Group-19">
                        <mask id="mask-6" fill="white">
                            <use xlink:href="#path-5"></use>
                        </mask>
                        <g id="Clip-18"></g>
                        <path d="M177.813,1.09659091 L28.7268462,1.09659091 L28.053,3.4375 C27.8037692,4.29204545 4.44069231,89.9443182 102.506077,164.380682 L104.502231,165.896591 L106.500692,164.380682 C204.570692,89.9465909 181.207615,4.29204545 180.958385,3.4375 L180.282231,1.09659091 L177.813,1.09659091 Z" id="Fill-17" fill="#FEFEFE" mask="url(#mask-6)"></path>
                    </g>
                    <path d="M187.145077,113.588636 L185.504308,88.7977273 C185.504308,88.7977273 174.240462,127.386364 144.122769,156.529545 C144.090462,156.520455 155.121231,174.177273 155.153538,174.15 C156.618923,172.765909 186.692769,150.7 205.055077,98.8090909 C205.140462,98.5727273 187.145077,113.588636 187.145077,113.588636" id="Fill-20" fill="#121313"></path>
                    <path d="M185.335615,90.1756818 C185.497154,92.6075 186.918692,114.109773 186.918692,114.109773 L187.311,113.7825 C191.522538,110.268864 201.711,101.787045 204.473308,99.5734091 C188.997923,142.689318 165.203308,165.566591 155.635615,173.412045 C155.635615,173.412045 155.404846,173.605227 155.211,173.768864 C154.345615,172.439318 145.107923,157.675682 144.445615,156.564318 C171.184846,130.614318 183.127154,96.9529545 185.335615,90.1756818 M143.942538,156.346136 C143.748692,156.700682 154.848692,174.239318 154.994077,174.352955 L155.160231,174.477955 L155.965615,173.802955 C165.634846,165.877955 189.794077,142.712045 205.297154,98.8915909 L205.364077,98.7097727 L205.200231,98.5984091 C205.149462,98.5620455 205.075615,98.5597727 204.810231,98.7279545 C204.810231,98.7279545 204.807923,98.7279545 204.807923,98.7302273 C203.949462,99.2756818 200.748692,101.905227 187.371,113.068864 C187.306385,112.100682 185.760231,88.7802273 185.760231,88.7802273 L185.257154,88.7279545 C185.144077,89.1120455 173.663308,127.589318 143.942538,156.346136" id="Fill-22" fill="#121313"></path>
                    <polygon id="Fill-24" fill="#FEFEFE" points="163.849615 156.657273 172.028077 171.505 155.244231 173.357273 144.642692 156.786818"></polygon>
                    <path d="M163.730077,156.857045 C163.840846,157.059318 171.433154,170.843409 171.707769,171.341136 C171.133154,171.404773 155.226231,173.157045 155.223923,173.159318 L155.223923,173.157045 C155.223923,172.963864 146.013923,158.557045 145.007769,156.982045 C145.702385,156.9775 163.494692,156.857045 163.730077,156.857045 L163.730077,156.857045 Z M163.847769,156.459318 L144.276231,156.588864 L155.073923,173.463864 C155.267769,173.554773 172.049308,171.7025 172.049308,171.7025 L172.347,171.670682 L163.970077,156.457045 L163.847769,156.459318 Z" id="Fill-26" fill="#121313"></path>
                    <path d="M21.8183077,113.588636 L23.4613846,88.7977273 C23.4613846,88.7977273 35.2190769,127.431818 65.3344615,156.572727 C65.2513846,156.559091 52.9075385,171.172727 52.9075385,173.175 C52.9075385,175.177273 22.2706154,150.7 3.91061538,98.8090909 C3.82753846,98.5727273 21.8183077,113.588636 21.8183077,113.588636" id="Fill-28" fill="#DE2625"></path>
                    <path d="M22.0763077,113.605455 C22.0763077,113.605455 23.4747692,92.5077273 23.6316923,90.1372727 C25.884,96.8145455 38.2070769,130.578182 64.9878462,156.585 C64.0047692,157.700909 52.6486154,171.100909 52.6486154,173.173636 C50.4263077,173.100909 21.8109231,147.919091 4.47092308,99.5554545 C7.17092308,101.719091 17.4216923,110.253182 21.6516923,113.782727 L22.0416923,114.11 L22.0763077,113.605455 Z M23.2024615,88.7804545 C23.2024615,88.7804545 21.6586154,112.100909 21.594,113.069091 C8.20938462,101.896364 5.01092308,99.2713636 4.15476923,98.7281818 L4.15476923,98.7259091 C3.89169231,98.56 3.81784615,98.5622727 3.76476923,98.5963636 L3.60323077,98.7054545 L3.66553846,98.8918182 C21.4901538,149.264545 50.8186154,173.875909 52.8586154,173.537273 L53.0732308,173.500909 L53.1655385,173.173636 C53.1655385,171.435 64.7732308,157.453182 65.5024615,156.766818 L65.694,156.585 L65.5163077,156.391818 C35.7932308,127.632727 23.8255385,89.11 23.7101538,88.7236364 L23.2024615,88.7804545 Z" id="Fill-30" fill="#121313"></path>
                    <mask id="mask-8" fill="white">
                        <use xlink:href="#path-7"></use>
                    </mask>
                    <g id="Clip-33"></g>
                    <polygon id="Fill-32" fill="#121313" mask="url(#mask-8)" points="45.2053846 156.875 65.2292308 156.875 65.2292308 156.365909 45.2053846 156.365909"></polygon>
                    <polygon id="Fill-34" fill="#FEFEFE" mask="url(#mask-8)" points="45.8665385 156.799318 36.7742308 171.506136 52.0396154 172.083409 64.7319231 156.856136"></polygon>
                    <path d="M104.503154,176.259545 C104.503154,176.057273 75.8993077,178.741364 45.3316154,156.811818 L33.9985385,172.384545 C33.9985385,172.384545 57.9800769,196.777727 104.503154,196.777727 C151.028538,196.777727 175.010077,172.384545 175.010077,172.384545 L163.679308,156.811818 C133.109308,178.741364 104.503154,176.057273 104.503154,176.259545" id="Fill-35" fill="#FEFEFE" mask="url(#mask-8)"></path>
                    <path d="M45.3978462,157.158864 C70.584,175.136136 94.6763077,176.686136 103.884,176.508864 L104.557846,176.504318 L105.123231,176.508864 C114.330923,176.686136 138.427846,175.136136 163.614,157.158864 C163.890923,157.542955 174.420923,172.013409 174.670154,172.356591 C173.066308,173.915682 149.020154,196.524773 104.502462,196.524773 C59.9870769,196.524773 35.9409231,173.915682 34.3393846,172.356591 C34.5863077,172.013409 45.1209231,157.542955 45.3978462,157.158864 L45.3978462,157.158864 Z M163.526308,156.606591 C138.386308,174.640682 114.314769,176.177045 105.132462,175.999773 C105.132462,175.999773 104.721692,176.038409 104.502462,176.058864 C104.285538,176.038409 103.872462,175.999773 103.872462,175.999773 C94.6924615,176.177045 70.6232308,174.640682 45.4855385,156.606591 L45.2732308,156.456591 L33.6632308,172.408864 L33.8132308,172.561136 C34.0555385,172.806591 58.404,197.031591 104.502462,197.031591 C150.605538,197.031591 174.956308,172.806591 175.194,172.561136 L175.346308,172.408864 L163.736308,156.456591 L163.526308,156.606591 Z" id="Fill-36" fill="#121313" mask="url(#mask-8)"></path>
                    <path d="M133.739308,187.487955 C136.402385,186.685682 136.104692,184.058409 135.451615,181.665227 C134.787,179.251591 133.603154,176.922045 130.529308,177.844773 L127.822385,178.660682 L130.836231,188.360682 L133.739308,187.487955 Z" id="Fill-37" fill="#121313" mask="url(#mask-8)"></path>
                    <path d="M108.940615,185.736818 C109.067538,188.548182 109.519846,191.255 112.529077,191.152727 C115.531385,191.048182 115.808308,188.316364 115.720615,185.505 C115.653692,183.18 115.185231,180.461818 112.178308,180.566364 C109.118308,180.668636 108.857538,183.409545 108.940615,185.736818" id="Fill-38" fill="#121313" mask="url(#mask-8)"></path>
                    <path d="M98.5287692,189.682955 C99.2603077,188.814773 99.4426154,186.344318 99.4703077,185.642045 C99.5510769,183.314773 99.2787692,180.573864 96.2187692,180.467045 C93.2095385,180.364773 92.7572308,183.082955 92.6741538,185.407955 C92.6049231,188.219318 92.8633846,190.948864 95.8703077,191.053409 C96.6249231,191.078409 97.4995385,190.810227 97.9541538,190.392045 L99.0733846,191.378409 L99.6733846,190.696591 L98.5287692,189.682955 Z" id="Fill-39" fill="#121313" mask="url(#mask-8)"></path>
                    <path d="M31.1979231,4.31795455 C31.1979231,4.31795455 7.05715385,87.8679545 104.504077,161.829318 C201.951,87.8679545 177.812538,4.31795455 177.812538,4.31795455 L31.1979231,4.31795455 Z" id="Fill-40" fill="#FEFEFE" mask="url(#mask-8)"></path>
                    <path d="M177.612462,4.57227273 C177.884769,5.58363636 180.067846,14.2222727 180.067846,27.945 C180.067846,58.0336364 169.443231,112.133636 104.502462,161.499545 C39.5686154,112.135909 28.9416923,58.0381818 28.9416923,27.9472727 C28.9416923,14.2245455 31.1270769,5.58590909 31.3993846,4.57227273 L177.612462,4.57227273 Z M177.813231,4.06318182 L31.0024615,4.06318182 L30.9493846,4.24727273 C30.7070769,5.08590909 7.87707692,88.8086364 104.345538,162.031364 L104.502462,162.149545 L104.661692,162.031364 C201.130154,88.8109091 178.304769,5.08590909 178.060154,4.24727273 L178.009385,4.06318182 L177.813231,4.06318182 Z" id="Fill-41" fill="#121313" mask="url(#mask-8)"></path>
                    <path d="M104.503154,161.501364 C45.3408462,116.526364 30.7839231,68.1559091 29.0000769,35.4831818 L28.4831538,35.5104545 C30.2762308,68.3218182 44.8908462,116.903636 104.346231,162.030909 L104.503154,162.151364 L104.660077,162.030909 C164.055462,116.951364 178.730077,68.3468182 180.585462,35.5104545 L180.066231,35.4831818 C178.222385,68.1809091 163.603154,116.574091 104.503154,161.501364" id="Fill-42" fill="#121313" mask="url(#mask-8)"></path>
                    <polygon id="Fill-43" fill="#121313" mask="url(#mask-8)" points="91.7162308 35.4970455 117.357 35.4970455 117.357 151.458409 104.503154 161.828864 91.7162308 151.483409"></polygon>
                    <path d="M117.357692,35.5293182 L117.323077,151.456591 C117.316154,151.4475 104.483077,161.804318 104.483077,161.804318 C104.480769,161.770227 91.7376923,151.458864 91.7376923,151.458864 C91.7376923,151.458864 91.7492308,35.5952273 91.7492308,35.5293182 L117.357692,35.5293182 Z M91.6823077,35.4656818 L91.6823077,151.483864 C91.6938462,151.508864 104.480769,161.854318 104.480769,161.854318 C104.524615,161.854318 117.378462,151.483864 117.378462,151.483864 L117.392308,35.4975 L91.7169231,35.4656818 L91.6823077,35.4656818 Z" id="Fill-44" fill="#121313" mask="url(#mask-8)"></path>
                    <path d="M180.269308,35.4970455 C181.307769,16.4220455 177.813923,4.3175 177.813923,4.3175 L31.197,4.3175 C31.197,4.3175 27.7008462,16.4220455 28.7416154,35.4970455 L180.269308,35.4970455 Z" id="Fill-45" fill="#DE2625" mask="url(#mask-8)"></path>
                    <path d="M177.612462,4.57227273 C177.875538,5.53363636 180.201692,14.4677273 180.201692,28.5177273 C180.201692,30.6427273 180.141692,32.8972727 180.017077,35.2427273 L28.9924615,35.2427273 C28.8678462,32.8927273 28.8078462,30.6381818 28.8078462,28.5086364 C28.8078462,14.4654545 31.134,5.53363636 31.3970769,4.57227273 L177.612462,4.57227273 Z M31.1986154,4.06318182 L31.0024615,4.06318182 L30.9493846,4.24727273 C30.9147692,4.37 27.4532308,16.6131818 28.4824615,35.5109091 L28.4963077,35.7518182 L180.515538,35.7518182 L180.527077,35.5109091 C181.556308,16.6131818 178.097077,4.37 178.060154,4.24727273 L178.009385,4.06318182 L177.813231,4.06318182 L31.1986154,4.06318182 Z" id="Fill-46" fill="#121313" mask="url(#mask-8)"></path>
                    <path d="M51.1693846,171.878409 C49.8955385,174.398864 48.9609231,176.978409 51.6424615,178.323864 C54.3216923,179.669318 55.9047692,177.414773 57.2132308,174.914773 C58.3001538,172.846591 59.2301538,170.244318 56.5486154,168.898864 C53.8186154,167.530682 52.2424615,169.805682 51.1693846,171.878409" id="Fill-47" fill="#121313" mask="url(#mask-8)"></path>
                    <path d="M65.4323077,14.0659091 L68.2638462,14.0659091 L68.2638462,10.1431818 L58.1769231,10.1431818 L58.1769231,14.0659091 L60.8884615,14.0659091 L60.8884615,22.3113636 L65.4323077,22.3113636 L65.4323077,14.0659091 Z M108.145385,24.6977273 C106.421538,24.6977273 105.013846,26.05 105.013846,27.7477273 C105.013846,29.4477273 106.421538,30.8681818 108.145385,30.8681818 C109.869231,30.8681818 111.276923,29.4477273 111.276923,27.7477273 C111.276923,26.05 109.869231,24.6977273 108.145385,24.6977273 L108.145385,24.6977273 Z M55.9476923,11.2295455 C54.4223077,9.81818182 51.3369231,8.90681818 49.1146154,8.90681818 C44.9007692,8.90681818 41.8130769,11.7 41.8130769,15.1568182 C41.8130769,18.3931818 44.1692308,19.7477273 47.3884615,20.8522727 C49.3453846,21.4931818 51.7315385,22.1 51.7315385,24.2568182 C51.7315385,25.8590909 50.5061538,27.2727273 48.5146154,27.2727273 C46.4261538,27.2727273 44.6653846,25.8340909 44.0030769,24.2295455 L40.8530769,26.8022727 C42.5769231,29.2068182 45.0969231,30.8681818 48.5492308,30.8681818 C53.6561538,30.8681818 56.7784615,27.9068182 56.7784615,23.7295455 C56.7784615,16.7340909 46.8553846,18.1977273 46.8553846,14.6863636 C46.8553846,13.3340909 48.3507692,12.3363636 49.9061538,12.3363636 C51.5376923,12.3363636 52.7307692,13 53.6561538,14.0522727 L55.9476923,11.2295455 Z M89.1969231,18.9931818 L89.1323077,10.3318182 L84.4223077,10.3318182 L84.4223077,30.8681818 L89.1323077,30.8681818 L89.1323077,21.6340909 L96.9138462,30.8681818 L102.966923,30.8681818 L93.2953846,19.8090909 L102.452308,10.3318182 L96.6553846,10.3318182 L89.1969231,18.9931818 Z M63.1892308,24.6977273 C61.4653846,24.6977273 60.0576923,26.05 60.0576923,27.7477273 C60.0576923,29.4477273 61.4653846,30.8681818 63.1892308,30.8681818 C64.9130769,30.8681818 66.3230769,29.4477273 66.3230769,27.7477273 C66.3230769,26.05 64.9130769,24.6977273 63.1892308,24.6977273 L63.1892308,24.6977273 Z M134.716154,24.6977273 C132.992308,24.6977273 131.586923,26.05 131.586923,27.7477273 C131.586923,29.4477273 132.992308,30.8681818 134.716154,30.8681818 C136.442308,30.8681818 137.847692,29.4477273 137.847692,27.7477273 C137.847692,26.05 136.442308,24.6977273 134.716154,24.6977273 L134.716154,24.6977273 Z M170.7,24.6977273 C168.978462,24.6977273 167.568462,26.05 167.568462,27.7477273 C167.568462,29.4477273 168.978462,30.8681818 170.7,30.8681818 C172.423846,30.8681818 173.833846,29.4477273 173.833846,27.7477273 C173.833846,26.05 172.423846,24.6977273 170.7,24.6977273 L170.7,24.6977273 Z M164.213077,10.8704545 C162.683077,10.125 160.940769,9.69545455 159.166154,9.69545455 C152.529231,9.69545455 147.996923,14.7363636 147.996923,20.4409091 C147.996923,25.9863636 152.711538,30.8681818 159.076154,30.8681818 C160.910769,30.8681818 162.560769,30.3613636 164.213077,29.6681818 L164.213077,25 C162.980769,26.2545455 161.090769,27.1340909 159.198462,27.1340909 C155.083846,27.1340909 152.561538,23.7477273 152.561538,20.3613636 C152.561538,16.8954545 154.993846,13.4295455 159.228462,13.4295455 C161.118462,13.4295455 162.980769,14.2295455 164.213077,15.5613636 L164.213077,10.8704545 Z M132.357692,13.7022727 L132.357692,10.1909091 L120.196154,10.1909091 L120.196154,30.8681818 L124.977692,30.8681818 L124.977692,21.7636364 L131.905385,21.7636364 L131.905385,18.2522727 L124.977692,18.2522727 L124.977692,13.7022727 L132.357692,13.7022727 Z" id="Fill-48" fill="#FEFEFE" mask="url(#mask-8)"></path>
                    <polygon id="Fill-49" fill="#121313" mask="url(#mask-8)" points="44.8186154 174.0025 47.4655385 169.986591 50.3455385 171.8275 50.9086154 170.9775 48.0286154 169.134318 49.8678462 166.343409 52.9670769 168.3275 53.5278462 167.475227 49.4732308 164.882045 43.8632308 173.391136"></polygon>
                    <path d="M56.1498462,174.408636 C54.786,177.017727 53.796,178.27 52.1090769,177.422273 C50.4221538,176.574545 50.8675385,175.051818 52.2106154,172.433636 C53.2375385,170.413182 54.4652308,168.992727 56.0321538,169.779091 C57.6452308,170.590455 57.2021538,172.401818 56.1498462,174.408636" id="Fill-50" fill="#FEFEFE" mask="url(#mask-8)"></path>
                    <path d="M59.1426923,176.965455 L60.9888462,177.697273 C62.235,178.195 62.2880769,179.149545 61.9026923,180.090455 C61.6442308,180.717727 61.2703846,181.924545 61.2519231,182.617727 L62.4865385,183.108636 L62.5742308,182.895 C62.3180769,182.792727 62.4126923,182.349545 62.4473077,182.158636 C62.6342308,181.417727 62.8511538,180.701818 63.1026923,179.983636 C63.4626923,178.67 63.3173077,178.158636 62.1288462,177.556364 L62.1403846,177.529091 C63.3080769,177.82 64.3188462,177.301818 64.8126923,176.215455 C65.7634615,174.072273 64.7019231,173.049545 62.7034615,172.254091 L60.2480769,171.274545 L56.3873077,180.681364 L57.4442308,181.101818 L59.1426923,176.965455 Z" id="Fill-51" fill="#121313" mask="url(#mask-8)"></path>
                    <path d="M60.9161538,172.6375 L62.4046154,173.230682 C63.1176923,173.514773 64.3892308,174.0625 63.7523077,175.692045 C63.1038462,177.344318 61.6984615,176.871591 61.1953846,176.685227 L59.5269231,176.023864 L60.9161538,172.6375 Z" id="Fill-52" fill="#FEFEFE" mask="url(#mask-8)"></path>
                    <polygon id="Fill-53" fill="#121313" mask="url(#mask-8)" points="66.4509231 174.839091 68.9201538 175.820909 65.4493846 184.286818 66.504 184.707273 69.9770769 176.241364 72.4486154 177.223182 72.834 176.284545 66.8363077 173.898182"></polygon>
                    <polygon id="Fill-54" fill="#121313" mask="url(#mask-8)" points="71.5216154 186.369318 74.7062308 176.721591 73.6193077 176.373864 70.437 186.021591"></polygon>
                    <path d="M74.3229231,184.782273 C73.9398462,186.552727 74.9483077,187.664091 76.776,188.045909 C78.6036923,188.427727 79.9836923,187.818636 80.3667692,186.048182 L81.9913846,178.518636 L80.8767692,178.284545 L79.3375385,185.416364 C79.1806154,186.198182 78.7790769,187.427727 76.9906154,187.055 C75.2044615,186.68 75.3406154,185.395909 75.5229231,184.618636 L77.0621538,177.484545 L75.9452308,177.252727 L74.3229231,184.782273 Z" id="Fill-55" fill="#121313" mask="url(#mask-8)"></path>
                    <path d="M88.9308462,182.698409 C89.4408462,180.852955 88.5131538,179.680227 86.6716154,179.296136 C85.0354615,178.948409 83.6346923,179.780227 83.2816154,181.418864 C83.0693077,182.398409 83.1385385,183.241591 83.9900769,183.918864 C84.4677692,184.3075 85.2939231,184.773409 85.7993077,185.100682 C86.7385385,185.696136 87.3523846,185.839318 87.0293077,187.348409 C86.7754615,188.512045 85.8616154,188.914318 84.7331538,188.680227 C83.0531538,188.327955 82.9700769,187.341591 83.3416154,185.884773 L82.227,185.652955 C82.1254615,186.1825 81.9431538,186.975682 82.0516154,187.5075 C82.347,188.927955 83.4708462,189.452955 84.4631538,189.659773 C86.397,190.064318 87.8300769,189.216591 88.2385385,187.339318 C88.5200769,186.030227 88.3123846,185.293864 86.5585385,184.191591 C86.0646923,183.8825 85.5823846,183.575682 85.0862308,183.264318 C84.4931538,182.889318 84.2762308,182.402955 84.4239231,181.714318 C84.5900769,180.946136 84.9800769,179.977955 86.607,180.316591 C87.7239231,180.552955 88.1162308,181.448409 87.8162308,182.464318 L88.9308462,182.698409 Z" id="Fill-56" fill="#121313" mask="url(#mask-8)"></path>
                    <path d="M97.1270769,189.702955 C96.7024615,189.984773 96.3309231,190.039318 95.8786154,190.037045 C94.1178462,190.0325 93.744,188.150682 93.8386154,185.893864 C93.9563077,182.962045 94.314,181.418864 96.2109231,181.4825 C98.1032308,181.546136 98.3501538,183.114318 98.274,186.048409 C98.2486154,187.127955 97.9509231,188.552955 97.704,188.937045 L96.7693846,188.146136 L96.1370769,188.871136 L97.1270769,189.702955 Z" id="Fill-57" fill="#FEFEFE" mask="url(#mask-8)"></path>
                    <path d="M101.197154,188.606591 C101.132538,190.417955 102.321,191.338409 104.187923,191.402045 C106.054846,191.467955 107.307923,190.631591 107.374846,188.817955 L107.644846,181.127045 L106.507154,181.088409 L106.248692,188.3725 C106.234846,189.1725 106.052538,190.452045 104.224846,190.388409 C102.399462,190.327045 102.307154,189.036136 102.348692,188.240682 L102.609462,180.954318 L101.469462,180.915682 L101.197154,188.606591 Z" id="Fill-58" fill="#121313" mask="url(#mask-8)"></path>
                    <path d="M114.540692,185.5725 C114.633,188.506591 114.386077,190.070227 112.489154,190.136136 C110.596846,190.202045 110.241462,188.656591 110.123769,185.7225 C110.029154,183.467955 110.403,181.640682 112.161462,181.581591 C113.973,181.517955 114.478385,183.313409 114.540692,185.5725" id="Fill-59" fill="#FEFEFE" mask="url(#mask-8)"></path>
                    <polygon id="Fill-60" fill="#121313" mask="url(#mask-8)" points="122.146615 189.842727 121.553538 185.090455 124.962 184.676818 124.837385 183.672273 121.426615 184.083636 121.018154 180.783636 124.685077 180.338182 124.558154 179.331364 119.760462 179.913182 121.015846 189.981364"></polygon>
                    <polygon id="Fill-61" fill="#121313" mask="url(#mask-8)" points="128.411769 188.666364 126.267923 178.741364 125.155615 178.975455 127.297154 188.900455"></polygon>
                    <path d="M129.216231,179.300227 L130.960846,178.7775 C132.721615,178.245682 133.494692,179.625227 134.260846,181.811591 C135.264692,184.679773 134.973923,186.054773 133.372385,186.536591 L131.625462,187.063864 L129.216231,179.300227 Z" id="Fill-62" fill="#FEFEFE" mask="url(#mask-8)"></path>
                    <polygon id="Fill-63" fill="#121313" mask="url(#mask-8)" points="143.661923 184.555909 143.359615 183.583182 139.498846 184.746818 138.386538 181.165 141.984231 180.080909 141.684231 179.110455 138.086538 180.194545 137.087308 176.987727 140.922692 175.830909 140.625 174.860455 135.698077 176.344545 138.709615 186.046818"></polygon>
                    <polygon id="Fill-64" fill="#121313" mask="url(#mask-8)" points="150.224308 181.857045 149.838923 180.916136 145.943538 182.470682 142.470462 174.0025 141.413538 174.422955 145.272 183.8275"></polygon>
                    <polygon id="Fill-65" fill="#121313" mask="url(#mask-8)" points="152.800154 180.734091 148.124769 171.695455 147.107077 172.204545 151.784769 181.245455"></polygon>
                    <path d="M153.834692,177.498182 C154.670077,179.111818 156.165462,179.348182 157.829308,178.514091 C159.495462,177.677727 160.178538,176.348182 159.343154,174.732273 L155.796231,167.875455 L154.778538,168.384545 L158.138538,174.882273 C158.519308,175.584545 158.990077,176.791364 157.363154,177.609545 C155.733923,178.425455 155.020846,177.343636 154.663154,176.625455 L151.300846,170.13 L150.287769,170.636818 L153.834692,177.498182 Z" id="Fill-66" fill="#121313" mask="url(#mask-8)"></path>
                    <path d="M162.952615,166.578409 C162.020308,164.905682 160.522615,164.692045 158.928,165.673864 C157.508769,166.546591 157.084154,168.101136 157.986462,169.523864 C158.524154,170.371591 159.170308,170.930682 160.259538,170.835227 C160.880308,170.789773 161.798769,170.557955 162.394154,170.446591 C163.490308,170.235227 164.034923,169.917045 164.863385,171.223864 C165.502615,172.232955 165.128769,173.151136 164.152615,173.751136 C162.696462,174.648864 161.944154,173.996591 161.180308,172.694318 L160.213385,173.2875 C160.515692,173.739773 160.942615,174.435227 161.394923,174.746591 C162.611077,175.5625 163.788,175.171591 164.651077,174.639773 C166.328769,173.610227 166.760308,172.019318 165.726462,170.389773 C165.008769,169.255682 164.341846,168.867045 162.299538,169.276136 C161.724923,169.392045 161.161846,169.498864 160.587231,169.614773 C159.897231,169.751136 159.394154,169.548864 159.018,168.953409 C158.593385,168.2875 158.191846,167.321591 159.604154,166.453409 C160.568769,165.860227 161.487231,166.2375 161.985692,167.173864 L162.952615,166.578409 Z" id="Fill-67" fill="#121313" mask="url(#mask-8)"></path>
                    <polygon id="Fill-68" fill="#121313" mask="url(#mask-8)" points="46.8593077 163.550909 47.007 163.980455 50.1339231 162.953182 49.9862308 162.523636"></polygon>
                    <polygon id="Fill-69" fill="#121313" mask="url(#mask-8)" points="158.787923 162.954091 161.914846 163.981364 162.060231 163.551818 158.931 162.524545"></polygon>
                </g>
                <g id="Group-77" transform="translate(27.692308, 34.090909)">
                    <g id="Group-73">
                        <mask id="mask-10" fill="white">
                            <use xlink:href="#path-9"></use>
                        </mask>
                        <g id="Clip-72"></g>
                        <polygon id="Fill-71" fill="#121313" mask="url(#mask-10)" points="152.419385 30.0104545 144.573231 54.3627273 8.35938462 54.3627273 -0.504461538 30.0104545"></polygon>
                    </g>
                    <g id="Group-76">
                        <mask id="mask-12" fill="white">
                            <use xlink:href="#path-11"></use>
                        </mask>
                        <g id="Clip-75"></g>
                        <path d="M8.35984615,54.3302273 C8.39215385,54.3506818 -0.471692308,29.9984091 -0.471692308,29.9984091 C-0.471692308,29.9984091 152.283692,30.0415909 152.373692,30.0415909 C152.348308,30.1279545 144.541385,54.3529545 144.541385,54.3529545 L8.35984615,54.3302273 Z M152.419846,29.9779545 L-0.504,29.9779545 C-0.536307692,30.0211364 8.32753846,54.3734091 8.32753846,54.3734091 L144.571385,54.3938636 C144.603692,54.3734091 152.449846,30.0211364 152.449846,30.0211364 L152.463692,29.9779545 L152.419846,29.9779545 Z" id="Fill-74" fill="#121313" mask="url(#mask-12)"></path>
                    </g>
                </g>
            </g>
        </g>
    </g>
</svg>