<?xml version="1.0" encoding="UTF-8" standalone="no"?>
<svg width="174px" height="200px" viewBox="0 0 174 200" version="1.1" xmlns="http://www.w3.org/2000/svg" xmlns:xlink="http://www.w3.org/1999/xlink">
    <!-- Generator: sketchtool 3.8.3 (29802) - http://www.bohemiancoding.com/sketch -->
    <title>58815ACF-E565-465B-A9F2-597972493340</title>
    <desc>Created with sketchtool.</desc>
    <defs>
        <polyline id="path-1" points="0 0.0156756757 173.57286 0.0156756757 173.57286 200 0 200"></polyline>
        <polyline id="path-3" points="0 0.0156756757 173.57286 0.0156756757 173.57286 200 0 200"></polyline>
    </defs>
    <g id="Page-1" stroke="none" stroke-width="1" fill="none" fill-rule="evenodd">
        <g id="FULL-LOGO" transform="translate(-749.000000, -387.000000)">
            <g id="icon_club_Brisbane" transform="translate(749.000000, 387.000000)">
                <g id="Page-1">
                    <path d="M2.53590093,56.5638378 L2.53590093,28.0968108 C2.53590093,24.9184324 2.53590093,22.6492432 0.000162616822,20.3805946 L17.4272654,20.3805946 C14.9549477,22.6492432 14.8926112,24.9184324 14.8926112,28.0968108 L14.8920692,56.8865405 C17.2987981,57.666 19.5721813,58.0541081 21.9794523,58.0541081 C25.2296206,58.0541081 27.9626673,57.0816757 30.8876019,55.073027 L28.5475458,64.3432973 L0.000162616822,64.3432973 C2.47193832,62.0103243 2.53590093,59.6746486 2.53590093,56.5638378" id="Fill-1" fill="#A60043"></path>
                    <path d="M48.3690187,64.3432973 L30.9446262,64.3432973 C33.4153178,62.0103243 33.4803645,59.6746486 33.4803645,56.5638378 L33.4803645,28.0968108 C33.4803645,24.9184324 33.4803645,22.6492432 30.9446262,20.3805946 L48.3690187,20.3805946 C45.8999533,22.6492432 45.8354486,24.9184324 45.8354486,28.0968108 L45.8359907,56.5638378 C45.8359907,59.6746486 45.8999533,62.0103243 48.3690187,64.3432973" id="Fill-3" fill="#A60043"></path>
                    <path d="M74.1137551,58.9627027 C80.9414935,58.9627027 85.5560168,53.7740541 85.5560168,44.3713514 C85.5560168,33.2183784 80.4867084,26.3454054 73.3348206,26.3454054 C66.6360916,26.3454054 61.9511009,31.5351351 61.9511009,40.8697297 C61.9511009,52.0875676 67.0236617,58.9627027 74.1137551,58.9627027 M48.8176243,42.2956757 C48.8176243,36.2664865 51.6124654,30.1075676 56.6871944,25.5675676 C61.2388393,21.5475676 67.2193439,19.3405405 73.7207645,19.3405405 C88.4842037,19.3405405 98.6911196,28.8745946 98.6911196,42.3627027 C98.6911196,48.3913514 95.8962785,54.6816216 90.8242598,59.1562162 C86.2715308,63.2416216 80.2904841,65.3816216 73.7207645,65.3816216 C59.090671,65.3816216 48.8176243,55.7194595 48.8176243,42.2956757" id="Fill-5" fill="#A60043"></path>
                    <path d="M101.591336,53.3197838 L101.590794,29.7154595 C101.590794,26.6062703 101.527374,24.0749189 98.0793551,20.3803243 L111.668159,20.3803243 L131.696047,47.2905946 L131.696047,31.9224865 L131.696047,29.9132973 C131.696047,26.928973 131.43857,24.0749189 128.575972,20.3803243 L141.190701,20.3808649 C138.786682,24.336 138.589374,27.2511351 138.589374,30.1073514 L138.589374,31.9224865 L138.589374,65.4468108 C129.030215,64.3435676 125.847262,59.8041081 121.812196,54.5522162 L108.483037,37.2387027 L108.483037,53.3197838 L108.483037,55.9138378 C108.483037,59.2857297 108.744308,61.7500541 111.410682,64.3435676 L98.532514,64.3435676 C101.591336,61.0354595 101.591336,57.9257297 101.591336,53.3197838" id="Fill-7" fill="#A60043"></path>
                    <g id="Group-11">
                        <mask id="mask-2" fill="white">
                            <use xlink:href="#path-1"></use>
                        </mask>
                        <g id="Clip-10"></g>
                        <path d="M154.911333,58.2484865 C159.072155,58.2484865 161.607351,56.1095676 161.608436,53.3836216 C161.608436,49.234973 157.058417,48.069027 150.877893,44.8917297 C144.765127,41.7782162 141.58109,37.3041622 141.58109,32.1165946 C141.58109,24.6603784 147.628267,19.3409189 157.770679,19.3409189 C161.542847,19.3409189 165.056454,20.0560541 168.82808,21.4171351 L168.82808,28.8084865 C165.120417,26.929027 162.128809,25.8263243 159.65595,25.8263243 C156.14451,25.8263243 153.870585,27.7717297 153.870585,30.1074054 C153.870585,33.7382162 158.552323,35.0338919 166.162249,39.1863243 C171.234267,41.9728108 173.573239,45.7982162 173.573239,51.1160541 C173.573239,59.3522703 166.744417,65.0560541 156.212267,65.0560541 C151.853594,65.0560541 147.628267,64.2133514 143.140585,62.7225405 L140.865576,53.3836216 C146.001557,56.4982162 150.35752,58.2484865 154.911333,58.2484865" id="Fill-9" fill="#A60043" mask="url(#mask-2)"></path>
                    </g>
                    <path d="M37.0776654,12.9547568 C38.3845626,12.9547568 39.277871,11.9336757 39.277871,10.545027 C39.277871,8.98124324 38.3845626,8.00448649 37.0559832,8.00448649 C36.8603009,8.00448649 36.5768056,8.04827027 36.2076654,8.09043243 L36.2076654,12.8682703 C36.6207121,12.9331351 36.9036654,12.9547568 37.0776654,12.9547568 M36.7957963,5.98502703 C37.731385,5.98502703 38.3184318,5.33421622 38.3184318,4.22718919 C38.3184318,3.29313514 37.731385,2.57637838 36.8391607,2.57637838 C36.7291234,2.57637838 36.5123009,2.598 36.2076654,2.64232432 L36.2076654,5.94232432 C36.4689364,5.98502703 36.6646187,5.98502703 36.7957963,5.98502703 M32.027329,12.4758378 L32.027329,2.94610811 C32.027329,1.88124324 32.0051047,1.12178378 31.1790112,0.362324324 L36.6646187,0.362324324 C40.3646935,0.362324324 42.2374972,1.66448649 42.2374972,3.83637838 C42.2374972,5.11691892 41.4759084,6.13745946 40.0172355,6.76664865 C41.9979084,7.35259459 43.0435346,8.6552973 43.0435346,10.6093514 C43.0435346,11.7601622 42.6294037,12.8244865 41.868357,13.6482703 C40.7354598,14.8434054 39.4296467,15.0817838 37.5346187,15.0817838 L31.1790112,15.0817838 C32.0051047,14.3007027 32.027329,13.5196216 32.027329,12.4758378" id="Fill-12" fill="#1250A2"></path>
                    <path d="M53.5000131,4.76956757 C53.5000131,3.42308108 52.7156579,2.57659459 51.4103869,2.57659459 C51.3003495,2.57659459 51.1930224,2.57659459 51.0835271,2.59767568 L51.0835271,7.61389189 C52.6722935,7.20091892 53.5000131,6.202 53.5000131,4.76956757 L53.5000131,4.76956757 Z M46.0976953,15.082 C46.9243308,14.3003784 46.9470972,13.5198378 46.9470972,12.4760541 L46.9470972,2.94578378 C46.9470972,1.88145946 46.9470972,1.122 46.0976953,0.362 L51.8451159,0.362 C55.655228,0.362 57.5713963,1.64308108 57.5713963,4.29227027 C57.5713963,5.87659459 56.6997701,7.00578378 54.871415,7.87389189 L57.5486299,12.4338919 C57.9627607,13.1274054 58.5947981,13.9528108 59.5087047,14.8863243 L57.0488542,15.1257838 C56.8526299,15.1474054 56.6569477,15.1474054 56.4607234,15.1474054 C54.8275084,15.1474054 53.9569664,14.3436216 52.9991533,12.4976757 L51.0835271,8.7647027 L51.0835271,12.4760541 C51.0835271,13.5198378 51.1052093,14.3003784 51.9318449,15.082 L46.0976953,15.082 Z" id="Fill-14" fill="#1250A2"></path>
                    <path d="M66.998185,15.0820541 L61.1629514,15.0820541 C61.9917551,14.3004324 62.0128953,13.5198919 62.0128953,12.4761081 L62.0128953,2.94583784 C62.0128953,1.88151351 62.0128953,1.12205405 61.1629514,0.362054054 L66.998185,0.362054054 C66.1704654,1.12205405 66.1493252,1.88151351 66.1493252,2.94583784 L66.1493252,12.4761081 C66.1493252,13.5198919 66.1704654,14.3004324 66.998185,15.0820541" id="Fill-16" fill="#1250A2"></path>
                    <path d="M74.6621533,13.0410811 C76.0552374,13.0410811 76.9046393,12.3243243 76.9046393,11.4135135 C76.9046393,10.0237838 75.3809196,9.63243243 73.3124336,8.56918919 C71.266714,7.52702703 70.1988636,6.02864865 70.1988636,4.29189189 C70.1988636,1.79513514 72.223985,0.0156756757 75.6199664,0.0156756757 C76.882415,0.0156756757 78.0575925,0.254594595 79.3205832,0.709189189 L79.3205832,3.18486486 C78.0809009,2.55459459 77.0786393,2.18594595 76.2520037,2.18594595 C75.0762841,2.18594595 74.3136112,2.83621622 74.3136112,3.61837838 C74.3136112,4.83459459 75.8823215,5.26864865 78.4283589,6.65837838 C80.1266206,7.59243243 80.9104336,8.87297297 80.9104336,10.6524324 C80.9104336,13.4102703 78.6245832,15.32 75.0979664,15.32 C73.6387514,15.32 72.223985,15.0383784 70.7224897,14.5389189 L69.9592748,11.4135135 C71.6792187,12.4545946 73.1378916,13.0410811 74.6621533,13.0410811" id="Fill-18" fill="#1250A2"></path>
                    <path d="M89.4517196,12.9547568 C90.7580748,12.9547568 91.6519252,11.9336757 91.6519252,10.545027 C91.6519252,8.98124324 90.7580748,8.00448649 89.4294953,8.00448649 C89.2338131,8.00448649 88.9508598,8.04827027 88.5806355,8.09043243 L88.5806355,12.8682703 C88.9947664,12.9331351 89.2771776,12.9547568 89.4517196,12.9547568 M89.1682243,5.98502703 C90.1048972,5.98502703 90.6935701,5.33421622 90.6935701,4.22718919 C90.6935701,3.29313514 90.1048972,2.57637838 89.213215,2.57637838 C89.1031776,2.57637838 88.885271,2.598 88.5806355,2.64232432 L88.5806355,5.94232432 C88.8419065,5.98502703 89.0370467,5.98502703 89.1682243,5.98502703 M84.4002991,12.4758378 L84.4002991,2.94610811 C84.4002991,1.88124324 84.3780748,1.12178378 83.5508972,0.362324324 L89.0370467,0.362324324 C92.7387477,0.362324324 94.6110093,1.66448649 94.6110093,3.83637838 C94.6110093,5.11691892 93.8505047,6.13745946 92.3907477,6.76664865 C94.3725047,7.35259459 95.4165047,8.6552973 95.4165047,10.6093514 C95.4165047,11.7601622 95.0029159,12.8244865 94.2418692,13.6482703 C93.1084299,14.8434054 91.804243,15.0817838 89.909215,15.0817838 L83.5508972,15.0817838 C84.3780748,14.3007027 84.4002991,13.5196216 84.4002991,12.4758378" id="Fill-20" fill="#1250A2"></path>
                    <path d="M104.980217,8.65551351 L103.478721,4.11821622 L101.955002,8.65551351 L104.980217,8.65551351 Z M98.0359364,12.889027 L101.496964,3.01118919 C101.628142,2.61983784 101.823824,2.25064865 101.823824,1.77335135 C101.823824,1.27443243 101.563095,0.883621622 101.106142,0.362 L106.330479,0.362 L110.511357,12.4338919 C110.881039,13.4760541 111.447488,14.4084865 112.142946,15.082 L105.74289,15.082 C106.24375,14.5171351 106.527245,14.1479459 106.527245,13.562 C106.527245,13.2587568 106.483338,12.9976757 106.41775,12.8241622 L105.676759,10.7176757 L101.236236,10.7176757 L100.539693,12.7376757 C100.43074,13.0847027 100.343469,13.3674054 100.343469,13.6274054 C100.343469,14.1479459 100.583058,14.6263243 101.040553,15.082 L96.7078991,15.082 C97.2954879,14.3868649 97.7518991,13.6922703 98.0359364,12.889027 L98.0359364,12.889027 Z" id="Fill-22" fill="#1250A2"></path>
                    <path d="M114.365105,11.3906486 L114.365105,3.48794595 C114.365105,2.44686486 114.343422,1.5992973 113.187759,0.362 L117.739946,0.362 L124.444637,9.37227027 L124.444637,4.22686486 L124.444637,3.55335135 C124.444637,2.55443243 124.35845,1.5992973 123.400095,0.362 L127.623254,0.362 C126.818301,1.68632432 126.75217,2.66416216 126.75217,3.61875676 L126.75217,4.22686486 L126.75217,15.4511892 C123.552413,15.082 122.485105,13.562 121.135385,11.8036216 L116.671553,6.00740541 L116.671553,11.3906486 L116.671553,12.2592973 C116.671553,13.389027 116.759908,14.2128108 117.651591,15.082 L113.342245,15.082 C114.365105,13.9744324 114.365105,12.9333514 114.365105,11.3906486" id="Fill-24" fill="#1250A2"></path>
                    <path d="M131.586009,12.476 L131.586009,2.94627027 C131.586009,1.88140541 131.586009,1.12194595 130.73715,0.361945946 L139.379692,0.361945946 L139.379692,3.42302703 C138.640327,2.72897297 138.096103,2.57654054 137.267841,2.57654054 L135.765804,2.57654054 L135.765804,6.24572973 L138.595879,6.24572973 L138.595879,9.06843243 C138.248421,8.59059459 137.703654,8.33005405 137.00657,8.33005405 L135.765804,8.33005405 L135.765804,12.7587027 C136.31057,12.8684324 136.854794,12.9549189 137.399561,12.9549189 C138.879374,12.9549189 140.011729,12.6938378 141.10072,11.868973 L140.316907,15.0819459 L130.73715,15.0819459 C131.564869,14.3003243 131.586009,13.5197838 131.586009,12.476" id="Fill-26" fill="#1250A2"></path>
                    <g id="Group-30">
                        <mask id="mask-4" fill="white">
                            <use xlink:href="#path-3"></use>
                        </mask>
                        <g id="Clip-29"></g>
                        <path d="M82.902815,51.0298919 C82.902815,51.0298919 71.3494318,49.5520541 59.442628,54.3169189 C59.442628,54.3169189 61.0259738,56.070973 60.8275813,57.2401622 C60.8275813,57.2401622 44.3268523,60.865027 38.3333383,71.1125946 C38.3333383,71.1125946 40.7048336,71.3071892 41.298385,72.8661081 C41.298385,72.8661081 28.6489645,81.0493514 28.2527215,89.4271892 C28.2527215,89.4271892 32.9967963,90.790973 30.4263664,92.9347568 C27.8575626,95.0790811 19.5554318,98.5861081 19.161357,103.456378 C19.161357,103.456378 24.2756561,103.153676 22.9167215,107.938 C22.447843,109.58773 21.4396187,113.743405 21.4396187,119.427189 C21.4401607,166.941243 86.9422168,200.000162 86.9422168,200.000162 C86.9422168,200.000162 152.514198,166.941243 152.514198,119.427189 C152.500647,118.283405 152.198721,108.148811 149.020105,102.677459 C149.020105,102.677459 150.080366,101.959081 151.195376,102.092054 C151.195376,102.092054 150.730292,97.1034054 145.114049,90.9342162 C142.598366,88.1715135 141.829189,83.3434054 145.265282,82.9974595 C145.265282,82.9974595 144.875002,80.0185405 138.215301,78.9352973 C136.607021,78.6736757 136.410254,78.7396216 135.461656,77.1790811 C134.594908,75.7547568 133.976422,72.4688108 135.07246,70.3893514 C135.07246,70.3893514 132.494441,69.3352973 130.577731,70.418 C130.577731,70.418 125.103507,58.4471892 118.384179,56.6942162 C118.384179,56.6942162 118.284441,57.8298919 117.24803,58.485027 C117.24803,58.485027 108.747507,48.8315135 100.462179,48.5282703 C100.462179,48.5282703 100.538067,50.0444865 99.7667215,51.1217838 C99.7667215,51.1217838 90.6184411,48.358 82.7109271,48.6488108 C82.7109271,48.6488108 83.435114,50.0444865 82.902815,51.0298919" id="Fill-28" fill="#FFC655" mask="url(#mask-4)"></path>
                    </g>
                    <path d="M40.3252318,93.6705405 C40.3252318,93.6705405 37.6322972,95.0132432 33.4319047,95.3013514 C33.4319047,95.3013514 36.0928579,97.3791892 40.8705402,97.3154054 C40.8705402,97.3154054 40.4536991,95.4613514 40.3252318,93.6705405" id="Fill-31" fill="#A60043"></path>
                    <path d="M150.314426,122.402865 C148.022071,101.632054 137.943622,93.1201622 137.943622,93.1201622 C142.379267,92.7752973 145.848968,96.3644865 145.848968,96.3644865 C138.709006,82.5396216 131.338127,79.5417838 128.175772,78.9007027 C132.706277,81.7098919 135.856707,88.8736757 131.76852,101.856919 C127.554034,94.6077297 123.348763,92.670973 123.348763,92.670973 C125.625398,91.3866486 129.193211,93.3617838 129.193211,93.3617838 C126.420052,86.6455676 119.584725,86.8434054 119.584725,86.8434054 C122.456538,84.2752973 127.211454,86.0531351 127.211454,86.0531351 C121.610931,80.6088108 112.752108,82.8996216 112.752108,82.8996216 C112.752108,82.8996216 117.243585,77.1471892 123.763436,77.5017838 C124.746725,77.5547568 125.748445,77.7704324 126.717099,78.1607027 C127.787118,74.378 131.570669,73.2607027 131.570669,73.2607027 C125.226445,71.3855676 117.753118,76.2244865 117.753118,76.2244865 C120.76966,69.3077297 119.979884,62.5931351 119.979884,62.5931351 C115.029828,75.7661081 108.404819,81.5531351 108.404819,81.5531351 C114.45308,69.7234054 107.367323,54.5682703 107.367323,54.5682703 C109.804407,70.3947568 101.948389,78.8677297 101.948389,78.8677297 C103.327379,59.8115135 94.9916411,53.8969189 94.9916411,53.8969189 C101.275155,63.5525946 96.0497346,77.4288108 96.0497346,77.4288108 C92.3301458,58.1488108 76.3313607,54.3444865 76.3313607,54.3444865 C92.0412299,63.9039459 89.7017159,83.0239459 89.7017159,83.0239459 C86.7513047,67.4212432 74.3436411,61.0904324 74.3436411,61.0904324 C81.8456972,68.1888108 82.9677533,80.2098919 82.9677533,80.2098919 C71.5216972,57.158 51.1945944,62.945027 51.1945944,62.945027 C70.5281084,64.7034054 75.0168748,80.3698919 75.0168748,80.3698919 C63.1214542,64.7996216 46.8337533,69.5634054 46.8337533,69.5634054 C59.1779963,70.330973 63.9231551,79.6028649 63.9231551,79.6028649 C48.1162579,67.5169189 34.1371738,82.9915135 34.1371738,82.9915135 C38.6096785,81.5131351 40.325286,83.9828649 40.325286,83.9828649 C35.4836411,86.2212432 33.4319589,89.9617838 33.4319589,89.9617838 C37.9207252,88.6190811 40.2293421,89.5142162 40.2293421,89.5142162 C40.2634916,88.330973 40.9985196,79.9223243 47.923828,77.9082703 C55.5641084,75.6861081 61.0692299,82.9277297 61.0692299,82.9277297 C51.1306318,80.8174595 46.705828,86.0612432 46.705828,86.0612432 C52.0282766,84.3028649 54.2404075,86.8925946 54.2404075,86.8925946 C46.6413234,87.1801622 44.6617346,93.3617838 44.6617346,93.3617838 C48.7342019,91.3477297 50.5208187,92.7115135 50.5208187,92.7115135 C39.9886692,103.262324 27.4145944,99.6347568 27.4145944,99.6347568 C37.0388,105.900703 48.8968187,102.52773 48.8968187,102.52773 C38.8666131,109.896919 25.9792299,107.585568 25.9792299,107.585568 C38.8823327,114.94827 46.1605196,111.905568 46.1605196,111.905568 C40.9665383,119.344486 25.1276598,118.896919 25.1276598,118.896919 C34.9388748,125.22773 46.1605196,121.710432 46.1605196,121.710432 C43.1949308,126.202324 36.9265944,126.826649 36.9265944,126.826649 C43.3710991,129.752054 47.6994168,128.361243 47.6994168,128.361243 C42.6339028,133.333135 31.4258093,131.195297 31.4258093,131.195297 C40.1008748,138.240703 51.5469308,135.650432 51.5469308,135.650432 C39.9247065,143.755838 27.5625757,136.428811 27.5625757,136.428811 C36.3493047,145.786108 52.3269495,144.925027 52.3269495,144.925027 C46.2087626,149.143405 38.7067065,147.491514 38.7067065,147.491514 C44.9262579,152.643946 49.837286,152.403946 49.837286,152.403946 C42.9114355,155.38827 34.3979028,151.78827 34.3979028,151.78827 C41.6560336,160.685027 55.0502393,160.234216 55.0502393,160.234216 C50.7137907,163.115297 42.8669869,161.56773 42.8669869,161.56773 C54.0642393,169.078541 63.8169121,167.346649 63.8169121,167.346649 C54.9938654,170.836919 48.2154542,168.680162 48.2154542,168.680162 C59.5465944,174.736919 66.3927626,174.162324 66.3927626,174.162324 C62.4325009,177.119081 58.711828,176.076919 58.711828,176.076919 C58.711828,176.076919 66.6160897,182.426649 72.0778467,186.469351 C81.5893047,192.945568 86.9437346,195.716378 86.9437346,195.716378 C116.869024,178.834757 114.730613,169.711514 114.730613,169.711514 C116.954669,171.672595 117.564482,174.458541 117.564482,174.458541 C127.983342,165.833135 129.138464,154.001243 129.138464,154.001243 C131.638968,158.702865 128.927604,165.680703 128.927604,165.680703 C140.968295,152.564486 136.721828,139.561784 136.721828,139.561784 C140.31295,140.840703 140.827361,149.260162 140.827361,149.260162 C153.205753,127.934757 141.610632,111.273135 141.610632,111.273135 C145.777959,112.566649 150.314426,122.402865 150.314426,122.402865" id="Fill-33" fill="#A60043"></path>
                    <path d="M150.314426,122.402865 C148.022071,101.632054 137.943622,93.1201622 137.943622,93.1201622 C142.379267,92.7752973 145.848968,96.3644865 145.848968,96.3644865 C138.709006,82.5396216 131.338127,79.5417838 128.175772,78.9007027 C132.706277,81.7098919 135.856707,88.8736757 131.76852,101.856919 C127.554034,94.6077297 123.348763,92.670973 123.348763,92.670973 C125.625398,91.3866486 129.193211,93.3617838 129.193211,93.3617838 C126.420052,86.6455676 119.584725,86.8434054 119.584725,86.8434054 C122.456538,84.2752973 127.211454,86.0531351 127.211454,86.0531351 C121.610931,80.6088108 112.752108,82.8996216 112.752108,82.8996216 C111.340594,83.1590811 110.869006,83.2796216 110.869006,83.2796216 C110.869006,83.2796216 103.751809,82.2888108 96.5695664,84.7185405 C88.0923514,87.5866486 87.4570617,96.9001622 86.9334355,96.9001622 C86.4103514,96.9001622 85.7463327,87.5866486 77.2685757,84.7185405 C70.0863327,82.2888108 62.9685944,83.2796216 62.9685944,83.2796216 C62.9685944,83.2796216 67.3413607,84.2493514 67.2611364,85.7261081 C67.2112673,86.658 65.6973047,86.9244865 64.0586692,87.2763784 C63.235286,87.4531351 59.9227813,88.2671892 58.2662579,89.9828649 C58.2662579,89.9828649 62.0340897,89.3942162 62.5284449,90.4520541 C63.1322953,91.7417838 58.7719963,94.0012432 53.5991551,95.8769189 C53.5991551,95.8769189 55.9126505,95.7401622 56.4845196,97.0277297 C57.2379776,98.7223243 55.4112486,100.918541 54.680015,101.950973 C46.8445944,113.014216 49.7516411,122.137459 53.4343701,128.535297 C55.9283701,132.86773 63.5453421,145.002865 63.5453421,145.002865 C63.5453421,145.002865 62.0812486,147.902324 62.4059402,151.850973 C62.8330804,157.050973 62.8330804,159.481243 65.2056598,162.252054 C66.0425944,163.229351 68.0915664,165.960703 67.8346318,168.646108 C67.498557,172.16827 68.6043514,175.616378 72.3873607,178.238 C72.3873607,178.238 72.9006879,176.959622 73.8628374,176.702865 C73.8628374,176.702865 74.9014168,178.410973 78.7998841,180.476378 C83.7011551,183.073135 86.5507439,185.711514 86.8640523,195.674757 C86.9155477,195.701784 86.9437346,195.716378 86.9437346,195.716378 C116.869024,178.834757 114.730613,169.711514 114.730613,169.711514 C116.954669,171.672595 117.564482,174.458541 117.564482,174.458541 C127.983342,165.833135 129.138464,154.001243 129.138464,154.001243 C131.638968,158.702865 128.927604,165.680703 128.927604,165.680703 C140.968295,152.564486 136.721828,139.561784 136.721828,139.561784 C140.31295,140.840703 140.827361,149.260162 140.827361,149.260162 C153.205753,127.934757 141.610632,111.273135 141.610632,111.273135 C145.777959,112.566649 150.314426,122.402865 150.314426,122.402865" id="Fill-35" fill="#7F0042"></path>
                    <path d="M123.745222,119.762432 C124.649372,114.889459 123.943073,107.962432 119.206045,101.951622 C118.704643,101.315405 115.624138,97.5851351 113.580587,95.1586486 C112.408662,93.7667568 110.527185,91.9975676 110.888194,90.9505405 C111.491503,89.2045946 115.572101,89.9835135 115.572101,89.9835135 C114.100419,88.2991892 111.095802,87.6618919 109.779148,87.2759459 C108.361129,86.8602703 106.626007,86.6581081 106.576138,85.7262162 C106.496998,84.2489189 110.869222,83.2797297 110.869222,83.2797297 C110.869222,83.2797297 103.751484,82.2883784 96.5692411,84.7186486 C88.0925682,87.5867568 87.4567364,96.9002703 86.9336523,96.9002703 C86.4105682,96.9002703 85.7465495,87.5867568 77.2682505,84.7186486 C70.0860075,82.2883784 62.9688112,83.2797297 62.9688112,83.2797297 C62.9688112,83.2797297 67.3410355,84.2489189 67.2613533,85.7262162 C67.2114841,86.6581081 65.6975215,86.9245946 64.058886,87.2759459 C63.2355028,87.4532432 59.9224561,88.2672973 58.2659327,89.982973 C58.2659327,89.982973 62.0337645,89.3943243 62.5286617,90.4516216 C63.1325121,91.7418919 58.771671,94.0008108 53.599372,95.877027 C53.599372,95.877027 55.9123252,95.7402703 56.4847364,97.0278378 C57.2381944,98.7224324 55.4114654,100.918649 54.6796897,101.951081 C46.8448112,113.014324 49.7518579,122.137568 53.4345869,128.535405 C55.9285869,132.867838 63.5450168,145.002432 63.5450168,145.002432 C65.1804,141.645676 68.1297271,140.99 68.1297271,140.99 C66.1620636,142.180811 65.1093907,144.082432 64.5597458,145.989459 C65.7099888,145.872162 66.8754093,145.808919 68.0560075,145.808919 C71.3050916,145.808919 74.4473907,146.264595 77.4227364,147.114865 C77.7208673,147.199189 78.1902879,147.593784 77.9984,148.218108 C77.8043439,148.848378 77.1652598,148.854324 76.9001944,148.767838 C73.6072037,147.692162 70.090886,147.108378 66.436886,147.108378 C61.4992972,147.108378 56.8105121,148.171622 52.5878953,150.08027 L52.6935963,150.386216 C56.2402692,148.854324 60.1127178,147.933784 64.1792224,147.753243 C64.0664748,148.510541 64.0160636,149.23 64.000886,149.864595 C65.3278393,149.685135 66.6813533,149.591081 68.0560075,149.591081 C70.8307925,149.591081 73.5188486,149.966757 76.0724748,150.669459 C76.3765682,150.753243 76.8362318,151.137568 76.6784935,151.735946 C76.5158766,152.353784 75.8551103,152.434324 75.6046804,152.353784 C72.7149794,151.418649 69.6344748,150.912162 66.436886,150.912162 C61.9378206,150.912162 57.669671,151.913784 53.841671,153.702432 L53.9446617,154.00027 C57.0587738,152.615946 60.4618019,151.766216 64.0366617,151.568919 C64.0675589,152.004595 64.203615,153.108919 64.2898019,153.643514 C64.2849234,153.644595 64.2805869,153.645676 64.2762505,153.645676 C65.5110542,153.467838 66.7729607,153.373784 68.0560075,153.373784 C70.3543252,153.373784 72.5838019,153.67 74.7102879,154.222973 C75.0246804,154.305135 75.5016897,154.661892 75.3450355,155.26027 C75.1623626,155.956486 74.5075589,155.97 74.2462879,155.888919 C71.7766804,155.119189 69.1509607,154.705676 66.4292972,154.713243 C62.3682131,154.724595 58.5250355,155.670541 55.1019514,157.342432 L55.2027738,157.634324 C58.0789234,156.305135 61.2488673,155.505676 64.5868486,155.359189 C64.735914,156.175946 64.8763065,156.907838 64.9456897,157.319189 C65.5918206,161.121892 69.4490916,162.388919 72.1057084,161.132703 C72.2970542,161.041892 81.7402131,156.552162 82.0497271,156.412162 C84.6684,155.224054 86.5677645,152.739189 86.9428673,149.783514 C87.3185121,152.739189 89.2178766,155.224054 91.8360075,156.412162 C92.1460636,156.552162 101.589222,161.041892 101.780568,161.132703 C104.436643,162.388919 108.294456,161.121892 108.940587,157.319189 C109.026774,156.809459 109.157409,156.118649 109.292381,155.359189 C112.631989,155.504595 115.804643,156.304595 118.681335,157.634324 L118.783241,157.342432 C115.360157,155.670541 111.515895,154.724595 107.454811,154.713243 C104.726643,154.705676 102.093877,155.121351 99.6183065,155.895946 C99.3635402,155.975405 98.7564374,155.938649 98.5509981,155.322973 C98.3574841,154.74027 98.8372037,154.310541 99.1407551,154.232162 C101.27754,153.672162 103.5184,153.373784 105.828643,153.373784 C107.101391,153.373784 108.35354,153.466757 109.579129,153.641351 C109.597559,153.516486 109.785652,152.372162 109.855578,151.568919 C113.427727,151.767297 116.828045,152.617027 119.939989,154.00027 L120.042979,153.702432 C116.214437,151.913784 111.946288,150.912162 107.447764,150.912162 C104.251802,150.912162 101.172381,151.418108 98.2843065,152.352162 C98.0322505,152.433243 97.3953346,152.371081 97.2180822,151.768378 C97.0381196,151.156486 97.4999514,150.755946 97.7997084,150.672703 C100.356587,149.968378 103.049521,149.591081 105.828643,149.591081 C107.215222,149.591081 108.58012,149.687297 109.917372,149.868919 C109.907615,149.218649 109.856662,148.507297 109.737951,147.754324 C113.792531,147.938108 117.653596,148.858649 121.191054,150.386216 L121.296755,150.08027 C117.074138,148.171622 112.385353,147.108378 107.447764,147.108378 C103.785634,147.108378 100.260101,147.694865 96.9606056,148.776486 C96.703671,148.85973 96.0342318,148.797568 95.871615,148.178108 C95.7214654,147.605135 96.1448112,147.205676 96.4337271,147.122432 C99.4172037,146.267297 102.56926,145.808919 105.828643,145.808919 C107.018998,145.808919 108.194718,145.873243 109.354176,145.992162 C109.349839,145.992162 109.346045,145.991622 109.342793,145.991081 C109.244138,145.656486 109.130849,145.318108 109.000213,144.976486 C107.42283,140.873243 103.41812,139.961351 103.41812,139.961351 C103.41812,139.961351 105.460587,137.548378 103.864774,133.663514 L101.735036,128.625135 C101.735036,128.625135 105.326699,131.472703 110.372157,131.574324 C119.059148,131.748378 122.877933,124.435946 123.745222,119.762432" id="Fill-37" fill="#FFC655"></path>
                    <path d="M84.113443,172.743351 C84.113443,172.743351 82.6211626,173.516865 81.9235364,175.331459 C81.9235364,175.331459 79.9970692,174.066054 79.7943402,171.880649 C79.7943402,171.880649 77.7849383,172.648216 76.998415,174.536324 C76.998415,174.536324 74.8963215,173.698486 74.9060785,171.248757 C74.9060785,171.248757 73.5097421,172.067135 72.7991065,173.746054 C72.7980224,173.748216 70.3837047,170.788757 70.6509383,167.847135 C71.0032748,163.964432 74.0816112,162.699568 74.5298916,162.475784 C74.9792561,162.252 82.0915738,158.862811 82.4449944,158.715243 C83.7513495,158.166595 85.2598916,157.775784 86.9012374,157.775784 C88.5420411,157.775784 90.0511252,158.166595 91.3574804,158.715243 C91.7103589,158.862811 98.8232187,162.252 99.2714991,162.475784 C99.7203215,162.699568 102.81492,163.96227 103.151536,167.847135 C103.40034,170.724432 101.195798,173.506054 101.003368,173.746054 C101.003368,173.746054 100.444508,172.254162 98.8958542,171.248757 C98.8958542,171.248757 98.642172,173.536865 96.8035178,174.536324 C96.8035178,174.536324 96.1926206,172.813081 94.0081346,171.880649 C94.0081346,171.880649 93.9701907,173.800108 91.8783963,175.331459 C91.8783963,175.331459 91.363985,173.690919 89.3253121,172.743351 C89.3253121,172.743351 89.1670318,175.168757 86.4952374,176.735784 C86.4952374,176.735784 85.8323028,173.506595 84.113443,172.743351" id="Fill-39" fill="#FFC655"></path>
                    <path d="M116.44492,109.459459 C116.376621,109.284324 116.246527,109.183784 116.071985,109.161622 L116.072527,109.161622 L115.918041,108.753514 L115.914247,108.753514 C116.022116,108.676216 116.238938,108.462703 116.190153,108.027027 C116.125649,107.450811 115.680079,107.238378 115.302807,107.163243 C112.834284,106.672973 111.521966,105.711892 110.713219,105.138378 C109.904471,104.564865 109.334228,104.285946 108.329256,104.285946 C105.230864,104.285946 99.3950879,108.815135 97.6312374,108.815135 C97.0393121,108.815135 96.7319664,108.384865 96.660415,108.269189 C96.6555364,108.256216 96.6501159,108.245946 96.6457794,108.232432 C94.5496486,111.160541 95.790415,114.014054 96.6436112,116.092432 C96.8403776,116.571351 100.243948,124.862162 100.393013,125.224865 L100.398976,125.249189 C100.398976,125.249189 101.240789,124.736757 101.286321,123.586486 C101.339985,122.232973 102.718434,119.158378 106.149649,119.163784 C109.852434,119.169189 112.881985,117.714054 113.975854,113.6 C114.141723,112.979459 114.650172,111.074054 116.204789,110.099459 C116.401013,109.975676 116.557667,109.747568 116.44492,109.459459" id="Fill-41" fill="#FFE5A5"></path>
                    <path d="M53.8756037,113.110216 C54.7781271,108.832919 57.638557,109.18373 57.8130991,109.161568 L57.812557,109.161568 L57.9659589,108.752919 L57.9702953,108.752919 C57.8624262,108.676162 57.6461458,108.462649 57.6943888,108.026973 C57.7583514,107.450757 58.2050056,107.238324 58.5817346,107.163189 C61.0508,106.672378 62.3625757,105.711297 63.1713234,105.138324 C63.9806131,104.564811 64.550314,104.285351 65.555286,104.285351 C68.6547626,104.285351 74.4894542,108.814541 76.2533047,108.814541 C76.8452299,108.814541 77.1525757,108.384811 77.2246692,108.269135 C77.2290056,108.256162 77.2349682,108.245892 77.2393047,108.232919 C79.3359776,111.160486 78.0941271,114.014 77.2409308,116.092919 C77.0447065,116.571297 73.6405944,124.862108 73.491529,125.224811 L73.4850243,125.249135 L70.0158654,133.663189 C68.4330617,137.312919 70.4630617,139.961568 70.4630617,139.961568 C66.7602766,139.966432 62.6037907,136.528595 56.9067813,127.246432 C53.4902019,121.681568 53.2571178,116.041027 53.8756037,113.110216" id="Fill-43" fill="#FFE5A5"></path>
                    <path d="M96.6456168,108.232703 C97.2787383,109.998108 98.8843084,110.02027 99.8648879,109.731081 C100.748439,109.472162 104.434963,108.285135 106.371729,107.521351 C108.307411,106.758108 108.814234,107.109459 109.811617,107.552703 C112.743598,108.851081 115.918421,108.753784 115.918421,108.753784 L116.072364,109.161892 C113.630402,110.17973 112.901336,111.234865 111.677374,113.21973 C110.510327,115.110541 108.190869,116.635405 105.419879,116.635405 C103.274421,116.635405 102.547523,115.742973 101.487262,116.105135 C100.896963,116.307297 100.284439,116.818108 100.074664,118.041892 C99.5868131,120.89 101.692701,124.077027 100.399897,125.241892 C100.399897,125.241892 96.8445514,116.581892 96.6434486,116.092703 C95.7907944,114.013784 94.549486,111.160811 96.6456168,108.232703" id="Fill-45" fill="#7F0042"></path>
                    <path d="M95.9500505,141.772595 C95.490929,141.24827 94.8182374,140.915297 94.0653215,140.915297 C92.6847047,140.915297 91.5648168,142.032054 91.5648168,143.408811 C91.5648168,143.761784 91.6396206,144.096378 91.7713402,144.400162 L86.9405364,147.437459 L82.102686,144.395838 C82.2333215,144.093135 82.3064991,143.759622 82.3064991,143.408811 C82.3064991,142.032054 81.1866112,140.915297 79.8054523,140.915297 C79.0547047,140.915297 78.3841813,141.246649 77.9250598,141.76827 L75.7470785,140.398541 C75.7470785,140.398541 72.8747234,138.527189 72.7430037,136.772595 C72.6920505,136.075297 73.1668916,135.48773 74.0022,136.650973 C74.3518262,137.139081 74.7529477,137.74773 75.8717514,137.74773 C76.6425551,137.74773 77.9098822,136.564486 80.4190598,136.564486 C84.1305178,136.564486 84.4671346,138.236919 86.9362,138.236919 C89.4041813,138.236919 89.7413402,136.564486 93.4522561,136.564486 C95.9608916,136.564486 97.2287607,137.74773 97.9995645,137.74773 C99.1183682,137.74773 99.5200318,137.139081 99.8696579,136.650973 C100.704424,135.48773 101.179807,136.075297 101.128312,136.772595 C100.996593,138.527189 98.1247794,140.398541 98.1247794,140.398541 L95.9500505,141.772595 Z" id="Fill-47" fill="#7F0042"></path>
                    <path d="M77.2393047,108.232703 C76.6056411,109.998108 75.0006131,110.02027 74.0194916,109.731081 C73.1359402,109.472162 69.4499589,108.284595 67.5131925,107.520811 C65.5775103,106.757568 65.0701458,107.109459 64.0733047,107.552703 C61.1407813,108.851081 57.9659589,108.753243 57.9659589,108.753243 L57.812557,109.161892 C60.2545196,110.17973 60.983043,111.234865 62.2070056,113.21973 C63.3735103,115.110541 65.6940523,116.635405 68.465043,116.635405 C70.6105009,116.635405 71.3373981,115.742973 72.3976598,116.105135 C72.9874168,116.307297 73.6004822,116.818108 73.8102579,118.041892 C74.2981084,120.89 70.746557,126.737568 72.2691925,128.201892 C72.2691925,128.201892 77.0403701,116.581892 77.2409308,116.092703 C78.0941271,114.013784 79.3359776,111.160811 77.2393047,108.232703" id="Fill-49" fill="#7F0042"></path>
                    <path d="M105.701748,110.076 C105.701748,110.421405 105.420963,110.703027 105.073505,110.703027 C104.725505,110.703027 104.44472,110.421405 104.44472,110.076 C104.44472,109.729514 104.725505,109.447892 105.073505,109.447892 C105.420963,109.447892 105.701748,109.729514 105.701748,110.076" id="Fill-51" fill="#FEFEFE"></path>
                    <path d="M105.437062,114.618865 C108.271473,114.618865 110.590389,112.437784 110.809921,109.668595 C110.415305,109.540486 110.016893,109.392919 109.623361,109.218324 C108.909473,108.901568 108.012912,108.770757 107.167847,108.869676 C107.402557,109.226432 107.539697,109.652378 107.539697,110.110757 C107.539697,111.36427 106.521174,112.379405 105.264688,112.379405 C104.04994,112.379405 103.060146,111.430216 102.995641,110.235622 C101.952183,110.641027 101.302258,110.861027 100.380763,111.096703 C101.138557,113.150757 103.113267,114.618865 105.437062,114.618865" id="Fill-53" fill="#FEFEFE"></path>
                    <path d="M68.1826318,110.076 C68.1826318,110.421405 68.4634168,110.703027 68.8114168,110.703027 C69.1588748,110.703027 69.4396598,110.421405 69.4396598,110.076 C69.4396598,109.729514 69.1588748,109.447892 68.8114168,109.447892 C68.4634168,109.447892 68.1826318,109.729514 68.1826318,110.076" id="Fill-55" fill="#FEFEFE"></path>
                    <path d="M68.4475888,114.618865 C65.6126355,114.618865 63.2937196,112.437784 63.074729,109.668595 C63.4693458,109.540486 63.867757,109.392919 64.2612897,109.218324 C64.9751776,108.901027 65.8711963,108.770216 66.7168037,108.869676 C66.4820935,109.226432 66.3449533,109.652378 66.3449533,110.110757 C66.3449533,111.36427 67.3634766,112.378324 68.6205047,112.378324 C69.8347103,112.378324 70.8239626,111.430216 70.8890093,110.235622 C71.9324673,110.641027 72.5823925,110.861027 73.5044299,111.096703 C72.7460935,113.150757 70.7708411,114.618865 68.4475888,114.618865" id="Fill-57" fill="#FEFEFE"></path>
                </g>
            </g>
        </g>
    </g>
</svg>