<?xml version="1.0" encoding="UTF-8" standalone="no"?>
<svg width="207px" height="199px" viewBox="0 0 207 199" version="1.1" xmlns="http://www.w3.org/2000/svg" xmlns:xlink="http://www.w3.org/1999/xlink">
    <!-- Generator: sketchtool 3.8.3 (29802) - http://www.bohemiancoding.com/sketch -->
    <title>E8211C8F-7589-4DDB-8A75-F0E79687F632</title>
    <desc>Created with sketchtool.</desc>
    <defs>
        <polygon id="path-1" points="0 1.16969697 206.992651 1.16969697 206.992651 200 0 200"></polygon>
        <polyline id="path-3" points="0 1.16969697 206.992651 1.16969697 206.992651 200 0 200"></polyline>
    </defs>
    <g id="Page-1" stroke="none" stroke-width="1" fill="none" fill-rule="evenodd">
        <g id="FULL-LOGO" transform="translate(-3263.000000, -388.000000)">
            <g id="icon_club_Hawthorn" transform="translate(3263.000000, 387.000000)">
                <g id="Group-3">
                    <mask id="mask-2" fill="white">
                        <use xlink:href="#path-1"></use>
                    </mask>
                    <g id="Clip-2"></g>
                    <path d="M54.8921674,34.6087273 L58.1089116,21.7917576 C58.8768186,18.8026667 59.0860279,16.0026667 59.0860279,16.0026667 L59.2275163,16.0026667 C59.2275163,16.0026667 59.4403535,18.8729697 60.0728186,21.8608485 L62.9013767,34.6087273 L54.8921674,34.6087273 Z M68.6274233,1.85478788 L50.7478884,1.85478788 L39.9476093,38.1602424 L39.9476093,1.85478788 L23.2072372,1.85478788 L23.2072372,20.0984242 L16.7398884,20.0984242 L16.7398884,1.85478788 L-0.00048372093,1.85478788 L-0.00048372093,49.0426667 L16.7398884,49.0426667 L16.7398884,30.456 L23.2072372,30.456 L23.2072372,49.0426667 L51.3876093,49.0426667 L52.8290977,43.2402424 L64.8495628,43.2402424 L65.6235163,46.8281212 C70.8501209,45.9820606 76.114214,45.3153939 81.4109581,44.8244848 L68.6274233,1.85478788 Z" id="Fill-1" fill="#4D2700" mask="url(#mask-2)"></path>
                </g>
                <g id="Group-6">
                    <mask id="mask-4" fill="white">
                        <use xlink:href="#path-3"></use>
                    </mask>
                    <g id="Clip-5"></g>
                    <path d="M196.430726,19.4815758 C192.478726,17.5615758 191.184772,16.3955152 191.184772,14.4064242 C191.184772,12.6233939 192.550074,11.8003636 194.992865,11.8003636 C197.72226,11.8003636 200.237609,12.7603636 201.962074,13.7203636 L205.339656,4.05006061 C202.6804,2.5409697 198.443005,1.17006061 192.334819,1.17006061 C181.631284,1.17006061 174.876121,8.30218182 174.876121,17.0124848 C174.876121,21.6076364 176.8884,26.9579394 184.072865,30.4561212 C187.951098,32.3070303 189.172493,33.5421818 189.172493,35.3252121 C189.172493,36.8330909 187.809609,37.8633939 185.29426,37.8633939 C182.419749,37.8633939 179.329981,36.5591515 178.038447,35.5991515 L176.291005,40.9276364 L167.97947,23.3227879 L179.042167,1.85490909 L162.159098,1.85490909 L153.250167,22.5676364 L153.10626,22.5676364 L153.10626,1.85490909 L122.550819,1.85490909 L118.40533,23.5046061 C117.904679,26.1858182 117.765609,28.7676364 117.765609,28.7676364 L117.624121,28.7676364 C117.624121,28.7676364 117.549144,26.1858182 117.044865,23.5046061 L112.698633,1.85490909 L99.2705395,1.85490909 L94.7199349,23.5046061 C94.2096093,26.1858182 94.0572372,28.7676364 94.0572372,28.7676364 L93.9157488,28.7676364 C93.9157488,28.7676364 93.7827256,26.1858182 93.2893302,23.5046061 L89.344586,1.85490909 L72.3466326,1.85490909 L84.404586,44.5676364 C90.4257023,44.0864242 96.4867256,43.834303 102.577981,43.813697 L105.16347,33.4452121 C105.722167,31.1785455 105.862447,28.8876364 105.862447,28.8876364 L106.005144,28.8876364 C106.005144,28.8876364 106.215563,31.2452121 106.776679,33.4452121 L109.516958,43.8888485 C115.501795,44.0403636 121.452772,44.413697 127.361423,45.0100606 L136.367098,12.9518788 L136.367098,46.0924848 C141.960121,46.8767273 147.513237,47.8585455 153.016772,49.0427879 L153.10626,49.0427879 L153.10626,26.6827879 L153.250167,26.6827879 L161.585888,49.0427879 L180.122074,49.0427879 L180.07733,48.9506667 C182.479005,49.4621818 185.351098,49.7276364 188.743191,49.7276364 C199.590633,49.7276364 206.992772,42.8694545 206.992772,34.0912727 C206.992772,28.6027879 205.698819,23.9397576 196.430726,19.4815758" id="Fill-4" fill="#4D2700" mask="url(#mask-4)"></path>
                </g>
                <path d="M26.5491442,60.5149091 L26.5467256,60.5149091 C27.8394698,119.191273 55.8638419,155.388848 103.434167,193.499152 C151.006912,155.388848 179.030074,119.191273 180.322819,60.5185455 L180.322819,60.5161212 C155.765516,51.824 129.896121,47.4167273 103.42933,47.4167273 C76.9697953,47.4167273 51.1028186,51.824 26.5491442,60.5149091" id="Fill-7" fill="#FDC41B"></path>
                <path d="M187.264093,83.4481212 C188.723721,74.906303 188.662047,69.7996364 188.662047,69.7996364 C96.6595349,33.8784242 73.9851163,74.9547879 73.9851163,74.9547879 C53.3822326,79.3790303 36.972,92.1414545 43.2059535,112.097818 C45.0864186,118.120848 49.4205581,123.706303 55.2167442,127.980242 C53.8333023,125.61903 53.3628837,123.032364 54.0171163,120.211758 C55.5928372,113.406909 64.7073488,108.863879 78.3893953,109.463879 C99.6936744,110.398424 105.978419,114.250545 105.978419,114.250545 C105.978419,114.250545 70.3475349,106.353576 60.5183256,114.529333 C62.9586977,113.928121 65.4813023,113.61297 68.0631628,113.61297 C89.4146047,113.61297 106.72214,128.037212 106.72214,161.775394 C106.72214,174.033576 104.43293,183.734182 100.500279,191.128121 C56.3293023,155.191152 29.7367442,120.503879 26.78,66.5111515 C24.0493953,67.4953939 21.3429767,68.5269091 18.6631628,69.6129697 C20.0502326,144.817818 103.412279,199.999636 103.412279,199.999636 C103.412279,199.999636 110.058605,195.620242 114.15693,192.598424 C121.381302,170.523273 119.372651,145.953576 107.88186,125.124485 C121.589302,143.671152 125.471163,167.082061 119.794698,188.360848 C125.139814,184.210545 130.074977,179.998424 134.621953,175.758424 C135.658326,155.923273 129.735163,136.040848 117.573209,119.952364 C131.522512,133.748727 139.018977,152.446909 139.097581,171.460242 C143.331349,167.265091 147.204744,163.055394 150.746791,158.861455 C147.50707,141.100242 138.766233,124.574182 125.605395,111.909939 C140.094047,122.366909 150.109488,137.669939 154.216279,154.628727 C157.768,150.160848 160.952093,145.725697 163.809674,141.359636 C156.646977,125.743879 145.453674,112.396 131.154884,102.547515 C146.260279,110.149939 158.518977,122.109939 166.526977,137.074788 C169.218884,132.684485 171.58307,128.381455 173.66186,124.208121 C163.15786,110.031152 149.520558,98.9366061 133.860093,91.6481212 C150.184465,96.8578182 164.617488,106.610545 175.671721,120.025091 C177.913767,115.176606 179.767628,110.53297 181.304651,106.159636 C167.365023,93.476 150.774605,84.4929697 132.726977,79.8747879 C151.190605,82.2275152 168.418326,89.7717576 182.795721,101.690545 C184.387163,96.6626667 185.546884,92.0675152 186.392186,88.0250909 C169.339814,77.0032727 149.873674,70.4820606 129.46307,69.0384242 C149.935349,68.3244848 169.818698,73.3329697 187.264093,83.4481212" id="Fill-9" fill="#4D2700"></path>
                <path d="M163.850428,140.040242 L163.850428,140.040242 C163.850428,140.041455 163.848009,140.041455 163.848009,140.042667 C163.848009,140.041455 163.850428,140.041455 163.850428,140.040242" id="Fill-11" fill="#FDC41B"></path>
                <path d="M58.4473953,89.9632727 C58.0253488,93.0214545 58.5973488,97.9523636 66.1325116,102.406909 C72.1004186,105.934182 81.4229302,106.495394 87.6302791,107.342667 C95.2246977,108.348727 103.411674,110.324485 105.977814,114.250545 C103.411674,107.325697 89.4152093,106.625091 80.4796744,103.919636 C70.694,100.956 71.1233023,91.3778182 72.749814,86.2966061 C73.6628372,83.4444848 75.4441395,80.2275152 73.7716744,78.4105455 C72.4063721,76.9269091 69.7035814,77.8893333 69.7035814,77.8893333 C64.7055349,79.3353939 60.2528837,81.2772121 56.5088837,83.6117576 C58.394186,84.546303 58.8295349,87.2008485 58.4473953,89.9632727" id="Fill-13" fill="#FDC41B"></path>
                <path d="M69.8513581,88.9269091 C69.6977767,87.9572121 68.6432651,87.2953939 67.5065209,87.5002424 C64.5449395,88.0311515 62.2811256,90.3402424 62.2811256,90.3402424 C61.9110791,90.6869091 61.782893,91.1681212 62.0017767,91.4893333 C62.2351721,91.8311515 62.782986,91.8650909 63.2630791,91.5875152 L63.266707,91.5935758 C63.266707,91.5935758 64.0479163,91.1378182 64.8883814,90.9123636 C65.9828,90.6202424 67.1461488,90.9838788 67.1461488,90.9838788 L67.1473581,90.9766061 C67.4351721,91.0444848 67.7459628,91.0638788 68.0652186,91.0129697 C69.2068,90.8311515 70.0061488,89.8966061 69.8513581,88.9269091" id="Fill-15" fill="#4D2700"></path>
                <path d="M102.060884,79.6472727 C100.202186,80.3818182 97.6312093,81.0387879 94.9961395,81.4024242 C95.6793953,88.129697 101.347395,93.3781818 108.239209,93.3781818 C115.591767,93.3781818 121.552419,87.4036364 121.552419,80.0339394 C121.552419,77.0363636 120.565628,74.2690909 118.899209,72.0412121 C113.502093,73.2121212 108.124326,76.5927273 108.124326,76.5927273 C106.34786,77.7163636 104.300512,78.7612121 102.060884,79.6472727" id="Fill-17" fill="#121313"></path>
                <path d="M115.783563,72.9367273 C113.057795,73.894303 110.631935,75.1573333 109.272679,75.9209697 C111.744493,76.4033939 113.609237,78.5827879 113.609237,81.2009697 C113.609237,84.174303 111.205144,86.584 108.239935,86.584 C105.274726,86.584 102.869423,84.174303 102.869423,81.2009697 C102.869423,80.4700606 103.015749,79.774303 103.279377,79.1379394 C102.879098,79.3124848 102.473981,79.4833939 102.0604,79.6470303 C100.906726,80.104 99.4761209,80.5306667 97.9257953,80.8761212 C98.3538884,86.2106667 102.80654,90.4082424 108.239935,90.4082424 C113.956307,90.4082424 118.589144,85.7646061 118.589144,80.033697 C118.589144,77.2882424 117.523749,74.7924848 115.783563,72.9367273" id="Fill-19" fill="#FDC41B"></path>
                <path d="M108.954753,76.4110303 C108.954753,77.6958788 109.993544,78.7370909 111.275405,78.7370909 C112.557265,78.7370909 113.596056,77.6958788 113.596056,76.4110303 C113.596056,75.5128485 113.08694,74.7346667 112.343219,74.3467879 C110.908986,75.0146667 109.726288,75.658303 108.981358,76.0849697 C108.966847,76.1916364 108.954753,76.2995152 108.954753,76.4110303" id="Fill-21" fill="#FEFEFE"></path>
                <path d="M102.060884,79.6472727 C104.300512,78.7612121 106.34786,77.7163636 108.124326,76.5927273 C108.124326,76.5927273 114.066837,72.8557576 119.726372,71.8775758 C124.492233,71.0533333 126.139302,69.8230303 126.698,69.1672727 C111.942093,70.0315152 97.7654419,73.8278788 84.8428372,80.2775758 C88.2083256,82.8521212 97.3881395,81.4957576 102.060884,79.6472727" id="Fill-23" fill="#121313"></path>
                <path d="M87.6307628,107.343152 C95.2239721,108.349212 103.412158,110.32497 105.978298,114.25103 C105.978298,114.25103 99.6935535,110.383152 78.3892744,109.464364 C64.7060186,108.874061 55.5927163,113.407394 54.0169953,120.212242 C53.3627628,123.032848 53.8331814,125.618303 55.2166233,127.979515 C49.4204372,123.705576 45.0862977,118.121333 43.2058326,112.097091 C39.6662047,100.766182 43.4271349,91.7528485 51.1122512,85.2704242 C51.1122512,85.2704242 54.119786,82.6825455 56.2372744,83.4873939 C58.3547628,84.2922424 58.8469488,87.0716364 58.4478791,89.9637576 C58.0258326,93.0219394 58.5978326,97.9516364 66.131786,102.406182 C72.1009023,105.934667 81.4222047,106.494667 87.6307628,107.343152" id="Fill-25" fill="#121313"></path>
                <path d="M63.1735907,81.7873939 C55.8694047,84.9473939 49.6898698,91.7692121 50.1022419,92.2649697 C50.4033581,92.6273939 53.4882884,88.0746667 64.0974977,83.9292121 C64.6961023,83.6952727 64.9597302,82.9861818 64.7033581,82.3946667 C64.4481953,81.8043636 63.7637302,81.5328485 63.1735907,81.7873939" id="Fill-27" fill="#FEFEFE"></path>
            </g>
        </g>
    </g>
</svg>