<?xml version="1.0" encoding="UTF-8" standalone="no"?>
<svg width="183px" height="200px" viewBox="0 0 183 200" version="1.1" xmlns="http://www.w3.org/2000/svg" xmlns:xlink="http://www.w3.org/1999/xlink">
    <!-- Generator: sketchtool 3.8.3 (29802) - http://www.bohemiancoding.com/sketch -->
    <title>05F1EB65-CC6F-4900-9E60-0D45A3EFD8D2</title>
    <desc>Created with sketchtool.</desc>
    <defs>
        <polygon id="path-1" points="0 0.353170732 182.790718 0.353170732 182.790718 200 0 200"></polygon>
        <polyline id="path-3" points="0 0.353170732 182.790718 0.353170732 182.790718 200 0 200"></polyline>
    </defs>
    <g id="Page-1" stroke="none" stroke-width="1" fill="none" fill-rule="evenodd">
        <g id="FULL-LOGO" transform="translate(-2216.000000, -387.000000)">
            <g id="icon_club_Geelong" transform="translate(2216.000000, 387.000000)">
                <path d="M65.0550399,174.367317 L52.5721037,174.367317 L52.5721037,166.756585 C52.5721037,164.542927 52.4358271,163.161463 52.168141,162.614146 C51.9024016,162.063902 51.3173856,161.786829 50.4072527,161.786829 C49.3803112,161.786829 48.7281303,162.12439 48.4516835,162.791707 C48.1762101,163.458049 48.0370133,164.900976 48.0370133,167.116585 L48.0370133,187.465854 C48.0370133,189.593659 48.1762101,190.982927 48.4516835,191.630732 C48.7281303,192.282439 49.3520824,192.606341 50.3206197,192.606341 C51.2482739,192.606341 51.8537314,192.280488 52.1408856,191.626829 C52.4270665,190.977073 52.5721037,189.449268 52.5721037,187.04439 L52.5721037,181.532195 L65.0550399,181.532195 L65.0550399,183.239512 C65.0550399,187.770244 64.703641,190.982927 64.0018165,192.881463 C63.299992,194.773171 61.749359,196.432683 59.3440771,197.86 C56.9465824,199.285366 53.9835399,199.996585 50.4695505,199.996585 C46.8114973,199.996585 43.7968644,199.39561 41.4246782,198.185854 C39.0534654,196.98 37.4833644,195.30878 36.7075612,193.176098 C35.936625,191.038537 35.5531037,187.827805 35.5531037,183.536098 L35.5531037,170.750732 C35.5531037,167.597561 35.6699122,165.234634 35.9093697,163.655122 C36.1439601,162.076585 36.8525984,160.560488 38.0274973,159.100976 C39.2033697,157.639512 40.8357686,156.492195 42.9217739,155.653171 C45.0068059,154.817073 47.4023537,154.39561 50.1123112,154.39561 C53.7859388,154.39561 56.8210133,155.045366 59.213641,156.340976 C61.6033484,157.63561 63.1763697,159.249268 63.9268644,161.182927 C64.6793059,163.117561 65.0550399,166.126341 65.0550399,170.207317 L65.0550399,174.367317 Z" id="Fill-1" fill="#002C5A"></path>
                <path d="M83.9109511,183.452683 C83.2908926,178.500488 82.6601266,172.37561 82.0176798,165.078049 C80.7590681,173.458537 79.9647702,179.582439 79.6386798,183.452683 L83.9109511,183.452683 Z M90.5145255,155.325854 L97.676834,199.068293 L84.9135574,199.068293 L84.2428819,191.198049 L79.7710628,191.198049 L79.0546372,199.068293 L66.1151745,199.068293 L72.4617702,155.325854 L90.5145255,155.325854 Z" id="Fill-3" fill="#002C5A"></path>
                <polygon id="Fill-5" fill="#002C5A" points="121.097135 155.325854 121.097135 164.954146 113.65838 164.954146 113.65838 199.068293 101.17155 199.068293 101.17155 164.954146 93.796066 164.954146 93.796066 155.325854"></polygon>
                <g id="Group-9">
                    <mask id="mask-2" fill="white">
                        <use xlink:href="#path-1"></use>
                    </mask>
                    <g id="Clip-8"></g>
                    <path d="M146.847669,168.57278 L135.261238,168.57278 L135.261238,165.314244 C135.261238,163.797171 135.108413,162.829366 134.814445,162.414732 C134.519504,161.997171 134.023068,161.787415 133.32903,161.787415 C132.576589,161.787415 132.008121,162.069366 131.622653,162.629366 C131.238158,163.189366 131.044451,164.041073 131.044451,165.178634 C131.044451,166.645951 131.258599,167.747415 131.690791,168.490829 C132.097674,169.232293 133.272573,170.122049 135.209647,171.164 C140.768759,174.162049 144.266201,176.625463 145.707812,178.553268 C147.151371,180.482049 147.87169,183.593268 147.87169,187.883024 C147.87169,191.002049 147.468701,193.302537 146.670509,194.778634 C145.869397,196.261561 144.321685,197.49961 142.031264,198.498634 C139.741818,199.498634 137.068849,200.000098 134.027935,200.000098 C130.688185,200.000098 127.838057,199.424488 125.476578,198.267415 C123.116073,197.113268 121.56836,195.644 120.838307,193.860585 C120.106307,192.073268 119.743227,189.540585 119.743227,186.255707 L119.743227,183.390341 L131.331605,183.390341 L131.331605,188.728878 C131.331605,190.377659 131.49611,191.429366 131.823174,191.903512 C132.147318,192.375707 132.726493,192.606927 133.558754,192.606927 C134.393935,192.606927 135.009126,192.309366 135.416982,191.713268 C135.819972,191.116195 136.02536,190.232293 136.02536,189.056683 C136.02536,186.477171 135.639892,184.786439 134.870903,183.992293 C134.086339,183.197171 132.137584,181.87522 129.031451,180.024488 C125.924344,178.153268 123.865594,176.797171 122.858121,175.949366 C121.849674,175.100585 121.01352,173.926927 120.351605,172.433268 C119.688716,170.93961 119.357759,169.026439 119.357759,166.701561 C119.357759,163.346439 119.82694,160.897659 120.767248,159.34839 C121.70561,157.79522 123.223147,156.583512 125.31986,155.70839 C127.414626,154.834244 129.947424,154.396195 132.913387,154.396195 C136.154823,154.396195 138.915397,154.872293 141.200951,155.830341 C143.483584,156.785463 144.99528,157.989366 145.737014,159.442049 C146.477775,160.893756 146.847669,163.361073 146.847669,166.844976 L146.847669,168.57278 Z" id="Fill-7" fill="#002C5A" mask="url(#mask-2)"></path>
                </g>
                <g id="Group-12">
                    <mask id="mask-4" fill="white">
                        <use xlink:href="#path-3"></use>
                    </mask>
                    <g id="Clip-11"></g>
                    <path d="M3.80094894,54.8818537 C14.378933,102.492585 47.5155606,141.579415 91.3946777,160.281854 C135.272821,141.579415 168.410422,102.492585 178.98938,54.8818537 C170.982156,50.3286829 165.575869,41.7140488 165.575869,31.8291707 C165.575869,25.1774634 168.025928,19.1003902 172.065555,14.4486829 C146.876773,5.32965854 119.709061,0.353073171 91.3849436,0.353073171 C63.0618,0.353073171 35.9009011,5.32673171 10.7160128,14.4399024 C14.7605074,19.093561 17.2125128,25.1725854 17.2125128,31.8291707 C17.2125128,41.7140488 11.8071989,50.3286829 3.80094894,54.8818537" id="Fill-10" fill="#FEFEFE" mask="url(#mask-4)"></path>
                </g>
                <path d="M168.72162,31.8292683 C168.72162,25.5326829 171.213535,19.8243902 175.256082,15.6263415 C174.197019,15.2243902 173.133088,14.8341463 172.06721,14.4487805 C168.025636,19.1004878 165.576551,25.1765854 165.576551,31.8292683 C165.576551,41.7141463 170.981864,50.3287805 178.989088,54.8819512 C168.411104,102.492683 135.273503,141.579512 91.395359,160.281951 C47.5152686,141.579512 14.378641,102.492683 3.80065691,54.8819512 C11.8069069,50.3287805 17.2122207,41.7141463 17.2122207,31.8292683 C17.2122207,25.1726829 14.7602154,19.0936585 10.7157207,14.44 C9.64886968,14.8263415 8.58493883,15.2165854 7.525875,15.617561 C11.5732899,19.8165854 14.0671516,25.5297561 14.0671516,31.8292683 C14.0671516,41.4370732 8.27442287,49.684878 0.000486702128,53.2663415 C10.4412207,104.475122 45.0652101,146.859512 91.395359,167.91122 C137.722588,146.859512 172.349497,104.475122 182.790231,53.2663415 C174.514348,49.684878 168.72162,41.4370732 168.72162,31.8292683" id="Fill-13" fill="#002C5A"></path>
                <path d="M29.3732521,44.7336585 C28.438784,44.0897561 26.8083319,43.28 26.96505,42.7570732 C27.33105,41.5356098 36.0527521,41.5053659 37.6695766,47.857561 C38.9963266,53.0780488 40.3814809,59.7131707 43.3746989,60.7931707 C46.5265819,61.9287805 48.4071989,60.7931707 49.7699649,59.844878 C49.7699649,59.844878 54.6233585,55.7570732 58.7505926,55.6770732 C62.3862574,55.6078049 64.9725926,56.7287805 68.1186351,58.4107317 C68.1186351,58.4107317 74.1809968,62.1931707 78.4445074,62.0536585 C82.7089915,61.9131707 85.1551564,59.4614634 87.1827574,58.1297561 C89.2093851,56.7980488 94.7422149,53.4068293 98.2961138,55.1170732 C100.043374,55.9580488 98.645566,58.5512195 97.9466617,59.8117073 C97.4735872,60.6653659 95.6211989,64.5482927 98.7867096,65.9063415 C103.091103,67.7560976 114.931593,55.6770732 124.717226,55.6770732 C128.848353,55.6770732 133.6998,59.844878 133.6998,59.844878 C135.063539,60.7931707 136.949023,61.9482927 140.095066,60.7931707 C143.076603,59.6965854 144.674933,52.8770732 145.760279,48.0253659 C147.229146,41.4673171 155.862268,41.6126829 155.956688,42.7707317 C156.005359,43.3346341 154.707811,44.0253659 153.74414,44.604878 C152.713305,45.222439 152.652954,45.4907317 154.673741,46.1326829 C159.202018,47.5717073 163.603752,49.1912195 167.732933,50.8458537 C163.629061,45.5990244 161.175109,38.9980488 161.175109,31.8292683 C161.175109,24.6995122 163.603752,18.1326829 167.662848,12.8985366 C143.72197,4.76487805 118.066928,0.353170732 91.3849436,0.353170732 C64.7068532,0.353170732 39.0566777,4.76097561 15.1196936,12.8897561 C19.1846298,18.1268293 21.6132734,24.6965854 21.6132734,31.8292683 C21.6132734,38.9795122 19.1739223,45.5658537 15.0885447,50.8058537 C19.2712628,49.1160976 23.7129064,47.484878 28.159417,46.1326829 C30.2726777,45.4897561 30.0536617,45.2019512 29.3732521,44.7336585" id="Fill-15" fill="#002C5A"></path>
                <path d="M111.799372,117.877268 C110.335372,119.567024 104.86484,127.987512 102.446904,130.866537 C99.9861383,133.790439 96.0896011,136.614829 91.3763777,136.614829 C86.6612074,136.614829 82.7636968,133.790439 80.3048777,130.866537 C77.8859681,127.987512 72.4154362,119.567024 70.9514362,117.877268 C68.0224628,114.492878 63.5710851,114.614829 55.8296011,116.513366 C51.2429202,117.638244 46.8372926,119.13678 42.8502287,120.714341 C56.3678936,135.457756 72.8661223,147.411902 91.4026596,155.59239 C109.93141,147.415805 126.423798,135.465561 139.939516,120.729951 C135.941745,119.146537 131.523463,117.642146 126.920234,116.513366 C119.179723,114.614829 114.728346,114.492878 111.799372,117.877268" id="Fill-17" fill="#002C5A"></path>
                <path d="M95.6317117,95.0542439 C94.2631053,96.1400976 92.6628287,97.5000976 91.3020096,97.5000976 C89.9421638,97.5000976 88.3428606,96.1400976 86.9732809,95.0542439 C86.4710043,94.6357073 86.5654245,94.059122 87.8094351,93.8659512 C88.6572702,93.7361951 89.7659777,93.6483902 91.3020096,93.6483902 C92.8399883,93.6483902 93.9477223,93.7342439 94.7965309,93.8649756 C96.0385947,94.059122 96.1330149,94.6357073 95.6317117,95.0542439 L95.6317117,95.0542439 Z M95.6755149,121.740098 L97.1249138,123.211317 C97.1249138,123.211317 98.2268074,121.442537 98.2793713,118.551805 C98.2793713,118.551805 99.5058606,121.129366 99.186584,123.369366 C99.1349936,123.737171 99.0152649,124.645463 98.1041585,124.931317 C97.1969457,125.216195 94.9941319,126.023024 91.4295255,126.023024 C87.8649191,126.023024 85.6611319,125.216195 84.7529457,124.931317 C83.8428128,124.645463 83.723084,123.737171 83.6714936,123.369366 C83.3512436,121.129366 84.5796798,118.551805 84.5796798,118.551805 C84.6312702,121.442537 85.7331638,123.211317 85.7331638,123.211317 L87.1825628,121.740098 L88.4577223,123.597659 L90.1358713,121.985951 L91.4295255,123.801561 L92.7222064,121.985951 L94.3993819,123.597659 L95.6755149,121.740098 Z M139.876829,67.7030244 C136.038696,66.6249756 133.667483,65.9342439 130.78426,65.459122 C128.422781,65.0708293 126.4896,66.5059512 125.979536,68.6483902 C125.235855,71.7674146 123.095339,76.3332683 117.414552,77.281561 C109.324589,78.6327805 107.36902,71.9283902 105.349206,72.5732683 C105.349206,72.5732683 108.239244,69.8893659 112.745132,67.2483902 C112.471605,67.9459512 112.276924,68.7235122 112.276924,69.548878 C112.276924,72.5274146 114.77176,74.9420488 114.77176,74.9420488 C114.77176,74.9420488 117.266595,72.5274146 117.266595,69.548878 C117.266595,67.961561 116.55893,66.539122 115.897015,65.5518049 C120.799079,62.8649756 125.66026,62.2971707 125.66026,62.2971707 C125.66026,62.2971707 120.318217,59.3108293 111.056276,64.268878 C108.541972,65.6152195 105.528313,67.3108293 101.517887,70.8337561 C100.565898,71.6727805 97.2368553,74.2230244 97.7342649,77.8679024 C98.0223926,79.9820488 100.517228,81.4522927 99.2566691,83.0171707 C98.1557489,84.384 96.0921319,82.2337561 91.3759883,82.2337561 C86.6588713,82.2337561 84.5962277,84.384 83.4933606,83.0171707 C82.2337755,81.4522927 84.7276372,79.9820488 85.0167383,77.8679024 C85.5141479,74.2230244 82.1851053,71.6727805 81.233116,70.8337561 C77.221717,67.3108293 74.2080574,65.6152195 71.6957011,64.268878 C62.4327862,59.3108293 57.0907436,62.2971707 57.0907436,62.2971707 C57.0907436,62.2971707 61.9519245,62.8649756 66.8539883,65.5518049 C66.1911,66.539122 65.4844085,67.961561 65.4844085,69.548878 C65.4844085,72.5274146 67.9792436,74.9420488 67.9792436,74.9420488 C67.9792436,74.9420488 70.4740787,72.5274146 70.4740787,69.548878 C70.4740787,68.7235122 70.2793979,67.9459512 70.0048979,67.2483902 C74.5117596,69.8893659 77.4017968,72.5732683 77.4017968,72.5732683 C75.3829564,71.9283902 73.4264138,78.6327805 65.3364511,77.281561 C59.6556638,76.3332683 57.5141745,71.7674146 56.771467,68.6483902 C56.2614032,66.5059512 54.3282223,65.0708293 51.9667436,65.459122 C49.0835202,65.9342439 46.7123074,66.6249756 42.8741745,67.7030244 C32.0908021,70.7342439 22.677983,74.4679024 15.4806319,77.7147317 C18.9644457,86.1722927 23.2211426,94.2249756 28.1601957,101.79278 C30.1673553,100.856195 32.0557596,100.033756 33.6054191,99.4620488 C38.151217,97.7849756 43.3852117,95.419122 51.9336479,99.3810732 C60.9979883,103.581073 68.254717,111.742049 68.254717,111.742049 C68.7657543,111.420098 68.610983,110.259122 68.1145468,109.301073 C67.238483,107.610341 65.2673394,105.659122 64.1839404,104.572293 C58.6365096,99.0122927 63.7196266,98.4161951 65.7267862,98.4337561 C69.2436957,98.464 72.8764404,99.7469268 72.8764404,99.7469268 C67.4545787,94.3059512 51.6435734,94.0727805 51.6435734,94.0727805 C62.8766585,90.9927805 76.6805043,97.6210732 76.6805043,97.6210732 C65.5476798,87.7000976 41.216467,90.0786341 41.216467,90.0786341 C59.3578021,85.0659512 75.8102809,93.4669268 75.8102809,93.4669268 C67.3280362,85.9147317 52.8301532,85.4054634 52.8301532,85.4054634 C68.4094883,83.6630244 79.407983,91.3742439 82.8431266,95.8357073 C85.5569777,99.3625366 86.2461479,100.550829 86.4836585,101.003512 C86.7484245,101.502049 87.8804936,103.595707 86.6218819,105.066927 C85.365217,106.537171 82.5676532,106.257171 82.5676532,106.257171 C82.5676532,106.257171 81.7295521,109.691317 81.9398074,111.021073 C81.9398074,111.021073 80.3307702,109.970341 80.0514032,106.257171 C80.0514032,106.257171 77.8154936,105.907902 76.0000947,104.786927 C74.1808021,103.667902 71.3141266,101.844488 69.9163181,103.176195 C68.5185096,104.506927 70.1265734,106.60839 70.8254777,107.659122 C71.5253553,108.709854 80.4689936,124.177171 81.9028181,126.262049 C83.5984883,128.730341 86.5157809,131.43961 91.3759883,131.43961 C96.2352223,131.43961 99.1515415,128.730341 100.847212,126.262049 C102.28201,124.177171 111.226621,108.709854 111.924552,107.659122 C112.62443,106.60839 114.23152,104.506927 112.834685,103.176195 C111.436877,101.844488 108.570201,103.667902 106.750909,104.786927 C104.93551,105.907902 102.6996,106.257171 102.6996,106.257171 C102.420233,109.970341 100.811196,111.021073 100.811196,111.021073 C101.020478,109.691317 100.184323,106.257171 100.184323,106.257171 C100.184323,106.257171 97.3857862,106.537171 96.1291213,105.066927 C94.8705096,103.595707 96.0016053,101.502049 96.2673447,101.003512 C96.5058287,100.550829 97.1940255,99.3625366 99.9078766,95.8357073 C103.342047,91.3742439 114.342488,83.6630244 129.92085,85.4054634 C129.92085,85.4054634 115.421994,85.9147317 106.940722,93.4669268 C106.940722,93.4669268 123.393201,85.0659512 141.534536,90.0786341 C141.534536,90.0786341 117.203323,87.7000976 106.070499,97.6210732 C106.070499,97.6210732 119.874345,90.9927805 131.106456,94.0727805 C131.106456,94.0727805 115.296424,94.3059512 109.874563,99.7469268 C109.874563,99.7469268 113.507307,98.464 117.024217,98.4337561 C119.031377,98.4161951 124.115467,99.0122927 118.567063,104.572293 C117.483664,105.659122 115.513494,107.610341 114.636456,109.301073 C114.14002,110.259122 113.985249,111.420098 114.496286,111.742049 C114.496286,111.742049 121.753015,103.581073 130.816382,99.3810732 C139.365791,95.419122 144.599786,97.7849756 149.145584,99.4620488 C150.705951,100.037659 152.608956,100.866927 154.63169,101.812293 C159.571717,94.2444878 163.830361,86.1918049 167.315148,77.7352195 C160.11293,74.4835122 150.681616,70.7420488 139.876829,67.7030244 L139.876829,67.7030244 Z" id="Fill-19" fill="#002C5A"></path>
                <path d="M43.8678255,31.372878 C42.6900064,31.6753171 40.7500117,33.3543415 37.2710649,34.2470244 C31.3332989,35.7709268 27.3345543,33.5436098 26.0019638,28.3260488 C24.6898149,23.190439 27.3374745,18.8245854 33.8768043,17.145561 C36.1798787,16.5543415 37.9641287,16.5572683 38.983283,16.2948293 C39.298666,16.2148293 39.8077564,16.0265366 40.4862191,15.7377561 L40.4375489,20.128 C38.388533,19.5299512 36.3677457,19.4733659 34.4832351,19.9562927 C30.6908521,20.9299512 29.0905755,23.6158049 30.0639798,27.4275122 C30.9624319,30.9406829 33.1847138,32.3289756 36.5332245,31.470439 C39.4378628,30.7240976 40.7110755,29.2743415 40.228267,27.3816585 L39.8544798,25.9221463 L36.2976606,26.8362927 C35.5384053,27.030439 34.998166,27.3133659 34.449166,28.0011707 L34.4666872,25.7797073 C34.4890755,24.563122 34.728533,24.2997073 36.0367883,23.9640976 L43.3090915,22.0977561 C42.9820277,22.6714146 43.0929957,23.1036098 43.2516606,23.7250732 L45.1790011,31.2665366 C44.5423947,31.2860488 44.1033894,31.3123902 43.8678255,31.372878" id="Fill-21" fill="#FEFEFE"></path>
                <path d="M48.0817899,28.3460488 L46.3413431,17.5762927 C46.1009122,16.0894634 45.5596995,15.272878 44.5551463,14.9840976 L61.1886782,12.2836098 C61.0426676,12.5616585 60.997891,12.7948293 61.0290399,12.9870244 C61.0825771,13.3187317 61.6919282,14.3782439 62.5894069,16.3811707 C60.6211835,15.5411707 58.710391,15.5684878 56.5513803,15.9187317 L50.2339867,16.9440976 L50.8530718,20.7733659 L57.8362739,19.6397073 C58.7687952,19.4884878 59.3995612,19.1597073 59.8979441,18.8533659 L58.939141,21.383122 C58.6899495,22.045561 58.1574973,22.4709268 57.4371782,22.588 L51.3066782,23.583122 L51.9734601,27.7138537 L58.638359,26.632878 C61.277258,26.2036098 63.2717633,25.1743415 64.5070133,23.672878 C64.0047367,26.1567805 63.6017473,27.5509268 63.6679388,27.9645854 C63.7039548,28.1840976 63.8460718,28.388 64.077742,28.632878 L47.2037793,31.3714146 C48.0691356,30.8075122 48.3222207,29.832878 48.0817899,28.3460488" id="Fill-23" fill="#FEFEFE"></path>
                <path d="M67.1178782,25.4324878 L66.3138463,14.5524878 C66.2028782,13.0500488 65.7336973,12.189561 64.7583463,11.8139512 L81.5622239,10.567122 C81.3928516,10.8324878 81.3286069,11.0607805 81.343208,11.2549268 C81.3675431,11.589561 81.8824739,12.6978537 82.6037665,14.7710244 C80.7153622,13.7641951 78.8104101,13.6256585 76.6280378,13.7876098 L70.2454261,14.2607805 L70.5316069,18.1290732 L77.586841,17.6051707 C78.5300697,17.5359024 79.1871176,17.2637073 79.7078888,17.0002927 L78.5349367,19.4373659 C78.2302612,20.0763902 77.6617931,20.4529756 76.9356335,20.5076098 L70.7408888,20.967122 L71.049458,25.1407805 L77.7815218,24.6412683 C80.4476761,24.4441951 82.5249207,23.589561 83.8837931,22.2022439 C83.1693144,24.634439 82.6465963,25.9876098 82.6777452,26.4051707 C82.6933197,26.6276098 82.8179154,26.8422439 83.0271973,27.1056585 L65.9799686,28.3710244 C66.8920484,27.8832195 67.2288463,26.9359024 67.1178782,25.4324878" id="Fill-25" fill="#FEFEFE"></path>
                <path d="M84.9522989,10.3777561 L91.6746287,10.4870244 C90.7236128,10.8899512 90.2213362,11.8587317 90.1989479,13.3084878 L90.0217883,24.2177561 L94.5851074,24.2919024 C97.1500277,24.3338537 99.1562138,23.8362927 100.908341,22.412878 C99.9787404,24.7699512 99.3100117,26.0714146 99.3031979,26.4899512 C99.2983309,26.7133659 99.4316872,26.9387317 99.6146872,27.2206829 L84.6836394,26.9777561 C85.6356287,26.5465366 86.055166,25.6323902 86.0795011,24.1543415 L86.2566606,13.2450732 C86.2800223,11.7387317 85.8896872,10.8392195 84.9522989,10.3777561" id="Fill-27" fill="#FEFEFE"></path>
                <path d="M113.657796,19.5879024 C113.914774,16.1371707 112.199636,14.0513171 109.022445,13.8142439 C105.522083,13.5537561 103.397141,15.548878 103.115828,19.3332683 C102.862743,22.7283902 104.577881,24.8142439 107.755072,25.0513171 C111.228179,25.3108293 113.380376,23.3166829 113.657796,19.5879024 M107.743391,28.1274146 C101.738461,27.6805854 98.5904713,24.1166829 98.974966,18.9400976 C99.3653011,13.681561 103.18786,10.3293659 109.032179,10.7654634 C115.038083,11.2132683 118.218195,14.6952195 117.814232,20.1498537 C117.441418,25.1586341 113.586737,28.5644878 107.743391,28.1274146" id="Fill-29" fill="#FEFEFE"></path>
                <path d="M122.966947,26.4 C122.745985,27.9190244 122.900756,28.8214634 123.859559,29.4868293 L117.596676,28.4604878 C118.627511,28.1765854 119.148282,27.3297561 119.395527,25.8146341 L121.134027,15.1580488 C121.382245,13.6429268 121.157389,12.6741463 120.269644,12.075122 L128.024756,13.3473171 C127.886532,13.5219512 127.810607,13.6517073 127.796979,13.7336585 C127.779458,13.8429268 127.823261,14.0770732 127.911841,14.3746341 L132.078011,27.7521951 L133.739612,17.2234146 C133.986857,15.7092683 133.687048,14.6985366 132.821692,14.1326829 L138.923963,15.1326829 C137.568985,15.5609756 137.387931,16.4926829 137.186437,17.7317073 C137.182543,17.76 137.173782,17.8146341 137.165022,17.8702439 L135.200692,29.9034146 C135.107245,30.4819512 135.087777,30.9307317 135.345729,31.3687805 L128.975772,30.3258537 C129.145144,30.1268293 129.224963,29.9707317 129.243458,29.8604878 C129.260979,29.7502439 129.208415,29.5717073 129.119836,29.2741463 L124.484485,15.4243902 L122.966947,26.4 Z" id="Fill-31" fill="#FEFEFE"></path>
                <path d="M152.801204,34.9604878 C151.624358,34.66 149.117842,35.2014634 145.637922,34.3136585 C139.697236,32.7985366 137.253018,28.922439 138.578794,23.7029268 C139.884129,18.5653659 144.295597,16.0053659 150.836874,17.6736585 C153.140922,18.2609756 154.706156,19.1214634 155.726284,19.3809756 C156.03972,19.4619512 156.577039,19.5409756 157.310986,19.6131707 L155.169496,23.4434146 C153.656826,21.9341463 151.909565,20.9136585 150.025055,20.4326829 C146.230725,19.464878 143.542182,21.0531707 142.574619,24.8668293 C141.682007,28.3819512 142.967874,30.6678049 146.318331,31.5214634 C149.22297,32.2619512 151.035448,31.602439 151.51631,29.7097561 L151.887177,28.2492683 L148.327438,27.3409756 C147.568182,27.1478049 146.958831,27.1360976 146.147012,27.4765854 L147.225544,25.5341463 C147.829055,24.4785366 148.163906,24.362439 149.472161,24.6970732 L156.748358,26.5526829 C156.186704,26.8990244 156.076709,27.3312195 155.919018,27.9526829 L154.002385,35.4980488 C153.43489,35.2082927 153.036768,35.0209756 152.801204,34.9604878" id="Fill-33" fill="#FEFEFE"></path>
            </g>
        </g>
    </g>
</svg>