<?xml version="1.0" encoding="UTF-8" standalone="no"?>
<svg width="179px" height="200px" viewBox="0 0 179 200" version="1.1" xmlns="http://www.w3.org/2000/svg" xmlns:xlink="http://www.w3.org/1999/xlink">
    <!-- Generator: sketchtool 3.8.3 (29802) - http://www.bohemiancoding.com/sketch -->
    <title>182BC112-100C-4E33-A72E-1CD0137123F0</title>
    <desc>Created with sketchtool.</desc>
    <defs>
        <polyline id="path-1" points="0 0.585263158 178.924311 0.585263158 178.924311 200 0 200"></polyline>
        <polygon id="path-3" points="0 0.585263158 178.924311 0.585263158 178.924311 200 0 200"></polygon>
        <polygon id="path-5" points="0 0.585263158 178.924311 0.585263158 178.924311 200 0 200"></polygon>
        <polygon id="path-7" points="0 0.585263158 178.924311 0.585263158 178.924311 200 0 200"></polygon>
        <polygon id="path-9" points="0 0.585263158 178.924311 0.585263158 178.924311 200 0 200"></polygon>
        <polygon id="path-11" points="0 0.585263158 178.924311 0.585263158 178.924311 200 0 200"></polygon>
    </defs>
    <g id="Page-1" stroke="none" stroke-width="1" fill="none" fill-rule="evenodd">
        <g id="FULL-LOGO" transform="translate(-1928.000000, -387.000000)">
            <g id="icon_club_Fremantle" transform="translate(1928.000000, 387.000000)">
                <g id="Group-3">
                    <mask id="mask-2" fill="white">
                        <use xlink:href="#path-1"></use>
                    </mask>
                    <g id="Clip-2"></g>
                    <path d="M89.4568743,0.584947368 C57.1215449,0.584947368 35.5646587,5.84810526 35.5646587,5.84810526 L35.5646587,23.3228421 L35.5646587,97.6986316 C35.5646587,105.932316 36.5875329,112.344947 46.3431018,118.573368 C51.256994,121.710211 89.4568743,146.058632 89.4568743,146.058632 C89.4568743,146.058632 127.656754,121.710211 132.570647,118.573368 C142.326216,112.344947 143.34909,105.932316 143.34909,97.6986316 L143.34909,23.3228421 L143.34909,5.84810526 C143.34909,5.84810526 121.792204,0.584947368 89.4568743,0.584947368" id="Fill-1" fill="#AEB5BC" mask="url(#mask-2)"></path>
                </g>
                <path d="M140.115557,97.6984211 C140.115557,101.627895 139.865497,104.825789 138.639988,107.659474 C137.307772,110.738421 134.816874,113.366842 130.801904,115.93 C126.55412,118.642632 97.0351976,137.456316 89.4568743,142.287895 C81.8785509,137.456316 52.3617844,118.642632 48.114,115.93 C44.0968743,113.366842 41.6070539,110.738421 40.2737605,107.659474 C39.0482515,104.825789 38.7981916,101.627895 38.7981916,97.6984211 L38.7981916,22.6542105 C45.954,21.2805263 64.494,18.27 89.4568743,18.27 C114.421904,18.27 132.959749,21.2805263 140.115557,22.6542105 L140.115557,97.6984211 Z" id="Fill-4" fill="#2E0E5B"></path>
                <polygon id="Fill-6" fill="#FEFEFE" points="68.9778323 95.5931579 68.9778323 101.908947 100.352802 101.908947 109.935916 93.8878947 109.935916 70.9826316 100.352802 62.9615789 94.8460958 62.9615789 94.8460958 69.2773684 97.9621437 69.2773684 103.46885 73.8878947 103.46885 90.9826316 97.9621437 95.5931579 80.8341198 95.5931579 80.8341198 69.2773684 84.0676527 69.2773684 84.0676527 62.9615789 68.9778323 62.9615789 68.9778323 69.2773684 74.3670539 69.2773684 74.3670539 95.5931579"></polygon>
                <path d="M89.4568743,35.4389474 C91.6481317,35.4389474 93.4319641,37.18 93.4319641,39.3210526 C93.4319641,41.46 91.6481317,43.2010526 89.4568743,43.2010526 C87.2656168,43.2010526 85.4817844,41.46 85.4817844,39.3210526 C85.4817844,37.18 87.2656168,35.4389474 89.4568743,35.4389474 L89.4568743,35.4389474 Z M86.2233413,93.4873684 L92.6904072,93.4873684 L92.6904072,57.6978947 L116.402982,57.6978947 L116.402982,51.3821053 L92.6904072,51.3821053 L92.6904072,48.9073684 C96.8142395,47.5810526 99.7912455,43.7905263 99.7912455,39.3210526 C99.7912455,33.7473684 95.1640599,29.2294737 89.4568743,29.2294737 C83.7496886,29.2294737 79.1246587,33.7473684 79.1246587,39.3210526 C79.1246587,43.7905263 82.1016647,47.5810526 86.2233413,48.9073684 L86.2233413,51.3821053 L62.5107665,51.3821053 L62.5107665,57.6978947 L86.2233413,57.6978947 L86.2233413,93.4873684 Z" id="Fill-8" fill="#FEFEFE"></path>
                <path d="M119.636515,87.1114737 L119.636515,95.7430526 C119.636515,98.7514737 118.841066,100.072526 115.969689,101.898842 C114.089928,103.094632 99.3407066,112.380947 92.6904072,116.567263 L92.6904072,104.014632 L86.2233413,104.014632 L86.2233413,116.567263 C79.5730419,112.380947 64.8238204,103.094632 62.9440599,101.898842 C60.0726826,100.072526 59.2772335,98.7514737 59.2772335,95.7430526 L59.2772335,87.1114737 L52.8101677,87.1114737 L52.8101677,97.7409474 C52.8101677,100.629368 53.2984311,103.319895 57.4772335,105.953579 C61.6581916,108.586211 89.4568743,126.119895 89.4568743,126.119895 C89.4568743,126.119895 117.257713,108.586211 121.436515,105.953579 C125.615317,103.319895 126.103581,100.629368 126.103581,97.7409474 L126.103581,87.1114737 L119.636515,87.1114737 Z" id="Fill-10" fill="#FEFEFE"></path>
                <path d="M54.9722156,14.5806316 L54.9722156,8.34063158 C56.894012,8.10484211 58.8158084,7.888 60.7408383,7.69010526 L60.7408383,9.03852632 C59.4355689,9.17221053 58.1324551,9.31536842 56.8271856,9.468 L56.8271856,10.6385263 C57.7573653,10.5301053 58.6897006,10.4269474 59.6198802,10.3269474 L59.6198802,11.3764211 C58.6897006,11.4764211 57.7573653,11.5795789 56.8271856,11.688 L56.8271856,12.9353684 C58.1324551,12.7827368 59.4355689,12.6385263 60.7408383,12.5048421 L60.7408383,13.9301053 C58.8158084,14.1269474 56.894012,14.3437895 54.9722156,14.5806316" id="Fill-12" fill="#2E0E5B"></path>
                <path d="M68.0368743,13.4837895 C66.6561557,13.5890526 65.4856168,13.2848421 64.5468144,12.788 C64.7968743,12.4006316 65.0458563,12.0122105 65.2937605,11.6258947 C66.1862156,12.0732632 67.1821437,12.3122105 68.0745988,12.2437895 C69.0349581,12.1711579 69.4175928,11.8269474 69.4175928,11.4606316 C69.4175928,10.4101053 64.8626228,11.3911579 64.8647784,9.12484211 C64.8647784,8.00063158 66.1463353,6.97536842 68.045497,6.83115789 C69.4175928,6.72589474 70.4264551,7.09010526 71.2219042,7.62694737 C70.9373533,7.97115789 70.6517246,8.31431579 70.3671737,8.65852632 C69.6956766,8.25431579 68.814,8.00905263 67.9991497,8.07010526 C67.1444192,8.13642105 66.6453772,8.45957895 66.6453772,8.83326316 C66.6453772,9.83431579 71.2413054,8.96484211 71.2413054,11.1858947 C71.2413054,12.4048421 69.8573533,13.3437895 68.0368743,13.4837895" id="Fill-14" fill="#2E0E5B"></path>
                <path d="M78.7205749,7.82178947 L78.7205749,12.666 C78.0954251,12.6891579 77.4724311,12.7144211 76.8472814,12.7428421 L76.8472814,7.89863158 C76.0593772,7.93442105 75.2725509,7.97442105 74.4846467,8.01547368 L74.4846467,6.61863158 C76.6802156,6.50178947 78.8768623,6.41021053 81.0745868,6.346 L81.0745868,7.74178947 C80.2888383,7.76389474 79.5063234,7.79126316 78.7205749,7.82178947" id="Fill-16" fill="#2E0E5B"></path>
                <path d="M83.2740359,12.5277895 L83.2740359,11.1877895 C83.7288862,11.1783158 84.1837365,11.1688421 84.6385868,11.1604211 L84.6385868,12.5014737 C84.1837365,12.5077895 83.7288862,12.5172632 83.2740359,12.5277895" id="Fill-18" fill="#2E0E5B"></path>
                <path d="M93.0967545,12.4815789 L93.0967545,7.01 C93.6841796,7.01736842 93.951485,6.66578947 93.951485,6.25421053 C94.2403473,6.25842105 94.5281317,6.26368421 94.816994,6.26894737 L94.816994,12.5078947 C94.2435808,12.4984211 93.6712455,12.4889474 93.0967545,12.4815789" id="Fill-20" fill="#2E0E5B"></path>
                <path d="M103.384671,8.83642105 C103.384671,8.19115789 102.885629,7.62168421 101.964072,7.58063158 C101.136287,7.54378947 100.656647,7.89221053 100.656647,8.45326316 L100.656647,8.56589474 C100.656647,9.11957895 101.087784,9.51010526 101.924192,9.54589474 C102.567665,9.57431579 103.018204,9.38168421 103.384671,9.08905263 L103.384671,8.83642105 Z M101.885389,12.9364211 C100.723473,12.8858947 99.831018,12.5343158 99.0711377,11.9553684 C99.3211976,11.6322105 99.5701796,11.3111579 99.8202395,10.9890526 C100.397964,11.4027368 101.107186,11.6658947 101.780838,11.6953684 C102.894251,11.7437895 103.393293,11.1332632 103.393293,10.2332632 L103.393293,9.87642105 C102.913653,10.2648421 102.346707,10.5006316 101.55988,10.4669474 C99.9937725,10.4006316 99.0711377,9.60484211 99.0711377,8.52589474 L99.0711377,8.40484211 C99.0711377,7.19642105 100.214731,6.21115789 101.982395,6.288 C103.826587,6.37010526 105.06503,7.58589474 105.06503,9.33747368 L105.06503,10.0574737 C105.06503,11.8206316 103.845988,13.0227368 101.885389,12.9364211 L101.885389,12.9364211 Z" id="Fill-22" fill="#2E0E5B"></path>
                <path d="M113.318946,9.50147368 C113.318946,8.85515789 112.819904,8.26778947 111.900503,8.19515789 C111.074874,8.12884211 110.595234,8.46042105 110.595234,9.02147368 L110.595234,9.13410526 C110.595234,9.68778947 111.026371,10.0930526 111.859545,10.1593684 C112.504096,10.2109474 112.954635,10.0330526 113.318946,9.75410526 L113.318946,9.50147368 Z M111.82182,13.5477895 C110.66206,13.4562105 109.769605,13.0730526 109.01188,12.4677895 C109.26194,12.1541053 109.510922,11.8414737 109.760982,11.5277895 C110.335473,11.9625263 111.045772,12.2498947 111.717269,12.3025263 C112.828527,12.3909474 113.327569,11.7983158 113.327569,10.8983158 L113.327569,10.5414737 C112.849006,10.9141053 112.283138,11.1288421 111.496311,11.0667368 C109.933437,10.9456842 109.01188,10.1172632 109.01188,9.03936842 L109.01188,8.91621053 C109.01188,7.70884211 110.154395,6.76252632 111.918826,6.90357895 C113.758707,7.05094737 114.994994,8.30884211 114.994994,10.0604211 L114.994994,10.7825263 C114.994994,12.5446316 113.778108,13.7035789 111.82182,13.5477895 L111.82182,13.5477895 Z" id="Fill-24" fill="#2E0E5B"></path>
                <path d="M121.379605,9.70094737 C120.77709,10.2756842 120.175653,10.8525263 119.570982,11.4304211 C120.175653,11.4956842 120.77709,11.562 121.379605,11.6314737 L121.379605,9.70094737 Z M123.042719,13.0146316 L123.042719,14.4588421 C122.488707,14.3914737 121.935772,14.3272632 121.379605,14.2641053 L121.379605,12.8209474 C120.228467,12.6904211 119.076251,12.5662105 117.925114,12.4493684 L117.925114,11.3725263 C119.110743,10.2514737 120.293138,9.13989474 121.476611,8.03463158 C121.998287,8.09463158 122.521042,8.15568421 123.042719,8.21884211 L123.042719,11.8251579 C123.381162,11.8662105 123.718527,11.9072632 124.05697,11.9483158 L124.05697,13.1388421 C123.718527,13.0956842 123.381162,13.0546316 123.042719,13.0146316 L123.042719,13.0146316 Z" id="Fill-26" fill="#2E0E5B"></path>
                <polygon id="Fill-28" fill="#121313" points="35.5688623 159.734842 42.6061078 159.734842 42.6061078 161.990632 38.1244311 161.990632 38.1244311 163.315895 42.4821557 163.315895 42.4821557 165.535895 38.1244311 165.535895 38.1244311 168.670632 35.5688623 168.670632"></polygon>
                <path d="M51.8038922,163.919684 C52.7933533,163.919684 53.1382635,163.726 53.1382635,162.906 C53.1382635,162.051263 52.815988,161.857579 51.7931138,161.857579 L49.7430539,161.857579 L49.7430539,163.919684 L51.8038922,163.919684 Z M51.3975449,165.993368 L49.7430539,165.993368 L49.7430539,168.671263 L47.2478443,168.671263 L47.2478443,159.734421 L51.8922754,159.734421 C55.1635329,159.734421 55.7197006,161.134421 55.7197006,162.810211 C55.7197006,163.919684 55.4351497,165.100737 53.9531138,165.668105 L55.6205389,168.671263 L52.8795808,168.671263 L51.3975449,165.993368 Z" id="Fill-30" fill="#121313"></path>
                <polygon id="Fill-32" fill="#121313" points="60.1761557 159.734842 67.4623832 159.734842 67.4623832 161.990632 62.7317246 161.990632 62.7317246 163.075895 67.3384311 163.075895 67.3384311 165.258 62.7317246 165.258 62.7317246 166.511684 67.5108862 166.511684 67.5108862 168.670632 60.1761557 168.670632"></polygon>
                <polygon id="Fill-34" fill="#121313" points="72.6345269 159.734842 75.9812335 159.734842 78.0302156 165.052737 80.0932096 159.734842 83.4280599 159.734842 83.4280599 168.670632 80.9328503 168.670632 80.9328503 163.485368 78.8827904 168.670632 76.9685389 168.670632 74.9443473 163.522211 74.9443473 168.670632 72.6345269 168.670632"></polygon>
                <path d="M93.2419401,165.462632 L92.1069701,162.617368 L90.9709222,165.462632 L93.2419401,165.462632 Z M90.8717605,159.675263 L93.477988,159.675263 L97.1706826,168.671053 L94.5159521,168.671053 L94.0567904,167.513158 L90.1560719,167.513158 L89.6990659,168.671053 L87.2049341,168.671053 L90.8717605,159.675263 Z" id="Fill-36" fill="#121313"></path>
                <polygon id="Fill-38" fill="#121313" points="100.687904 159.734842 103.428862 159.734842 106.997605 164.462211 106.997605 159.734842 109.443234 159.734842 109.443234 168.670632 107.083832 168.670632 103.132455 163.448526 103.132455 168.670632 100.687904 168.670632"></polygon>
                <polygon id="Fill-40" fill="#121313" points="116.257689 161.990211 113.220323 161.990211 113.220323 159.734421 121.863557 159.734421 121.863557 161.990211 118.826192 161.990211 118.826192 168.671263 116.257689 168.671263"></polygon>
                <polygon id="Fill-42" fill="#121313" points="125.629976 159.734842 128.185545 159.734842 128.185545 166.511684 132.494766 166.511684 132.494766 168.670632 125.629976 168.670632"></polygon>
                <polygon id="Fill-44" fill="#121313" points="136.014683 159.734842 143.298754 159.734842 143.298754 161.990632 138.570251 161.990632 138.570251 163.075895 143.176958 163.075895 143.176958 165.258 138.570251 165.258 138.570251 166.511684 143.349413 166.511684 143.349413 168.670632 136.014683 168.670632"></polygon>
                <g id="Group-48">
                    <mask id="mask-4" fill="white">
                        <use xlink:href="#path-3"></use>
                    </mask>
                    <g id="Clip-47"></g>
                    <path d="M148.645725,182.097053 L149.59315,183.024421 L149.59315,187.314947 L148.307281,188.363368 L139.970156,188.363368 L139.970156,182.097053 L148.645725,182.097053 Z M150.167641,192.674947 L154.176144,189.411789 L154.176144,181.169684 L150.542731,177.621263 L132.179497,177.621263 L132.179497,182.097053 L135.387162,182.097053 L135.387162,188.363368 L135.387162,195.524421 L132.179497,195.524421 L132.179497,200.000211 L139.970156,200.000211 L139.970156,192.839158 L144.721293,192.839158 L149.763449,200.000211 L155.552551,200.000211 L155.552551,195.524421 L152.173509,195.524421 L150.167641,192.674947 Z" id="Fill-46" fill="#2E0E5B" mask="url(#mask-4)"></path>
                </g>
                <g id="Group-51">
                    <mask id="mask-6" fill="white">
                        <use xlink:href="#path-5"></use>
                    </mask>
                    <g id="Clip-50"></g>
                    <path d="M18.3317605,192.806316 L15.5509222,195.524211 L7.79152096,195.524211 L7.79152096,182.096842 L15.5509222,182.096842 L18.3317605,184.814737 L18.3317605,192.806316 Z M-0.000215568862,177.621053 L-0.000215568862,182.096842 L3.20852695,182.096842 L3.20852695,195.524211 L-0.000215568862,195.524211 L-0.000215568862,200 L17.4500838,200 L22.9147545,194.661053 L22.9147545,182.96 L17.4500838,177.621053 L-0.000215568862,177.621053 Z" id="Fill-49" fill="#2E0E5B" mask="url(#mask-6)"></path>
                </g>
                <path d="M44.3663353,192.808421 L41.5833413,195.524211 L35.2272934,195.524211 L32.4486108,192.808421 L32.4486108,184.812632 L35.2272934,182.096842 L41.5833413,182.096842 L44.3663353,184.814737 L44.3663353,192.808421 Z M33.3270539,177.621053 L27.8656168,182.962105 L27.8656168,194.661053 L33.3270539,200 L43.482503,200 L48.9493293,194.661053 L48.9493293,182.961053 L43.482503,177.621053 L33.3270539,177.621053 Z" id="Fill-52" fill="#2E0E5B"></path>
                <polygon id="Fill-54" fill="#2E0E5B" points="178.924311 184.782105 178.924311 181.169474 175.290898 177.621053 163.310659 177.621053 159.677246 181.169474 159.677246 187.5 163.310659 191.048421 173.393892 191.048421 174.341317 191.975789 174.341317 194.596842 173.393892 195.524211 165.208743 195.524211 164.26024 194.596842 164.26024 192.838947 159.677246 192.838947 159.677246 196.451579 163.310659 200 175.290898 200 178.924311 196.451579 178.924311 190.121053 175.290898 186.572632 165.208743 186.572632 164.26024 185.645263 164.26024 183.024211 165.208743 182.096842 173.393892 182.096842 174.341317 183.024211 174.341317 184.782105"></polygon>
                <g id="Group-58">
                    <mask id="mask-8" fill="white">
                        <use xlink:href="#path-7"></use>
                    </mask>
                    <g id="Clip-57"></g>
                    <polygon id="Fill-56" fill="#2E0E5B" mask="url(#mask-8)" points="59.0835449 177.621368 53.6231856 182.962421 53.6231856 194.660316 59.0835449 200.000316 69.238994 200.000316 74.7058204 194.660316 74.7058204 191.497158 70.1228263 191.497158 70.1228263 192.808737 67.3398323 195.524526 60.9848623 195.524526 58.2061796 192.808737 58.2061796 184.812947 60.9848623 182.097158 67.3398323 182.097158 70.1228263 184.815053 70.1228263 186.126632 74.7058204 186.126632 74.7058204 182.960316 69.238994 177.621368"></polygon>
                </g>
                <g id="Group-61">
                    <mask id="mask-10" fill="white">
                        <use xlink:href="#path-9"></use>
                    </mask>
                    <g id="Clip-60"></g>
                    <polygon id="Fill-59" fill="#2E0E5B" mask="url(#mask-10)" points="101.930012 182.097053 101.930012 177.621263 97.3782754 177.621263 86.8067784 186.918105 86.8067784 177.621263 79.0150419 177.621263 79.0150419 182.097053 82.2237844 182.097053 82.2237844 195.524421 79.1012695 195.524421 79.1012695 200.000211 86.8067784 200.000211 86.8067784 192.940211 89.787018 190.320211 97.1012695 200.000211 101.930012 200.000211 101.930012 195.524421 99.4143234 195.524421 93.2080958 187.310737 99.1383952 182.097053"></polygon>
                </g>
                <g id="Group-64">
                    <mask id="mask-12" fill="white">
                        <use xlink:href="#path-11"></use>
                    </mask>
                    <g id="Clip-63"></g>
                    <polygon id="Fill-62" fill="#2E0E5B" mask="url(#mask-12)" points="106.512898 182.097053 110.179725 182.097053 110.179725 195.524421 106.512898 195.524421 106.512898 200.000211 127.137449 200.000211 127.137449 193.287579 122.554455 193.287579 122.554455 195.524421 114.762719 195.524421 114.762719 191.048632 122.095293 191.048632 122.095293 186.572842 114.762719 186.572842 114.762719 182.097053 122.554455 182.097053 122.554455 184.336 127.137449 184.336 127.137449 177.621263 106.512898 177.621263"></polygon>
                </g>
            </g>
        </g>
    </g>
</svg>