<?xml version="1.0" encoding="UTF-8" standalone="no"?>
<svg width="165px" height="200px" viewBox="0 0 165 200" version="1.1" xmlns="http://www.w3.org/2000/svg" xmlns:xlink="http://www.w3.org/1999/xlink">
    <!-- Generator: sketchtool 3.8.3 (29802) - http://www.bohemiancoding.com/sketch -->
    <title>24E29CAD-EF96-4592-ADB4-8D82706A6DF4</title>
    <desc>Created with sketchtool.</desc>
    <defs></defs>
    <g id="Page-1" stroke="none" stroke-width="1" fill="none" fill-rule="evenodd">
        <g id="FULL-LOGO" transform="translate(-5860.000000, -387.000000)">
            <g id="WesternBulldogs_A" transform="translate(5860.000000, 387.000000)">
                <g id="Artwork">
                    <g id="Group" transform="translate(10.576923, 50.704225)" fill="#FFFFFF">
                        <path d="M126.076923,72.1126761 C126.852564,69.9295775 127.628205,67.6760563 128.333333,65.4225352 M137.358974,28.8732394 C138.769231,20.9859155 139.967949,12.8873239 141.025641,4.43661972 C96.1089744,-6.05633803 38.7820513,6.1971831 2.46794872,23.1690141 C-7.82692308,80.4929577 18.5448718,127.394366 56.1987179,148.943662 C57.2564103,148.521127 58.2435897,148.098592 59.2307692,147.676056 L60.3589744,147.183099 C82.0769231,137.605634 98.4358974,122.957746 110.634615,103.943662" id="Shape"></path>
                        <path d="M128.403846,65.4929577 C132.070513,54.1549296 135.032051,41.971831 137.429487,28.943662" id="Shape"></path>
                        <path d="M110.705128,103.873239 C116.769231,94.3661972 121.846154,83.8028169 126.076923,72.1830986" id="Shape"></path>
                        <path id="Shape"></path>
                    </g>
                    <g id="Group">
                        <path d="M159.358974,28.4507042 C157.24359,27.8169014 155.339744,27.9577465 155.339744,26.4788732 C155.339744,25.4225352 156.326923,24.9295775 157.737179,24.9295775 C159.358974,24.9295775 160.980769,25.5633803 162.391026,26.3380282 L163.307692,20.6338028 C161.826923,19.7887324 159.711538,18.8732394 156.891026,18.8732394 C152.660256,18.8732394 147.865385,20.9859155 147.865385,26.7605634 C147.865385,30.9859155 150.333333,33.1690141 152.871795,34.084507 C155.128205,34.8591549 157.455128,34.5774648 157.455128,36.056338 C157.455128,37.0422535 156.467949,37.7464789 154.987179,37.7464789 C153.083333,37.7464789 151.038462,36.8309859 149.275641,35.6338028 L147.653846,41.4788732 C149.769231,42.7464789 152.519231,43.8732394 155.551282,43.8732394 C160.275641,43.8732394 165,41.1971831 165,35.5633803 C164.929487,31.1267606 161.897436,29.2253521 159.358974,28.4507042 L159.358974,28.4507042 Z M109.294872,12.1126761 C109.717949,12.1830986 110.141026,12.1830986 110.49359,12.1126761 L111.621795,15.915493 L116.698718,15.915493 L114.653846,10.2816901 C115.641026,9.29577465 116.275641,7.88732394 116.275641,6.12676056 C116.275641,2.53521127 113.807692,0.281690141 109.50641,0.211267606 C108.166667,0.14084507 105.910256,0.211267606 104.5,0.281690141 L104.5,15.915493 L109.294872,15.915493 L109.294872,12.1126761 L109.294872,12.1126761 Z M109.294872,4.01408451 C109.50641,4.01408451 109.788462,4.01408451 110.070513,4.08450704 C110.705128,4.22535211 111.410256,4.71830986 111.410256,6.05633803 C111.410256,7.11267606 110.846154,7.88732394 110.141026,8.09859155 C109.858974,8.16901408 109.50641,8.16901408 109.224359,8.16901408 L109.224359,4.01408451 L109.294872,4.01408451 Z M102.948718,11.971831 L96.8846154,11.971831 L96.8846154,9.78873239 L101.185897,9.78873239 L101.185897,6.33802817 L96.8846154,6.33802817 L96.8846154,4.15492958 L102.525641,4.15492958 L102.525641,0.211267606 L92.0897436,0.211267606 L92.0897436,15.8450704 L102.948718,15.8450704 L102.948718,11.971831 L102.948718,11.971831 Z M13.0448718,73.8732394 C2.75,131.197183 29.1217949,178.098592 66.775641,199.647887 C67.8333333,199.225352 68.8205128,198.802817 69.8076923,198.380282 C34.1987179,178.028169 9.87179487,133.661972 19.6025641,79.4366197 C51.6858974,64.4366197 101.044872,53.4507042 142.083333,60.2816901 C111.551282,57.1830986 63.3910256,65.1408451 31.3782051,77.6056338 C29.474359,78.3098592 27.4294872,79.084507 25.3846154,79.8591549 C25.3846154,79.8591549 23.974359,85.7042254 23.4102564,95 C24.1858974,94.7887324 24.8910256,94.5774648 25.6666667,94.3661972 L25.6666667,94.3661972 C64.7307692,83.7323944 105.910256,78.5915493 147.935897,79.5070423 C149.346154,71.6197183 150.544872,63.5211268 151.602564,55.0704225 C106.615385,44.6478873 49.2884615,56.971831 13.0448718,73.8732394 L13.0448718,73.8732394 Z M124.102564,31.5492958 C124.102564,39.0140845 129.461538,44.1549296 136.653846,44.1549296 C140.673077,44.1549296 143.423077,42.5352113 145.538462,41.056338 L145.538462,29.3661972 L135.948718,29.2957746 L135.948718,34.7887324 L139.685897,34.7887324 L139.685897,37.3239437 C139.051282,37.7464789 138.134615,38.1690141 136.935897,38.1690141 C134.044872,38.1690141 131.50641,35.7042254 131.50641,31.5492958 C131.50641,27.4647887 133.903846,24.6478873 137.076923,24.5774648 C138.769231,24.5774648 140.108974,25.2816901 141.096154,26.3380282 L143.282051,20.5633803 C141.589744,19.5774648 139.262821,18.6619718 136.583333,18.6619718 C129.74359,18.5915493 124.102564,24.084507 124.102564,31.5492958 L124.102564,31.5492958 Z M77.5641026,19.2253521 L77.5641026,43.4507042 C79.1858974,43.5211268 80.4551282,43.5915493 82.0769231,43.5915493 C92.5833333,43.5915493 97.3782051,39.3661972 97.3782051,31.3380282 C97.3782051,23.0985915 92.7948718,19.1549296 84.6858974,19.0140845 C81.9358974,19.084507 79.6089744,19.1549296 77.5641026,19.2253521 L77.5641026,19.2253521 Z M84.9679487,25.2112676 C85.3205128,25.2112676 85.6730769,25.1408451 86.025641,25.2112676 C87.9294872,25.4225352 90.0448718,26.9014085 90.0448718,31.3380282 C90.0448718,35.4929577 88.0705128,37.1830986 86.1666667,37.5352113 C85.7435897,37.6056338 85.3205128,37.6056338 84.9679487,37.6056338 L84.9679487,25.2112676 L84.9679487,25.2112676 Z M18.7564103,36.3380282 C18.7564103,32.9577465 16.7115385,31.056338 14.4551282,30.4225352 C16.5705128,29.5070423 17.6987179,27.6760563 17.6987179,25.4225352 C17.6987179,22.6760563 16.0064103,19.084507 7.47435897,19.084507 C5.57051282,19.084507 3.24358974,19.084507 0,19.2253521 L0,43.4507042 C2.3974359,43.5915493 4.30128205,43.6619718 7.19230769,43.6619718 C14.4551282,43.7323944 18.7564103,41.2676056 18.7564103,36.3380282 L18.7564103,36.3380282 Z M7.33333333,25.0704225 C7.68589744,25 8.17948718,25 8.6025641,25.0704225 C9.44871795,25.1408451 10.6474359,25.4929577 10.6474359,26.9014085 C10.6474359,28.0985915 9.73076923,28.5915493 8.53205128,28.8028169 C8.25,28.8028169 7.82692308,28.8732394 7.33333333,28.8028169 L7.33333333,25.0704225 L7.33333333,25.0704225 Z M8.74358974,37.7464789 L7.33333333,37.7464789 L7.33333333,33.4507042 C7.61538462,33.3802817 8.10897436,33.3802817 8.6025641,33.3802817 C9.94230769,33.4507042 10.9294872,34.2253521 10.9294872,35.6338028 C10.8589744,37.1126761 9.87179487,37.6760563 8.74358974,37.7464789 L8.74358974,37.7464789 Z M99.0705128,31.5492958 C99.0705128,39.4366197 104.358974,44.3661972 110.846154,44.3661972 C117.474359,44.3661972 122.480769,39.084507 122.480769,31.4788732 C122.480769,23.5211268 117.051282,18.7323944 110.775641,18.7323944 C104.429487,18.7323944 99.0705128,23.7323944 99.0705128,31.5492958 L99.0705128,31.5492958 Z M115.076923,31.5492958 C115.076923,35.4929577 113.314103,38.2394366 110.775641,38.2394366 C108.237179,38.2394366 106.544872,35.4929577 106.544872,31.5492958 C106.544872,27.4647887 108.237179,24.8591549 110.846154,24.8591549 C113.384615,24.8591549 115.076923,27.5352113 115.076923,31.5492958 L115.076923,31.5492958 Z M122.692308,7.95774648 L127.064103,15.915493 L131.435897,15.915493 L131.435897,0.211267606 L126.641026,0.211267606 L126.641026,8.38028169 L122.269231,0.211267606 L117.826923,0.211267606 L117.826923,15.8450704 L122.621795,15.8450704 L122.621795,7.95774648 L122.692308,7.95774648 Z M31.025641,44.1549296 C36.3141026,44.1549296 41.0384615,40.7042254 41.0384615,33.8732394 L41.0384615,19.2253521 L33.7051282,19.2253521 L33.7051282,34.2957746 C33.7051282,36.3380282 32.5064103,37.5352113 30.9551282,37.5352113 C29.3333333,37.5352113 28.2051282,36.3380282 28.2051282,34.2957746 L28.2051282,19.2253521 L20.7307692,19.2253521 L20.7307692,34.084507 C20.7307692,41.4084507 26.2307692,44.1549296 31.025641,44.1549296 L31.025641,44.1549296 Z M25.3846154,126.619718 C25.7371795,128.732394 26.3012821,130.915493 26.724359,133.028169 C61.9102564,125.422535 99.7051282,121.619718 136.653846,122.816901 C137.429487,120.633803 138.205128,118.380282 138.910256,116.126761 C100.974359,114.647887 61.4166667,118.309859 25.3846154,126.619718 L25.3846154,126.619718 Z M40.474359,15.915493 L42.8012821,6.33802817 L45.1987179,15.8450704 L49.5705128,15.8450704 L53.7307692,0.211267606 L49.2179487,0.211267606 L47.0320513,9.85915493 L44.4935897,0.211267606 L40.9679487,0.211267606 L38.5705128,9.85915493 L36.3846154,0.281690141 L31.7307692,0.281690141 L36.2435897,15.915493 L40.474359,15.915493 L40.474359,15.915493 Z M82.2179487,15.915493 L86.9423077,15.915493 L86.9423077,4.15492958 L91.0320513,4.15492958 L91.0320513,0.211267606 L78.1282051,0.211267606 L78.1282051,4.15492958 L82.2179487,4.15492958 L82.2179487,15.915493 L82.2179487,15.915493 Z M38.5,162.464789 C44.2820513,172.464789 52.1089744,181.971831 60.9230769,189.859155 C64.025641,192.605634 67.3397436,195.28169 70.9358974,197.887324 C92.6538462,188.309859 109.012821,173.661972 121.211538,154.647887 C105.416667,154.577465 89.5512821,155.422535 73.8269231,157.112676 C61.9102564,158.380282 50.0641026,160.211268 38.5,162.464789 L38.5,162.464789 Z M71.2884615,12.1830986 C70.0897436,12.1830986 68.75,11.5492958 67.6217949,10.8450704 L66.5641026,14.5774648 C67.974359,15.4225352 69.6666667,16.1267606 71.6410256,16.1267606 C74.7435897,16.1267606 77.775641,14.3661972 77.775641,10.7746479 C77.775641,7.88732394 75.8012821,6.69014085 74.1794872,6.1971831 C72.8397436,5.77464789 71.5705128,5.91549296 71.5705128,4.92957746 C71.5705128,4.22535211 72.2051282,3.94366197 73.1217949,3.94366197 C74.1794872,3.94366197 75.2371795,4.36619718 76.1538462,4.85915493 L76.7179487,1.1971831 C75.8012821,0.633802817 74.3910256,0.0704225352 72.5576923,0.0704225352 C69.8076923,0.0704225352 66.7051282,1.4084507 66.7051282,5.14084507 C66.7051282,7.81690141 68.3269231,9.29577465 69.9487179,9.85915493 C71.4294872,10.3521127 72.9102564,10.2112676 72.9102564,11.1267606 C72.9102564,11.7605634 72.275641,12.1830986 71.2884615,12.1830986 L71.2884615,12.1830986 Z M43.7179487,19.2253521 L43.7179487,43.4507042 L58.8782051,43.4507042 L58.8782051,37.3943662 L51.1217949,37.3943662 L51.1217949,19.2253521 L43.7179487,19.2253521 L43.7179487,19.2253521 Z M60.6410256,19.2253521 L60.6410256,43.4507042 L75.8012821,43.4507042 L75.8012821,37.3943662 L68.0448718,37.3943662 L68.0448718,19.2253521 L60.6410256,19.2253521 L60.6410256,19.2253521 Z M65.2948718,11.971831 L59.2307692,11.971831 L59.2307692,9.78873239 L63.5320513,9.78873239 L63.5320513,6.33802817 L59.2307692,6.33802817 L59.2307692,4.15492958 L64.8717949,4.15492958 L64.8717949,0.211267606 L54.4358974,0.211267606 L54.4358974,15.8450704 L65.224359,15.8450704 L65.224359,11.971831 L65.2948718,11.971831 Z" id="Shape" fill="#20539D"></path>
                        <path d="M61.2051282,86.4084507 L61.2051282,86.4084507 C48.4423077,88.7323944 35.8205128,91.6197183 23.4102564,95.0704225 C22.9166667,103.380282 23.0576923,114.366197 25.3846154,126.619718 C42.1666667,122.746479 59.2307692,119.929577 76.6474359,118.098592 L76.6474359,118.098592 C97.2371795,115.985915 118.038462,115.28169 138.910256,116.126761 C142.576923,104.788732 145.538462,92.6056338 147.935897,79.5774648 C118.461538,78.943662 89.4102564,81.3380282 61.2051282,86.4084507 L61.2051282,86.4084507 Z" id="Shape" fill="#BD002B"></path>
                        <g transform="translate(45.128205, 79.577465)" id="Shape">
                            <path d="M60.0064103,71.1971831 C60.0064103,71.2676056 59.9358974,71.2676056 59.9358974,71.3380282 C59.3012821,72.3239437 58.0320513,73.943662 56.6923077,75.4225352 C63.1794872,75.1408451 69.5961538,75.0704225 76.1538462,75.0704225 C82.2884615,65.5633803 87.3653846,54.9295775 91.5961538,43.3098592 C65.1538462,42.4647887 38.9935897,44.084507 13.3269231,47.8169014 C13.3269231,47.8169014 13.3269231,47.8169014 13.3269231,47.8873239 C14.2435897,49.4366197 15.1602564,50.7042254 15.724359,51.5492958 C16.9935897,53.3802817 16.0064103,54.6478873 16.1474359,55.5633803 C16.2884615,56.4084507 15.7948718,58.943662 16.5,61.6197183 C15.724359,62.6056338 14.1730769,63.8028169 13.3269231,65.6338028 C11.9166667,68.8028169 11.6346154,71.4788732 12.5512821,75.4929577 C12.3397436,76.9014085 12.2692308,78.3098592 12.4102564,79.5774648 C22.0705128,78.1690141 31.8012821,77.0422535 41.6025641,76.2676056 C41.6025641,76.2676056 41.6025641,76.1971831 41.6730769,76.1971831 C44.2115385,73.1690141 44.4935897,71.4084507 45.4807692,67.1830986 C46.1858974,63.3098592 46.8910256,64.084507 48.6538462,61.971831 C49.9230769,60.4225352 50.0641026,58.943662 49.6410256,56.4084507 L49.8525641,56.4084507 C57.9615385,55.7042254 60.3589744,54.3661972 62.5448718,53.8732394 C67.1987179,52.8873239 66.775641,55.8450704 66.8461538,56.5492958 C66.775641,57.8169014 65.8589744,60.3521127 64.0961538,63.5211268 C64.0961538,63.6619718 62.8974359,66.8309859 60.0064103,71.1971831 L60.0064103,71.1971831 Z" fill="#C8C8DF"></path>
                            <path d="M97.2371795,23.028169 C96.8141026,19.6478873 96.25,16.4788732 95.1217949,14.0140845 C93.0064103,9.36619718 87.8589744,3.87323944 83.4871795,0.0704225352 C55.4230769,0.704225352 27.8525641,4.01408451 1.12820513,9.85915493 C0.775641026,11.1267606 0.493589744,12.3943662 0.352564103,13.4507042 C0.493589744,13.8028169 0.775641026,14.4366197 1.05769231,15.0704225 C0.916666667,16.7605634 1.69230769,20.8450704 2.32692308,22.7464789 C1.97435897,23.5211268 1.97435897,24.1549296 2.11538462,24.8591549 C2.3974359,25.7746479 4.08974359,27.1830986 5.07692308,27.6760563 C5.07692308,27.6760563 5.42948718,35.1408451 11.4230769,38.5915493 C11.0705128,39.6478873 10.8589744,40.4929577 10.7884615,41.2676056 C38.0064103,37.1126761 65.9294872,35.4929577 93.9230769,36.6197183 C95.2628205,32.3943662 96.5320513,28.0985915 97.7307692,23.6619718 C97.5192308,23.4507042 97.3782051,23.2394366 97.2371795,23.028169 L97.2371795,23.028169 Z" fill="#9D192E"></path>
                        </g>
                        <g transform="translate(48.653846, 45.070423)" id="Shape">
                            <path d="M29.1923077,5.98591549 C27.3589744,5 25.1025641,4.01408451 22.1410256,3.66197183 C18.9679487,4.71830986 15.7948718,6.61971831 13.6794872,7.81690141 C12.5512821,10.2816901 10.4358974,16.1267606 10.3653846,17.1830986 C11.0705128,17.1830986 12.1282051,17.1126761 13.5384615,16.6901408 C12.974359,17.2535211 12.4102564,17.8873239 11.7051282,18.8732394 C9.30769231,19.7887324 5.92307692,21.056338 2.53846154,22.8873239 C1.62179487,23.6619718 0.634615385,24.9295775 0.282051282,26.2676056 C0.0705128205,26.9014085 0.141025641,27.6056338 0.705128205,28.028169 C1.05769231,28.3098592 1.55128205,28.5211268 2.04487179,28.6619718 L2.11538462,28.6619718 C1.76282051,30.7042254 2.46794872,33.5211268 3.24358974,34.8591549 C2.96153846,35.2816901 2.67948718,35.915493 2.3974359,36.6197183 C1.62179487,38.6619718 0.846153846,41.5492958 0.493589744,43.5915493 C0.634615385,43.943662 0.916666667,44.5774648 1.19871795,45.2112676 C1.05769231,46.9014085 1.83333333,50.9859155 2.46794872,52.8873239 C2.11538462,53.6619718 2.11538462,54.2957746 2.25641026,55 C2.53846154,55.915493 4.23076923,57.3239437 5.21794872,57.8169014 C5.21794872,57.8169014 5.57051282,65.2816901 11.5641026,68.7323944 C11,70.4929577 10.7884615,71.5492958 10.7884615,72.6760563 C10.7884615,72.7464789 10.8589744,72.8873239 10.9294872,72.9577465 C11.4935897,74.4366197 12.4807692,76.2676056 13.4679487,77.8169014 C14.3846154,79.2957746 15.3717949,80.7042254 15.9358974,81.5492958 C17.2051282,83.3802817 16.6410256,84.9295775 16.5705128,85.8450704 C16.4294872,86.7605634 16.0769231,88.943662 16.7820513,91.6197183 C16.0064103,92.6056338 14.4551282,93.8028169 13.6089744,95.6338028 C12.1987179,98.8028169 11.9166667,101.478873 12.8333333,105.492958 C11.9871795,110.774648 13.75,115.84507 17.9807692,117.394366 C20.3076923,118.239437 22.1410256,118.309859 23.0576923,118.028169 C25.525641,118.309859 27.6410256,117.323944 28.9807692,116.408451 C31.025641,115.070423 33.6346154,114.647887 36.3141026,111.338028 C37.3717949,110.070423 39.4166667,109.366197 41.9551282,106.338028 C44.4935897,103.309859 44.8461538,101.549296 45.7628205,97.3239437 C46.4679487,93.4507042 47.1730769,94.2253521 48.9358974,92.1126761 C50.2051282,90.5633803 50.3461538,89.084507 49.9230769,86.5492958 L50.1346154,86.5492958 C58.2435897,85.8450704 60.6410256,84.5070423 62.8269231,84.0140845 C67.4807692,83.028169 67.0576923,85.9859155 67.1282051,86.6901408 C67.0576923,87.9577465 66.1410256,90.4929577 64.3782051,93.6619718 C64.3782051,93.6619718 63.1794872,96.8309859 60.3589744,101.197183 C60.3589744,101.267606 60.2884615,101.267606 60.2884615,101.338028 C58.9487179,103.521127 54.224359,108.802817 52.9551282,108.873239 C48.0192308,109.084507 44.2820513,111.197183 41.9551282,116.056338 C38.9230769,116.971831 35.1153846,120.140845 34.5512821,125.140845 C34.5512821,125.211268 34.1987179,128.028169 35.8205128,130 C36.3141026,130.633803 37.3012821,131.197183 37.8653846,131.901408 C38.6410256,132.816901 39.9102564,133.028169 40.6858974,133.309859 C42.1666667,133.732394 43.7884615,133.380282 45.7628205,132.605634 C48.1602564,131.619718 52.4615385,134.71831 58.2435897,134.71831 C64.5192308,134.647887 69.5961538,134.577465 70.8653846,135.84507 C74.3205128,139.295775 79.1153846,135.774648 79.1153846,135.774648 C81.724359,133.802817 82.5,130.774648 82.7820513,129.43662 C83.9807692,123.591549 83.0641026,123.309859 82.6410256,118.943662 C82.2179487,114.577465 84.1217949,110.985915 84.8269231,109.43662 C88.5641026,101.760563 96.6730769,96.056338 100.692308,82.8169014 C104.5,70.2112676 103.160256,57.6760563 97.2371795,50.4929577 C96.8141026,47.1126761 96.5320513,46.5492958 95.4038462,44.0140845 C92.724359,38.028169 85.0384615,30.7042254 80.3141026,27.2535211 C78.1987179,24.2253521 74.8846154,21.1267606 72.4871795,19.5070423 C72.4166667,19.2253521 72.3461538,19.0140845 72.275641,18.7323944 L71.4294872,16.971831 C70.8653846,16.1267606 70.0897436,15.3521127 68.8205128,14.3661972 C67.974359,13.7323944 66.1410256,12.6056338 64.8012821,12.4647887 C65.2948718,11.7605634 65.6474359,10.4929577 65.6474359,9.71830986 C62.1217949,5.84507042 56.3397436,3.94366197 52.5320513,0.563380282 C48.8653846,0.563380282 44.0705128,0.845070423 39.5576923,1.61971831 C38.0064103,2.46478873 36.5961538,3.30985915 35.1858974,4.71830986 C33.6346154,5.07042254 30.7435897,5.56338028 29.1923077,5.98591549 L29.1923077,5.98591549 Z" fill="#213270"></path>
                            <path fill="#FFFFFF"></path>
                            <path d="M19.0384615,11.4084507 C20.0961538,10.7042254 23.974359,8.38028169 26.5128205,7.25352113 C25.5961538,6.76056338 22.3525641,6.05633803 20.3782051,5.91549296 C19.1089744,6.26760563 16.8525641,7.32394366 15.3717949,8.30985915 C16.3589744,9.01408451 18.5448718,10.6338028 19.0384615,11.4084507 L19.0384615,11.4084507 Z M32.5769231,75.3521127 C33.1410256,75.4225352 36.2435897,75.7042254 38.0769231,76.1971831 C37.3717949,74.8591549 36.3141026,73.028169 31.5897436,71.8309859 C30.5320513,71.6197183 29.8974359,71.8309859 28.9807692,71.5492958 C25.525641,70.6338028 23.2692308,71.1971831 23.2692308,71.1971831 C19.1089744,72.0422535 15.9358974,70.5633803 13.4679487,69.7183099 C13.6794872,70.6338028 13.8205128,71.8309859 14.3141026,72.7464789 C16.8525641,75.5633803 18.4038462,78.028169 19.25,78.5915493 C20.9423077,79.7183099 21.9294872,81.9014085 22.0705128,82.6056338 C20.9423077,81.4084507 20.025641,80.915493 18.474359,80.2112676 C18.5448718,82.1830986 18.6858974,83.3098592 19.0384615,84.6478873 C19.3205128,85.915493 18.2628205,88.3098592 18.0512821,90.2816901 C19.0384615,89.4366197 19.8846154,89.2253521 20.0961538,88.1690141 C20.6602564,84.7183099 22.2820513,82.3943662 26.5833333,80.7746479 C29.3333333,79.7183099 32.4358974,79.7183099 33.9871795,80.2816901 C34.5512821,80.6338028 36.8076923,79.5774648 38.8525641,80.0704225 C38.8525641,80.0704225 37.5128205,78.1690141 33.9166667,77.0422535 C31.8717949,76.4084507 28.0641026,75.8450704 25.4551282,75.915493 C27.5,75.2816901 30.6730769,75.2112676 32.5769231,75.3521127 L32.5769231,75.3521127 Z M26.0897436,105.704225 C26.9358974,104.647887 25.4551282,103.380282 25.0320513,102.535211 C24.3269231,101.126761 22.4935897,100.070423 21.3653846,101.408451 C20.3076923,102.605634 20.6602564,104.366197 21.8589744,105.070423 C24.75,106.901408 26.0897436,105.704225 26.0897436,105.704225 L26.0897436,105.704225 Z M21.7179487,115.211268 C23.9038462,114.507042 23.6923077,113.521127 23.6923077,113.521127 C23.4807692,112.957746 22.3525641,112.676056 21.7179487,112.394366 C20.6602564,111.830986 19.3910256,112.605634 19.4615385,113.732394 C19.6025641,114.71831 20.6602564,115.492958 21.7179487,115.211268 L21.7179487,115.211268 Z M15.3717949,11.1971831 C13.9615385,12.6760563 13.4679487,13.4507042 12.9038462,14.7887324 C15.1602564,14.0140845 16.5705128,13.0985915 17.4871795,12.5352113 C16.8525641,12.0422535 16.0769231,11.4084507 15.3717949,11.1971831 L15.3717949,11.1971831 Z M27.2179487,102.112676 C28.8397436,97.5352113 27.9230769,96.6901408 24.3269231,94.084507 C21.1538462,91.7605634 17.9102564,93.5915493 16.0064103,97.1126761 C14.5961538,99.7887324 14.9487179,102.394366 16.1474359,104.788732 C16.7820513,106.056338 18.2628205,107.464789 20.0961538,107.746479 C21.7884615,108.028169 24.3974359,108.028169 22.0705128,106.549296 C21.6474359,106.338028 21.1538462,106.126761 20.6602564,105.84507 C19.7435897,105.28169 19.1089744,104.295775 18.8974359,103.169014 C18.7564103,102.042254 19.1089744,100.915493 19.8141026,100.070423 C20.4487179,99.3661972 21.224359,99.0140845 22.0705128,99.0140845 C23.4807692,99.0140845 24.75,100 25.525641,101.126761 C25.6666667,101.267606 25.8076923,101.478873 25.9487179,101.690141 C26.8653846,102.957746 27.2179487,102.112676 27.2179487,102.112676 L27.2179487,102.112676 Z M32.2948718,28.1690141 C31.5192308,28.2394366 30.8846154,27.6760563 30.5320513,26.971831 C29.6858974,27.7464789 28.7692308,28.4507042 27.9935897,28.8732394 C29.1923077,28.8028169 31.8012821,28.7323944 33.1410256,28.6619718 C35.75,28.3802817 36.4551282,26.9014085 36.525641,26.3380282 C36.525641,25.7746479 36.5961538,24.7887324 35.8910256,23.8028169 C34.9038462,23.943662 34.5512821,23.943662 33.4935897,24.0140845 L33.4230769,24.084507 C33.775641,24.5070423 34.0576923,25.0704225 34.0576923,25.7042254 C34.1282051,26.971831 33.3525641,28.0985915 32.2948718,28.1690141 L32.2948718,28.1690141 Z M4.23076923,29.084507 C3.87820513,30.5633803 4.65384615,32.1830986 5.57051282,32.8873239 C6.34615385,32.3239437 7.54487179,31.6197183 8.46153846,31.1971831 C8.25,31.1267606 7.96794872,30.8450704 7.68589744,30.5633803 C7.54487179,31.1971831 7.19230769,31.6197183 6.69871795,31.6901408 C5.99358974,31.8309859 5.35897436,31.1267606 5.21794872,30.1408451 C5.1474359,29.7887324 5.21794872,29.4366197 5.28846154,29.1549296 C4.86538462,29.1549296 4.51282051,29.1549296 4.23076923,29.084507 L4.23076923,29.084507 Z M14.3846154,49.4366197 C14.3846154,49.4366197 13.8910256,49.6478873 13.2564103,50.0704225 C11.2115385,51.056338 9.87179487,52.3239437 9.02564103,54.084507 C8.95512821,54.2253521 8.95512821,54.2957746 8.88461538,54.4366197 C8.88461538,54.4366197 11.6346154,71.9014085 23.8333333,66.4084507 C26.6538462,65.7042254 31.7307692,66.1971831 34.8333333,64.2253521 C34.4102564,65.4929577 33.6346154,65.5633803 32.8589744,66.2676056 C34.8333333,66.6901408 35.4679487,67.3943662 37.0192308,66.3380282 C38.7820513,65.1408451 38.4294872,65.6338028 40.1923077,66.4788732 C41.9551282,67.3943662 45.1282051,69.084507 47.8782051,68.8732394 C49.2884615,68.5915493 50.3461538,67.8169014 51.1217949,67.0422535 C50.2051282,66.9014085 48.9358974,66.2676056 48.3012821,65.7746479 C46.8205128,64.6478873 47.1025641,62.9577465 45.974359,60.7042254 L44.9166667,59.5070423 C42.5192308,61.4084507 40.474359,62.2535211 37.3717949,63.1690141 C38.5705128,61.6197183 39.6282051,60.8450704 41.1794872,59.8591549 C42.025641,59.2957746 43.2948718,58.1690141 44.2820513,57.1830986 L43.3653846,53.943662 C42.8012821,53.5211268 42.2371795,53.028169 41.7435897,52.4647887 C38.0769231,51.1267606 34.7628205,50.5633803 31.1666667,50 L29.7564103,51.4084507 C28.5576923,49.7887324 26.1602564,47.6760563 23.4807692,46.2676056 C22.4935897,45.915493 21.224359,45.4929577 20.025641,45.2816901 C19.8846154,44.0140845 19.0384615,41.4788732 18.1923077,39.9295775 C17.7692308,40.8450704 16.6410256,42.8169014 16.1474359,45.0704225 C14.4551282,45.1408451 12.4102564,45.4225352 10.4358974,46.056338 C9.80128205,46.1971831 9.23717949,46.4084507 8.95512821,46.5492958 C8.74358974,45.9859155 7.75641026,44.5774648 6.76923077,43.4507042 C6.48717949,43.0985915 6.20512821,42.6760563 5.92307692,42.3943662 L9.80128205,44.084507 C11.4230769,43.5211268 12.9038462,43.2394366 13.9615385,43.028169 C14.525641,42.9577465 15.0897436,42.8873239 15.5833333,42.8169014 C16.3589744,41.056338 18.4038462,38.1690141 18.4038462,38.1690141 C20.1666667,39.5070423 21.3653846,41.3380282 22.3525641,44.084507 C23.4807692,42.8169014 25.0320513,41.6901408 26.5833333,41.056338 C29.3333333,39.8591549 34.4807692,38.7323944 36.7371795,39.4366197 C37.3717949,42.8169014 40.0512821,46.1971831 41.5320513,49.2957746 C42.3782051,50.6338028 43.1538462,53.0985915 43.1538462,53.0985915 L42.4487179,43.6619718 L45.8333333,55.4929577 C45.8333333,55.4929577 50.5576923,63.4507042 54.1538462,64.2253521 C55.2115385,63.943662 56.1987179,63.5915493 56.9038462,63.2394366 C58.3141026,62.3943662 60.2884615,60.2112676 61.4166667,58.028169 C61.5576923,57.6056338 61.7692308,56.6197183 61.9807692,55.5633803 C62.1217949,54.8591549 62.1923077,53.8028169 62.1923077,53.1690141 C62.8974359,54.7183099 63.25,56.1971831 63.6025641,58.3802817 C63.25,60.2816901 62.4038462,62.5352113 61.4166667,64.7183099 C63.3205128,63.7323944 65.0833333,58.8732394 65.9294872,57.2535211 C66.8461538,55.5633803 68.6794872,52.1830986 69.525641,48.5915493 C69.525641,48.1690141 69.4551282,47.6760563 69.3141026,47.1126761 C68.4679487,44.2957746 67.1282051,40.5633803 66.2115385,38.028169 C67.1282051,39.3661972 67.974359,40.5633803 68.6794872,41.7605634 C69.6666667,43.4507042 70.5128205,45.2112676 71.3589744,47.5352113 C71.4294872,50.5633803 71.3589744,53.943662 70.724359,57.2535211 C70.7948718,57.1830986 75.5192308,53.3802817 78.974359,47.8169014 C80.9487179,44.6478873 83.2051282,40.0704225 81.6538462,33.4507042 C80.9487179,30.3521127 76.224359,25.2112676 73.6153846,23.5211268 C73.474359,23.4507042 73.3333333,23.3802817 73.1923077,23.2394366 L72.6987179,21.971831 C72.5576923,21.7605634 70.5833333,18.8732394 68.5384615,17.4647887 C67.5512821,16.7605634 64.5897436,15.2816901 62.8269231,14.9295775 L61.1346154,15 C59.724359,15 57.4679487,15.1408451 55.3525641,15.3521127 C49.8525641,12.2535211 45.1987179,10.5633803 40.9679487,9.57746479 C40.4038462,9.85915493 39.9102564,10.1408451 39.4166667,10.3521127 C39.6987179,9.22535211 40.1217949,8.23943662 41.0384615,7.46478873 C41.0384615,7.46478873 47.1730769,9.64788732 50.8397436,11.6901408 C52.25,11.8309859 57.8205128,11.8309859 60.3589744,11.1971831 C60.7115385,10.915493 60.8525641,10.2112676 60.9230769,9.71830986 C60.2884615,8.73239437 57.9615385,7.67605634 54.3653846,5.63380282 C52.4615385,4.50704225 50.5576923,2.95774648 50.5576923,2.95774648 C50.5576923,2.95774648 49.1474359,2.81690141 47.7371795,2.88732394 C46.6794872,2.88732394 40.7564103,3.38028169 39.6282051,3.8028169 C39.4166667,3.87323944 38.5705128,4.22535211 38.5,4.22535211 C37.2307692,4.64788732 35.9615385,5.49295775 34.4807692,6.83098592 C33.9166667,7.18309859 33.1410256,7.53521127 32.224359,7.88732394 C29.4038462,8.8028169 25.1730769,9.92957746 23.9038462,10.4225352 C22,11.1971831 18.6153846,13.1690141 18.6153846,13.1690141 L14.5961538,18.2394366 C13.75,19.2957746 13.0448718,20.2816901 12.6217949,21.056338 C9.87179487,21.971831 6.20512821,23.5915493 4.44230769,24.7887324 C4.01923077,25.0704225 3.38461538,25.9859155 3.66666667,26.2676056 C3.94871795,26.5492958 4.37179487,26.8309859 4.72435897,26.9014085 C5.42948718,26.971831 5.99358974,26.971831 6.41666667,26.971831 C6.55769231,26.971831 6.69871795,26.971831 6.83974359,26.9014085 C7.19230769,27.5352113 7.75641026,28.3802817 8.67307692,28.6619718 C8.67307692,28.6619718 9.51923077,28.7323944 10.5769231,28.6619718 C10.9294872,28.6619718 11.3525641,28.5915493 11.7051282,28.5915493 C12.5512821,28.1690141 13.8910256,26.7605634 14.3141026,26.2676056 C14.8076923,25.6338028 15.5128205,24.5774648 16.5,23.1690141 C17.5576923,21.8309859 19.7435897,20 21.8589744,18.5211268 C22.7051282,18.028169 25.0320513,16.7605634 28.1346154,15.6338028 C26.4423077,16.4084507 21.4358974,20.6338028 19.9551282,22.6760563 C19.1089744,23.943662 18.9679487,25 18.7564103,25.915493 C18.8269231,26.1971831 19.25,26.971831 20.0961538,27.6760563 C21.5064103,27.6056338 25.0320513,26.4788732 26.4423077,26.2676056 C29.0512821,25.3521127 30.8846154,22.8873239 32.1538462,21.2676056 C33.775641,21.1971831 39.5576923,21.1267606 42.3076923,20.4929577 C43.2948718,20.915493 45.5512821,22.6760563 47.525641,24.7887324 C46.3269231,23.943662 44.4935897,23.2394366 42.8717949,22.8169014 C42.2371795,22.9577465 40.1923077,23.0985915 39.3461538,23.3098592 C39.4871795,25.4929577 38.6410256,26.8309859 37.5128205,28.0985915 C38.7115385,28.028169 40.6858974,28.1690141 43.1538462,28.0985915 C47.0320513,28.943662 50.0641026,32.4647887 50.0641026,32.4647887 C47.1025641,29.7887324 42.1666667,29.6478873 42.1666667,29.6478873 C38.7115385,29.2957746 33.1410256,29.7887324 29.3333333,30.2816901 C30.25,31.1267606 31.6602564,33.6619718 32.7884615,35.7042254 C30.1794872,32.8873239 28.4871795,32.1126761 25.6666667,30.915493 C22.8461538,29.9295775 19.4615385,29.8591549 17.9807692,29.8591549 C16.5705128,29.9295775 14.8782051,30.2112676 14.8782051,30.2112676 C8.17948718,32.1126761 4.16025641,36.1971831 3.17307692,39.8591549 C3.24358974,40.7746479 3.87820513,41.6197183 4.65384615,42.3239437 C4.72435897,43.8028169 5.21794872,46.8309859 5.99358974,48.4507042 C5.99358974,48.4507042 5.8525641,48.5915493 5.57051282,48.8732394 C5.28846154,49.084507 5.00641026,49.3661972 4.93589744,49.5774648 C4.65384615,50 4.65384615,50.7746479 4.79487179,51.3380282 C4.86538462,51.4788732 4.93589744,51.8309859 5.1474359,52.0422535 C5.1474359,52.0422535 5.8525641,52.8873239 7.40384615,52.3943662 C7.40384615,52.3943662 9.44871795,51.2676056 11.5641026,50.4225352 C12.1282051,50 13.2564103,49.6478873 14.3846154,49.4366197 L14.3846154,49.4366197 Z M37.2307692,15.3521127 C37.1602564,15.3521127 37.0192308,15.4225352 36.9487179,15.4225352 L38.0769231,15.9859155 C31.5192308,16.3380282 26.5833333,19.4366197 26.5833333,19.4366197 C28.7692308,17.4647887 30.8846154,16.1267606 32.9294872,15.3521127 C32.9294872,15.3521127 37.9358974,14.084507 42.8012821,14.5774648 C40.5448718,14.6478873 39.3461538,14.8591549 37.2307692,15.3521127 L37.2307692,15.3521127 Z M49.5705128,15.7746479 C54.8589744,17.1126761 58.2435897,18.3802817 60.2884615,19.5774648 C62.2628205,22.4647887 63.9551282,25.4225352 64.8012821,28.3802817 C60.7820513,23.1690141 56.4807692,18.8732394 49.5705128,15.7746479 L49.5705128,15.7746479 Z M7.8974359,34.8591549 C10.1538462,33.7323944 12.8333333,33.0985915 15.6538462,33.4507042 L15.9358974,34.0140845 C14.525641,35 12.1987179,38.3098592 11.8461538,39.084507 C11.2115385,39.3661972 8.95512821,39.7887324 8.46153846,39.7183099 C8.10897436,38.5211268 7.68589744,36.056338 7.8974359,34.8591549 L7.8974359,34.8591549 Z M70.1602564,77.8169014 C70.8653846,77.6056338 71.5,77.3943662 71.9935897,77.1830986 C71.9230769,72.6760563 70.2307692,69.9295775 66.775641,67.6056338 C63.3205128,70.6338028 60.9230769,72.6760563 58.1025641,74.1549296 C56.6217949,74.9295775 55,75.5633803 52.8141026,76.1267606 C51.6153846,76.4084507 50.5576923,76.6901408 49.5,76.8309859 C51.8269231,76.1971831 54.1538462,74.6478873 55.8461538,72.9577465 C56.5512821,72.2535211 57.1858974,71.5492958 57.6089744,70.915493 C56.9038462,71.6197183 55.9871795,72.1830986 55,72.5352113 C54.4358974,72.7464789 53.8717949,72.8169014 53.2371795,72.8873239 C53.5897436,72.6760563 54.0128205,72.3943662 54.2948718,72.1830986 C55.9871795,70.915493 56.974359,69.2957746 57.3974359,67.0422535 C55.9166667,69.5070423 53.8012821,70.8450704 51.9679487,70.915493 C51.9679487,70.915493 51.8974359,70.915493 51.8974359,70.9859155 C50.3461538,72.0422535 48.1602564,72.6760563 46.5384615,72.7464789 C42.0961538,72.8873239 40.6858974,73.0985915 40.6858974,73.0985915 C41.1794872,73.7323944 43.2948718,77.6056338 43.6474359,79.2253521 C45.974359,80.1408451 48.0192308,82.6056338 49.0064103,83.8732394 C54.5769231,83.5211268 60.5,81.971831 65.2948718,80.6338028 C62.4038462,80.2112676 59.9358974,81.4084507 56.3397436,80.915493 C59.1602564,80.6338028 61.6987179,79.8591549 62.8974359,79.5070423 C65.0833333,78.8028169 65.224359,76.6901408 61.8397436,74.084507 C65.7884615,74.7183099 68.6794872,75.8450704 70.1602564,77.8169014 L70.1602564,77.8169014 Z M20.5897436,110.28169 C20.7307692,110.28169 20.9423077,110.28169 21.0833333,110.352113 C21.1538462,110.140845 20.8012821,109.859155 19.9551282,109.788732 C17.8397436,109.647887 15.9358974,108.169014 15.0897436,105.704225 C14.0320513,107.887324 14.7371795,112.394366 16.3589744,114.225352 C17.4166667,115.422535 18.9679487,115.84507 19.1794872,115.633803 C18.3333333,115.140845 17.7692308,114.295775 17.6987179,113.309859 C17.6282051,112.535211 17.8397436,111.830986 18.4038462,111.267606 C19.0384615,110.633803 19.8141026,110.28169 20.5897436,110.28169 L20.5897436,110.28169 Z M44,88.028169 C44.5641026,88.3802817 45.4807692,89.1549296 46.0448718,89.0140845 C46.0448718,89.0140845 47.0320513,88.5915493 46.3269231,86.4084507 C46.0448718,85.4225352 44.7051282,84.9295775 43.8589744,85.4225352 C42.8717949,85.9859155 42.9423077,87.4647887 44,88.028169 L44,88.028169 Z M32.0833333,87.9577465 C30.6025641,88.943662 31.4487179,90.8450704 32.7179487,91.7605634 C33.4935897,92.2535211 34.5512821,93.943662 35.6794872,93.2394366 C35.6794872,93.2394366 37.0897436,92.0422535 35.6089744,88.943662 C35.1153846,87.6760563 33.4230769,87.1126761 32.0833333,87.9577465 L32.0833333,87.9577465 Z M42.4487179,84.4366197 C42.9423077,84.0140845 43.6474359,83.8028169 44.3525641,83.8028169 L44.775641,83.8028169 C41.4615385,81.1971831 36.1025641,81.3380282 34.6217949,82.6056338 C34.4807692,82.5352113 34.2692308,82.4647887 34.1282051,82.3943662 C33.0705128,82.0422535 28.6282051,81.3380282 25.8782051,83.6619718 C23.0576923,86.1267606 21.0833333,90.0704225 24.75,92.8873239 C27.2179487,94.7887324 29.6153846,96.1267606 32.3653846,93.8028169 C32.5769231,93.6619718 31.5192308,92.8873239 30.8141026,91.7605634 C29.9679487,90.915493 29.5448718,89.7887324 29.5448718,88.8028169 C29.5448718,87.8169014 30.0384615,86.9014085 30.9551282,86.3380282 C31.5897436,85.915493 32.3653846,85.7042254 33.0705128,85.7042254 C34.1282051,85.7042254 35.1153846,86.1267606 35.8205128,86.9014085 C36.0320513,87.0422535 36.2435897,87.2535211 36.4551282,87.4647887 C38.9935897,90.5633803 38.2884615,87.1126761 37.5128205,85.4225352 C37.0897436,84.5774648 36.5961538,83.943662 36.0320513,83.4507042 C36.8782051,83.5915493 37.9358974,84.2957746 38.5705128,85.0704225 C39.2051282,85.915493 39.6282051,87.0422535 40.474359,87.8873239 C41.3910256,88.8028169 41.8141026,88.5211268 41.8846154,87.9577465 C41.6730769,87.6760563 41.6025641,87.3239437 41.5320513,86.971831 C41.3205128,86.056338 41.6730769,85.0704225 42.4487179,84.4366197 L42.4487179,84.4366197 Z M51.1923077,112.394366 C51.1923077,112.394366 46.6794872,112.464789 44.3525641,116.901408 C44.3525641,116.901408 44.1410256,117.394366 43.8589744,118.239437 C43.7179487,118.239437 43.5769231,118.309859 43.4358974,118.309859 C38.7820513,119.507042 36.525641,123.521127 36.4551282,125.985915 C36.4551282,127.253521 36.525641,128.873239 37.3012821,129.43662 L37.3012821,129.43662 C37.2307692,129.014085 37.2307692,128.591549 37.3012821,128.169014 C37.5128205,127.253521 38.1474359,126.478873 38.9230769,126.056338 C39.275641,125.915493 39.6987179,125.774648 40.0512821,125.774648 C40.8269231,125.774648 41.6025641,126.126761 42.1666667,126.760563 C42.4487179,127.112676 42.6602564,127.464789 42.8012821,127.816901 C43.1538462,127.746479 43.2948718,127.253521 43.1538462,126.619718 C42.6602564,124.788732 42.5192308,123.239437 43.2948718,120.84507 C43.1538462,122.957746 43.2948718,125.774648 45.4807692,127.535211 C45.4807692,127.535211 46.1858974,127.957746 46.4679487,127.746479 C46.3269231,127.253521 46.1858974,126.690141 46.0448718,125.985915 C45.9038462,124.929577 46.2564103,123.802817 46.9615385,122.957746 C47.6666667,122.112676 48.724359,121.619718 49.8525641,121.619718 L49.9935897,121.619718 C51.0512821,121.619718 51.8974359,122.112676 52.4615385,122.957746 C53.1666667,124.014085 53.2371795,125.704225 52.6730769,127.112676 C52.6025641,127.253521 52.5320513,127.535211 52.4615385,127.816901 L52.4615385,127.816901 C53.1666667,127.887324 54.0128205,127.816901 54.7179487,127.183099 C54.7179487,127.183099 57.8205128,125.28169 57.1858974,116.690141 C57.2564103,116.760563 56.6217949,111.478873 51.1923077,112.394366 L51.1923077,112.394366 Z M49.9230769,123.661972 C48.3717949,123.591549 47.2435897,125 47.4551282,126.408451 C47.9487179,129.788732 49.7115385,130.070423 49.7115385,130.070423 C51.0512821,130.070423 51.0512821,128.098592 51.474359,127.183099 C52.0384615,125.774648 51.7564103,123.661972 49.9230769,123.661972 L49.9230769,123.661972 Z M39.4871795,127.676056 C38.6410256,128.239437 38.4294872,129.577465 39.1346154,130.28169 C40.7564103,131.901408 41.6025641,131.267606 41.6025641,131.267606 C42.025641,130.84507 41.7435897,129.71831 41.7435897,129.014085 C41.6730769,127.887324 40.4038462,127.112676 39.4871795,127.676056 L39.4871795,127.676056 Z M41.3910256,100.56338 C41.8846154,97.3239437 45.5512821,90.4929577 41.3910256,94.9295775 C38.9935897,97.4647887 36.7371795,98.2394366 33.9871795,100.070423 C30.1089744,102.676056 32.5769231,105.704225 31.9423077,107.605634 C31.6602564,108.450704 31.8717949,108.028169 30.8141026,109.295775 C29.0512821,111.619718 26.0897436,112.112676 27.5,112.957746 C28.9102564,113.802817 29.1217949,112.957746 30.3205128,112.746479 C31.0961538,112.605634 32.0833333,111.901408 32.4358974,111.056338 C32.9294872,109.647887 33.8461538,107.323944 36.5961538,106.478873 C39.3461538,105.633803 40.8269231,103.802817 41.3910256,100.56338 L41.3910256,100.56338 Z M99.0705128,69.2253521 C99.0705128,66.6901408 99.0705128,65.915493 98.2948718,62.4647887 C96.5320513,54.7887324 91.0320513,47.1126761 85.3205128,41.1971831 C88.5641026,42.8169014 90.8205128,44.4366197 93.2884615,48.0985915 C92.7948718,42.8169014 87.0128205,34.9295775 81.9358974,31.1971831 C83.275641,33.8732394 83.6987179,36.5492958 83.7692308,39.0140845 C83.8397436,41.2676056 83.4166667,44.0140845 82.9935897,45.7042254 C82.1474359,49.0140845 81.2307692,52.6056338 78.4102564,55.2816901 C76.2948718,56.9014085 74.0384615,59.0140845 71.9935897,60.3521127 L68.6089744,62.9577465 C66.4935897,64.7183099 64.8717949,66.2676056 64.1666667,68.0985915 C66.2820513,66.3380282 70.5128205,62.3239437 74.8846154,61.1971831 C73.9679487,62.0422535 72.6282051,63.4507042 69.8782051,65.6338028 C71.0064103,65.915493 71.8525641,66.6197183 72.6282051,67.9577465 C73.9679487,70.1408451 74.3205128,73.3802817 73.8269231,76.4788732 C76.1538462,75.3521127 79.6089744,69.7887324 80.1730769,65.3521127 C80.4551282,63.0985915 80.7371795,61.6901408 80.7371795,61.6901408 C80.7371795,61.6901408 80.9487179,62.6056338 81.1602564,65.0704225 C81.5128205,70.0704225 79.6089744,75.4929577 77.5641026,78.943662 C76.5064103,80.7042254 74.5320513,81.4084507 73.6858974,82.6056338 C72.8397436,83.8028169 73.1217949,84.6478873 72.8397436,86.6197183 C72.4166667,89.7887324 69.525641,92.1830986 71.1474359,92.0422535 C72.2051282,91.971831 74.4615385,92.0422535 75.4487179,93.028169 C73.474359,92.3943662 68.6089744,93.8732394 66.2115385,97.6056338 C65.5064103,98.6619718 63.9551282,101.338028 63.9551282,101.338028 C63.9551282,101.338028 62.1217949,104.788732 58.5961538,107.887324 C56.1987179,110.070423 56.6217949,110.211268 57.1153846,110.352113 C57.1858974,110.352113 57.2564103,110.422535 57.3269231,110.422535 C60.3589744,108.943662 62.6153846,107.112676 63.8141026,105.774648 C64.5192308,105 64.9423077,104.577465 64.9423077,104.577465 C64.9423077,104.577465 64.7307692,105.140845 64.1666667,106.056338 C63.0384615,107.816901 62.1923077,109.43662 59.3012821,111.690141 C67.4807692,110.070423 73.474359,116.126761 74.3205128,121.901408 C76.0833333,122.394366 77.775641,123.169014 78.6923077,124.647887 C80.6666667,120.774648 79.5384615,116.126761 79.3269231,112.535211 C79.1153846,109.577465 79.9615385,105.352113 82.0769231,100.985915 C81.5128205,103.380282 81.1602564,105.633803 81.0897436,107.676056 C82.3589744,103.661972 87.0833333,99.2253521 90.3974359,95.6338028 C93.9935897,91.971831 96.5320513,86.1267606 97.3076923,81.6197183 C98.3653846,75.915493 98.5064103,70.4929577 95.2628205,61.4788732 C97.3076923,63.943662 98.4358974,66.4788732 99.0705128,69.2253521 L99.0705128,69.2253521 Z M63.8846154,125.84507 C62.1923077,125.28169 61.2051282,127.112676 61.275641,128.661972 C61.3461538,129.577465 60.6410256,131.478873 61.9102564,131.901408 C61.9102564,131.901408 63.6730769,132.253521 65.2948718,129.225352 C66,127.957746 65.3653846,126.338028 63.8846154,125.84507 L63.8846154,125.84507 Z M74.3205128,124.15493 C72.9102564,123.239437 71.6410256,122.957746 70.7948718,123.028169 L70.7948718,122.535211 C70.724359,119.71831 68.3269231,114.084507 62.1217949,114.15493 C59.5128205,114.15493 58.7371795,116.619718 58.4551282,118.450704 C58.1025641,121.056338 58.0320513,124.15493 58.1025641,124.929577 C58.2435897,125.84507 58.1025641,127.183099 58.9487179,127.957746 C59.3717949,128.309859 60.0064103,128.591549 60.0769231,128.028169 C60.1474359,127.042254 60.3589744,125.774648 60.9230769,125.140845 C61.4871795,124.507042 62.3333333,123.943662 63.1794872,123.943662 C63.4615385,123.943662 63.6730769,123.943662 63.9551282,124.014085 C65.0833333,124.295775 66.0705128,125.070423 66.5641026,126.126761 C67.0576923,127.112676 67.1282051,128.450704 66.7051282,129.507042 C66.4935897,130 66.2820513,130.422535 66,130.84507 C66,130.985915 66.0705128,131.056338 66.1410256,131.126761 C67.1282051,131.267606 68.8205128,130.492958 69.4551282,129.507042 C70.2307692,128.309859 70.5833333,126.830986 70.724359,125.140845 C71.7115385,126.338028 71.3589744,129.15493 71.2179487,130.070423 C71.0769231,130.774648 70.8653846,132.042254 71.2884615,132.816901 C71.5705128,133.450704 72.275641,133.661972 72.6282051,133.450704 L72.6282051,133.380282 C72.4166667,132.605634 72.6282051,131.760563 73.1217949,131.056338 C73.6153846,130.422535 74.3205128,129.929577 75.0961538,129.859155 C75.5192308,129.788732 75.8717949,129.859155 76.2948718,130 C77.1410256,130.28169 77.6346154,130.985915 77.9871795,131.901408 C78.1282051,132.323944 78.1987179,132.746479 78.1282051,133.169014 C78.4102564,133.309859 78.6217949,133.028169 78.7628205,132.464789 C79.8205128,128.521127 76.7179487,125.704225 74.3205128,124.15493 L74.3205128,124.15493 Z M75.9423077,131.478873 C74.9551282,130.985915 73.7564103,131.830986 73.8269231,133.028169 C73.8974359,133.732394 73.6153846,134.859155 74.1089744,135.28169 C74.1089744,135.28169 74.9551282,135.84507 76.4358974,134.084507 C77.1410256,133.239437 76.7884615,131.971831 75.9423077,131.478873 L75.9423077,131.478873 Z M31.5192308,42.8873239 C32.4358974,43.4507042 33.9166667,44.6478873 34.8333333,45.915493 C34.974359,45.7042254 35.1858974,45.4929577 35.3269231,45.1408451 C34.6923077,44.5774648 33.0705128,42.8169014 32.5064103,41.9014085 C31.3076923,42.1126761 28.9807692,42.5352113 27.0769231,43.0985915 C26.5833333,43.3098592 25.8782051,43.7323944 25.5961538,43.8732394 C26.3012821,44.4366197 27.9230769,45.4225352 29.9679487,45.915493 C30.7435897,44.7183099 31.2371795,43.5915493 31.5192308,42.8873239 L31.5192308,42.8873239 Z M31.1666667,48.5915493 C32.4358974,48.7323944 36.2435897,49.2253521 39.275641,49.7887324 C38.2884615,49.084507 36.9487179,47.1126761 36.3141026,46.1971831 C35.75,46.9014085 35.2564103,47.6056338 34.4807692,48.3098592 C34.0576923,47.4647887 32.8589744,45.9859155 31.4487179,45.2816901 C31.1666667,46.1267606 30.6730769,46.971831 30.25,47.7464789 C28.9807692,47.3943662 27.3589744,46.5492958 26.4423077,45.915493 C26.1602564,45.9859155 25.8076923,46.1971831 25.7371795,46.2676056 C26.8653846,46.8309859 28.6987179,47.8169014 30.25,49.2957746 L31.1666667,48.5915493 L31.1666667,48.5915493 Z" fill="#FFFFFF"></path>
                        </g>
                    </g>
                </g>
            </g>
        </g>
    </g>
</svg>