<?xml version="1.0" encoding="UTF-8" standalone="no"?>
<svg width="294px" height="200px" viewBox="0 0 294 200" version="1.1" xmlns="http://www.w3.org/2000/svg" xmlns:xlink="http://www.w3.org/1999/xlink">
    <!-- Generator: sketchtool 3.8.3 (29802) - http://www.bohemiancoding.com/sketch -->
    <title>C3AA0C3F-0B31-49AD-B70E-EF12047A8893</title>
    <desc>Created with sketchtool.</desc>
    <defs>
        <polygon id="path-1" points="0 0.093255132 293.886156 0.093255132 293.886156 200 0 200"></polygon>
        <polyline id="path-3" points="0 0.093255132 293.886156 0.093255132 293.886156 200 0 200"></polyline>
    </defs>
    <g id="Page-1" stroke="none" stroke-width="1" fill="none" fill-rule="evenodd">
        <g id="FULL-LOGO" transform="translate(-370.000000, -387.000000)">
            <g id="icon_club_Adelaide" transform="translate(370.000000, 387.000000)">
                <g id="Group-3">
                    <mask id="mask-2" fill="white">
                        <use xlink:href="#path-1"></use>
                    </mask>
                    <g id="Clip-2"></g>
                    <path d="M256.509601,180.144516 L253.275014,184.523988 C253.275014,184.523988 253.646475,185.451848 252.718116,190.277654 C251.789757,195.104047 246.045314,200.017243 238.616679,200.000235 C227.126032,199.973842 179.740978,200.000235 163.414883,200.000235 C149.319901,200.000235 153.101996,188.180293 154.598404,184.545689 C152.474679,184.335132 149.235398,184.653021 149.235398,184.653021 C152.039841,182.80434 152.815038,182.615484 152.97935,182.599648 C147.774787,182.674721 144.913422,183.748622 144.913422,183.748622 C146.645146,182.221349 148.298236,181.053021 149.789949,180.160352 L115.045721,180.165044 L115.942392,178.150381 C115.942392,178.150381 112.811086,180.119296 109.839984,180.119296 L47.1733856,180.129853 L64.5798287,155.197302 L58.1599485,156.497595 L64.1954575,149.906979 L53.9811581,152.413724 C53.9811581,152.413724 65.8280084,138.235425 80.0362479,138.389091 C83.1910263,138.423109 106.807266,138.389091 116.158931,138.389091 C128.361398,138.389091 128.949984,141.160938 128.972871,141.546862 C128.941182,138.631906 125.758236,138.36739 125.758236,138.36739 L176.945925,138.36739 L180.367709,138.389091 L241.759134,138.389091 L283.919673,143.254194 L272.696032,180.140997 L256.509601,180.144516 Z" id="Fill-1" fill="#002C5A" mask="url(#mask-2)"></path>
                </g>
                <g id="Group-6">
                    <mask id="mask-4" fill="white">
                        <use xlink:href="#path-3"></use>
                    </mask>
                    <g id="Clip-5"></g>
                    <path d="M0,35.2859238 C0,35.2859238 145.479533,-65.1363636 253.631629,73.2923754 C253.631629,73.2923754 313.638731,111.648974 287.122982,163.254839 L281.54285,147.214956 C281.54285,147.214956 257.120898,146.864809 226.069569,134.66129 C195.021174,122.457771 168.855174,132.569795 168.855174,132.569795 C168.855174,132.569795 169.553497,125.595601 175.484551,120.366276 C175.484551,120.366276 147.573916,130.8261 144.085234,139.195015 C144.085234,139.195015 145.479533,124.54868 152.10891,116.879472 C152.10891,116.879472 136.059796,120.71349 121.756491,130.47654 C121.756491,130.47654 124.896599,115.135777 139.55024,105.721701 C139.55024,105.721701 107.802347,106.067742 76.0556287,123.155718 C76.0556287,123.155718 98.7305988,80.9651026 133.966587,67.016129 C133.966587,67.016129 105.011401,57.6026393 65.936982,62.4835777 C65.936982,62.4835777 84.4284671,41.5621701 113.733401,37.726393 C113.733401,37.726393 49.192479,24.8249267 0,35.2859238" id="Fill-4" fill="#002C5A" mask="url(#mask-4)"></path>
                </g>
                <path d="M184.379782,163.267449 L189.278022,163.267449 L189.586692,157.62346 C189.648309,156.269208 189.861327,154.867449 190.051459,153.509677 L184.379782,163.267449 Z M239.107794,159.300293 C240.492704,154.802933 238.35959,152.88915 233.907926,152.892669 L233.219578,152.878592 L229.338309,165.278006 L230.093554,165.280352 C234.150872,165.283871 237.814429,163.502053 239.107794,159.300293 L239.107794,159.300293 Z M179.131794,153.441056 L179.381782,152.917889 C179.911099,151.841056 180.198644,150.950733 180.29195,150.218768 C177.040932,150.019355 172.400309,151.7261 172.400309,151.7261 C174.629662,150.112023 176.998093,148.77654 179.426968,147.797067 C176.80092,145.917302 169.334728,148.66217 169.334728,148.66217 C175.055698,144.452199 180.637004,142.79824 188.38898,142.79824 C193.838836,142.79824 191.245063,142.808211 191.245063,142.808211 L199.774584,142.808211 L201.568513,170.196481 L209.97656,142.863343 L221.988896,142.869208 L227.469267,142.871554 L236.457099,142.876833 C245.960752,142.876833 252.567243,146.234604 252.227471,154.340176 L254.485578,147.004106 L254.8588,145.84868 C255.011962,145.201173 255.098225,144.424633 254.849411,143.872727 C254.401662,142.890909 253.342441,142.832258 253.342441,142.832258 L259.10801,142.886217 L278.347111,142.893255 L275.65886,151.634604 L265.371207,151.632258 L264.431111,154.683871 L273.825614,154.689736 L271.271159,163.006452 L261.873722,163.006452 L260.905459,166.139003 L271.549902,166.14956 L268.862824,174.886804 L245.922022,174.878592 L249.2728,163.948974 C245.270057,170.757771 237.779219,174.877419 229.638177,174.871554 L214.182932,174.860411 L223.341531,145.09912 C223.386716,144.653959 223.364417,144.21173 223.202453,143.860997 C222.958333,143.303226 222.507063,143.045161 222.160249,142.923754 L212.336189,174.866862 L201.880704,174.860411 L200.132549,174.859238 L188.96583,174.853372 L189.078501,170.868035 L179.860046,170.86217 L177.650057,174.84868 L169.880477,174.84868 L164.739878,174.845161 L147.429674,174.837537 L157.278968,142.839296 L169.481435,142.847507 L162.795722,164.571261 L171.640369,164.57478 L179.131794,153.441056 Z M79.4540575,142.79824 L80.5731353,142.79824 L82.7731473,142.809384 L93.9422132,142.816422 L95.3054108,163.206452 L100.762896,145.468035 C100.867351,144.895601 100.89904,144.270968 100.687195,143.807038 C100.242968,142.82346 99.1802251,142.767155 99.1802251,142.767155 L104.947554,142.821114 L114.004046,142.82522 C124.186069,142.827566 131.040201,146.680352 129.592501,156.090909 L132.839998,145.551906 C132.954429,144.965396 132.99492,144.304399 132.778381,143.824633 C132.332393,142.838123 131.26965,142.781818 131.26965,142.781818 L137.041674,142.832258 L156.254956,142.839296 L153.563183,151.584164 L143.276117,151.578299 L142.334848,154.633431 L151.730525,154.638123 L149.176069,162.956012 L139.777459,162.950147 L138.810369,166.089736 L149.455986,166.096774 L146.7648,174.837537 L123.831626,174.826979 L127.711135,162.219355 C124.010608,170.018182 115.975782,174.822287 107.18571,174.818768 L96.0776743,174.815249 L91.7304647,174.816422 L83.1610395,174.809971 L83.2760575,170.821114 L74.058776,170.817595 L71.8505485,174.80176 L58.9327401,174.80176 L73.5764048,153.028739 L73.6303928,152.917889 C74.1597102,151.841056 74.4478419,150.950733 74.5411473,150.218768 C71.2901293,150.019355 66.6483329,151.7261 66.6483329,151.7261 C68.8776862,150.112023 71.2461174,148.77654 73.6749916,147.795894 C71.0489437,145.917302 63.5827521,148.66217 63.5827521,148.66217 C68.5214826,145.08915 74.004788,142.79824 79.4540575,142.79824 L79.4540575,142.79824 Z M78.5767521,163.222874 L83.4749916,163.224047 L83.7865964,157.582405 C83.8464527,156.221114 84.0577102,154.819355 84.2537102,153.461584 L78.5767521,163.222874 Z M116.65298,159.247507 C118.038477,154.752493 115.908884,152.843402 111.454285,152.837537 L110.698453,152.83871 L106.884081,165.226393 L107.640501,165.228739 C111.698992,165.231085 115.363722,163.44868 116.65298,159.247507 L116.65298,159.247507 Z" id="Fill-7" fill="#DA1D2A"></path>
                <path d="M40.1978982,23.5397067 C40.1978982,23.5397067 166.554521,-33.8919648 247.496653,79.1191789 C247.496653,79.1191789 296.925623,114.010674 286.731275,145.195425 C286.731275,145.195425 285.496593,137.786041 283.024293,131.300411 C280.553168,124.81654 243.481587,93.9397067 206.099575,87.4552493 L211.967838,105.36434 L213.204281,94.5567155 C213.204281,94.5567155 231.739778,119.261114 275.920174,136.551437 C275.920174,136.551437 272.521275,142.724457 243.172329,132.536188 C213.822796,122.347918 202.392006,118.024751 188.798174,120.186628 C188.798174,120.186628 198.68385,112.157302 213.511778,114.318006 C213.511778,114.318006 196.212725,105.672845 162.229024,117.404809 C162.229024,117.404809 171.188689,107.832962 182.000964,106.599531 C182.000964,106.599531 166.863192,102.584282 137.204988,116.787801 C137.204988,116.787801 153.887874,100.422405 169.334317,98.2622874 C169.334317,98.2622874 134.115934,92.0863343 97.353024,105.981935 C97.353024,105.981935 110.946269,80.9707918 160.375826,63.3719648 C160.375826,63.3719648 127.319311,52.8734311 85.3025449,54.7268035 C85.3025449,54.7268035 112.180952,38.6693255 143.075012,40.5221114 C143.075012,40.5221114 108.47397,18.9097947 40.1978982,23.5397067" id="Fill-9" fill="#00498E"></path>
                <path d="M183.302428,29.6900293 C184.251326,30.0249267 161.664966,15.0595308 131.753841,12.8348974 C101.842128,10.6096774 67.4769904,16.3328446 67.4769904,16.3328446 C67.4769904,16.3328446 127.298068,9.97331378 183.302428,29.6900293" id="Fill-11" fill="#00498E"></path>
                <path d="M284.170659,123.507331 C284.170659,123.507331 272.079689,102.835191 258.397832,91.7043988 L244.714216,80.5747801 L246.306275,88.5243402 C246.306275,88.5243402 269.215976,105.69912 284.170659,123.507331" id="Fill-13" fill="#40629D"></path>
                <path d="M183.302428,29.6900293 C184.251326,30.0249267 161.664966,15.0595308 131.753841,12.8348974 C101.842128,10.6096774 67.4769904,16.3328446 67.4769904,16.3328446 C67.4769904,16.3328446 127.298068,9.97331378 183.302428,29.6900293" id="Fill-15" fill="#40629D"></path>
                <path d="M116.984184,47.3194135 C119.131382,46.5123754 141.531131,36.6185337 167.546903,48.9980059 C167.546903,48.9980059 144.690017,44.2408211 116.984184,47.3194135" id="Fill-17" fill="#40629D"></path>
                <path d="M211.369804,56.0454545 C211.080498,56.1434018 200.789325,60.3651026 204.879504,68.5392962 C208.460319,75.6964809 221.878103,73.840176 222.513049,64.5680352" id="Fill-19" fill="#FCCE00"></path>
                <path d="M214.711369,58.1429326 C214.711369,58.1429326 198.206291,55.1781232 188.09762,55.084868 C188.09762,55.084868 200.661572,58.6062757 203.988878,63.8496774 C203.988878,63.8496774 204.882614,55.82739 214.711369,58.1429326" id="Fill-21" fill="#002C5A"></path>
                <path d="M224.449048,65.0834018 C224.449048,65.0834018 226.438976,71.1226979 222.361707,74.0880938 C218.280916,77.0546628 205.348437,79.8194721 203.029886,66.5672727 C203.029886,66.5672727 207.361251,75.6452786 217.003395,72.0306158 C226.646126,68.4171261 217.281551,58.3543695 217.281551,58.3543695 L224.449048,65.0834018 Z" id="Fill-23" fill="#002C5A"></path>
                <path d="M218.374456,60.8896188 L213.601211,55.1664516 L209.707031,60.7283284 C209.707031,60.7283284 207.758768,63.2280352 209.427115,65.4532551 C211.097223,67.6790616 212.764396,69.0696774 216.382181,67.4010557 C219.998792,65.7318475 218.374456,60.8896188 218.374456,60.8896188" id="Fill-25" fill="#002C5A"></path>
                <path d="M212.811108,56.9965396 C212.601611,57.0663343 205.300317,60.0563636 208.153467,65.963695 C211.002509,71.8727859 219.836006,69.7185337 220.808964,63.1144282 C221.781335,56.5114956 219.355982,61.2651613 219.355982,61.2651613 C219.355982,61.2651613 216.837323,69.563695 211.804114,66.4628152 C207.332497,63.706217 211.699072,57.9707331 215.384341,58.9431672 C219.071371,59.9173607 212.811108,56.9965396 212.811108,56.9965396" id="Fill-27" fill="#DA1D2A"></path>
                <path d="M232.080079,77.4917889 C232.080079,77.4917889 234.074115,52.9152493 186.988343,45.2507331 C186.988343,45.2507331 221.906857,61.4478006 232.080079,77.4917889" id="Fill-29" fill="#002C5A"></path>
                <path d="M183.446846,184.42651 C182.931025,185.805982 181.707492,185.97783 180.549684,185.975484 L180.059684,185.974311 L181.236857,182.820645 L181.777911,182.821818 C182.988534,182.824164 183.980271,183.000117 183.446846,184.42651 M190.433013,184.222405 C192.179995,179.54088 189.132606,177.759648 184.753708,177.749091 L177.537504,177.732082 L175.199588,177.706862 C175.199588,177.706862 175.61154,177.696305 175.771157,178.114487 C175.877372,178.393079 175.789935,178.831789 175.699564,179.147918 L169.292007,196.304516 L176.195432,196.320352 L178.420678,190.359062 L178.550366,190.359062 L179.415349,196.326217 L187.55463,196.345572 L185.584067,190.300997 C185.399804,189.759062 185.072941,189.461114 184.813564,189.18956 L184.868726,189.042933 C187.808139,188.210088 189.383768,187.031202 190.433013,184.222405" id="Fill-31" fill="#FCCE00"></path>
                <path d="M200.785158,183.605161 C203.025074,183.611026 203.800272,185.263812 203.064978,187.235073 C202.273937,189.353548 200.235889,190.804575 198.098667,190.799296 C195.960859,190.794604 195.009613,189.337126 195.800655,187.218065 C196.537709,185.247977 198.544655,183.600469 200.785158,183.605161 M203.066739,177.49607 C197.168547,177.483167 190.908871,181.263812 188.729398,187.103695 C186.500631,193.064985 189.984619,196.646804 195.908631,196.662053 C201.832643,196.675543 207.984344,193.114252 210.210176,187.151789 C212.390823,181.313079 208.964344,177.50956 203.066739,177.49607" id="Fill-33" fill="#FCCE00"></path>
                <path d="M210.199613,177.80651 L210.062883,196.397126 L216.063769,196.411202 L220.648643,189.109736 C221.221386,188.197713 221.718428,187.277478 222.153853,186.316774 L222.385062,186.316774 L220.829386,196.422346 L226.98402,196.437595 L240.821972,177.821173 L233.486643,177.787155 L228.559062,185.664575 C227.905925,186.723226 227.352547,187.856364 226.846116,188.940821 L226.690607,188.939648 L228.193469,177.810029 L222.80699,177.798299 L217.846547,185.492727 C217.124164,186.601818 216.527949,187.785396 215.975158,188.916774 L215.821996,188.914428 L217.514404,177.798299 L210.199613,177.80651 Z" id="Fill-35" fill="#FCCE00"></path>
                <path d="M231.39983,195.039824 C233.193171,196.1061 235.787531,196.751261 238.234596,196.757126 C242.433926,196.767097 247.475938,194.586452 249.134896,190.150674 C250.309722,186.998182 248.716489,185.46563 245.968381,184.818123 L244.498381,184.46915 C244.00486,184.344223 243.166872,184.24217 243.422141,183.553607 C243.709686,182.790557 244.69262,182.570616 245.312309,182.571789 C246.829842,182.576481 247.965938,183.196422 248.883734,183.985279 L252.564309,179.235132 C251.072596,178.122522 249.229962,177.602874 247.015279,177.597009 C242.790716,177.586452 237.672417,180.040411 236.025195,184.448035 C234.939566,187.355367 236.679507,188.914897 239.259782,189.387625 L240.583662,189.638651 C241.183399,189.762405 242.083004,189.840411 241.769638,190.676774 C241.457447,191.514897 240.247411,191.78176 239.551435,191.780587 C237.92886,191.777654 236.696525,191.008739 235.783423,190.070323 L235.524632,189.798768 L231.39983,195.039824 Z" id="Fill-37" fill="#FCCE00"></path>
                <path d="M188.553467,151.536129 C188.553467,151.536129 182.588377,161.86868 182.010353,162.826452 C181.597814,163.510323 181.081994,165.611202 183.77494,165.611202 L190.626138,165.611202 L189.252964,163.75783 L183.346557,163.75783 L189.676066,153.022933 L188.553467,151.536129 Z" id="Fill-39" fill="#FCCE00"></path>
                <path d="M231.373481,151.517771 L232.649242,152.645044 L228.653541,165.705455 C228.653541,165.705455 230.295481,166.215132 235.514128,164.829795 C235.514128,164.829795 225.320368,170.120117 227.063242,164.592845 C228.726895,159.317771 229.076056,158.188152 231.373481,151.517771" id="Fill-41" fill="#FCCE00"></path>
                <path d="M263.525697,149.247331 C263.525697,149.247331 262.032224,154.209795 261.830356,154.905982 C261.691865,155.385161 261.239422,156.742346 263.305637,156.742346 L270.97135,156.742346 L269.700871,161.142346 L270.903865,162.589267 L273.132631,155.219179 L263.711721,155.219179 L264.97105,151.090733 L263.525697,149.247331 Z" id="Fill-43" fill="#FCCE00"></path>
                <path d="M259.935435,160.818299 C259.935435,160.818299 258.504165,165.671672 258.302297,166.368446 C258.163219,166.847038 257.710776,168.203636 259.776992,168.203636 L268.664477,168.203636 L267.395758,172.604809 L268.510141,174.051144 L270.738321,166.681056 L260.183075,166.681056 L261.380788,162.661701 L259.935435,160.818299 Z" id="Fill-45" fill="#FCCE00"></path>
                <path d="M188.607925,143.447507 L198.997098,143.442815 C198.997098,143.442815 200.874356,171.534897 200.892547,171.719062 C200.950643,172.298534 201.440056,172.832845 202.059158,172.893255 C202.059158,172.893255 199.004727,173.759531 198.757086,170.418768 C198.508859,167.077419 197.271242,145.175953 197.271242,145.175953 L187.520535,145.187683 L188.607925,143.447507 Z" id="Fill-47" fill="#FCCE00"></path>
                <path d="M157.625899,143.449853 L158.466822,145.173607 L165.926558,145.173607 C165.926558,145.173607 160.034235,163.709677 159.756079,164.546041 C159.477337,165.381232 160.157468,167.143695 161.922055,167.143695 L171.950917,167.143695 L170.806019,165.350147 L161.798822,165.350147 L168.550846,143.449853 L157.625899,143.449853 Z" id="Fill-49" fill="#FCCE00"></path>
                <path d="M176.168849,177.948563 L176.738071,178.772023 C176.738071,178.772023 183.250083,178.7861 186.093256,178.784927 C188.553232,178.782581 191.030813,181.31044 189.563747,184.979648 C189.563747,184.979648 191.258502,182.494018 190.384717,180.431848 C189.557879,178.482287 187.705268,178.095191 186.153699,178.028915 C184.305783,177.950909 176.168849,177.948563 176.168849,177.948563" id="Fill-51" fill="#FFE79E"></path>
                <path d="M163.806472,184.687683 C163.806472,184.687683 161.773705,187.55044 162.535406,189.716422 C163.297107,191.881818 166.758795,192.423167 169.199993,191.290616 L167.312759,195.769795 L168.3444,195.517595 L170.63537,189.681232 C170.63537,189.681232 168.627837,191.179179 166.342149,190.945748 C164.05822,190.711144 162.458532,188.843695 164.039442,186.209091 L163.806472,184.687683 Z" id="Fill-53" fill="#FFE79E"></path>
                <path d="M159.937702,181.228211 C159.565654,181.228211 157.405546,182.218827 157.405546,182.218827 C157.405546,182.218827 160.345546,181.764282 161.955798,181.764282" id="Fill-55" fill="#FFE79E"></path>
                <path d="M180.856007,148.054839 C180.222235,148.054839 176.945983,149.850147 176.945983,149.850147 C176.945983,149.850147 181.490953,148.792669 184.238474,148.792669" id="Fill-57" fill="#FCCE00"></path>
                <polygon id="Fill-59" fill="#FFE79E" points="178.210125 189.929619 177.740077 188.645748 175.372232 195.049267 176.013634 195.947214"></polygon>
                <path d="M183.64396,188.831085 L185.922607,195.281525 L187.205996,196.095015 C187.205996,196.095015 185.336954,190.454545 185.176164,190.083284 C184.874535,189.387683 183.64396,188.831085 183.64396,188.831085" id="Fill-61" fill="#FFE79E"></path>
                <path d="M180.414127,181.551202 C180.414127,181.551202 178.908917,185.367038 178.908917,186.007507 C178.908917,186.648563 178.962319,187.037419 180.491001,187.032727 C181.77439,187.029208 182.553696,186.155308 182.553696,186.155308 C182.553696,186.155308 180.44875,186.411613 179.721085,186.155308 L180.985109,182.441525 L180.414127,181.551202 Z" id="Fill-63" fill="#FFE79E"></path>
                <path d="M196.632071,183.660117 C196.632071,183.660117 193.536562,185.94868 194.030669,189.351026 C194.525951,192.754545 198.117328,192.135777 201.336657,190.898827 C201.336657,190.898827 198.735843,191.084164 197.869687,191.022581 C197.003532,190.961584 194.507759,190.599707 195.331663,187.309971 C195.518274,186.568622 196.476562,185.455425 196.476562,185.455425 L196.632071,183.660117 Z" id="Fill-65" fill="#FFE79E"></path>
                <path d="M194.430357,180.479003 C194.430357,180.479003 196.968968,178.37695 200.249914,177.942933 C203.53086,177.510088 208.483087,177.446745 210.526417,181.593372 L209.411447,181.84088 C209.411447,181.84088 207.369878,178.562287 201.921782,178.562287 C196.472513,178.562287 194.430357,180.479003 194.430357,180.479003" id="Fill-67" fill="#FFE79E"></path>
                <path d="M210.376072,177.961114 L210.712323,178.772258 L216.167461,178.784575 C216.167461,178.784575 214.62,188.996891 214.605329,189.573431 C214.566012,191.035015 216.081784,189.131202 216.081784,189.131202 C216.081784,189.131202 215.401653,189.6661 215.610563,188.505982 C215.692719,188.049677 217.247222,177.948798 217.247222,177.948798 L210.376072,177.961114 Z" id="Fill-69" fill="#FFE79E"></path>
                <path d="M222.912091,177.961114 L223.201983,178.772258 L226.846175,178.784575 C226.846175,178.784575 225.494127,188.996891 225.479456,189.573431 C225.440139,191.035015 226.955911,189.131202 226.955911,189.131202 C226.955911,189.131202 226.27578,189.6661 226.48469,188.505982 C226.566846,188.049677 227.925349,177.948798 227.925349,177.948798 L222.912091,177.961114 Z" id="Fill-71" fill="#FFE79E"></path>
                <polygon id="Fill-73" fill="#FFE79E" points="215.970992 196.132669 215.450477 195.167859 221.600417 185.258182 222.064596 186.093372"></polygon>
                <polygon id="Fill-75" fill="#FFE79E" points="226.861667 196.066217 226.460278 195.435132 236.131763 182.392317 236.017332 183.825161"></polygon>
                <path d="M233.602131,177.961114 L240.512011,177.95173 C240.512011,177.95173 238.064945,180.792786 238.581939,180.849091 C239.098346,180.907155 239.766154,180.589853 239.766154,180.589853 C239.766154,180.589853 237.252777,182.074897 237.711089,180.756422 C238.1694,179.437947 238.9534,178.749384 238.9534,178.749384 L234.10152,178.760528 L233.602131,177.961114 Z" id="Fill-77" fill="#FFE79E"></path>
                <path d="M240.438892,180.04827 C240.438892,180.04827 241.723455,178.652962 245.00088,178.018358 C247.879263,177.46176 251.071012,178.459413 252.081527,179.352082 L248.947287,183.44827 L248.622186,182.349736 L250.576317,179.757361 C250.576317,179.757361 246.748449,177.468798 240.438892,180.04827" id="Fill-79" fill="#FFE79E"></path>
                <path d="M242.635501,183.095425 C242.635501,183.095425 241.339201,184.320059 242.725285,184.932962 C244.047405,185.517126 245.15592,185.796305 246.593644,186.191613 C248.854686,186.812727 249.102914,190.000411 245.488063,193.842639 C245.488063,193.842639 248.093572,192.768152 249.01665,189.433842 C249.767201,186.723578 247.763189,185.582229 245.998602,185.16522 C244.805584,184.882522 242.725285,184.538827 243.094399,183.72651 L242.635501,183.095425 Z" id="Fill-81" fill="#FFE79E"></path>
                <polygon id="Fill-83" fill="#FCCE00" points="210.311932 143.447507 221.449309 143.447507 211.908099 174.027566 210.307824 172.653959 218.72174 145.170674 210.950986 145.156598"></polygon>
                <path d="M214.745229,61.2129619 C214.745229,61.2129619 211.86978,62.3689736 211.771193,64.1191202 C211.771193,64.1191202 210.259528,61.7402346 212.795205,59.8258651 L214.745229,61.2129619 Z" id="Fill-85" fill="#FEFEFE"></path>
                <path d="M173.948181,146.649267 C173.948181,146.649267 179.000756,143.447507 188.60769,143.447507 L189.912205,145.198827 C189.912205,145.198827 179.241354,144.978886 173.948181,146.649267" id="Fill-87" fill="#FCCE00"></path>
                <path d="M82.5081365,151.536129 C82.5081365,151.536129 76.5436335,161.86868 75.9650228,162.826452 C75.5524838,163.510323 75.0366635,165.611202 77.7290228,165.611202 L84.581394,165.611202 L83.2070467,163.75783 L77.3018132,163.75783 L83.6313222,153.022933 L82.5081365,151.536129 Z" id="Fill-89" fill="#FCCE00"></path>
                <path d="M82.562594,143.447507 L92.9517677,143.442815 C92.9517677,143.442815 94.829612,171.534897 94.8472168,171.719062 C94.9053126,172.298534 95.3947257,172.832845 96.0138275,172.893255 C96.0138275,172.893255 92.9599832,173.759531 92.7117557,170.418768 C92.4635281,167.077419 91.2259114,145.175953 91.2259114,145.175953 L81.4757916,145.187683 L82.562594,143.447507 Z" id="Fill-91" fill="#FCCE00"></path>
                <path d="M74.8112048,148.054839 C74.1762587,148.054839 70.900594,149.850147 70.900594,149.850147 C70.900594,149.850147 75.4455641,148.792669 78.1936719,148.792669" id="Fill-93" fill="#FCCE00"></path>
                <path d="M67.903085,146.649267 C67.903085,146.649267 72.9562467,143.447507 82.5620072,143.447507 L83.867109,145.198827 C83.867109,145.198827 73.1962587,144.978886 67.903085,146.649267" id="Fill-95" fill="#FCCE00"></path>
                <path d="M255.378904,143.43607 C255.651192,143.728152 255.907048,144.254839 255.776186,145.158065 L275.338042,145.158065 L273.966042,149.43607 L275.28112,151.219648 L277.678892,143.43607 L255.378904,143.43607 Z" id="Fill-97" fill="#FCCE00"></path>
                <path d="M141.251801,149.247331 C141.251801,149.247331 139.757741,154.209795 139.555873,154.905982 C139.417382,155.385161 138.964939,156.742346 141.031154,156.742346 L148.695693,156.742346 L147.426975,161.142346 L148.629969,162.589267 L150.858735,155.219179 L141.437238,155.219179 L142.696568,151.090733 L141.251801,149.247331 Z" id="Fill-99" fill="#FCCE00"></path>
                <path d="M137.661187,160.818299 C137.661187,160.818299 136.229331,165.671672 136.027462,166.368446 C135.888384,166.847038 135.435941,168.203636 137.502157,168.203636 L146.390229,168.203636 L145.12151,172.604809 L146.235307,174.051144 L148.464073,166.681056 L137.908828,166.681056 L139.105953,162.661701 L137.661187,160.818299 Z" id="Fill-101" fill="#FCCE00"></path>
                <path d="M133.104422,143.43607 C133.377296,143.728152 133.632565,144.254839 133.501703,145.158065 L153.064146,145.158065 L151.691559,149.43607 L153.007224,151.219648 L155.404996,143.43607 L133.104422,143.43607 Z" id="Fill-103" fill="#FCCE00"></path>
                <path d="M250.662522,149.463871 C248.256534,144.621642 242.493899,143.447449 237.467732,143.447449 L223.494223,143.447449 C223.774726,143.728387 224.051708,144.251554 223.927887,145.170616 L238.593265,145.170616 C245.09354,145.170616 251.790402,149.192317 250.469456,159.560645 C250.469456,159.560645 252.549756,153.261525 250.662522,149.463871" id="Fill-105" fill="#FCCE00"></path>
                <path d="M108.950532,151.421525 L110.225705,152.548798 L106.230592,165.607449 C106.230592,165.607449 107.872532,166.118886 113.090592,164.732375 C113.090592,164.732375 102.897418,170.023871 104.640292,164.495425 C106.303358,159.221525 106.653107,158.091906 108.950532,151.421525" id="Fill-107" fill="#FCCE00"></path>
                <path d="M128.239925,149.367625 C125.83335,144.524223 120.070715,143.351202 115.04396,143.351202 L101.071038,143.351202 C101.351541,143.633314 101.62911,144.155308 101.504703,145.07437 L116.170667,145.07437 C122.670356,145.07437 129.367218,149.094897 128.045685,159.464399 C128.045685,159.464399 130.126571,153.165279 128.239925,149.367625" id="Fill-109" fill="#FCCE00"></path>
                <path d="M175.126998,178.195953 L172.692842,185.26868 C171.936423,184.254604 170.842578,183.388915 169.24465,183.384223 C167.132662,183.379531 164.809417,184.977771 164.054171,186.998299 C163.29071,189.040528 164.530674,190.62176 166.642075,190.627038 C168.265824,190.63173 169.802135,189.96956 171.330818,188.913842 L168.531069,195.859883 C167.203668,196.374252 164.494291,196.589501 163.230854,196.587742 C157.692387,196.574839 154.902028,192.451085 156.879632,187.153138 C157.496387,185.503284 158.488123,183.954311 159.731022,182.599472 C157.700016,182.67044 155.036411,182.920293 155.036411,182.920293 C158.567345,180.820587 160.554926,180.499765 161.314279,180.46868 C156.140818,180.351965 153.37804,181.192434 153.37804,181.192434 C160.369489,177.82 166.478351,176.442287 172.466914,177.541994 C173.415225,177.666921 174.31659,177.889208 175.126998,178.195953 M161.314279,180.46868 L161.675764,180.478065 C161.675764,180.478065 161.558986,180.45871 161.314279,180.46868" id="Fill-111" fill="#FCCE00"></path>
                <path d="M172.588269,184.461994 L171.825395,183.037947 L173.290114,178.965806 C173.290114,178.965806 170.750916,178.243812 166.385515,178.60393 C161.371084,179.017419 156.238701,180.344106 156.238701,180.344106 C156.238701,180.344106 165.56924,175.598065 174.655659,178.423871 L172.588269,184.461994 Z" id="Fill-113" fill="#FFE79E"></path>
            </g>
        </g>
    </g>
</svg>